<svg xmlns="http://www.w3.org/2000/svg" xml:space="preserve" style="fill-rule:evenodd;clip-rule:evenodd;stroke-linejoin:round;stroke-miterlimit:2" viewBox="0 0 539 681"><path d="M10.105 586.584h77.579v78.025H10.105zM451.756 586.584h77.579v78.025h-77.579z" style="fill:#a093df"/><path d="M503.382 9.921H36.13c-14.282 0-25.961 11.679-25.961 25.961v467.226c0 14.281 11.679 25.961 25.961 25.961h467.252c14.273 0 25.953-11.68 25.953-25.961V35.882c0-14.282-11.68-25.961-25.953-25.961" style="fill:#a093de;fill-rule:nonzero"/><text style="font-family:&quot;Helvetica&quot;;font-size:90px;fill:#a093df" transform="translate(181.15 658.597)">T<tspan x="51.68px 81.65px" y="0px 0px">ru</tspan>st</text><path d="M212.831 401.741c-9.104 0-15.588-.375-15.588-.375v-45.652h15.498c17.188 0 28.152 4.765 28.152 20.593 0 13.442-4.75 25.434-28.062 25.434m.41-57.27h-28.562v109.157h12.564v-40.387h18.414c25.736 0 38.033-15.828 38.033-35.859 0-20.399-12.582-32.911-40.449-32.911M282.307 404.112h44.24v-11.725h-44.24v-36.826h51.234v-11.09h-63.789v107.153h65.936v-11.098h-53.381zM399.494 394.972v10.875h18.609v26.943c-5.697 8.471-20.963 8.471-20.963 8.471-11.625 0-20.996-3.998-27.828-12.092-6.779-8.056-10.205-16.722-10.205-29.744 0-13.682 3.391-24.189 10.268-32.596 6.957-8.416 16.615-13.074 28.625-13.074 6.152 0 12.762 1.895 19.201 5.848l7.762-8.692c-6.949-5.724-15.821-8.568-26.569-8.568-16.017 0-28.957 5.223-38.347 15.588-9.489 10.338-14.299 24.102-14.299 40.904 0 16.813 4.408 29.512 13.002 39.645 8.531 9.988 20.506 15.121 35.234 15.121 6.637 0 13.451-.625 20.543-2.844 5.463-1.726 7.342-3.121 15.524-3.121v-52.664zM157.538 344.472h-21.043v11.09h8.424v51.572c0 15.901.475 25.211-4.98 30.666-3.409 3.451-8.319 5.303-12.495 5.303-19.665 0-20.38-15.758-20.38-15.758H95c1.153 28.045 34.108 26.176 34.108 26.176 8.764-.465 15.704-3.354 21.106-8.781 7.154-7.209 7.324-20.543 7.324-31.668zM339.809 107.049H133.472v206.248h119.369v-86.808h86.968z" style="fill:#fff;fill-rule:nonzero"/><path d="M349.719 237.98h75.279v75.316h-75.279z" style="fill:#fff"/></svg>