<svg xmlns="http://www.w3.org/2000/svg" width="718.11" height="907.087" viewBox="0 0 538.583 680.315"><g fill="none"><path fill="#44c6f3" d="M10.105 586.584h77.579v78.025H10.105zM451.756 586.584h77.579v78.025h-77.579zM503.382 9.921H36.13c-14.282 0-25.961 11.68-25.961 25.961v467.226c0 14.281 11.679 25.961 25.96 25.961h467.253c14.273 0 25.953-11.68 25.953-25.96V35.881c0-14.282-11.68-25.96-25.953-25.96"/><text fill="#4fd1f6" transform="translate(10.169 571.597)">
        <tspan x="169.476" y="87" font-family="Helvetica" font-size="90" font-weight="500" textLength="45.054">2</tspan>
        <tspan x="214.529" y="87" font-family="Helvetica" font-size="90" font-weight="500" textLength="45.054">0</tspan>
        <tspan x="259.583" y="87" font-family="Helvetica" font-size="90" font-weight="500" textLength="45.054">0</tspan>
        <tspan x="304.637" y="87" font-family="Helvetica" font-size="90" font-weight="500" textLength="45.054">0</tspan>
      </text><path fill="#fff" d="M212.831 401.741c-9.104 0-15.588-.375-15.588-.375v-45.652h15.498c17.188 0 28.152 4.765 28.152 20.593 0 13.442-4.75 25.434-28.062 25.434m.41-57.27H184.68v109.157h12.564v-40.387h18.414c25.736 0 38.033-15.828 38.033-35.859 0-20.399-12.582-32.91-40.449-32.91M282.307 404.112h44.24v-11.725h-44.24v-36.826h51.234v-11.09h-63.79v107.153h65.937v-11.098h-53.381ZM399.494 394.972v10.875h18.61v26.943c-5.698 8.47-20.964 8.47-20.964 8.47-11.625 0-20.996-3.997-27.828-12.091-6.779-8.056-10.205-16.722-10.205-29.744 0-13.682 3.391-24.19 10.268-32.596 6.957-8.416 16.615-13.074 28.625-13.074 6.152 0 12.762 1.895 19.201 5.848l7.762-8.692c-6.949-5.724-15.82-8.568-26.569-8.568-16.017 0-28.957 5.223-38.347 15.588-9.489 10.338-14.299 24.102-14.299 40.904 0 16.813 4.408 29.512 13.002 39.645 8.531 9.988 20.506 15.12 35.234 15.12 6.637 0 13.451-.624 20.543-2.843 5.463-1.726 7.342-3.121 15.524-3.121v-52.664ZM144.919 344.472h-8.424v11.09h8.424v51.572c0 15.9.475 25.21-4.98 30.666-3.409 3.45-8.319 5.303-12.495 5.303-19.665 0-20.38-15.758-20.38-15.758H95c1.153 28.045 34.108 26.176 34.108 26.176 8.764-.465 15.704-3.354 21.106-8.781 7.154-7.21 7.324-20.543 7.324-31.668v-68.6ZM339.809 107.05H133.472v206.247H252.84V226.49h86.968ZM349.719 237.98h75.279v75.316h-75.279z"/></g></svg>