<?xml version="1.0" encoding="iso-8859-1"?>
<!-- Generator: Adobe Illustrator 19.0.0, SVG Export Plug-In . SVG Version: 6.00 Build 0)  -->
<svg version="1.1" id="Layer_1" xmlns="http://www.w3.org/2000/svg" xmlns:xlink="http://www.w3.org/1999/xlink" x="0px" y="0px"
	 viewBox="0 0 511.978 511.978" style="enable-background:new 0 0 511.978 511.978;" xml:space="preserve">
<rect y="0.008" style="fill:#E5E5E5;" width="417.9" height="298.226"/>
<polygon points="63.837,242.98 147.777,145.585 231.709,242.98 "/>
<polygon style="fill:#5eb4b2;" points="126.81,242.98 240.445,111.139 354.079,242.98 "/>
<circle style="fill:#666666;" cx="179.944" cy="83.22" r="27.919"/>
<rect x="466.908" y="426.054" transform="matrix(0.7396 -0.6731 0.6731 0.7396 -194.2493 442.6588)" style="fill:#5eb4b2;" width="15.992" height="92.591"/>
<path style="fill:#FFFFFF;" d="M391.542,461.322c-53.006-1.088-95.092-44.942-93.996-97.947
	c1.088-53.006,44.942-95.092,97.947-93.996c52.23,1.072,94.012,43.718,94.02,95.956C488.905,418.86,445.083,461.802,391.542,461.322
	z"/>
<path style="fill:#5eb4b2;" d="M391.542,277.355c48.59,1.088,87.092,41.366,85.996,89.948c-1.088,48.59-41.366,87.092-89.948,85.996
	c-47.806-1.072-86.004-40.134-86.02-87.948C302.178,316.233,342.424,276.867,391.542,277.355 M391.542,261.356
	c-57.421,1.088-103.091,48.526-102.003,105.955c1.088,57.421,48.526,103.091,105.955,102.003
	c56.645-1.08,102.011-47.302,102.019-103.955C496.961,307.369,449.523,260.812,391.542,261.356z"/>
</svg>
