<?xml version="1.0" encoding="iso-8859-1"?>
<!-- Generator: Adobe Illustrator 19.0.0, SVG Export Plug-In . SVG Version: 6.00 Build 0)  -->
<svg version="1.1" id="Layer_1" xmlns="http://www.w3.org/2000/svg" xmlns:xlink="http://www.w3.org/1999/xlink" x="0px" y="0px"
	 viewBox="0 0 512 512" style="enable-background:new 0 0 512 512;" xml:space="preserve">
<g>
	<g style="fill: #5eb4b2;">
		<path d="M505.459,237.483l-68.979-86.232c-5.655-7.07-14.091-11.125-23.145-11.125H29.64C13.296,140.126,0,153.423,0,169.769
			v172.463c0,16.345,13.296,29.642,29.64,29.642h383.696c9.054,0,17.49-4.055,23.145-11.125l68.979-86.232
			C514.181,263.614,514.181,248.386,505.459,237.483z M492.835,264.417l-68.979,86.232c-2.571,3.213-6.405,5.056-10.52,5.056h-91.38
			l64.944-81.188c8.721-10.903,8.721-26.133,0-37.034l-49.586-61.989c-2.79-3.487-7.876-4.053-11.362-1.262
			c-3.486,2.789-4.051,7.876-1.262,11.363l49.586,61.989c3.963,4.955,3.963,11.877,0,16.833l-68.979,86.232
			c-2.571,3.213-6.405,5.056-10.52,5.056H207.71l64.944-81.188c8.721-10.903,8.721-26.133,0-37.034l-49.166-61.464
			c-2.789-3.486-7.874-4.054-11.362-1.262c-3.487,2.789-4.051,7.876-1.262,11.363l49.166,61.464c3.963,4.955,3.963,11.877,0,16.833
			l-68.979,86.232c-2.571,3.213-6.405,5.056-10.52,5.056H89.153l64.944-81.188c8.722-10.903,8.722-26.133,0-37.034l-49.583-61.985
			c-2.79-3.487-7.876-4.053-11.362-1.262c-3.486,2.789-4.052,7.876-1.262,11.363l49.583,61.986c3.964,4.955,3.964,11.877,0,16.833
			L72.494,350.65c-2.571,3.212-6.406,5.055-10.52,5.055H29.64c-7.429,0-13.473-6.044-13.473-13.474V169.769
			c0-7.43,6.044-13.474,13.473-13.474h383.696c4.115,0,7.949,1.842,10.52,5.056l68.979,86.232
			C496.798,252.539,496.798,259.461,492.835,264.417z"/>
	</g>
</g>
<g>
</g>
<g>
</g>
<g>
</g>
<g>
</g>
<g>
</g>
<g>
</g>
<g>
</g>
<g>
</g>
<g>
</g>
<g>
</g>
<g>
</g>
<g>
</g>
<g>
</g>
<g>
</g>
<g>
</g>
</svg>
