<?xml version="1.0" encoding="iso-8859-1"?>
<!-- Generator: Adobe Illustrator 18.0.0, SVG Export Plug-In . SVG Version: 6.00 Build 0)  -->
<!DOCTYPE svg PUBLIC "-//W3C//DTD SVG 1.1//EN" "http://www.w3.org/Graphics/SVG/1.1/DTD/svg11.dtd">
<svg version="1.1" id="Capa_1" xmlns="http://www.w3.org/2000/svg" xmlns:xlink="http://www.w3.org/1999/xlink" x="0px" y="0px"
	 viewBox="0 0 484.157 484.157" style="enable-background:new 0 0 484.157 484.157;" xml:space="preserve">
<g style="fill:#5eb4b2">
	<path d="M151.63,118.864c0-8.007-5.555-12.782-15.359-12.782c-4.002,0-6.713,0.396-8.132,0.773v25.689
		c1.678,0.378,3.744,0.504,6.588,0.504C145.176,133.048,151.63,127.769,151.63,118.864z"/>
	<path d="M362.282,1.009H168.635c-28.289,0-51.316,23.041-51.316,51.314v5.5H20.678C9.259,57.823,0,67.076,0,78.503v113.301
		c0,11.426,9.259,20.676,20.678,20.676h96.641v219.353c0,28.306,23.026,51.315,51.316,51.315h264.222
		c28.273,0,51.299-23.01,51.299-51.315V122.458L362.282,1.009z M92.237,146.87c0,24.774-11.867,33.412-30.968,33.412
		c-4.516,0-10.45-0.773-14.318-2.064l2.19-15.871c2.711,0.898,6.194,1.545,10.064,1.545c8.258,0,13.419-3.736,13.419-17.289V91.898
		h19.613V146.87z M108.659,178.863V93.048c6.06-1.025,14.578-1.796,26.581-1.796c12.126,0,20.772,2.317,26.58,6.966
		c5.547,4.381,9.29,11.616,9.29,20.126c0,8.511-2.836,15.745-7.999,20.646c-6.713,6.32-16.642,9.158-28.257,9.158
		c-2.585,0-4.902-0.127-6.715-0.379v31.095H108.659z M432.857,451.722H168.635c-10.954,0-19.873-8.92-19.873-19.89V212.48h147.95
		c11.418,0,20.677-9.25,20.677-20.676V78.503c0-11.427-9.259-20.68-20.677-20.68h-147.95v-5.5c0-10.936,8.919-19.857,19.873-19.857
		l181.89-0.189V99.51c0,19.638,15.934,35.587,35.587,35.587l65.863-0.188l0.741,296.924
		C452.716,442.802,443.81,451.722,432.857,451.722z M227.673,163.892c4.516,0,8.124-0.506,9.676-1.293v-18.188h-13.419v-15.35
		h32.387v45.799c-6.068,2.064-17.549,4.902-29.03,4.902c-15.879,0-27.36-3.988-35.358-11.742
		c-7.999-7.485-12.388-18.834-12.262-31.616c0.134-28.904,21.166-45.421,49.684-45.421c11.221,0,19.867,2.207,24.129,4.256
		l-4.128,15.745c-4.775-2.065-10.717-3.735-20.26-3.735c-16.39,0-28.778,9.282-28.778,28.133
		C200.313,153.316,211.543,163.892,227.673,163.892z"/>
	<path d="M385.396,252.873H216.083c-7.85,0-14.209,6.368-14.209,14.2v128.699c0,7.834,6.358,14.2,14.209,14.2h169.313
		c7.848,0,14.207-6.366,14.207-14.2V267.073C399.603,259.241,393.244,252.873,385.396,252.873z M372.133,385.609
		c-1.301,2.474-3.877,4.018-6.691,4.018h-57.375c-2.719,0-5.248-1.45-6.579-3.813c-1.341-2.381-1.301-5.297,0.11-7.629
		l26.753-44.414c1.323-2.205,3.671-3.576,6.233-3.654c0.087,0,0.167,0,0.246,0c2.474,0,4.798,1.229,6.208,3.277l30.622,44.414
		C373.251,380.122,373.44,383.103,372.133,385.609z M358.673,266.349c13.806,0,24.996,11.175,24.996,24.982
		c0,13.805-11.189,24.98-24.996,24.98c-13.79,0-24.979-11.175-24.979-24.98C333.694,277.524,344.883,266.349,358.673,266.349z
		 M232.834,389.611c-2.726,0-5.24-1.465-6.58-3.83c-1.332-2.38-1.291-5.279,0.111-7.611l40.314-66.92
		c1.323-2.189,3.673-3.576,6.233-3.654c2.561-0.08,4.988,1.15,6.447,3.262l25.31,36.69l-14.365,23.845
		c-3.349,5.563-3.696,12.293-1.364,18.219H232.834z"/>
</g>
</svg>
