<?xml version="1.0" encoding="iso-8859-1"?>
<!-- Generator: Adobe Illustrator 19.0.0, SVG Export Plug-In . SVG Version: 6.00 Build 0)  -->
<svg version="1.1" id="Layer_1" xmlns="http://www.w3.org/2000/svg" xmlns:xlink="http://www.w3.org/1999/xlink" x="0px" y="0px"
	 viewBox="0 0 512 512" style="enable-background:new 0 0 512 512;" xml:space="preserve">
<path style="fill:#FFDC06;" d="M256,280.597c-26.075,28.714-63.762,46.661-105.567,46.661c-12.774,0-25.125-1.689-36.843-4.751
	c2.006-63.868,46.133-117.074,105.567-133.014C220.318,224.541,234.042,256.317,256,280.597z"/>
<path style="fill:#E7ECED;" d="M256,184.742c12.774,0,25.125,1.689,36.843,4.751c-1.161,35.048-14.885,66.824-36.843,91.104
	c-21.958-24.28-35.682-56.056-36.843-91.104C230.875,186.431,243.226,184.742,256,184.742z"/>
<path style="fill:#ED2D8F;" d="M292.948,184.742c0,1.583,0,3.167-0.106,4.751c-11.718-3.061-24.069-4.751-36.843-4.751
	c-12.774,0-25.125,1.689-36.843,4.751c-0.106-1.584-0.106-3.167-0.106-4.751c0-36.948,14.04-70.519,36.948-95.855
	C278.908,114.224,292.948,147.794,292.948,184.742z"/>
<path style="fill:#81D5D7;" d="M398.41,322.507c-11.718,3.061-24.069,4.751-36.843,4.751c-41.805,0-79.492-17.946-105.567-46.661
	c21.958-24.28,35.682-56.056,36.843-91.104C352.277,205.433,396.404,258.639,398.41,322.507z"/>
<path style="fill:#36C63F;" d="M361.567,327.258c12.774,0,25.125-1.689,36.843-4.751c0.106,1.583,0.106,3.167,0.106,4.751
	c0,78.753-63.762,142.515-142.515,142.515s-142.515-63.762-142.515-142.515c0-1.584,0-3.167,0.106-4.751
	c11.718,3.061,24.069,4.751,36.843,4.751c41.805,0,79.492-17.946,105.567-46.661C282.075,309.311,319.762,327.258,361.567,327.258z"
	/>
<path style="fill:#0071BC;" d="M361.567,42.227c78.753,0,142.515,63.762,142.515,142.515c0,65.979-44.76,121.508-105.673,137.765
	c-2.006-63.868-46.133-117.074-105.567-133.014c0.106-1.584,0.106-3.167,0.106-4.751c0-36.948-14.04-70.519-36.948-95.855
	C282.075,60.173,319.762,42.227,361.567,42.227z"/>
<path style="fill:#F23222;" d="M150.433,42.227c41.805,0,79.492,17.946,105.567,46.661c-22.908,25.336-36.948,58.906-36.948,95.855
	c0,1.583,0,3.167,0.106,4.751c-59.434,15.941-103.561,69.146-105.567,133.014C52.678,306.25,7.918,250.722,7.918,184.742
	C7.918,105.989,71.68,42.227,150.433,42.227z"/>
<path style="fill:#CB2D1E;" d="M44.866,195.299c0-69.963,56.717-126.68,126.68-126.68c29.699,0,56.951,10.295,78.551,27.409
	c1.921-2.421,3.832-4.851,5.902-7.142c-26.075-28.713-63.762-46.66-105.567-46.66c-78.753,0-142.515,63.762-142.515,142.515
	c0,65.979,44.76,121.508,105.673,137.765c0.15-4.759,0.605-9.436,1.211-14.065C73.365,287.616,44.866,244.835,44.866,195.299z"/>
<path style="fill:#2CB34A;" d="M398.41,322.507c-7.357,1.922-14.987,3.229-22.791,3.991
	c-9.759,60.263-61.879,106.326-124.897,106.326c-63.522,0-115.97-46.804-125.118-107.777c-4.062-0.706-8.085-1.515-12.014-2.541
	c-0.106,1.583-0.106,3.167-0.106,4.751c0,78.753,63.762,142.515,142.515,142.515s142.515-63.762,142.515-142.515
	C398.515,325.674,398.515,324.091,398.41,322.507z"/>
<path style="fill:#0C62A1;" d="M467.134,195.299c0-69.963-56.717-126.68-126.68-126.68c-29.699,0-56.951,10.295-78.551,27.409
	c-1.921-2.421-3.832-4.851-5.902-7.142c26.075-28.713,63.762-46.66,105.567-46.66c78.753,0,142.515,63.762,142.515,142.515
	c0,65.979-44.76,121.508-105.673,137.765c-0.15-4.759-0.605-9.436-1.211-14.065C438.635,287.616,467.134,244.835,467.134,195.299z"
	/>
<path d="M512,184.742c0-82.949-67.484-150.433-150.433-150.433c-39.556,0-77.564,15.639-105.567,43.166
	c-28.003-27.528-66.01-43.166-105.567-43.166C67.484,34.309,0,101.793,0,184.742C0,250.735,43.092,308.94,105.582,328.43
	C106.215,410.84,173.442,477.691,256,477.691s149.784-66.849,150.418-149.26C468.891,308.962,512,250.749,512,184.742z
	 M211.937,200.011c2.998,29.401,14.617,57.38,33.38,80.297c-25.091,24.885-59.286,39.031-94.885,39.031
	c-9.579,0-19.164-1.028-28.56-3.023c2.113-26.909,12.106-52.145,29.135-73.329C166.836,223.299,188.227,208.284,211.937,200.011z
	 M227.444,195.684c9.41-1.997,18.986-3.024,28.556-3.024c9.579,0,19.164,1.028,28.556,3.022
	c-2.157,26.486-12.12,51.805-28.556,72.65C239.562,247.481,229.601,222.165,227.444,195.684z M300.063,200.014
	c23.731,8.284,45.109,23.293,60.929,42.974c17.029,21.184,27.022,46.419,29.135,73.328c-9.412,1.997-18.989,3.024-28.56,3.024
	c-35.602,0-69.802-14.149-94.886-39.03C285.443,257.4,297.063,229.419,300.063,200.014z M227.075,179.596
	c1.087-28.604,11.206-56,28.925-78.446c17.718,22.445,27.838,49.84,28.924,78.443C265.844,175.938,246.211,175.932,227.075,179.596z
	 M15.835,184.742c0-74.218,60.38-134.598,134.598-134.598c35.596,0,69.789,14.144,94.882,39.027
	c-21.847,26.654-33.904,59.864-34.168,94.414c-28.277,8.883-53.836,26.286-72.48,49.482c-18.397,22.885-29.461,49.997-32.319,78.943
	C52.598,293.414,15.835,242.405,15.835,184.742z M256,461.856c-72.492,0-131.771-57.608-134.489-129.446
	c9.549,1.834,19.239,2.766,28.922,2.766c39.552,0,77.556-15.634,105.566-43.167c28.003,27.528,66.011,43.167,105.568,43.167
	c9.678,0,19.363-0.931,28.922-2.767C387.772,404.247,328.492,461.856,256,461.856z M405.652,312.012
	c-2.858-28.947-13.922-56.059-32.319-78.945c-18.636-23.185-44.179-40.581-72.48-49.479c-0.263-34.55-12.32-67.761-34.168-94.416
	c25.093-24.883,59.286-39.027,94.883-39.027c74.218,0,134.598,60.38,134.598,134.598
	C496.165,242.418,459.386,293.435,405.652,312.012z"/>
<g>
	<path style="fill:#FFFFFF;" d="M42.238,200.994c-1.594-30.285,3.159-72.547,34.857-101.895
		c19.189-17.768,39.169-22.206,40.009-22.387l3.318,15.485l-1.66-7.743l1.689,7.735c-0.169,0.038-17.156,3.95-33.175,19.069
		c-21.433,20.223-31.266,50.136-29.225,88.904L42.238,200.994z"/>
	<path style="fill:#FFFFFF;" d="M469.491,200.994l-15.812-0.833c2.041-38.768-7.793-68.681-29.226-88.904
		c-16.02-15.117-33.007-19.03-33.175-19.069l3.348-15.477c0.841,0.181,20.821,4.619,40.009,22.387
		C466.333,128.448,471.085,170.708,469.491,200.994z"/>
	<path style="fill:#FFFFFF;" d="M258.9,435.959c-14.036,0-26.459-2.766-36.479-6.201c-24.36-8.352-39.724-22.161-40.366-22.744
		l10.639-11.728c0.137,0.125,13.979,12.462,35.411,19.68c28.114,9.469,55.638,6.106,81.806-9.997l8.299,13.486
		C296.954,431.536,276.64,435.959,258.9,435.959z"/>
</g>
<g>
</g>
<g>
</g>
<g>
</g>
<g>
</g>
<g>
</g>
<g>
</g>
<g>
</g>
<g>
</g>
<g>
</g>
<g>
</g>
<g>
</g>
<g>
</g>
<g>
</g>
<g>
</g>
<g>
</g>
</svg>
