<?xml version="1.0" encoding="iso-8859-1"?>
<!-- Generator: Adobe Illustrator 16.0.0, SVG Export Plug-In . SVG Version: 6.00 Build 0)  -->
<!DOCTYPE svg PUBLIC "-//W3C//DTD SVG 1.1//EN" "http://www.w3.org/Graphics/SVG/1.1/DTD/svg11.dtd">
<svg version="1.1" id="Capa_1" xmlns="http://www.w3.org/2000/svg" xmlns:xlink="http://www.w3.org/1999/xlink" x="0px" y="0px"
	 width="962.547px" height="962.546px" viewBox="0 0 962.547 962.546" style="enable-background:new 0 0 962.547 962.546;"
	 xml:space="preserve">
<g>
	<g style="fill: #5eb4b2;">
		<path d="M315.571,896.423h-32c-17.9,17.6-37.5,32.3-58.9,44.2h90.9c5.5,0,10-4.5,10-10v-24.2
			C325.571,900.923,321.071,896.423,315.571,896.423z"/>
		<path d="M503.071,896.423h-122c-5.5,0-10,4.5-10,10v24.2c0,5.5,4.5,10,10,10h122c5.5,0,10-4.5,10-10v-24.2
			C513.071,900.923,508.571,896.423,503.071,896.423z"/>
		<path d="M690.571,896.423h-122c-5.5,0-10,4.5-10,10v24.2c0,5.5,4.5,10,10,10h122c5.5,0,10-4.5,10-10v-24.2
			C700.571,900.923,696.071,896.423,690.571,896.423z"/>
		<path d="M878.071,896.423h-122c-5.5,0-10,4.5-10,10v24.2c0,5.5,4.5,10,10,10h122c5.5,0,10-4.5,10-10v-24.2
			C888.071,900.923,883.571,896.423,878.071,896.423z"/>
		<path d="M316.171,792.324c66.101-128.4,86.601-162.301,113.101-181.5l-58.7-58.7l-369.1,369.1c-2.7,2.7-1.5,7.3,2.1,8.3
			c13.6,3.9,43.6,11.101,81,11.101c29.8,0,64.3-4.601,99-18.9c15.3-6.3,30.7-14.6,45.7-25.2
			C261.071,873.824,291.271,840.624,316.171,792.324z"/>
		<path d="M901.371,37.624c-10.5-10.5-24.2-15.7-37.899-15.7c-13.7,0-27.4,5.2-37.801,15.7l-448.3,448.3
			c-6.399,6.4-6.399,16.8,0,23.2l27.4,27.399l45.8-45.8l130.9-130.9l106-106c0.699-0.7,1.3-1.3,2-1.8c0.1-0.1,0.3-0.2,0.399-0.3
			c0.3-0.3,0.7-0.5,1.101-0.8c10.899-7.8,26-6.8,35.8,2.9l3.899,3.9c8.601,8.6,10.4,21.6,5.301,32c-1.301,2.6-3.101,5.1-5.301,7.3
			l-141.3,141.2l-98.1,98.101l-43.3,43.3l27.399,27.399c3.2,3.2,7.4,4.801,11.601,4.801c4.199,0,8.399-1.601,11.6-4.801l448.3-448.3
			c20.9-20.9,20.9-54.8,0-75.7L901.371,37.624z"/>
	</g>
</g>
<g>
</g>
<g>
</g>
<g>
</g>
<g>
</g>
<g>
</g>
<g>
</g>
<g>
</g>
<g>
</g>
<g>
</g>
<g>
</g>
<g>
</g>
<g>
</g>
<g>
</g>
<g>
</g>
<g>
</g>
</svg>
