<?xml version="1.0" encoding="UTF-8"?>
<!DOCTYPE svg PUBLIC "-//W3C//DTD SVG 1.1//EN" "http://www.w3.org/Graphics/SVG/1.1/DTD/svg11.dtd">
<svg xmlns="http://www.w3.org/2000/svg" version="1.1" width="256px" height="256px" style="shape-rendering:geometricPrecision; text-rendering:geometricPrecision; image-rendering:optimizeQuality; fill-rule:evenodd; clip-rule:evenodd" xmlns:xlink="http://www.w3.org/1999/xlink">
<g><path style="opacity:0.993" fill="#84f5fe" d="M 151.5,36.5 C 150.732,37.2625 150.232,38.2625 150,39.5C 149.751,38.376 149.251,37.376 148.5,36.5C 146.287,38.7739 143.621,40.2739 140.5,41C 132.832,42.2634 125.499,41.2634 118.5,38C 116.258,36.2297 114.592,34.0631 113.5,31.5C 123.054,23.8774 133.387,22.7107 144.5,28C 147.423,30.4162 149.757,33.2496 151.5,36.5 Z"/></g>
<g><path style="opacity:1" fill="#68e8fe" d="M 175.5,17.5 C 189.004,17.1625 194.17,23.4958 191,36.5C 185.525,43.0374 179.025,44.204 171.5,40C 164.147,30.9308 165.481,23.4308 175.5,17.5 Z"/></g>
<g><path style="opacity:1" fill="#58eefe" d="M 113.5,31.5 C 114.592,34.0631 116.258,36.2297 118.5,38C 125.499,41.2634 132.832,42.2634 140.5,41C 143.621,40.2739 146.287,38.7739 148.5,36.5C 149.251,37.376 149.751,38.376 150,39.5C 150.232,38.2625 150.732,37.2625 151.5,36.5C 152.91,48.1206 148.244,56.4539 137.5,61.5C 137.389,60.8826 137.056,60.3826 136.5,60C 139.167,58 141.833,56 144.5,54C 129.7,56.443 116.533,52.943 105,43.5C 103.608,45.8418 102.775,45.8418 102.5,43.5C 105.458,38.8744 109.124,34.8744 113.5,31.5 Z"/></g>
<g><path style="opacity:0.974" fill="#35e8ff" d="M 102.5,43.5 C 102.775,45.8418 103.608,45.8418 105,43.5C 116.533,52.943 129.7,56.443 144.5,54C 141.833,56 139.167,58 136.5,60C 137.056,60.3826 137.389,60.8826 137.5,61.5C 129.366,65.0452 121.366,68.8785 113.5,73C 108.833,76.3333 104.833,80.3333 101.5,85C 100.833,85.6667 100.167,85.6667 99.5,85C 97.3538,82.2052 96.1872,79.0386 96,75.5C 94.0782,63.8747 96.2449,53.2081 102.5,43.5 Z"/></g>
<g><path style="opacity:0.986" fill="#acfdfe" d="M 176.5,67.5 C 159.672,72.3885 144.339,80.2218 130.5,91C 127.315,93.884 124.482,97.0507 122,100.5C 121.79,98.9419 121.29,97.6085 120.5,96.5C 120.687,94.4357 121.187,92.4357 122,90.5C 124.19,86.7781 126.356,83.1114 128.5,79.5C 142.941,69.5565 158.941,65.5565 176.5,67.5 Z"/></g>
<g><path style="opacity:0.997" fill="#bdfefe" d="M 176.5,67.5 C 184.309,69.2165 189.976,73.5498 193.5,80.5C 192.71,81.6085 192.21,82.9419 192,84.5C 191.749,82.567 191.249,80.7337 190.5,79C 183.821,77.8492 177.488,78.8492 171.5,82C 161.041,88.9591 152.041,97.4591 144.5,107.5C 143.5,107.833 142.833,108.5 142.5,109.5C 126.288,120.294 118.954,115.96 120.5,96.5C 121.29,97.6085 121.79,98.9419 122,100.5C 124.482,97.0507 127.315,93.884 130.5,91C 144.339,80.2218 159.672,72.3885 176.5,67.5 Z"/></g>
<g><path style="opacity:1" fill="#34f6fd" d="M 86.5,79.5 C 85.8501,79.1961 85.1835,78.8627 84.5,78.5C 78.1146,81.6761 71.4479,82.6761 64.5,81.5C 64.6633,83.8568 64.4966,86.1902 64,88.5C 63.79,86.9419 63.29,85.6085 62.5,84.5C 63.7547,70.7143 70.7547,66.2143 83.5,71C 85.4971,73.4916 86.4971,76.325 86.5,79.5 Z"/></g>
<g><path style="opacity:1" fill="#01c3e8" d="M 41.5,82.5 C 35.8704,90.0546 29.537,97.2213 22.5,104C 17.3266,108.587 11.3266,111.587 4.5,113C 3.80945,114.067 3.30945,115.234 3,116.5C 2.58309,115.244 1.74975,114.577 0.5,114.5C 0.737305,113.209 0.403972,112.209 -0.5,111.5C -0.5,107.5 -0.5,103.5 -0.5,99.5C 7.65584,79.4227 21.6558,73.756 41.5,82.5 Z"/></g>
<g><path style="opacity:0.999" fill="#6281f0" d="M 254.5,98.5 C 236.502,106.176 222.835,101.343 213.5,84C 216.097,83.2208 216.097,82.7208 213.5,82.5C 215.493,80.8368 217.826,79.6701 220.5,79C 237.497,75.9899 248.831,82.4899 254.5,98.5 Z"/></g>
<g><path style="opacity:1" fill="#aef0fc" d="M 193.5,80.5 C 194.4,83.0972 193.733,85.4306 191.5,87.5C 183.514,94.1531 175.847,101.153 168.5,108.5C 163.015,110.773 157.348,112.439 151.5,113.5C 148.547,112.213 146.214,110.213 144.5,107.5C 152.041,97.4591 161.041,88.9591 171.5,82C 177.488,78.8492 183.821,77.8492 190.5,79C 191.249,80.7337 191.749,82.567 192,84.5C 192.21,82.9419 192.71,81.6085 193.5,80.5 Z"/></g>
<g><path style="opacity:0.992" fill="#5a7eef" d="M 213.5,82.5 C 216.097,82.7208 216.097,83.2208 213.5,84C 222.835,101.343 236.502,106.176 254.5,98.5C 254.5,99.1667 254.833,99.5 255.5,99.5C 255.5,103.167 255.5,106.833 255.5,110.5C 250.032,109.726 244.532,110.059 239,111.5C 222.91,110.135 212.077,102.468 206.5,88.5C 208.239,85.7573 210.573,83.7573 213.5,82.5 Z"/></g>
<g><path style="opacity:0.995" fill="#00b4e9" d="M 41.5,82.5 C 46.5334,85.2019 50.2,89.2019 52.5,94.5C 51.9694,95.7954 50.6361,96.4621 48.5,96.5C 48.6495,97.552 48.4828,98.552 48,99.5C 42.2869,105.054 36.4535,110.554 30.5,116C 22.7845,119.929 14.7845,123.429 6.5,126.5C 4.32195,122.662 2.32195,118.662 0.5,114.5C 1.74975,114.577 2.58309,115.244 3,116.5C 3.30945,115.234 3.80945,114.067 4.5,113C 11.3266,111.587 17.3266,108.587 22.5,104C 29.537,97.2213 35.8704,90.0546 41.5,82.5 Z"/></g>
<g><path style="opacity:0.941" fill="#07e5fe" d="M 86.5,79.5 C 84.6803,84.4789 82.8469,89.4789 81,94.5C 80.8814,99.2824 80.2148,103.949 79,108.5C 68.2886,104.076 62.7886,96.0757 62.5,84.5C 63.29,85.6085 63.79,86.9419 64,88.5C 64.4966,86.1902 64.6633,83.8568 64.5,81.5C 71.4479,82.6761 78.1146,81.6761 84.5,78.5C 85.1835,78.8627 85.8501,79.1961 86.5,79.5 Z"/></g>
<g><path style="opacity:0.996" fill="#4f7aee" d="M 206.5,88.5 C 212.077,102.468 222.91,110.135 239,111.5C 244.532,110.059 250.032,109.726 255.5,110.5C 255.5,110.833 255.5,111.167 255.5,111.5C 254.113,115.275 252.446,118.942 250.5,122.5C 235.721,125.171 222.055,122.005 209.5,113C 205.915,109.238 202.248,105.738 198.5,102.5C 200.676,97.4722 203.343,92.8056 206.5,88.5 Z"/></g>
<g><path style="opacity:0.99" fill="#00a7e9" d="M 52.5,94.5 C 54.7737,98.7136 56.7737,103.047 58.5,107.5C 56.2417,107.775 55.9084,108.775 57.5,110.5C 51.3856,114.449 45.7189,118.949 40.5,124C 33.4455,128.194 26.1122,131.861 18.5,135C 15.854,135.497 13.1873,135.664 10.5,135.5C 8.40821,132.912 7.07488,129.912 6.5,126.5C 14.7845,123.429 22.7845,119.929 30.5,116C 36.4535,110.554 42.2869,105.054 48,99.5C 48.4828,98.552 48.6495,97.552 48.5,96.5C 50.6361,96.4621 51.9694,95.7954 52.5,94.5 Z"/></g>
<g><path style="opacity:0.994" fill="#0ef0fe" d="M 128.5,79.5 C 126.356,83.1114 124.19,86.7781 122,90.5C 121.187,92.4357 120.687,94.4357 120.5,96.5C 118.954,115.96 126.288,120.294 142.5,109.5C 140.445,111.555 138.779,113.888 137.5,116.5C 134.512,120.462 131.512,124.462 128.5,128.5C 115.829,128.333 103.162,128.5 90.5,129C 89.5399,130.419 88.7065,131.919 88,133.5C 87.5172,132.552 87.3505,131.552 87.5,130.5C 94.6292,115.738 103.629,102.238 114.5,90C 118.761,85.8985 123.428,82.3985 128.5,79.5 Z"/></g>
<g><path style="opacity:1" fill="#4375ed" d="M 198.5,102.5 C 202.248,105.738 205.915,109.238 209.5,113C 222.055,122.005 235.721,125.171 250.5,122.5C 248.107,128.953 245.44,135.286 242.5,141.5C 241.662,141.158 241.328,140.492 241.5,139.5C 241.421,138.07 241.754,136.736 242.5,135.5C 223.409,135.701 207.575,128.701 195,114.5C 194.667,115.167 194.333,115.833 194,116.5C 193.601,116.272 193.435,115.938 193.5,115.5C 194.889,111.056 196.556,106.723 198.5,102.5 Z"/></g>
<g><path style="opacity:0.992" fill="#02d5fc" d="M 144.5,107.5 C 146.214,110.213 148.547,112.213 151.5,113.5C 144.169,129.156 136.002,144.49 127,159.5C 123.701,169.179 119.867,178.679 115.5,188C 116.056,188.383 116.389,188.883 116.5,189.5C 113.767,195.298 110.767,200.965 107.5,206.5C 106.761,206.631 106.094,206.464 105.5,206C 108.156,194.743 111.322,183.576 115,172.5C 122.205,156.395 129.705,140.395 137.5,124.5C 138.383,121.963 138.383,119.297 137.5,116.5C 138.779,113.888 140.445,111.555 142.5,109.5C 142.833,108.5 143.5,107.833 144.5,107.5 Z"/></g>
<g><path style="opacity:1" fill="#04defd" d="M 168.5,108.5 C 165.785,111.214 163.451,114.214 161.5,117.5C 160.504,117.414 159.671,117.748 159,118.5C 146.444,134.945 135.944,152.611 127.5,171.5C 123.833,177.5 120.167,183.5 116.5,189.5C 116.389,188.883 116.056,188.383 115.5,188C 119.867,178.679 123.701,169.179 127,159.5C 136.002,144.49 144.169,129.156 151.5,113.5C 157.348,112.439 163.015,110.773 168.5,108.5 Z"/></g>
<g><path style="opacity:1" fill="#3a72eb" d="M 241.5,139.5 C 240.609,140.261 239.942,141.261 239.5,142.5C 220.573,143.289 204.406,136.955 191,123.5C 190.583,124.756 189.75,125.423 188.5,125.5C 189.797,121.917 191.463,118.584 193.5,115.5C 193.435,115.938 193.601,116.272 194,116.5C 194.333,115.833 194.667,115.167 195,114.5C 207.575,128.701 223.409,135.701 242.5,135.5C 241.754,136.736 241.421,138.07 241.5,139.5 Z"/></g>
<g><path style="opacity:0.991" fill="#009be9" d="M 58.5,107.5 C 61.5,114.167 64.5,120.833 67.5,127.5C 66.0695,127.421 64.7362,127.754 63.5,128.5C 60.1594,131.245 56.8261,134.078 53.5,137C 49.8556,136.31 46.8556,137.644 44.5,141C 39.6231,141.272 35.2898,142.939 31.5,146C 26.1676,146.947 20.8343,147.78 15.5,148.5C 13.5558,144.277 11.8892,139.944 10.5,135.5C 13.1873,135.664 15.854,135.497 18.5,135C 26.1122,131.861 33.4455,128.194 40.5,124C 45.7189,118.949 51.3856,114.449 57.5,110.5C 55.9084,108.775 56.2417,107.775 58.5,107.5 Z"/></g>
<g><path style="opacity:0.993" fill="#0092e9" d="M 67.5,127.5 C 69.1641,131.496 70.8307,135.496 72.5,139.5C 69.9887,142.543 66.6554,144.043 62.5,144C 59.0647,147.819 54.7314,149.485 49.5,149C 44.9394,152.871 39.606,154.538 33.5,154C 29.05,156.775 24.3834,157.942 19.5,157.5C 18.4388,154.378 17.1054,151.378 15.5,148.5C 20.8343,147.78 26.1676,146.947 31.5,146C 35.2898,142.939 39.6231,141.272 44.5,141C 46.8556,137.644 49.8556,136.31 53.5,137C 56.8261,134.078 60.1594,131.245 63.5,128.5C 64.7362,127.754 66.0695,127.421 67.5,127.5 Z"/></g>
<g><path style="opacity:0.993" fill="#03eefe" d="M 128.5,128.5 C 122.583,137.331 116.917,146.331 111.5,155.5C 100.145,151.888 88.4779,150.554 76.5,151.5C 76.5,150.5 76.5,149.5 76.5,148.5C 80.1667,142.5 83.8333,136.5 87.5,130.5C 87.3505,131.552 87.5172,132.552 88,133.5C 88.7065,131.919 89.5399,130.419 90.5,129C 103.162,128.5 115.829,128.333 128.5,128.5 Z"/></g>
<g><path style="opacity:0.995" fill="#306dea" d="M 241.5,139.5 C 241.328,140.492 241.662,141.158 242.5,141.5C 240.168,146.828 237.835,152.162 235.5,157.5C 217.261,156.027 201.095,149.36 187,137.5C 186.667,136.5 186.333,135.5 186,134.5C 185.502,136.544 184.335,137.878 182.5,138.5C 184.774,134.286 186.774,129.953 188.5,125.5C 189.75,125.423 190.583,124.756 191,123.5C 204.406,136.955 220.573,143.289 239.5,142.5C 239.942,141.261 240.609,140.261 241.5,139.5 Z"/></g>
<g><path style="opacity:0.997" fill="#008ce9" d="M 72.5,139.5 C 74.1054,142.378 75.4388,145.378 76.5,148.5C 76.5,149.5 76.5,150.5 76.5,151.5C 74.5879,153.657 72.9213,155.991 71.5,158.5C 71.0296,157.307 70.0296,156.64 68.5,156.5C 64.9634,156.935 61.9634,158.435 59.5,161C 55.8333,161.333 52.1667,161.667 48.5,162C 44.9829,163.924 41.3163,165.591 37.5,167C 32.9661,167.334 28.6328,167.501 24.5,167.5C 22.866,164.232 21.1993,160.899 19.5,157.5C 24.3834,157.942 29.05,156.775 33.5,154C 39.606,154.538 44.9394,152.871 49.5,149C 54.7314,149.485 59.0647,147.819 62.5,144C 66.6554,144.043 69.9887,142.543 72.5,139.5 Z"/></g>
<g><path style="opacity:1" fill="#00cafd" d="M 170.5,134.5 C 173.167,138.5 175.833,142.5 178.5,146.5C 180.436,153.038 183.436,159.038 187.5,164.5C 190.483,171.802 194.483,178.469 199.5,184.5C 188.143,184.905 177.143,187.239 166.5,191.5C 166.5,190.833 166.167,190.5 165.5,190.5C 160.836,183.331 156.836,175.831 153.5,168C 158.025,155.438 163.691,144.272 170.5,134.5 Z"/></g>
<g><path style="opacity:1" fill="#0192f3" d="M 161.5,117.5 C 162.167,118.833 162.833,120.167 163.5,121.5C 157.327,132.524 151.327,143.691 145.5,155C 146.517,156.049 146.684,157.216 146,158.5C 143.59,164.318 140.923,169.985 138,175.5C 136.57,178.353 135.737,181.353 135.5,184.5C 132.833,180.167 130.167,175.833 127.5,171.5C 135.944,152.611 146.444,134.945 159,118.5C 159.671,117.748 160.504,117.414 161.5,117.5 Z"/></g>
<g><path style="opacity:1" fill="#2469e9" d="M 235.5,157.5 C 233.011,162.995 230.345,168.328 227.5,173.5C 213.921,173.563 201.088,170.229 189,163.5C 188.235,163.57 187.735,163.903 187.5,164.5C 183.436,159.038 180.436,153.038 178.5,146.5C 180.341,144.151 181.674,141.485 182.5,138.5C 184.335,137.878 185.502,136.544 186,134.5C 186.333,135.5 186.667,136.5 187,137.5C 201.095,149.36 217.261,156.027 235.5,157.5 Z"/></g>
<g><path style="opacity:1" fill="#00e9fe" d="M 111.5,155.5 C 108.752,160.666 105.752,165.666 102.5,170.5C 102.068,171.71 101.401,172.71 100.5,173.5C 89.0801,171.492 77.7468,169.825 66.5,168.5C 68.1373,165.183 69.8039,161.85 71.5,158.5C 72.9213,155.991 74.5879,153.657 76.5,151.5C 88.4779,150.554 100.145,151.888 111.5,155.5 Z"/></g>
<g><path style="opacity:0.997" fill="#0086e8" d="M 71.5,158.5 C 69.8039,161.85 68.1373,165.183 66.5,168.5C 63.6654,172.164 61.332,176.164 59.5,180.5C 49.0738,190.149 39.0738,189.816 29.5,179.5C 27.8346,175.505 26.1679,171.505 24.5,167.5C 28.6328,167.501 32.9661,167.334 37.5,167C 41.3163,165.591 44.9829,163.924 48.5,162C 52.1667,161.667 55.8333,161.333 59.5,161C 61.9634,158.435 64.9634,156.935 68.5,156.5C 70.0296,156.64 71.0296,157.307 71.5,158.5 Z"/></g>
<g><path style="opacity:1" fill="#00a6f7" d="M 163.5,121.5 C 165.341,123.849 166.674,126.515 167.5,129.5C 160.477,139.706 154.477,150.54 149.5,162C 150.573,163.313 151.24,164.813 151.5,166.5C 148.776,173.833 145.942,181.167 143,188.5C 141.961,189.71 140.794,190.71 139.5,191.5C 137.929,189.365 136.596,187.032 135.5,184.5C 135.737,181.353 136.57,178.353 138,175.5C 140.923,169.985 143.59,164.318 146,158.5C 146.684,157.216 146.517,156.049 145.5,155C 151.327,143.691 157.327,132.524 163.5,121.5 Z"/></g>
<g><path style="opacity:0.996" fill="#1d67e8" d="M 227.5,173.5 C 227.293,176.241 226.293,178.574 224.5,180.5C 217.145,188.068 208.812,189.401 199.5,184.5C 194.483,178.469 190.483,171.802 187.5,164.5C 187.735,163.903 188.235,163.57 189,163.5C 201.088,170.229 213.921,173.563 227.5,173.5 Z"/></g>
<g><path style="opacity:0.989" fill="#00b2fa" d="M 167.5,129.5 C 169.25,130.659 170.25,132.326 170.5,134.5C 163.691,144.272 158.025,155.438 153.5,168C 156.836,175.831 160.836,183.331 165.5,190.5C 162.884,191.743 160.551,193.41 158.5,195.5C 158.167,194.833 157.833,194.167 157.5,193.5C 155.361,196.594 152.694,199.261 149.5,201.5C 149.167,202.167 148.833,202.833 148.5,203.5C 149.378,206.13 150.045,208.797 150.5,211.5C 146.329,205.162 142.663,198.496 139.5,191.5C 140.794,190.71 141.961,189.71 143,188.5C 145.942,181.167 148.776,173.833 151.5,166.5C 151.24,164.813 150.573,163.313 149.5,162C 154.477,150.54 160.477,139.706 167.5,129.5 Z"/></g>
<g><path style="opacity:1" fill="#00e3fc" d="M 66.5,168.5 C 77.7468,169.825 89.0801,171.492 100.5,173.5C 98.4335,177.966 96.1002,182.299 93.5,186.5C 82.7165,183.777 71.7165,182.277 60.5,182C 59.944,181.617 59.6107,181.117 59.5,180.5C 61.332,176.164 63.6654,172.164 66.5,168.5 Z"/></g>
<g><path style="opacity:1" fill="#00baf7" d="M 97.5,223.5 C 96.2195,226.447 94.2195,228.781 91.5,230.5C 89.3523,230.611 89.019,229.944 90.5,228.5C 87.9557,227.063 87.9557,225.563 90.5,224C 88.4105,220.429 88.4105,216.763 90.5,213C 89.9014,207.401 89.9014,202.068 90.5,197C 89.9558,196.283 89.2891,195.783 88.5,195.5C 90.4203,192.661 92.0869,189.661 93.5,186.5C 96.1002,182.299 98.4335,177.966 100.5,173.5C 101.401,172.71 102.068,171.71 102.5,170.5C 105.065,170.845 106.899,169.512 108,166.5C 107.528,171.587 106.028,176.42 103.5,181C 103.957,181.414 104.291,181.914 104.5,182.5C 102.102,187.888 101.102,193.388 101.5,199C 101.023,201.899 100.023,204.566 98.5,207C 99.2453,209.571 99.5787,212.071 99.5,214.5C 98.877,217.167 97.877,219.667 96.5,222C 97.056,222.383 97.3893,222.883 97.5,223.5 Z"/></g>
<g><path style="opacity:1" fill="#00c6f9" d="M 137.5,116.5 C 138.383,119.297 138.383,121.963 137.5,124.5C 129.705,140.395 122.205,156.395 115,172.5C 111.322,183.576 108.156,194.743 105.5,206C 106.094,206.464 106.761,206.631 107.5,206.5C 104.404,212.367 101.071,218.033 97.5,223.5C 97.3893,222.883 97.056,222.383 96.5,222C 97.877,219.667 98.877,217.167 99.5,214.5C 99.5787,212.071 99.2453,209.571 98.5,207C 100.023,204.566 101.023,201.899 101.5,199C 101.102,193.388 102.102,187.888 104.5,182.5C 104.291,181.914 103.957,181.414 103.5,181C 106.028,176.42 107.528,171.587 108,166.5C 106.899,169.512 105.065,170.845 102.5,170.5C 105.752,165.666 108.752,160.666 111.5,155.5C 116.917,146.331 122.583,137.331 128.5,128.5C 131.512,124.462 134.512,120.462 137.5,116.5 Z"/></g>
<g><path style="opacity:0.995" fill="#01c4fd" d="M 224.5,180.5 C 222.113,186.942 219.446,193.276 216.5,199.5C 215.624,199.631 214.957,199.298 214.5,198.5C 215.167,197.167 215.833,195.833 216.5,194.5C 216,194.167 215.5,193.833 215,193.5C 211.506,195.645 207.84,195.978 204,194.5C 193.233,195.045 182.733,197.045 172.5,200.5C 170.265,197.709 168.265,194.709 166.5,191.5C 177.143,187.239 188.143,184.905 199.5,184.5C 208.812,189.401 217.145,188.068 224.5,180.5 Z"/></g>
<g><path style="opacity:1" fill="#00d9fc" d="M 29.5,179.5 C 39.0738,189.816 49.0738,190.149 59.5,180.5C 59.6107,181.117 59.944,181.617 60.5,182C 71.7165,182.277 82.7165,183.777 93.5,186.5C 92.0869,189.661 90.4203,192.661 88.5,195.5C 87.1667,197.5 85.8333,199.5 84.5,201.5C 71.298,199.164 57.9646,197.997 44.5,198C 43.0337,197.365 41.7003,196.531 40.5,195.5C 39.787,197.435 38.787,197.768 37.5,196.5C 34.5944,191.019 31.9278,185.352 29.5,179.5 Z"/></g>
<g><path style="opacity:0.997" fill="#00bdfc" d="M 216.5,199.5 C 214.739,204.018 212.739,208.351 210.5,212.5C 209.272,210.99 209.272,209.49 210.5,208C 208.246,206.623 206.08,205.123 204,203.5C 192.416,212.358 181.916,211.358 172.5,200.5C 182.733,197.045 193.233,195.045 204,194.5C 207.84,195.978 211.506,195.645 215,193.5C 215.5,193.833 216,194.167 216.5,194.5C 215.833,195.833 215.167,197.167 214.5,198.5C 214.957,199.298 215.624,199.631 216.5,199.5 Z"/></g>
<g><path style="opacity:0.987" fill="#00cffa" d="M 84.5,201.5 C 74.5069,214.568 63.0069,215.901 50,205.5C 48.3697,206.713 46.5364,207.546 44.5,208C 45.985,209.756 45.6516,210.923 43.5,211.5C 41.2232,206.613 39.2232,201.613 37.5,196.5C 38.787,197.768 39.787,197.435 40.5,195.5C 41.7003,196.531 43.0337,197.365 44.5,198C 57.9646,197.997 71.298,199.164 84.5,201.5 Z"/></g>
<g><path style="opacity:0.996" fill="#01b2f6" d="M 88.5,195.5 C 89.2891,195.783 89.9558,196.283 90.5,197C 89.9014,202.068 89.9014,207.401 90.5,213C 88.4105,216.763 88.4105,220.429 90.5,224C 87.9557,225.563 87.9557,227.063 90.5,228.5C 89.019,229.944 89.3523,230.611 91.5,230.5C 88.2882,233.942 84.2882,236.109 79.5,237C 67.8613,239.218 58.3613,235.718 51,226.5C 48.0212,221.724 45.5212,216.724 43.5,211.5C 45.6516,210.923 45.985,209.756 44.5,208C 46.5364,207.546 48.3697,206.713 50,205.5C 63.0069,215.901 74.5069,214.568 84.5,201.5C 85.8333,199.5 87.1667,197.5 88.5,195.5 Z"/></g>
<g><path style="opacity:1" fill="#00a7f9" d="M 165.5,190.5 C 166.167,190.5 166.5,190.833 166.5,191.5C 168.265,194.709 170.265,197.709 172.5,200.5C 181.916,211.358 192.416,212.358 204,203.5C 206.08,205.123 208.246,206.623 210.5,208C 209.272,209.49 209.272,210.99 210.5,212.5C 208.551,220.77 204.218,227.437 197.5,232.5C 197.352,230.212 196.018,228.212 193.5,226.5C 192.338,224.176 191.171,221.842 190,219.5C 187.154,217.743 184.488,215.743 182,213.5C 181.383,212.551 181.549,211.718 182.5,211C 179.947,210.239 177.447,209.406 175,208.5C 167.882,211.595 160.716,214.595 153.5,217.5C 152.5,215.5 151.5,213.5 150.5,211.5C 150.045,208.797 149.378,206.13 148.5,203.5C 148.833,202.833 149.167,202.167 149.5,201.5C 152.694,199.261 155.361,196.594 157.5,193.5C 157.833,194.167 158.167,194.833 158.5,195.5C 160.551,193.41 162.884,191.743 165.5,190.5 Z"/></g>
<g><path style="opacity:0.999" fill="#009ef7" d="M 197.5,232.5 C 177.897,242.261 163.23,237.261 153.5,217.5C 160.716,214.595 167.882,211.595 175,208.5C 177.447,209.406 179.947,210.239 182.5,211C 181.549,211.718 181.383,212.551 182,213.5C 184.488,215.743 187.154,217.743 190,219.5C 191.171,221.842 192.338,224.176 193.5,226.5C 196.018,228.212 197.352,230.212 197.5,232.5 Z"/></g>
</svg>
