<svg viewBox="0 0 80 80" xmlns="http://www.w3.org/2000/svg" xml:space="preserve" style="fill-rule:evenodd;clip-rule:evenodd;stroke-linecap:round;stroke-linejoin:round"><path d="M46.641 56.667h10m10 0h-10m0 0v-10m0 10v10" style="fill:none;fill-rule:nonzero;stroke:url(#a);stroke-width:3px"/><path d="M13.333 31.334v-16a2 2 0 0 1 2-2h16a2 2 0 0 1 2 2v16a2 2 0 0 1-2 2h-16a2 2 0 0 1-2-2z" style="fill:none;fill-rule:nonzero;stroke:url(#b);stroke-width:3px;stroke-linecap:butt;stroke-linejoin:miter"/><path d="M13.333 64.667v-16a2 2 0 0 1 2-2h16a2 2 0 0 1 2 2v16a2 2 0 0 1-2 2h-16a2 2 0 0 1-2-2z" style="fill:none;fill-rule:nonzero;stroke:url(#c);stroke-width:3px;stroke-linecap:butt;stroke-linejoin:miter"/><path d="M46.667 31.334v-16a2 2 0 0 1 2-2h16a2 2 0 0 1 2 2v16a2 2 0 0 1-2 2h-16a2 2 0 0 1-2-2z" style="fill:none;fill-rule:nonzero;stroke:url(#d);stroke-width:3px;stroke-linecap:butt;stroke-linejoin:miter"/><defs><linearGradient id="a" x1="0" y1="0" x2="1" y2="0" gradientUnits="userSpaceOnUse" gradientTransform="rotate(45.665 -7.599 20.114) scale(80.4342)"><stop offset="0" style="stop-color:#48eae6;stop-opacity:1"/><stop offset=".43" style="stop-color:#3cc0e4;stop-opacity:1"/><stop offset="1" style="stop-color:#2061df;stop-opacity:1"/></linearGradient><linearGradient id="b" x1="0" y1="0" x2="1" y2="0" gradientUnits="userSpaceOnUse" gradientTransform="rotate(45.665 -7.599 20.114) scale(80.4342)"><stop offset="0" style="stop-color:#48eae6;stop-opacity:1"/><stop offset=".43" style="stop-color:#3cc0e4;stop-opacity:1"/><stop offset="1" style="stop-color:#2061df;stop-opacity:1"/></linearGradient><linearGradient id="c" x1="0" y1="0" x2="1" y2="0" gradientUnits="userSpaceOnUse" gradientTransform="rotate(45.665 -7.599 20.114) scale(80.4342)"><stop offset="0" style="stop-color:#48eae6;stop-opacity:1"/><stop offset=".43" style="stop-color:#3cc0e4;stop-opacity:1"/><stop offset="1" style="stop-color:#2061df;stop-opacity:1"/></linearGradient><linearGradient id="d" x1="0" y1="0" x2="1" y2="0" gradientUnits="userSpaceOnUse" gradientTransform="rotate(45.665 -7.599 20.114) scale(80.4342)"><stop offset="0" style="stop-color:#48eae6;stop-opacity:1"/><stop offset=".43" style="stop-color:#3cc0e4;stop-opacity:1"/><stop offset="1" style="stop-color:#2061df;stop-opacity:1"/></linearGradient></defs></svg>