<svg viewBox="0 0 80 80" xmlns="http://www.w3.org/2000/svg" xml:space="preserve" style="fill-rule:evenodd;clip-rule:evenodd;stroke-linecap:round;stroke-linejoin:round"><path d="M20 10H10v10" style="fill:none;fill-rule:nonzero;stroke:url(#a);stroke-width:3px"/><path d="M40 46.667a6.667 6.667 0 1 0 0-13.334 6.667 6.667 0 0 0 0 13.334z" style="fill:none;fill-rule:nonzero;stroke:url(#b);stroke-width:3px"/><path d="M70 40c-6.295 9.97-17.605 20-30 20-12.394 0-23.705-10.03-30-20 7.662-9.472 16.639-20 30-20s22.338 10.527 30 20z" style="fill:none;fill-rule:nonzero;stroke:url(#c);stroke-width:3px"/><path d="M60 10h10v10" style="fill:none;fill-rule:nonzero;stroke:url(#d);stroke-width:3px"/><path d="M20 70H10V60" style="fill:none;fill-rule:nonzero;stroke:url(#e);stroke-width:3px"/><path d="M60 70h10V60" style="fill:none;fill-rule:nonzero;stroke:url(#f);stroke-width:3px"/><defs><linearGradient id="a" x1="0" y1="0" x2="1" y2="0" gradientUnits="userSpaceOnUse" gradientTransform="rotate(45.035 -5.293 13.137) scale(91.2677)"><stop offset="0" style="stop-color:#48eae6;stop-opacity:1"/><stop offset=".43" style="stop-color:#3cc0e4;stop-opacity:1"/><stop offset="1" style="stop-color:#2061df;stop-opacity:1"/></linearGradient><linearGradient id="b" x1="0" y1="0" x2="1" y2="0" gradientUnits="userSpaceOnUse" gradientTransform="rotate(45.035 -5.293 13.137) scale(91.2677)"><stop offset="0" style="stop-color:#48eae6;stop-opacity:1"/><stop offset=".43" style="stop-color:#3cc0e4;stop-opacity:1"/><stop offset="1" style="stop-color:#2061df;stop-opacity:1"/></linearGradient><linearGradient id="c" x1="0" y1="0" x2="1" y2="0" gradientUnits="userSpaceOnUse" gradientTransform="rotate(45.035 -5.293 13.137) scale(91.2677)"><stop offset="0" style="stop-color:#48eae6;stop-opacity:1"/><stop offset=".43" style="stop-color:#3cc0e4;stop-opacity:1"/><stop offset="1" style="stop-color:#2061df;stop-opacity:1"/></linearGradient><linearGradient id="d" x1="0" y1="0" x2="1" y2="0" gradientUnits="userSpaceOnUse" gradientTransform="rotate(45.035 -5.293 13.137) scale(91.2677)"><stop offset="0" style="stop-color:#48eae6;stop-opacity:1"/><stop offset=".43" style="stop-color:#3cc0e4;stop-opacity:1"/><stop offset="1" style="stop-color:#2061df;stop-opacity:1"/></linearGradient><linearGradient id="e" x1="0" y1="0" x2="1" y2="0" gradientUnits="userSpaceOnUse" gradientTransform="rotate(45.035 -5.293 13.137) scale(91.2677)"><stop offset="0" style="stop-color:#48eae6;stop-opacity:1"/><stop offset=".43" style="stop-color:#3cc0e4;stop-opacity:1"/><stop offset="1" style="stop-color:#2061df;stop-opacity:1"/></linearGradient><linearGradient id="f" x1="0" y1="0" x2="1" y2="0" gradientUnits="userSpaceOnUse" gradientTransform="rotate(45.035 -5.293 13.137) scale(91.2677)"><stop offset="0" style="stop-color:#48eae6;stop-opacity:1"/><stop offset=".43" style="stop-color:#3cc0e4;stop-opacity:1"/><stop offset="1" style="stop-color:#2061df;stop-opacity:1"/></linearGradient></defs></svg>