<svg width="33" height="81" viewBox="0 0 33 81" fill="none" xmlns="http://www.w3.org/2000/svg">
<path d="M16.7783 21.6713L19.1651 16.6713L13.3916 16.6713L15.7783 21.6713L16.7783 21.6713ZM15.7783 16.6763C15.7783 16.9524 16.0022 17.1763 16.2783 17.1763C16.5545 17.1763 16.7783 16.9524 16.7783 16.6763L15.7783 16.6763ZM16.7783 20.6663C16.7783 20.3901 16.5545 20.1663 16.2783 20.1663C16.0022 20.1663 15.7783 20.3901 15.7783 20.6663L16.7783 20.6663ZM15.7783 20.6763C15.7783 20.9524 16.0022 21.1763 16.2783 21.1763C16.5545 21.1763 16.7783 20.9524 16.7783 20.6763L15.7783 20.6763ZM16.7783 24.6663C16.7783 24.3901 16.5545 24.1663 16.2783 24.1663C16.0022 24.1663 15.7783 24.3901 15.7783 24.6663L16.7783 24.6663ZM15.7783 24.6763C15.7783 24.9524 16.0022 25.1763 16.2783 25.1763C16.5545 25.1763 16.7783 24.9524 16.7783 24.6763L15.7783 24.6763ZM16.7783 28.6663C16.7783 28.3901 16.5545 28.1663 16.2783 28.1663C16.0022 28.1663 15.7783 28.3901 15.7783 28.6663L16.7783 28.6663ZM15.7783 28.6763C15.7783 28.9524 16.0022 29.1763 16.2783 29.1763C16.5545 29.1763 16.7783 28.9524 16.7783 28.6763L15.7783 28.6763ZM16.7783 32.6663C16.7783 32.3901 16.5545 32.1663 16.2783 32.1663C16.0022 32.1663 15.7783 32.3901 15.7783 32.6663L16.7783 32.6663ZM15.7783 32.6763C15.7783 32.9524 16.0022 33.1763 16.2783 33.1763C16.5545 33.1763 16.7783 32.9524 16.7783 32.6763L15.7783 32.6763ZM16.7783 36.6663C16.7783 36.3901 16.5545 36.1663 16.2783 36.1663C16.0022 36.1663 15.7783 36.3901 15.7783 36.6663L16.7783 36.6663ZM15.7783 36.6763C15.7783 36.9524 16.0022 37.1763 16.2783 37.1763C16.5545 37.1763 16.7783 36.9524 16.7783 36.6763L15.7783 36.6763ZM16.7783 40.6663C16.7783 40.3901 16.5545 40.1663 16.2783 40.1663C16.0022 40.1663 15.7783 40.3901 15.7783 40.6663L16.7783 40.6663ZM15.7783 40.6763C15.7783 40.9524 16.0022 41.1763 16.2783 41.1763C16.5545 41.1763 16.7783 40.9524 16.7783 40.6763L15.7783 40.6763ZM16.7783 44.6663C16.7783 44.3901 16.5545 44.1663 16.2783 44.1663C16.0022 44.1663 15.7783 44.3901 15.7783 44.6663L16.7783 44.6663ZM15.7783 44.6763C15.7783 44.9524 16.0022 45.1763 16.2783 45.1763C16.5545 45.1763 16.7783 44.9524 16.7783 44.6763L15.7783 44.6763ZM16.7783 48.6663C16.7783 48.3901 16.5545 48.1663 16.2783 48.1663C16.0022 48.1663 15.7783 48.3901 15.7783 48.6663L16.7783 48.6663ZM15.7783 48.6763C15.7783 48.9524 16.0022 49.1763 16.2783 49.1763C16.5545 49.1763 16.7783 48.9524 16.7783 48.6763L15.7783 48.6763ZM16.7783 52.6663C16.7783 52.3901 16.5545 52.1663 16.2783 52.1663C16.0022 52.1663 15.7783 52.3901 15.7783 52.6663L16.7783 52.6663ZM15.7783 52.6763C15.7783 52.9524 16.0022 53.1763 16.2783 53.1763C16.5545 53.1763 16.7783 52.9524 16.7783 52.6763L15.7783 52.6763ZM16.7783 56.6663C16.7783 56.3901 16.5545 56.1663 16.2783 56.1663C16.0022 56.1663 15.7783 56.3901 15.7783 56.6663L16.7783 56.6663ZM15.7783 56.6763C15.7783 56.9524 16.0022 57.1763 16.2783 57.1763C16.5545 57.1763 16.7783 56.9524 16.7783 56.6763L15.7783 56.6763ZM16.7783 60.6663C16.7783 60.3901 16.5545 60.1663 16.2783 60.1663C16.0022 60.1663 15.7783 60.3901 15.7783 60.6663L16.7783 60.6663ZM15.7783 60.6763C15.7783 60.9524 16.0022 61.1763 16.2783 61.1763C16.5545 61.1763 16.7783 60.9524 16.7783 60.6763L15.7783 60.6763ZM16.7783 64.6663C16.7783 64.3901 16.5545 64.1663 16.2783 64.1663C16.0022 64.1663 15.7783 64.3901 15.7783 64.6663L16.7783 64.6663ZM15.7783 20.6663L15.7783 20.6763L16.7783 20.6763L16.7783 20.6663L15.7783 20.6663ZM15.7783 24.6663L15.7783 24.6763L16.7783 24.6763L16.7783 24.6663L15.7783 24.6663ZM15.7783 28.6663L15.7783 28.6763L16.7783 28.6763L16.7783 28.6663L15.7783 28.6663ZM15.7783 32.6663L15.7783 32.6763L16.7783 32.6763L16.7783 32.6663L15.7783 32.6663ZM15.7783 36.6663L15.7783 36.6763L16.7783 36.6763L16.7783 36.6663L15.7783 36.6663ZM15.7783 40.6663L15.7783 40.6763L16.7783 40.6763L16.7783 40.6663L15.7783 40.6663ZM15.7783 44.6663L15.7783 44.6763L16.7783 44.6763L16.7783 44.6663L15.7783 44.6663ZM15.7783 48.6663L15.7783 48.6763L16.7783 48.6763L16.7783 48.6663L15.7783 48.6663ZM15.7783 52.6663L15.7783 52.6763L16.7783 52.6763L16.7783 52.6663L15.7783 52.6663ZM15.7783 56.6663L15.7783 56.6763L16.7783 56.6763L16.7783 56.6663L15.7783 56.6663ZM15.7783 60.6663L15.7783 60.6763L16.7783 60.6763L16.7783 60.6663L15.7783 60.6663ZM15.7783 64.6663L15.7783 64.6713L16.7783 64.6713L16.7783 64.6663L15.7783 64.6663Z" fill="black"/>
</svg>
