<svg xmlns="http://www.w3.org/2000/svg" xmlns:xlink="http://www.w3.org/1999/xlink" viewBox="0 0 795 600"><defs><linearGradient id="linear-gradient-27" x1="465" x2="465" xlink:href="#linear-gradient"/><linearGradient id="linear-gradient-53" x1="40.164" x2="40.164" xlink:href="#linear-gradient-52"/><linearGradient id="linear-gradient-2" x1="90" x2="90" xlink:href="#linear-gradient"/><linearGradient id="linear-gradient-3" x1="105" x2="105" xlink:href="#linear-gradient"/><linearGradient id="linear-gradient-4" x1="120" x2="120" xlink:href="#linear-gradient"/><linearGradient id="linear-gradient-5" x1="135" x2="135" xlink:href="#linear-gradient"/><linearGradient id="linear-gradient-6" x1="150" x2="150" xlink:href="#linear-gradient"/><linearGradient id="linear-gradient-7" x1="165" x2="165" xlink:href="#linear-gradient"/><linearGradient id="linear-gradient-8" x1="180" x2="180" xlink:href="#linear-gradient"/><linearGradient id="linear-gradient-9" x1="195" x2="195" xlink:href="#linear-gradient"/><linearGradient id="linear-gradient-10" x1="210" x2="210" xlink:href="#linear-gradient"/><linearGradient id="linear-gradient-11" x1="225" x2="225" xlink:href="#linear-gradient"/><linearGradient id="linear-gradient-12" x1="240" x2="240" xlink:href="#linear-gradient"/><linearGradient id="linear-gradient-13" x1="255" x2="255" xlink:href="#linear-gradient"/><linearGradient id="linear-gradient-14" x1="270" x2="270" xlink:href="#linear-gradient"/><linearGradient id="linear-gradient-15" x1="285" x2="285" xlink:href="#linear-gradient"/><linearGradient id="linear-gradient-16" x1="300" x2="300" xlink:href="#linear-gradient"/><linearGradient id="linear-gradient-17" x1="315" x2="315" xlink:href="#linear-gradient"/><linearGradient id="linear-gradient-18" x1="330" x2="330" xlink:href="#linear-gradient"/><linearGradient id="linear-gradient-19" x1="345" x2="345" xlink:href="#linear-gradient"/><linearGradient id="linear-gradient-20" x1="360" x2="360" xlink:href="#linear-gradient"/><linearGradient id="linear-gradient-21" x1="375" x2="375" xlink:href="#linear-gradient"/><linearGradient id="linear-gradient-22" x1="390" x2="390" xlink:href="#linear-gradient"/><linearGradient id="linear-gradient-23" x1="405" x2="405" xlink:href="#linear-gradient"/><linearGradient id="linear-gradient-24" x1="420" x2="420" xlink:href="#linear-gradient"/><linearGradient id="linear-gradient-25" x1="435" x2="435" xlink:href="#linear-gradient"/><linearGradient id="linear-gradient-26" x1="450" x2="450" xlink:href="#linear-gradient"/><linearGradient id="linear-gradient" x1="75" y1="540" x2="75" y2="120" gradientUnits="userSpaceOnUse"><stop offset=".05" stop-color="#063736" stop-opacity="0"/><stop offset=".19" stop-color="rgba(6, 55, 54, .39691)" stop-opacity=".397"/><stop offset=".382" stop-color="rgba(6, 55, 54, .83723)" stop-opacity=".837"/><stop offset=".5" stop-color="#063736"/><stop offset=".618" stop-color="rgba(6, 55, 54, .83723)" stop-opacity=".837"/><stop offset=".81" stop-color="rgba(6, 55, 54, .39691)" stop-opacity=".397"/><stop offset=".95" stop-color="#063736" stop-opacity="0"/></linearGradient><linearGradient id="linear-gradient-28" x1="480" x2="480" xlink:href="#linear-gradient"/><linearGradient id="linear-gradient-29" x1="495" x2="495" xlink:href="#linear-gradient"/><linearGradient id="linear-gradient-30" x1="510" x2="510" xlink:href="#linear-gradient"/><linearGradient id="linear-gradient-31" x1="525" x2="525" xlink:href="#linear-gradient"/><linearGradient id="linear-gradient-32" x1="540" x2="540" xlink:href="#linear-gradient"/><linearGradient id="linear-gradient-33" x1="555" x2="555" xlink:href="#linear-gradient"/><linearGradient id="linear-gradient-34" x1="570" x2="570" xlink:href="#linear-gradient"/><linearGradient id="linear-gradient-35" x1="585" x2="585" xlink:href="#linear-gradient"/><linearGradient id="linear-gradient-36" x1="600" x2="600" xlink:href="#linear-gradient"/><linearGradient id="linear-gradient-37" x1="615" x2="615" xlink:href="#linear-gradient"/><linearGradient id="linear-gradient-38" x1="630" x2="630" xlink:href="#linear-gradient"/><linearGradient id="linear-gradient-39" x1="645" x2="645" xlink:href="#linear-gradient"/><linearGradient id="linear-gradient-40" x1="660" x2="660" xlink:href="#linear-gradient"/><linearGradient id="linear-gradient-41" x1="675" x2="675" xlink:href="#linear-gradient"/><linearGradient id="linear-gradient-42" x1="690" x2="690" xlink:href="#linear-gradient"/><linearGradient id="linear-gradient-43" x1="705" x2="705" xlink:href="#linear-gradient"/><linearGradient id="linear-gradient-44" x1="720" x2="720" xlink:href="#linear-gradient"/><linearGradient id="linear-gradient-45" x1="735" x2="735" xlink:href="#linear-gradient"/><linearGradient id="linear-gradient-46" x1="750" x2="750" xlink:href="#linear-gradient"/><linearGradient id="linear-gradient-47" x1="765" x2="765" xlink:href="#linear-gradient"/><linearGradient id="linear-gradient-48" x1="780" x2="780" xlink:href="#linear-gradient"/><linearGradient id="linear-gradient-49" x1="795" x2="795" xlink:href="#linear-gradient"/><linearGradient id="linear-gradient-50" x1="-916.229" y1="768.207" x2="-915.259" y2="768.207" gradientTransform="scale(-651.86502 651.86502) rotate(49.258 379.225 1382.563)" gradientUnits="userSpaceOnUse"><stop offset="0" stop-color="#e62264"/><stop offset="1" stop-color="#592ee6"/></linearGradient><linearGradient id="linear-gradient-51" x1="61" y1="579.311" x2="331.673" y2="579.311" gradientUnits="userSpaceOnUse"><stop offset="0" stop-color="#0f8a86"/><stop offset=".209" stop-color="rgba(15, 138, 134, .97687)" stop-opacity=".977"/><stop offset=".378" stop-color="rgba(15, 138, 134, .90428)" stop-opacity=".904"/><stop offset=".532" stop-color="rgba(15, 138, 134, .7818)" stop-opacity=".782"/><stop offset=".677" stop-color="rgba(15, 138, 134, .60923)" stop-opacity=".609"/><stop offset=".817" stop-color="rgba(15, 138, 134, .38634)" stop-opacity=".386"/><stop offset=".95" stop-color="rgba(15, 138, 134, .11695)" stop-opacity=".117"/><stop offset="1" stop-color="#0f8a86" stop-opacity="0"/></linearGradient><linearGradient id="linear-gradient-52" x1="39.742" y1="120.483" x2="39.742" y2="209.047" gradientUnits="userSpaceOnUse"><stop offset="0" stop-color="#0f8a86"/><stop offset=".209" stop-color="rgba(15, 138, 134, .97687)" stop-opacity=".977"/><stop offset=".378" stop-color="rgba(15, 138, 134, .90428)" stop-opacity=".904"/><stop offset=".532" stop-color="rgba(15, 138, 134, .7818)" stop-opacity=".782"/><stop offset=".677" stop-color="rgba(15, 138, 134, .60923)" stop-opacity=".609"/><stop offset=".817" stop-color="rgba(15, 138, 134, .38634)" stop-opacity=".386"/><stop offset=".95" stop-color="rgba(15, 138, 134, .11695)" stop-opacity=".117"/><stop offset="1" stop-color="#0f8a86" stop-opacity="0"/></linearGradient><style>.cls-53,.cls-54{fill:none}.cls-57{stroke-width:0}.cls-54{stroke-linecap:round;stroke-width:6px}.cls-53{stroke-width:2px}.cls-58{opacity:.6}.cls-53{stroke:#757575}.cls-54{stroke:#7f7f7f}.cls-57{fill:#fff}</style></defs><g id="Grid-Background"><path style="stroke:url(#linear-gradient);stroke-miterlimit:10;fill:none" d="M75 120v420"/><path style="stroke:url(#linear-gradient-2);stroke-miterlimit:10;fill:none" d="M90 120v420"/><path style="stroke:url(#linear-gradient-3);stroke-miterlimit:10;fill:none" d="M105 120v420"/><path style="stroke:url(#linear-gradient-4);stroke-miterlimit:10;fill:none" d="M120 120v420"/><path style="stroke:url(#linear-gradient-5);stroke-miterlimit:10;fill:none" d="M135 120v420"/><path style="stroke:url(#linear-gradient-6);stroke-miterlimit:10;fill:none" d="M150 120v420"/><path style="stroke:url(#linear-gradient-7);stroke-miterlimit:10;fill:none" d="M165 120v420"/><path style="stroke-miterlimit:10;fill:none;stroke:url(#linear-gradient-8)" d="M180 120v420"/><path style="stroke:url(#linear-gradient-9);stroke-miterlimit:10;fill:none" d="M195 120v420"/><path style="stroke:url(#linear-gradient-10);stroke-miterlimit:10;fill:none" d="M210 120v420"/><path style="stroke:url(#linear-gradient-11);stroke-miterlimit:10;fill:none" d="M225 120v420"/><path style="stroke:url(#linear-gradient-12);stroke-miterlimit:10;fill:none" d="M240 120v420"/><path style="stroke:url(#linear-gradient-13);stroke-miterlimit:10;fill:none" d="M255 120v420"/><path style="stroke:url(#linear-gradient-14);stroke-miterlimit:10;fill:none" d="M270 120v420"/><path style="stroke:url(#linear-gradient-15);stroke-miterlimit:10;fill:none" d="M285 120v420"/><path style="stroke:url(#linear-gradient-16);stroke-miterlimit:10;fill:none" d="M300 120v420"/><path style="stroke:url(#linear-gradient-17);stroke-miterlimit:10;fill:none" d="M315 120v420"/><path style="stroke:url(#linear-gradient-18);stroke-miterlimit:10;fill:none" d="M330 120v420"/><path style="stroke:url(#linear-gradient-19);stroke-miterlimit:10;fill:none" d="M345 120v420"/><path style="stroke:url(#linear-gradient-20);stroke-miterlimit:10;fill:none" d="M360 120v420"/><path style="stroke:url(#linear-gradient-21);stroke-miterlimit:10;fill:none" d="M375 120v420"/><path style="stroke:url(#linear-gradient-22);stroke-miterlimit:10;fill:none" d="M390 120v420"/><path style="stroke:url(#linear-gradient-23);stroke-miterlimit:10;fill:none" d="M405 120v420"/><path style="stroke:url(#linear-gradient-24);stroke-miterlimit:10;fill:none" d="M420 120v420"/><path style="stroke:url(#linear-gradient-25);stroke-miterlimit:10;fill:none" d="M435 120v420"/><path style="stroke:url(#linear-gradient-26);stroke-miterlimit:10;fill:none" d="M450 120v420"/><path style="stroke:url(#linear-gradient-27);stroke-miterlimit:10;fill:none" d="M465 120v420"/><path style="stroke:url(#linear-gradient-28);stroke-miterlimit:10;fill:none" d="M480 120v420"/><path style="stroke:url(#linear-gradient-29);stroke-miterlimit:10;fill:none" d="M495 120v420"/><path style="stroke:url(#linear-gradient-30);stroke-miterlimit:10;fill:none" d="M510 120v420"/><path style="stroke:url(#linear-gradient-31);stroke-miterlimit:10;fill:none" d="M525 120v420"/><path style="stroke:url(#linear-gradient-32);stroke-miterlimit:10;fill:none" d="M540 120v420"/><path style="stroke:url(#linear-gradient-33);stroke-miterlimit:10;fill:none" d="M555 120v420"/><path style="stroke:url(#linear-gradient-34);stroke-miterlimit:10;fill:none" d="M570 120v420"/><path style="stroke:url(#linear-gradient-35);stroke-miterlimit:10;fill:none" d="M585 120v420"/><path style="stroke:url(#linear-gradient-36);stroke-miterlimit:10;fill:none" d="M600 120v420"/><path style="stroke:url(#linear-gradient-37);stroke-miterlimit:10;fill:none" d="M615 120v420"/><path style="stroke:url(#linear-gradient-38);stroke-miterlimit:10;fill:none" d="M630 120v420"/><path style="stroke:url(#linear-gradient-39);stroke-miterlimit:10;fill:none" d="M645 120v420"/><path style="stroke:url(#linear-gradient-40);stroke-miterlimit:10;fill:none" d="M660 120v420"/><path style="stroke:url(#linear-gradient-41);stroke-miterlimit:10;fill:none" d="M675 120v420"/><path style="stroke:url(#linear-gradient-42);stroke-miterlimit:10;fill:none" d="M690 120v420"/><path style="stroke:url(#linear-gradient-43);stroke-miterlimit:10;fill:none" d="M705 120v420"/><path style="stroke:url(#linear-gradient-44);stroke-miterlimit:10;fill:none" d="M720 120v420"/><path style="stroke:url(#linear-gradient-45);stroke-miterlimit:10;fill:none" d="M735 120v420"/><path style="stroke:url(#linear-gradient-46);stroke-miterlimit:10;fill:none" d="M750 120v420"/><path style="stroke:url(#linear-gradient-47);stroke-miterlimit:10;fill:none" d="M765 120v420"/><path style="stroke:url(#linear-gradient-48);stroke-miterlimit:10;fill:none" d="M780 120v420"/><path style="stroke:url(#linear-gradient-49);stroke-miterlimit:10;fill:none" d="M795 120v420"/></g><g id="Graph-Content-2-Lossy_Compression" data-name="Graph-Content-2-Lossy Compression"><g id="Lines-Content-Graph-2"><path class="cls-53" d="M60 143.65V540h709.005"/><path d="M99.565 505.441c44.981-152.995 67.83-190.432 116.025-220.632 93.208-58.406 239.904-100.333 325.583-124.293" style="stroke-linecap:round;stroke-width:6px;stroke:url(#linear-gradient-50);fill:none"/><path class="cls-54" d="M752.9 336.08c.125-3.637 2.547-10.404 2.547-14.21M519.334 443.777c1.071-25.957 12.165-85.794 16.78-98.087 17.591-46.868 61.487-63.94 64.864-65.29 44.616-17.828 87.335-24.56 110.418-24.06M289.667 423.264c73.185-35.691 57.477-47.67 69.615-75.874"/><path class="cls-54" d="M557.934 522.797c1.094-26.594-3.283-68.292 13.857-106.89 21.048-47.401 40.844-87.198 48.867-90.78"/></g><g id="Labels-Text"><path class="cls-57" d="M530.726 149.45a4.191 4.191 0 0 1-1.75-1.6c-.413-.687-.62-1.484-.62-2.39v-1.26c0-.067.023-.124.07-.17a.23.23 0 0 1 .17-.07h2.34c.067 0 .123.023.17.07.047.046.07.103.07.17v1.26c0 .64.197 1.156.59 1.55.394.393.93.59 1.61.59.653 0 1.19-.197 1.61-.59.42-.394.63-.91.63-1.55v-9.36c0-.067.023-.124.07-.17a.233.233 0 0 1 .17-.07h2.32c.067 0 .123.023.17.07.047.046.07.103.07.17v9.36c0 .906-.213 1.703-.64 2.39a4.315 4.315 0 0 1-1.78 1.6c-.76.38-1.633.57-2.62.57-1.013 0-1.897-.19-2.65-.57zM540.256 149.78c-.04-.054-.033-.12.02-.2l3.88-6.66a.098.098 0 0 0 0-.12l-3.88-6.66-.04-.12c0-.107.073-.16.22-.16h2.54c.133 0 .233.053.3.16l2.6 4.58c.04.08.08.08.12 0l2.6-4.58a.329.329 0 0 1 .3-.16h2.52c.094 0 .16.026.2.08s.034.12-.02.2l-3.88 6.66a.194.194 0 0 0 0 .12l3.88 6.66.04.12c0 .106-.073.16-.22.16h-2.52a.329.329 0 0 1-.3-.16l-2.6-4.56c-.04-.08-.08-.08-.12 0l-2.62 4.56a.33.33 0 0 1-.3.16h-2.52c-.093 0-.16-.027-.2-.08zM553.546 149.79a.232.232 0 0 1-.07-.17V136.1c0-.067.024-.124.07-.17a.233.233 0 0 1 .17-.07h2.34c.067 0 .123.023.17.07.047.046.07.103.07.17v11.24c0 .066.034.1.1.1h6.54c.067 0 .123.023.17.07.047.046.07.103.07.17v1.94c0 .066-.023.123-.07.17s-.103.07-.17.07h-9.22a.231.231 0 0 1-.17-.07zM703.93 243.728l-.601-1.96c-.027-.053-.06-.08-.1-.08h-4.92c-.04 0-.073.027-.1.08l-.58 1.96c-.04.134-.126.2-.26.2h-2.54c-.08 0-.14-.023-.18-.07s-.047-.116-.02-.21l4.32-13.52c.04-.133.127-.2.26-.2h3.14c.133 0 .22.067.26.2l4.32 13.52a.23.23 0 0 1 .02.1c0 .12-.073.18-.22.18h-2.54c-.134 0-.22-.066-.26-.2zm-4.92-4.22h3.519c.08 0 .106-.04.08-.12l-1.8-5.94c-.013-.053-.033-.076-.06-.07-.027.007-.047.03-.06.07l-1.76 5.94c-.013.08.013.12.08.12zM711.789 243.728l-4.12-13.52-.02-.08c0-.133.073-.2.22-.2h2.52c.147 0 .24.067.28.2l2.66 9.76c.013.04.033.06.06.06.027 0 .046-.02.06-.06l2.62-9.76c.04-.133.133-.2.28-.2h2.46c.08 0 .14.027.18.08s.047.12.02.2l-4.18 13.52c-.04.134-.127.2-.26.2h-2.52c-.133 0-.22-.066-.26-.2zM720.838 243.858a.232.232 0 0 1-.07-.17v-13.52c0-.066.024-.123.07-.17a.233.233 0 0 1 .17-.07h2.34c.067 0 .123.024.17.07.047.047.07.104.07.17v13.52c0 .067-.023.124-.07.17s-.103.07-.17.07h-2.34a.231.231 0 0 1-.17-.07zM735.658 232.278a.231.231 0 0 1-.17.07h-6.54c-.067 0-.1.034-.1.1v3.1c0 .067.033.1.1.1h4.3c.067 0 .124.024.17.07.046.047.07.104.07.17v1.94a.233.233 0 0 1-.07.17.231.231 0 0 1-.17.07h-4.3c-.067 0-.1.034-.1.1v5.52c0 .067-.023.123-.07.17s-.104.07-.17.07h-2.34c-.066 0-.123-.023-.17-.07s-.07-.103-.07-.17v-13.52c0-.066.023-.123.07-.17a.233.233 0 0 1 .17-.07h9.22c.066 0 .123.024.17.07.047.047.07.104.07.17v1.94a.23.23 0 0 1-.07.17z"/><g><path class="cls-57" d="M746.896 297.863a.23.23 0 0 1 .17-.07h2.34c.066 0 .123.024.17.07.047.047.07.104.07.17v13.52c0 .067-.023.124-.07.17s-.104.07-.17.07h-2.34a.228.228 0 0 1-.17-.07.232.232 0 0 1-.07-.17v-5.52c0-.066-.033-.1-.1-.1h-4.42c-.067 0-.1.034-.1.1v5.52c0 .067-.024.124-.07.17s-.104.07-.17.07h-2.34c-.067 0-.123-.023-.17-.07s-.07-.103-.07-.17v-13.52c0-.066.023-.123.07-.17a.233.233 0 0 1 .17-.07h2.34c.066 0 .122.024.17.07.046.047.07.104.07.17v5.38c0 .067.033.1.1.1h4.42c.067 0 .1-.033.1-.1v-5.38c0-.066.023-.123.07-.17zM761.595 300.144a.231.231 0 0 1-.17.07h-6.56c-.067 0-.1.033-.1.1v3.1c0 .066.033.1.1.1h4.3c.067 0 .124.023.17.07.046.046.07.103.07.17v1.94a.233.233 0 0 1-.07.17.231.231 0 0 1-.17.07h-4.3c-.067 0-.1.033-.1.1v3.24c0 .066.033.1.1.1h6.56c.067 0 .123.023.17.07.047.046.07.103.07.17v1.94c0 .066-.023.123-.07.17s-.103.07-.17.07h-9.24c-.066 0-.123-.024-.17-.07s-.07-.104-.07-.17v-13.52c0-.067.023-.124.07-.17a.233.233 0 0 1 .17-.07h9.24c.067 0 .123.023.17.07.047.046.07.103.07.17v1.94a.23.23 0 0 1-.07.17zM763.696 311.724a.232.232 0 0 1-.07-.17v-13.52c0-.067.023-.124.07-.17a.233.233 0 0 1 .17-.07h2.34c.066 0 .123.023.17.07.046.046.07.103.07.17v13.52c0 .066-.024.123-.07.17s-.104.07-.17.07h-2.34a.231.231 0 0 1-.17-.07zM771.065 311.343a4.376 4.376 0 0 1-1.82-1.71c-.427-.733-.64-1.58-.64-2.54v-4.62c0-.96.213-1.806.64-2.54s1.033-1.3 1.82-1.7c.786-.4 1.7-.6 2.74-.6 1.027 0 1.93.19 2.71.57.78.38 1.386.92 1.82 1.62.433.7.65 1.51.65 2.43 0 .12-.08.194-.24.22l-2.34.14h-.04c-.134 0-.2-.073-.2-.22 0-.706-.217-1.273-.65-1.7-.433-.426-1.004-.64-1.71-.64-.72 0-1.298.214-1.73.64-.434.427-.65.994-.65 1.7v4.82c0 .694.216 1.254.65 1.68.432.427 1.01.64 1.73.64.706 0 1.277-.213 1.71-.64.433-.426.65-.986.65-1.68 0-.146.08-.22.24-.22l2.34.1c.066 0 .123.02.17.06s.07.087.07.14c0 .92-.217 1.734-.65 2.44a4.345 4.345 0 0 1-1.82 1.64c-.78.387-1.683.58-2.71.58-1.04 0-1.954-.203-2.74-.61z"/></g><g><path class="cls-57" d="M614.217 302.533c.666.36 1.183.87 1.55 1.53.366.66.55 1.417.55 2.27 0 .84-.19 1.58-.57 2.22a3.879 3.879 0 0 1-1.6 1.49c-.686.353-1.477.53-2.37.53h-2.84c-.067 0-.1.033-.1.1v5.1c0 .067-.023.123-.07.17s-.103.07-.17.07h-2.34a.228.228 0 0 1-.17-.07.232.232 0 0 1-.07-.17v-13.54c0-.067.024-.123.07-.17a.23.23 0 0 1 .17-.07h5.64c.88 0 1.653.18 2.32.54zm-1.26 5.25c.374-.353.56-.816.56-1.39 0-.586-.186-1.06-.56-1.42-.373-.36-.867-.54-1.48-.54h-2.54c-.067 0-.1.034-.1.1v3.68c0 .067.033.1.1.1h2.54c.613 0 1.107-.176 1.48-.53zM626.167 302.083a.233.233 0 0 1 .17-.07h2.34c.066 0 .122.024.17.07.046.047.07.103.07.17v13.52c0 .067-.024.123-.07.17s-.104.07-.17.07h-2.26c-.134 0-.227-.053-.28-.16l-5.18-8.56c-.028-.04-.054-.056-.08-.05-.028.007-.04.037-.04.09l.04 8.44c0 .067-.024.123-.07.17s-.104.07-.17.07h-2.34c-.067 0-.124-.023-.17-.07s-.07-.103-.07-.17v-13.52c0-.067.023-.123.07-.17a.233.233 0 0 1 .17-.07h2.26c.133 0 .226.053.28.16l5.16 8.52c.026.04.052.057.08.05.026-.006.04-.036.04-.09l-.02-8.4c0-.067.023-.123.07-.17zM633.556 315.553a4.492 4.492 0 0 1-1.83-1.73c-.433-.74-.65-1.596-.65-2.57v-4.48c0-.973.217-1.833.65-2.58s1.043-1.323 1.83-1.73 1.694-.61 2.72-.61c1.014 0 1.91.2 2.69.6s1.387.943 1.82 1.63c.433.687.65 1.45.65 2.29v.14a.233.233 0 0 1-.07.17.232.232 0 0 1-.17.07h-2.34a.232.232 0 0 1-.17-.07.23.23 0 0 1-.07-.17v-.06c0-.613-.213-1.13-.64-1.55s-.993-.63-1.7-.63c-.72 0-1.297.224-1.73.67-.433.447-.65 1.03-.65 1.75v4.64c0 .72.233 1.304.7 1.75.467.447 1.06.67 1.78.67.694 0 1.247-.183 1.66-.55.414-.367.62-.876.62-1.53v-.9c0-.066-.033-.1-.1-.1h-2.24a.232.232 0 0 1-.17-.07.23.23 0 0 1-.07-.17v-1.84c0-.066.023-.123.07-.17s.104-.07.17-.07h4.88c.067 0 .124.023.17.07.047.047.07.104.07.17v2.64c0 1.014-.213 1.893-.64 2.64a4.228 4.228 0 0 1-1.81 1.71c-.78.394-1.683.59-2.71.59-1.026 0-1.933-.206-2.72-.62z"/></g><g><path class="cls-57" d="m336.678 336.066-3.54-13.54-.02-.08c0-.12.073-.18.22-.18h2.48c.134 0 .22.067.26.2l1.9 8.14c.014.054.033.08.06.08.027 0 .047-.026.06-.08l1.84-8.12c.04-.146.127-.22.26-.22h2.42c.147 0 .24.067.28.2l2 8.14c.014.04.033.064.06.07.027.008.046-.016.06-.07l1.84-8.12c.04-.146.127-.22.26-.22h2.36c.187 0 .26.087.22.26l-3.28 13.54c-.04.134-.133.2-.28.2h-2.38c-.133 0-.22-.066-.26-.2l-2.04-8.66c-.013-.052-.034-.08-.06-.08s-.047.028-.06.08l-1.9 8.64c-.026.147-.113.22-.26.22h-2.22c-.147 0-.24-.066-.28-.2zM360.928 324.617a.231.231 0 0 1-.17.07h-6.56c-.067 0-.1.033-.1.1v3.1c0 .067.033.1.1.1h4.3c.067 0 .124.023.17.07.046.046.07.103.07.17v1.94a.233.233 0 0 1-.07.17.231.231 0 0 1-.17.07h-4.3c-.067 0-.1.033-.1.1v3.24c0 .066.033.1.1.1h6.56c.067 0 .123.023.17.07.047.046.07.103.07.17v1.94c0 .066-.023.123-.07.17s-.103.07-.17.07h-9.24c-.066 0-.123-.023-.17-.07s-.07-.104-.07-.17v-13.52c0-.067.023-.124.07-.17a.233.233 0 0 1 .17-.07h9.24c.067 0 .123.023.17.07.047.046.07.103.07.17v1.94a.23.23 0 0 1-.07.17zM371.257 329.086c1.267.654 1.9 1.74 1.9 3.26 0 1.294-.439 2.27-1.32 2.93-.88.66-2.033.99-3.46.99h-5.18c-.066 0-.122-.022-.17-.07s-.07-.103-.07-.17v-13.52c0-.066.024-.123.07-.17a.233.233 0 0 1 .17-.07h5.021c3.16 0 4.74 1.28 4.74 3.84 0 1.334-.567 2.288-1.7 2.86-.08.04-.08.08 0 .12zm-5.48-4.3v3.12c0 .068.034.1.1.1h2.341c.626 0 1.113-.146 1.46-.44.346-.293.52-.692.52-1.2 0-.52-.174-.93-.52-1.23-.347-.3-.834-.45-1.46-.45h-2.34c-.067 0-.1.034-.1.1zm4.041 8.57c.347-.313.52-.743.52-1.29 0-.546-.173-.976-.52-1.29-.347-.313-.834-.47-1.46-.47h-2.48c-.067 0-.1.034-.1.1v3.32c0 .067.033.1.1.1h2.5c.613 0 1.093-.156 1.44-.47zM383.459 322.787c.666.36 1.182.87 1.55 1.53.366.66.55 1.416.55 2.27 0 .84-.19 1.58-.571 2.22a3.879 3.879 0 0 1-1.6 1.49c-.686.353-1.476.53-2.37.53h-2.84c-.067 0-.1.033-.1.1v5.1c0 .066-.023.123-.07.17s-.103.07-.17.07h-2.34a.228.228 0 0 1-.17-.07.232.232 0 0 1-.07-.17v-13.54c0-.067.024-.124.07-.17a.23.23 0 0 1 .17-.07h5.64c.88 0 1.654.18 2.32.54zm-1.261 5.25c.374-.353.56-.817.56-1.39 0-.587-.186-1.06-.56-1.42-.373-.36-.866-.54-1.48-.54h-2.54c-.067 0-.1.033-.1.1v3.68c0 .067.033.1.1.1h2.54c.614 0 1.107-.177 1.48-.53z"/></g></g><g id="Graph-Content-Middle"><path class="cls-53" d="M60 120v420.356h720" id="Graph"/></g><g id="Info-Axis-Bottom"><g id="Arrow-Line-Bottom-Left"><path style="stroke-width:2px;stroke-linecap:square;stroke-linejoin:round;stroke:url(#linear-gradient-51);fill:none" d="M330.673 579.311H69.176"/><path style="fill:url(#linear-gradient-51);stroke-width:0" d="M70.635 574.325 62 579.311l8.635 4.987v-9.973z"/></g><g id="Axis-Info-Horizontal-Bottom" class="cls-58"><path class="cls-57" d="M392.345 567.119a.162.162 0 0 1-.13-.065.162.162 0 0 1-.065-.13V555.97c0-.048.016-.097.065-.146a.178.178 0 0 1 .13-.048h1.49l.146.048a.26.26 0 0 1 .049.146v10.955a.194.194 0 0 1-.194.194h-1.491zM405.082 558.708c.827 0 1.491.26 1.961.746.495.586.744 1.34.697 2.106v5.364a.194.194 0 0 1-.194.194h-1.475a.162.162 0 0 1-.13-.064.162.162 0 0 1-.065-.13v-4.975a1.702 1.702 0 0 0-.389-1.183 1.41 1.41 0 0 0-1.07-.437 1.442 1.442 0 0 0-1.085.437 1.62 1.62 0 0 0-.421 1.167v4.991a.194.194 0 0 1-.194.194h-1.475a.162.162 0 0 1-.13-.064.162.162 0 0 1-.065-.13v-4.975a1.637 1.637 0 0 0-.405-1.183 1.41 1.41 0 0 0-1.07-.437 1.41 1.41 0 0 0-1.004.356c-.276.252-.444.6-.47.972v5.267a.194.194 0 0 1-.194.194h-1.492a.162.162 0 0 1-.13-.064.162.162 0 0 1-.064-.13v-7.892c0-.048.016-.097.065-.146a.178.178 0 0 1 .13-.048h1.49l.146.048a.26.26 0 0 1 .049.146v.535l.032.065c.016.016.049 0 .065-.033.232-.301.54-.536.891-.68.37-.15.768-.22 1.167-.211.535 0 .989.113 1.394.324.398.21.721.538.923.94.033.049.065.049.114 0 .222-.414.567-.748.988-.956.44-.212.923-.317 1.41-.308zM412.813 558.708c.68 0 1.28.113 1.798.357a2.9 2.9 0 0 1 1.2.972c.279.423.426.92.42 1.426v5.461a.194.194 0 0 1-.194.194h-1.49a.162.162 0 0 1-.13-.064.162.162 0 0 1-.065-.13v-.518l-.032-.065a.13.13 0 0 0-.065.032c-.535.584-1.297.875-2.301.875a3.144 3.144 0 0 1-1.994-.615c-.535-.405-.794-1.021-.794-1.832 0-.842.292-1.507.892-1.977a3.857 3.857 0 0 1 2.479-.697h1.734c.049 0 .081-.032.081-.08v-.39a1.329 1.329 0 0 0-.373-.988c-.243-.227-.616-.34-1.118-.34a1.945 1.945 0 0 0-.988.21.972.972 0 0 0-.487.616c-.032.13-.113.178-.226.162l-1.572-.194-.13-.065c-.049-.016-.065-.049-.049-.097a2.22 2.22 0 0 1 1.07-1.62 4.051 4.051 0 0 1 2.333-.633zm-.39 7.05c.488.011.966-.137 1.362-.422.354-.24.566-.641.567-1.07v-.761c0-.049-.032-.081-.081-.081h-1.361c-.47-.023-.937.09-1.345.324a1.02 1.02 0 0 0-.503.924c0 .34.13.616.39.794.28.207.623.31.972.292zM423.183 559.032c0-.048.017-.097.065-.146a.178.178 0 0 1 .13-.048h1.49l.147.048a.26.26 0 0 1 .048.146v7.536c0 1.345-.389 2.317-1.15 2.9a5.056 5.056 0 0 1-3.047.86c-.33 0-.66-.016-.989-.049-.113-.016-.178-.081-.178-.21l.049-1.33c0-.113.08-.178.227-.178.28.03.56.047.842.049.81 0 1.41-.162 1.8-.47.372-.324.566-.86.566-1.62v-.13l-.032-.065a.13.13 0 0 0-.065.032 2.447 2.447 0 0 1-1.88.713 3.646 3.646 0 0 1-1.928-.535 2.82 2.82 0 0 1-1.216-1.636 7.309 7.309 0 0 1-.21-1.961 6.158 6.158 0 0 1 .259-2.058 3.112 3.112 0 0 1 1.118-1.589 3.08 3.08 0 0 1 1.864-.583c.859 0 1.523.243 1.993.746.016.032.049.048.065.032l.032-.065v-.389zm-.113 5.332a2.61 2.61 0 0 0 .097-.535l.016-.907-.016-.892c-.016-.178-.065-.34-.113-.518a1.507 1.507 0 0 0-.519-.86 1.62 1.62 0 0 0-1.02-.323 1.572 1.572 0 0 0-.99.324c-.279.218-.483.519-.583.859a3.89 3.89 0 0 0-.194 1.426c0 .664.048 1.134.162 1.41.104.337.315.633.6.842.288.232.65.352 1.02.34.368.016.73-.1 1.021-.323.262-.216.445-.512.519-.843zM433.993 562.046c.049.3.07.604.065.908l-.016.502c0 .13-.065.195-.194.195h-5.073c-.048 0-.08.032-.08.08.008.25.057.496.145.73.26.778.891 1.167 1.896 1.183.7.012 1.357-.33 1.75-.907.049-.065.098-.098.162-.098.043.001.084.018.114.049l1.005.827c.097.08.113.162.048.259-.34.475-.798.855-1.329 1.102a4.408 4.408 0 0 1-1.863.389 3.89 3.89 0 0 1-2.14-.567 3.241 3.241 0 0 1-1.296-1.589 6.482 6.482 0 0 1-.373-2.43c0-.633.065-1.135.195-1.524a3.16 3.16 0 0 1 1.231-1.799 3.533 3.533 0 0 1 2.156-.648c2.123 0 3.322 1.118 3.597 3.338zm-3.597-1.717c-.353-.016-.7.087-.989.291a1.62 1.62 0 0 0-.567.843c-.077.23-.12.47-.13.713-.016.049 0 .081.065.081h3.29c.049 0 .081-.032.081-.08a2.43 2.43 0 0 0-.097-.617 1.604 1.604 0 0 0-.567-.907 1.799 1.799 0 0 0-1.086-.324zM442.857 567.249a5.461 5.461 0 0 1-2.204-.406 3.209 3.209 0 0 1-1.442-1.134 2.917 2.917 0 0 1-.519-1.718v-.405c0-.049.017-.097.065-.146a.178.178 0 0 1 .13-.048h1.442l.146.048a.26.26 0 0 1 .049.146v.308c0 .502.226.907.664 1.232.533.363 1.171.54 1.815.502a2.301 2.301 0 0 0 1.491-.421c.33-.262.517-.665.502-1.086a1.167 1.167 0 0 0-.275-.778 2.544 2.544 0 0 0-.778-.567 15.831 15.831 0 0 0-1.54-.649c-.637-.225-1.26-.49-1.863-.794a3.257 3.257 0 0 1-1.183-1.02 2.544 2.544 0 0 1-.486-1.589c0-.956.34-1.701 1.037-2.252a4.343 4.343 0 0 1 2.771-.827c.81 0 1.523.146 2.155.421.582.245 1.082.65 1.443 1.167.347.517.528 1.128.518 1.75v.276a.194.194 0 0 1-.194.194h-1.459a.162.162 0 0 1-.13-.064.162.162 0 0 1-.064-.13v-.178a1.685 1.685 0 0 0-.616-1.297 2.69 2.69 0 0 0-1.734-.518 2.253 2.253 0 0 0-1.378.372c-.336.243-.525.64-.502 1.054 0 .324.081.583.26.794.217.237.482.424.777.55.52.25 1.057.467 1.605.65.761.29 1.377.55 1.847.793.457.246.86.582 1.183.989.324.437.486.972.486 1.604 0 .973-.356 1.75-1.07 2.318a4.667 4.667 0 0 1-2.949.858zM449.664 557.703a1.134 1.134 0 0 1-.826-.324 1.134 1.134 0 0 1-.324-.826 1.134 1.134 0 0 1 .324-.827c.22-.216.518-.333.826-.324.309-.009.607.108.827.324.216.22.333.519.324.827.009.308-.108.606-.324.826-.22.216-.518.333-.827.324zm-.777 9.416a.162.162 0 0 1-.13-.065.162.162 0 0 1-.065-.13v-7.908c0-.049.016-.097.065-.146a.178.178 0 0 1 .13-.049h1.49l.146.05a.26.26 0 0 1 .049.145v7.908a.194.194 0 0 1-.194.194h-1.491zM452.37 567.119a.162.162 0 0 1-.13-.065.162.162 0 0 1-.064-.13v-1.377a.324.324 0 0 1 .08-.227l3.987-4.683c.049-.065.033-.098-.048-.098h-3.744a.162.162 0 0 1-.13-.065.162.162 0 0 1-.064-.13v-1.312c0-.048.016-.097.064-.146a.178.178 0 0 1 .13-.048h5.899l.146.048a.26.26 0 0 1 .048.146v1.378a.324.324 0 0 1-.097.227l-4.067 4.683c-.05.065-.033.097.048.097h3.97l.146.049a.26.26 0 0 1 .05.146v1.312a.194.194 0 0 1-.194.194h-6.03zM467.086 562.046c.048.3.07.604.065.908l-.017.502c0 .13-.064.195-.194.195h-5.073c-.048 0-.08.032-.08.08.008.25.058.496.145.73.26.778.892 1.167 1.896 1.183.7.012 1.357-.33 1.75-.907.05-.065.098-.098.163-.098.042.001.083.018.113.049l1.005.827c.097.08.113.162.048.259-.34.475-.798.855-1.328 1.102a4.408 4.408 0 0 1-1.864.389 3.89 3.89 0 0 1-2.14-.567 3.241 3.241 0 0 1-1.296-1.589 6.482 6.482 0 0 1-.372-2.43c0-.633.064-1.135.194-1.524a3.16 3.16 0 0 1 1.232-1.799 3.533 3.533 0 0 1 2.155-.648c2.123 0 3.322 1.118 3.598 3.338zm-3.598-1.717c-.353-.016-.7.087-.988.291a1.62 1.62 0 0 0-.568.843c-.077.23-.12.47-.13.713-.016.049 0 .081.065.081h3.29c.049 0 .081-.032.081-.08a2.43 2.43 0 0 0-.097-.617 1.604 1.604 0 0 0-.567-.907 1.799 1.799 0 0 0-1.086-.324zM352.37 578.96c-.036.024-.036.048 0 .071.396.151.737.421.974.773.232.37.348.8.333 1.236 0 .713-.226 1.272-.678 1.664a2.686 2.686 0 0 1-1.806.594h-2.876c-.083 0-.119-.036-.119-.119v-8.081c0-.083.036-.119.119-.119h2.793c.772 0 1.366.19 1.818.57.45.409.69.999.654 1.605.011.391-.096.777-.31 1.105-.222.32-.537.564-.903.701zm-3.28-3.244c-.036 0-.048.012-.048.047v2.853c0 .035.012.047.047.047h2.02c.436.022.863-.117 1.201-.392.293-.268.453-.65.44-1.046a1.462 1.462 0 0 0-.44-1.105 1.711 1.711 0 0 0-1.2-.404h-2.02zm2.103 6.833c.44.023.873-.131 1.2-.428.3-.307.458-.724.44-1.152a1.569 1.569 0 0 0-.452-1.165 1.759 1.759 0 0 0-1.236-.428h-2.056c-.035 0-.047.012-.047.048v3.078c0 .035.012.047.047.047h2.104zM355.768 583.298c-.083 0-.118-.036-.118-.119v-8.081c0-.083.035-.119.118-.119h.606c.084 0 .12.036.12.119v8.081c0 .083-.036.119-.12.119h-.606zM363.742 574.979c.083 0 .119.036.119.119v.51c0 .084-.036.12-.119.12h-2.33c-.035 0-.047.012-.047.047v7.404c0 .083-.035.119-.119.119h-.606c-.083 0-.118-.036-.118-.119v-7.404c0-.035-.012-.047-.048-.047h-2.234c-.083 0-.12-.036-.12-.12v-.51c0-.083.037-.119.12-.119h5.502zM367.867 583.393a3.34 3.34 0 0 1-2.116-.606 1.937 1.937 0 0 1-.784-1.616v-.369c0-.083.036-.119.119-.119h.582c.083 0 .119.036.119.12v.32c0 .464.19.832.57 1.105.467.31 1.022.461 1.581.428.606 0 1.07-.13 1.39-.392.316-.243.493-.624.476-1.022a1.2 1.2 0 0 0-.214-.713 2.365 2.365 0 0 0-.677-.559c-.418-.23-.851-.433-1.296-.606a12.634 12.634 0 0 1-1.378-.63 2.258 2.258 0 0 1-.797-.689 1.747 1.747 0 0 1-.309-1.058c-.025-.6.235-1.178.702-1.556a3.042 3.042 0 0 1 1.901-.547c.88 0 1.569.202 2.08.618.499.395.781 1.004.76 1.64v.261c0 .084-.035.12-.118.12h-.595c-.083 0-.119-.036-.119-.12v-.214a1.39 1.39 0 0 0-.534-1.129 2.33 2.33 0 0 0-1.51-.44 2.14 2.14 0 0 0-1.295.345c-.304.24-.473.612-.452.999 0 .285.072.523.226.7.143.19.357.357.63.488.273.143.69.32 1.26.547.582.237 1.046.463 1.402.665a2.9 2.9 0 0 1 .856.749c.22.321.333.704.32 1.093a1.949 1.949 0 0 1-.736 1.593 3.197 3.197 0 0 1-2.044.594zM371.776 583.298c-.083 0-.118-.048-.095-.13l2.627-8.094a.143.143 0 0 1 .142-.095h.595c.083 0 .118.047.095.13l-2.627 8.094a.143.143 0 0 1-.142.095h-.595zM380.32 574.967c.702 0 1.26.214 1.688.642.43.454.656 1.063.63 1.687a2.222 2.222 0 0 1-.642 1.664 2.389 2.389 0 0 1-1.711.63h-2.317c-.036 0-.048.012-.048.048v3.541c0 .083-.036.119-.119.119h-.606c-.083 0-.119-.036-.119-.119v-8.093c0-.083.036-.119.12-.119h3.125zm-.094 3.922a1.51 1.51 0 0 0 1.58-1.58 1.557 1.557 0 0 0-.44-1.165 1.545 1.545 0 0 0-1.14-.44h-2.258c-.036 0-.048.012-.048.047v3.09c0 .036.012.048.048.048h2.258zM384.314 583.298c-.083 0-.119-.036-.119-.119v-8.081c0-.083.036-.119.12-.119h.605c.083 0 .119.036.119.119v8.081c0 .083-.036.119-.119.119h-.606zM386.703 583.298c-.047 0-.071-.012-.083-.048-.012-.023-.012-.059.012-.095l2.495-3.98a.071.071 0 0 0 0-.072l-2.495-3.981-.024-.072c0-.047.036-.071.095-.071h.666c.059 0 .107.024.142.083l2.116 3.387.035.012.036-.012 2.103-3.387a.154.154 0 0 1 .143-.083h.654c.047 0 .083.012.095.036.012.035 0 .07-.024.107l-2.484 3.993a.071.071 0 0 0 0 .071l2.484 3.97.024.07c0 .048-.036.072-.095.072h-.654a.154.154 0 0 1-.143-.083l-2.103-3.375-.036-.024-.035.024-2.116 3.375a.154.154 0 0 1-.142.083h-.666zM399.574 575.597c0 .083-.036.119-.12.119h-4.373c-.035 0-.047.012-.047.047v2.936c0 .035.012.047.047.047h3.067c.083 0 .118.036.118.12v.498c0 .083-.035.12-.118.12h-3.067c-.035 0-.047.011-.047.047v2.983c0 .035.012.047.047.047h4.374c.083 0 .119.036.119.119v.5c0 .082-.036.118-.12.118h-5.145c-.083 0-.119-.036-.119-.119v-8.081c0-.083.036-.119.119-.119h5.146c.083 0 .119.036.119.119v.499zM401.5 583.298c-.084 0-.12-.036-.12-.119v-8.081c0-.083.036-.119.12-.119h.606c.083 0 .118.036.118.119v7.416c0 .035.012.047.048.047h4.195c.083 0 .119.036.119.119v.5c0 .082-.036.118-.119.118H401.5zM410.768 584.534a.166.166 0 0 1-.142-.071 7.535 7.535 0 0 1-.94-2.223 10.791 10.791 0 0 1-.356-2.804c-.005-.967.119-1.93.369-2.865a7.725 7.725 0 0 1 .95-2.27.166.166 0 0 1 .143-.07h.57c.048 0 .084.011.096.035a.119.119 0 0 1-.012.107 8.795 8.795 0 0 0-.832 2.246 12.003 12.003 0 0 0 0 5.55c.173.776.453 1.524.832 2.222l.024.072c0 .047-.036.07-.107.07h-.595zM413.728 583.298c-.084 0-.12-.036-.12-.119v-8.081c0-.083.036-.119.12-.119h.606c.083 0 .119.036.119.119v7.416c0 .035.011.047.047.047h4.195c.083 0 .12.036.12.119v.5c0 .082-.037.118-.12.118h-4.967zM422.89 583.393a3.15 3.15 0 0 1-1.486-.345 2.365 2.365 0 0 1-.986-.974 2.805 2.805 0 0 1-.357-1.438v-2.995c0-.547.12-1.034.357-1.45.228-.41.57-.744.986-.962a3.15 3.15 0 0 1 1.486-.345c.558 0 1.058.119 1.497.345.417.22.763.554.999.962.234.447.353.945.344 1.45v2.995c0 .547-.119 1.034-.344 1.438a2.46 2.46 0 0 1-.999.974 3.233 3.233 0 0 1-1.497.345zm0-.725a1.949 1.949 0 0 0 1.45-.547c.374-.387.572-.911.546-1.45v-3.042a1.973 1.973 0 0 0-.546-1.462 1.949 1.949 0 0 0-1.45-.546c-.594 0-1.07.178-1.438.546-.376.392-.573.92-.547 1.462v3.043c0 .606.178 1.081.547 1.45.383.372.904.57 1.438.546zM429.26 583.298c-.059 0-.106-.036-.13-.095l-2.282-8.093-.012-.036c0-.06.036-.095.119-.095h.63c.071 0 .119.036.13.095l1.807 6.513.036.023.023-.023 1.676-6.501c.012-.071.06-.107.13-.107h.643c.07 0 .118.036.13.107l1.747 6.5.036.024.024-.023 1.806-6.513c.012-.06.06-.095.13-.095h.607c.036 0 .071.012.095.036.012.023.024.059.012.095l-2.246 8.093c-.012.06-.06.095-.13.095h-.63c-.072 0-.12-.036-.131-.107l-1.736-6.655-.023-.024c-.024 0-.024.012-.036.024l-1.7 6.655c-.011.071-.047.107-.13.107h-.594zM443.284 575.597c0 .083-.036.119-.119.119h-4.373c-.036 0-.048.012-.048.047v2.936c0 .035.012.047.048.047h3.066c.083 0 .119.036.119.12v.498c0 .083-.036.12-.12.12h-3.065c-.036 0-.048.011-.048.047v2.983c0 .035.012.047.048.047h4.373c.083 0 .119.036.119.119v.5c0 .082-.036.118-.119.118h-5.146c-.083 0-.119-.036-.119-.119v-8.081c0-.083.036-.119.12-.119h5.145c.083 0 .119.036.119.119v.499zM449.939 583.298c-.071 0-.119-.024-.143-.083l-1.747-3.684c-.012-.024-.023-.036-.047-.036h-2.02c-.036 0-.048.012-.048.048v3.636c0 .083-.036.119-.119.119h-.606c-.083 0-.119-.036-.119-.119v-8.081c0-.083.036-.119.119-.119h3.078a2.258 2.258 0 0 1 1.652.63c.425.447.652 1.047.63 1.664a2.258 2.258 0 0 1-.452 1.414c-.3.393-.737.66-1.224.749-.036.011-.036.035-.024.059l1.783 3.66.012.06c0 .06-.036.083-.095.083h-.63zm-3.958-7.582c-.035 0-.047.012-.047.047v3.007c0 .036.012.048.047.048h2.211c.463 0 .832-.143 1.117-.428a1.51 1.51 0 0 0 .428-1.117 1.545 1.545 0 0 0-.428-1.13 1.51 1.51 0 0 0-1.117-.427h-2.21zM454.86 583.298c-.084 0-.12-.036-.12-.119v-8.081c0-.083.036-.119.12-.119h.606c.083 0 .118.036.118.119v8.081c0 .083-.035.119-.118.119h-.606zM460.218 583.393a3.34 3.34 0 0 1-2.115-.606 1.937 1.937 0 0 1-.785-1.616v-.369c0-.083.036-.119.12-.119h.581c.084 0 .12.036.12.12v.32c0 .464.19.832.57 1.105.466.31 1.02.461 1.58.428.606 0 1.07-.13 1.39-.392.316-.243.493-.624.476-1.022a1.2 1.2 0 0 0-.214-.713 2.365 2.365 0 0 0-.677-.559c-.418-.23-.85-.433-1.296-.606a12.634 12.634 0 0 1-1.378-.63 2.258 2.258 0 0 1-.796-.689 1.747 1.747 0 0 1-.31-1.058c-.025-.6.235-1.178.702-1.556a3.042 3.042 0 0 1 1.901-.547c.88 0 1.569.202 2.08.618.5.395.781 1.004.76 1.64v.261c0 .084-.035.12-.118.12h-.594c-.084 0-.12-.036-.12-.12v-.214a1.39 1.39 0 0 0-.534-1.129 2.33 2.33 0 0 0-1.51-.44 2.14 2.14 0 0 0-1.295.345c-.304.24-.472.612-.451.999 0 .285.07.523.225.7.143.19.357.357.63.488.274.143.69.32 1.26.547.582.237 1.046.463 1.402.665a2.9 2.9 0 0 1 .856.749c.22.321.333.704.32 1.093a1.949 1.949 0 0 1-.736 1.593 3.197 3.197 0 0 1-2.044.594zM471.307 578.96c-.036.024-.036.048 0 .071.397.151.737.421.975.773.231.37.347.8.332 1.236 0 .713-.225 1.272-.677 1.664a2.686 2.686 0 0 1-1.806.594h-2.876c-.084 0-.12-.036-.12-.119v-8.081c0-.083.036-.119.12-.119h2.792c.773 0 1.367.19 1.819.57.449.409.69.999.653 1.605.012.391-.096.777-.309 1.105-.223.32-.538.564-.903.701zm-3.28-3.244c-.036 0-.047.012-.047.047v2.853c0 .035.011.047.047.047h2.02c.435.022.863-.117 1.2-.392.293-.268.454-.65.44-1.046a1.462 1.462 0 0 0-.44-1.105 1.711 1.711 0 0 0-1.2-.404h-2.02zm2.104 6.833c.44.023.872-.131 1.2-.428.299-.307.458-.724.44-1.152a1.569 1.569 0 0 0-.452-1.165 1.759 1.759 0 0 0-1.236-.428h-2.056c-.036 0-.047.012-.047.048v3.078c0 .035.011.047.047.047h2.104zM479.97 575.597c0 .083-.036.119-.119.119h-4.373c-.036 0-.048.012-.048.047v2.936c0 .035.012.047.048.047h3.066c.083 0 .119.036.119.12v.498c0 .083-.036.12-.12.12h-3.065c-.036 0-.048.011-.048.047v2.983c0 .035.012.047.048.047h4.373c.083 0 .119.036.119.119v.5c0 .082-.036.118-.119.118h-5.146c-.083 0-.119-.036-.119-.119v-8.081c0-.083.036-.119.12-.119h5.145c.083 0 .119.036.119.119v.499zM486.793 574.979c.083 0 .119.036.119.119v.51c0 .084-.036.12-.12.12h-2.329c-.035 0-.047.012-.047.047v7.404c0 .083-.036.119-.119.119h-.606c-.083 0-.119-.036-.119-.119v-7.404c0-.035-.012-.047-.047-.047h-2.235c-.083 0-.118-.036-.118-.12v-.51c0-.083.035-.119.118-.119h5.503zM493.555 574.979c.083 0 .119.036.119.119v.51c0 .084-.036.12-.12.12h-2.329c-.035 0-.047.012-.047.047v7.404c0 .083-.036.119-.119.119h-.606c-.083 0-.119-.036-.119-.119v-7.404c0-.035-.012-.047-.047-.047h-2.235c-.083 0-.119-.036-.119-.12v-.51c0-.083.036-.119.12-.119h5.502zM500.685 575.597c0 .083-.036.119-.119.119h-4.373c-.036 0-.048.012-.048.047v2.936c0 .035.012.047.048.047h3.066c.083 0 .119.036.119.12v.498c0 .083-.036.12-.12.12h-3.065c-.036 0-.048.011-.048.047v2.983c0 .035.012.047.048.047h4.373c.083 0 .119.036.119.119v.5c0 .082-.036.118-.119.118h-5.146c-.083 0-.119-.036-.119-.119v-8.081c0-.083.036-.119.12-.119h5.145c.083 0 .119.036.119.119v.499zM507.34 583.298c-.071 0-.119-.024-.143-.083l-1.747-3.684c-.012-.024-.023-.036-.047-.036h-2.02c-.036 0-.048.012-.048.048v3.636c0 .083-.036.119-.119.119h-.606c-.083 0-.119-.036-.119-.119v-8.081c0-.083.036-.119.119-.119h3.078a2.258 2.258 0 0 1 1.652.63c.425.447.652 1.047.63 1.664a2.258 2.258 0 0 1-.452 1.414c-.301.393-.737.66-1.224.749-.036.011-.036.035-.024.059l1.783 3.66.012.06c0 .06-.036.083-.095.083h-.63zm-3.958-7.582c-.035 0-.047.012-.047.047v3.007c0 .036.012.048.047.048h2.21c.464 0 .833-.143 1.118-.428a1.51 1.51 0 0 0 .428-1.117 1.545 1.545 0 0 0-.428-1.13 1.51 1.51 0 0 0-1.117-.427h-2.21zM510.371 574.23a.17.17 0 0 1 .143.072c.38.594.69 1.33.927 2.222a11.35 11.35 0 0 1 0 5.68 7.82 7.82 0 0 1-.963 2.259.166.166 0 0 1-.142.07h-.56c-.047 0-.082-.01-.094-.035a.119.119 0 0 1 .012-.107c.38-.71.66-1.47.832-2.258.61-2.606.317-5.343-.832-7.76l-.024-.071c0-.048.036-.072.107-.072h.594z"/></g></g><g id="Info-Axis-Left"><g id="Axis-Info-Vertical-Left" class="cls-58"><path class="cls-57" d="M18.005 372.203a.194.194 0 0 1 .194.194v5.527c0 .049.033.081.082.081h3.03c.049 0 .081-.032.081-.08v-3.712l.049-.146a.26.26 0 0 1 .146-.048h1.231a.194.194 0 0 1 .194.194v3.711c0 .049.033.081.082.081h3.127c.05 0 .081-.032.081-.08v-5.527l.05-.146a.26.26 0 0 1 .145-.049h1.232a.194.194 0 0 1 .194.194v7.294a.162.162 0 0 1-.065.13.162.162 0 0 1-.13.064H16.774a.198.198 0 0 1-.145-.065.178.178 0 0 1-.049-.13v-7.292l.049-.146a.26.26 0 0 1 .145-.049h1.232zM19.512 366.5c0-.876.26-1.573.778-2.108a2.885 2.885 0 0 1 2.123-.778h5.316a.194.194 0 0 1 .194.194v1.492a.162.162 0 0 1-.065.13.162.162 0 0 1-.13.064h-4.926a1.766 1.766 0 0 0-1.215.422 1.475 1.475 0 0 0-.454 1.118c-.022.421.144.83.454 1.118.325.3.757.458 1.199.438h4.943a.194.194 0 0 1 .194.194v1.491a.162.162 0 0 1-.065.13.162.162 0 0 1-.13.064h-7.892a.198.198 0 0 1-.145-.064.178.178 0 0 1-.05-.13v-1.49l.05-.147a.26.26 0 0 1 .145-.048h.519l.065-.033c.016-.016 0-.032-.033-.048-.583-.438-.875-1.119-.875-2.01zM28.053 358.267a3.565 3.565 0 0 1-.649 2.155 3.322 3.322 0 0 1-1.717 1.264 5.818 5.818 0 0 1-1.945.26c-.778 0-1.41-.082-1.912-.26a3.176 3.176 0 0 1-1.702-1.264 3.792 3.792 0 0 1-.616-2.155c0-.843.21-1.572.632-2.204a3.03 3.03 0 0 1 1.588-1.248c.179-.049.34-.098.519-.114h.032c.114 0 .179.065.195.178l.21 1.459v.032c0 .098-.048.162-.161.195l-.13.016-.227.065c-.31.1-.574.307-.745.583-.2.309-.302.67-.292 1.038-.016.37.093.735.308 1.037.212.293.523.5.875.583.47.126.956.181 1.442.162.6 0 1.07-.048 1.442-.146.351-.096.663-.3.892-.583.233-.3.354-.673.34-1.053a1.75 1.75 0 0 0-.324-1.07c-.2-.288-.5-.49-.843-.567l-.08-.016-.05-.017c-.129-.032-.178-.113-.161-.227l.226-1.458.065-.146a.194.194 0 0 1 .162-.032l.373.08a2.852 2.852 0 0 1 1.637 1.249c.416.658.63 1.424.616 2.204zM28.053 349.677a3.614 3.614 0 0 1-.649 2.188 3.42 3.42 0 0 1-1.798 1.297 6.288 6.288 0 0 1-3.695.016 3.29 3.29 0 0 1-1.767-1.297 3.84 3.84 0 0 1-.632-2.22c0-.826.21-1.54.632-2.139a3.338 3.338 0 0 1 1.75-1.264 5.98 5.98 0 0 1 3.695-.016 3.42 3.42 0 0 1 1.8 1.28c.447.628.68 1.384.664 2.155zm-1.62 0a1.62 1.62 0 0 0-.341-1.037 2.01 2.01 0 0 0-.956-.616 4.603 4.603 0 0 0-1.362-.162 4.327 4.327 0 0 0-1.36.162 1.783 1.783 0 0 0-.957.616c-.22.313-.334.688-.324 1.07-.007.372.107.735.324 1.037.247.303.58.524.956.632.444.12.902.174 1.361.162.535 0 .989-.049 1.362-.162a1.685 1.685 0 0 0 1.296-1.702zM16.773 339.046a.198.198 0 0 1-.145-.064.178.178 0 0 1-.049-.13v-1.491l.049-.146a.26.26 0 0 1 .145-.048H27.73a.194.194 0 0 1 .194.194v1.49a.162.162 0 0 1-.065.13.162.162 0 0 1-.13.065h-.486l-.064.033c-.017.016 0 .048.032.065.557.455.868 1.145.843 1.863a3.128 3.128 0 0 1-.6 1.945 3.37 3.37 0 0 1-1.67 1.15 6.58 6.58 0 0 1-2.025.292 6.482 6.482 0 0 1-1.977-.275 3.37 3.37 0 0 1-1.67-1.15 3.209 3.209 0 0 1-.599-1.994c0-.746.276-1.361.81-1.831.017-.017.033-.049.017-.065 0-.016-.016-.033-.049-.033h-3.517zm8.881.39a3.938 3.938 0 0 0-1.88-.373 3.679 3.679 0 0 0-1.928.405c-.448.246-.722.72-.713 1.231a1.491 1.491 0 0 0 .68 1.297 3.468 3.468 0 0 0 1.978.486c.761 0 1.377-.13 1.863-.389a1.49 1.49 0 0 0 .778-1.377c0-.551-.26-.973-.778-1.28zM18.507 334.055c.01.308-.108.607-.324.827-.22.215-.518.332-.826.324a1.134 1.134 0 0 1-.827-.324 1.134 1.134 0 0 1-.324-.827 1.134 1.134 0 0 1 .324-.826c.22-.216.519-.333.827-.325.308-.008.606.109.826.325.216.22.333.518.324.826zm9.416.778a.162.162 0 0 1-.065.13.162.162 0 0 1-.13.064H19.82a.198.198 0 0 1-.146-.064.178.178 0 0 1-.048-.13v-1.491l.048-.146a.26.26 0 0 1 .146-.048h7.909a.194.194 0 0 1 .194.194v1.49zM19.512 327.022c0-.875.26-1.572.778-2.107a2.885 2.885 0 0 1 2.123-.778h5.316a.194.194 0 0 1 .194.194v1.491a.162.162 0 0 1-.065.13.162.162 0 0 1-.13.065h-4.926a1.766 1.766 0 0 0-1.215.421 1.475 1.475 0 0 0-.454 1.119c-.022.421.144.83.454 1.118.325.3.757.458 1.199.437h4.943a.194.194 0 0 1 .194.194v1.492a.162.162 0 0 1-.065.13.162.162 0 0 1-.13.064h-7.892a.198.198 0 0 1-.145-.065.178.178 0 0 1-.05-.13v-1.49l.05-.146a.26.26 0 0 1 .145-.049h.519l.065-.032c.016-.016 0-.033-.033-.049-.583-.437-.875-1.118-.875-2.01zM19.836 317.104a.198.198 0 0 1-.145-.065.178.178 0 0 1-.05-.13v-1.49l.05-.147a.26.26 0 0 1 .145-.048h7.536c1.345 0 2.318.389 2.9 1.15.606.898.907 1.966.86 3.047 0 .33-.016.66-.049.989-.016.113-.08.178-.21.178l-1.33-.049c-.113 0-.178-.08-.178-.226.03-.28.047-.562.049-.843 0-.81-.162-1.41-.47-1.799-.324-.373-.859-.567-1.62-.567h-.13l-.065.032a.13.13 0 0 0 .032.065c.496.496.756 1.18.713 1.88.006.68-.18 1.348-.534 1.928a2.82 2.82 0 0 1-1.637 1.216c-.641.158-1.3.23-1.961.21a6.158 6.158 0 0 1-2.058-.259 3.112 3.112 0 0 1-1.588-1.118 3.08 3.08 0 0 1-.584-1.864c0-.859.243-1.523.746-1.993.032-.016.048-.049.032-.065l-.065-.032h-.389zm5.332.113a2.61 2.61 0 0 0-.535-.097l-.907-.016-.892.016c-.178.016-.34.065-.518.113-.337.07-.64.253-.86.519a1.62 1.62 0 0 0-.323 1.021c-.007.357.107.705.324.989.218.279.519.483.859.583.459.153.943.219 1.426.194.664 0 1.134-.048 1.41-.162.338-.104.633-.314.843-.6.23-.288.352-.65.34-1.02.015-.368-.1-.73-.324-1.021a1.523 1.523 0 0 0-.843-.519zM28.053 306.197a5.461 5.461 0 0 1-.405 2.204 3.209 3.209 0 0 1-1.135 1.443c-.504.349-1.105.53-1.718.518h-.405a.198.198 0 0 1-.146-.065.178.178 0 0 1-.048-.13v-1.442l.048-.145a.26.26 0 0 1 .146-.05h.308c.502 0 .908-.226 1.232-.664.363-.532.54-1.17.502-1.815a2.301 2.301 0 0 0-.421-1.49 1.329 1.329 0 0 0-1.086-.503 1.167 1.167 0 0 0-.778.276c-.237.22-.43.484-.567.777-.243.502-.46 1.016-.648 1.54-.225.637-.49 1.26-.794 1.864-.24.471-.59.877-1.021 1.183-.46.335-1.02.506-1.589.486-.956 0-1.701-.34-2.252-1.037a4.343 4.343 0 0 1-.827-2.771c0-.81.146-1.524.422-2.156a3.338 3.338 0 0 1 1.167-1.442 3.047 3.047 0 0 1 1.75-.519h.275a.194.194 0 0 1 .194.194v1.46a.162.162 0 0 1-.064.129.162.162 0 0 1-.13.065h-.178a1.685 1.685 0 0 0-1.297.616 2.69 2.69 0 0 0-.518 1.734c-.028.487.102.97.373 1.377.242.336.64.526 1.053.502.324 0 .583-.08.794-.259.237-.217.425-.482.551-.778.25-.52.466-1.056.648-1.604.292-.762.551-1.378.794-1.848.246-.457.583-.86.989-1.183.438-.324.972-.486 1.604-.486.973 0 1.75.357 2.318 1.07.61.858.913 1.897.859 2.95zM21.781 293.443a6.158 6.158 0 0 1 2.026-.291c.67-.011 1.336.082 1.977.275a3.452 3.452 0 0 1 1.67 1.135c.415.579.626 1.28.599 1.993.022.71-.283 1.39-.827 1.847-.016.017-.032.049-.016.065l.065.033h3.516a.26.26 0 0 1 .146.048.26.26 0 0 1 .049.146v1.49a.194.194 0 0 1-.194.194H19.835a.198.198 0 0 1-.145-.063.178.178 0 0 1-.05-.13v-1.491l.05-.146a.26.26 0 0 1 .145-.048h.487l.064-.033c.017-.016 0-.049-.032-.065a2.301 2.301 0 0 1-.843-1.863c0-.762.195-1.41.6-1.945a3.37 3.37 0 0 1 1.67-1.15zm3.97 2.107a3.565 3.565 0 0 0-1.977-.486 3.76 3.76 0 0 0-1.863.389c-.511.265-.821.803-.794 1.377-.018.54.288 1.037.778 1.264a3.84 3.84 0 0 0 1.88.373c.858 0 1.507-.13 1.944-.405.45-.235.728-.707.713-1.215a1.459 1.459 0 0 0-.68-1.297zM22.85 284.417c.3-.048.604-.07.908-.065l.503.016c.13 0 .194.065.194.195v5.072c0 .049.032.081.081.081.25-.01.496-.058.73-.146.777-.26 1.166-.891 1.182-1.896.012-.699-.329-1.357-.907-1.75-.065-.049-.097-.097-.097-.162 0-.043.018-.084.048-.114l.827-1.004c.08-.098.162-.114.259-.05.475.342.855.8 1.102 1.33.264.585.397 1.221.389 1.863a3.89 3.89 0 0 1-.567 2.14 3.241 3.241 0 0 1-1.588 1.296 6.482 6.482 0 0 1-2.431.373c-.632 0-1.135-.065-1.524-.195a3.16 3.16 0 0 1-1.799-1.231 3.533 3.533 0 0 1-.648-2.156c0-2.123 1.118-3.322 3.339-3.597zm-1.717 3.597c-.016.353.087.701.292.989.212.274.508.473.842.567.23.077.47.12.713.13.049.016.081 0 .081-.065v-3.29c0-.048-.032-.08-.08-.08a2.43 2.43 0 0 0-.617.096c-.358.08-.678.28-.907.568a1.799 1.799 0 0 0-.324 1.085zM22.85 275.65c.3-.049.604-.07.908-.065l.503.016c.13 0 .194.065.194.194v5.073c0 .048.032.08.081.08.25-.008.496-.058.73-.145.777-.26 1.166-.892 1.182-1.896.012-.7-.329-1.357-.907-1.75-.065-.05-.097-.098-.097-.163 0-.042.018-.083.048-.113l.827-1.005c.08-.097.162-.113.259-.048.475.34.855.798 1.102 1.328.264.586.397 1.222.389 1.864a3.89 3.89 0 0 1-.567 2.14 3.241 3.241 0 0 1-1.588 1.296 6.482 6.482 0 0 1-2.431.373c-.632 0-1.135-.065-1.524-.195a3.16 3.16 0 0 1-1.799-1.232 3.533 3.533 0 0 1-.648-2.155c0-2.123 1.118-3.322 3.339-3.598zm-1.717 3.597c-.016.353.087.7.292.989.212.274.508.473.842.567.23.077.47.12.713.13.049.016.081 0 .081-.065v-3.29c0-.049-.032-.081-.08-.081a2.43 2.43 0 0 0-.617.097c-.358.08-.678.28-.907.567a1.799 1.799 0 0 0-.324 1.086zM16.773 268.73a.198.198 0 0 1-.145-.065.178.178 0 0 1-.049-.13v-1.491l.049-.146a.26.26 0 0 1 .145-.048H27.73a.194.194 0 0 1 .194.194v1.491a.162.162 0 0 1-.065.13.162.162 0 0 1-.13.064h-.486l-.064.033c-.017.016 0 .048.032.065.557.455.868 1.145.843 1.863a3.128 3.128 0 0 1-.6 1.945 3.37 3.37 0 0 1-1.67 1.15 6.58 6.58 0 0 1-2.025.292 6.482 6.482 0 0 1-1.977-.275 3.37 3.37 0 0 1-1.67-1.15 3.209 3.209 0 0 1-.599-1.994c0-.746.276-1.361.81-1.831.017-.017.033-.049.017-.065 0-.016-.016-.033-.049-.033h-3.517zm8.881.388a3.938 3.938 0 0 0-1.88-.372 3.679 3.679 0 0 0-1.928.405c-.448.246-.722.72-.713 1.231a1.491 1.491 0 0 0 .68 1.297 3.468 3.468 0 0 0 1.978.486c.761 0 1.377-.13 1.863-.389a1.49 1.49 0 0 0 .778-1.377c0-.551-.26-.973-.778-1.28zM35.866 417.195a.155.155 0 0 1-.083-.142v-.618c0-.083.036-.119.119-.119h8.081c.083 0 .12.036.12.119v.606c0 .083-.037.119-.12.119h-6.607l-.048.024c-.012.011 0 .023.024.035l2.97 1.937a.154.154 0 0 1 .084.143v.309a.166.166 0 0 1-.071.143l-2.948 1.937c-.023.012-.035.023-.023.035l.047.024h6.572c.083 0 .12.036.12.119v.606c0 .083-.037.119-.12.119h-8.081c-.083 0-.119-.036-.119-.119v-.618a.17.17 0 0 1 .071-.143l3.387-2.234.012-.035-.012-.036-3.375-2.21zM36.401 408.709c.083 0 .119.036.119.119v4.373c0 .036.012.048.047.048h2.936c.036 0 .047-.012.047-.048v-3.066c0-.083.036-.119.12-.119h.498c.084 0 .12.036.12.119v3.066c0 .036.011.048.047.048h2.983c.035 0 .047-.012.047-.048v-4.373c0-.083.036-.12.12-.12h.498c.083 0 .12.037.12.12v5.146c0 .083-.037.118-.12.118h-8.081c-.083 0-.119-.035-.119-.118v-5.146c0-.083.036-.12.119-.12h.5zM44.197 404.372c.014.508-.1 1.01-.333 1.462a2.341 2.341 0 0 1-.915.975 2.615 2.615 0 0 1-1.366.356h-3.28a2.614 2.614 0 0 1-1.367-.356 2.448 2.448 0 0 1-.927-.975 3.15 3.15 0 0 1-.321-1.462c0-.546.107-1.034.32-1.462a2.365 2.365 0 0 1 2.2-1.319h.154c.083 0 .119.036.119.12v.605c0 .083-.036.12-.119.12h-.143a1.723 1.723 0 0 0-1.295.522 1.997 1.997 0 0 0-.5 1.414c-.025.521.16 1.03.512 1.414.352.36.84.555 1.343.535h3.327c.559 0 .999-.178 1.343-.546a2.02 2.02 0 0 0 .511-1.438 1.973 1.973 0 0 0-.475-1.39 1.64 1.64 0 0 0-1.272-.512h-1.081c-.036 0-.048.012-.048.048v1.747c0 .083-.035.118-.118.118h-.5c-.083 0-.118-.035-.118-.118v-2.52c0-.083.035-.119.118-.119H41.5a2.615 2.615 0 0 1 1.985.749c.476.511.713 1.188.713 2.032zM44.102 394.699a.143.143 0 0 1-.095.142l-1.497.475c-.024.012-.036.024-.036.048v3.553c0 .024.012.036.036.048l1.497.475c.06.021.099.08.095.143v.642c0 .083-.047.119-.13.095l-8.094-2.627a.143.143 0 0 1-.095-.142v-.808c0-.072.036-.12.095-.143l8.093-2.638.048-.012c.06 0 .083.035.083.107v.642zm-2.377 4.028c.012.012.024 0 .036-.012l.024-.035v-3.066a.095.095 0 0 0-.024-.048h-.036l-4.849 1.545-.023.036.023.035 4.85 1.545zM35.771 389.254c0-.7.214-1.26.642-1.687a2.317 2.317 0 0 1 1.688-.63 2.222 2.222 0 0 1 1.663.642c.428.464.655 1.08.63 1.711v2.318c0 .035.012.047.048.047h3.541c.083 0 .12.036.12.119v.606c0 .083-.037.119-.12.119H35.89c-.083 0-.119-.036-.119-.119v-3.126zm3.922.096a1.51 1.51 0 0 0-1.58-1.581 1.557 1.557 0 0 0-1.165.44 1.545 1.545 0 0 0-.44 1.14v2.259c0 .035.012.047.048.047h3.09c.035 0 .047-.012.047-.047v-2.258zM44.101 385.261c0 .083-.035.119-.119.119h-8.08c-.084 0-.12-.036-.12-.119v-.606c0-.083.036-.119.12-.119h8.08c.084 0 .12.036.12.119v.606zM44.102 382.874c0 .047-.012.071-.047.083-.024.012-.06.012-.095-.012l-3.982-2.496a.071.071 0 0 0-.071 0l-3.981 2.496-.072.024c-.047 0-.07-.036-.07-.095v-.666c0-.06.023-.107.082-.142l3.387-2.116.012-.036-.012-.035-3.387-2.104a.154.154 0 0 1-.083-.142v-.654c0-.047.012-.083.036-.095.035-.012.071 0 .107.024l3.993 2.484c.022.012.05.012.071 0l3.97-2.484.07-.024c.048 0 .072.036.072.095v.654a.154.154 0 0 1-.083.142l-3.375 2.104-.024.035.024.036 3.375 2.116a.154.154 0 0 1 .083.142v.666zM36.401 370.003c.083 0 .119.036.119.119v4.373c0 .036.012.048.047.048h2.936c.036 0 .047-.012.047-.048v-3.066c0-.083.036-.119.12-.119h.498c.084 0 .12.036.12.12v3.065c0 .036.011.048.047.048h2.983c.035 0 .047-.012.047-.048v-4.373c0-.083.036-.119.12-.119h.498c.083 0 .12.036.12.119v5.146c0 .083-.037.119-.12.119h-8.081c-.083 0-.119-.036-.119-.12v-5.145c0-.083.036-.119.119-.119h.5zM44.102 368.077c0 .083-.036.12-.119.12h-8.081c-.083 0-.119-.037-.119-.12v-.606c0-.083.036-.119.119-.119h7.416c.035 0 .047-.012.047-.047v-4.195c0-.084.036-.12.12-.12h.498c.083 0 .12.036.12.12v4.967zM44.197 359.046a3.34 3.34 0 0 1-.606 2.115c-.378.51-.981.804-1.616.784h-.369c-.083 0-.118-.035-.118-.118v-.583c0-.083.035-.119.118-.119h.321c.464 0 .832-.19 1.106-.57.31-.466.46-1.021.427-1.58 0-.607-.13-1.07-.392-1.391a1.224 1.224 0 0 0-1.022-.475 1.2 1.2 0 0 0-.713.214 2.365 2.365 0 0 0-.558.677c-.231.418-.434.85-.607 1.295-.182.472-.392.932-.63 1.379-.163.316-.4.589-.689.796-.31.215-.68.323-1.057.31a1.901 1.901 0 0 1-1.557-.702 3.042 3.042 0 0 1-.547-1.902c0-.879.202-1.568.618-2.08a2.008 2.008 0 0 1 1.64-.76h.262c.083 0 .118.036.118.119v.594c0 .083-.035.119-.118.119h-.214a1.39 1.39 0 0 0-1.13.535 2.33 2.33 0 0 0-.44 1.51 2.14 2.14 0 0 0 .346 1.295c.239.304.611.472.998.451.285 0 .523-.071.701-.226.19-.142.356-.356.487-.63.143-.273.321-.689.547-1.26.238-.582.463-1.045.665-1.402a2.9 2.9 0 0 1 .75-.855 1.83 1.83 0 0 1 1.092-.321 1.949 1.949 0 0 1 1.593.737c.426.593.635 1.314.594 2.044zM44.102 355.135c0 .083-.047.12-.13.095l-8.094-2.626a.143.143 0 0 1-.095-.143v-.594c0-.083.048-.119.13-.095l8.094 2.626c.06.022.099.08.095.143v.594zM44.197 347.35a3.34 3.34 0 0 1-.606 2.115c-.377.511-.981.804-1.616.785h-.369c-.083 0-.118-.036-.118-.12v-.581c0-.084.035-.12.118-.12h.321c.464 0 .832-.19 1.106-.57.31-.466.46-1.02.427-1.58 0-.606-.13-1.07-.392-1.39a1.224 1.224 0 0 0-1.022-.476 1.2 1.2 0 0 0-.713.214 2.365 2.365 0 0 0-.558.677c-.231.418-.434.85-.607 1.296-.182.471-.392.932-.63 1.378-.163.316-.4.589-.689.796-.31.215-.68.323-1.057.31a1.901 1.901 0 0 1-1.557-.702 3.042 3.042 0 0 1-.547-1.901c0-.88.202-1.569.618-2.08a2.008 2.008 0 0 1 1.64-.76h.262c.083 0 .118.035.118.118v.594c0 .084-.035.12-.118.12h-.214a1.39 1.39 0 0 0-1.13.534 2.33 2.33 0 0 0-.44 1.51 2.14 2.14 0 0 0 .346 1.295c.239.304.611.472.998.451.285 0 .523-.07.701-.225.19-.143.357-.357.487-.63.143-.274.321-.69.547-1.26.238-.582.463-1.046.665-1.402a2.9 2.9 0 0 1 .75-.856 1.83 1.83 0 0 1 1.093-.32 1.949 1.949 0 0 1 1.592.736c.426.593.635 1.315.594 2.044zM36.401 337.428c.083 0 .119.035.119.119v4.373c0 .036.012.048.047.048h2.936c.036 0 .047-.012.047-.048v-3.066c0-.083.036-.119.12-.119h.498c.084 0 .12.036.12.119v3.066c0 .036.011.048.047.048h2.983c.035 0 .047-.012.047-.048v-4.373c0-.084.036-.12.12-.12h.498c.083 0 .12.036.12.12v5.145c0 .084-.037.12-.12.12h-8.081c-.083 0-.119-.036-.119-.12v-5.145c0-.084.036-.12.119-.12h.5zM44.21 333.09c.013.507-.102 1.01-.334 1.461-.204.41-.527.75-.927.975a2.615 2.615 0 0 1-1.378.356h-3.268a2.614 2.614 0 0 1-1.367-.356 2.448 2.448 0 0 1-.927-.975 3.15 3.15 0 0 1-.321-1.462c0-.558.107-1.045.32-1.461.203-.408.516-.75.904-.987a2.614 2.614 0 0 1 1.343-.344.13.13 0 0 1 .095.035.119.119 0 0 1 .036.083l.035.607c0 .083-.035.118-.107.118h-.035c-.507-.02-1 .173-1.355.535a1.997 1.997 0 0 0-.5 1.414c-.025.521.16 1.03.512 1.415.352.36.84.554 1.343.534h3.327c.504.02.991-.174 1.343-.534.345-.357.511-.832.511-1.415a1.949 1.949 0 0 0-.51-1.414 1.759 1.759 0 0 0-1.344-.535h-.023c-.072 0-.107-.035-.107-.118l.035-.607c0-.083.036-.118.107-.118.511 0 .963.118 1.355.344.391.237.708.579.915.987.223.454.333.955.321 1.461zM45.338 325.769a.166.166 0 0 1-.071.142 7.535 7.535 0 0 1-2.223.94c-.915.24-1.858.36-2.804.356-.967.006-1.93-.118-2.864-.369a7.725 7.725 0 0 1-2.27-.95.166.166 0 0 1-.072-.143v-.57c0-.048.012-.084.036-.096a.119.119 0 0 1 .107.012 8.795 8.795 0 0 0 2.246.832c1.825.434 3.726.434 5.55 0a8.604 8.604 0 0 0 2.222-.832l.072-.023c.047 0 .071.035.071.107v.594zM35.902 318.198c-.083 0-.119-.035-.119-.118v-.606c0-.084.036-.12.119-.12h8.081c.083 0 .12.036.12.12v.606c0 .083-.037.118-.12.118h-3.648c-.036 0-.048.012-.048.048v3.791c0 .036.012.048.048.048h3.648c.083 0 .12.035.12.118v.607c0 .083-.037.118-.12.118h-8.081c-.083 0-.119-.035-.119-.118v-.607c0-.083.036-.118.119-.118h3.6c.037 0 .048-.012.048-.048v-3.791c0-.036-.011-.048-.047-.048h-3.601zM44.102 315.037c0 .083-.036.12-.119.12h-8.081c-.083 0-.119-.037-.119-.12v-.606c0-.083.036-.119.119-.119h8.081c.083 0 .12.036.12.12v.605zM44.197 309.547c.014.508-.1 1.01-.333 1.462a2.341 2.341 0 0 1-.915.975 2.615 2.615 0 0 1-1.366.356h-3.28a2.614 2.614 0 0 1-1.367-.356 2.448 2.448 0 0 1-.927-.975 3.15 3.15 0 0 1-.321-1.462c0-.546.107-1.034.32-1.461a2.365 2.365 0 0 1 2.2-1.32h.154c.083 0 .119.036.119.12v.605c0 .083-.036.12-.119.12h-.143a1.723 1.723 0 0 0-1.295.522 1.997 1.997 0 0 0-.5 1.414c-.025.521.16 1.03.512 1.415.352.36.84.554 1.343.534h3.327c.559 0 .999-.178 1.343-.546a2.02 2.02 0 0 0 .511-1.438 1.973 1.973 0 0 0-.475-1.39 1.64 1.64 0 0 0-1.272-.512h-1.081c-.036 0-.048.012-.048.048v1.747c0 .083-.035.119-.118.119h-.5c-.083 0-.118-.036-.118-.12v-2.519c0-.083.035-.119.118-.119H41.5a2.615 2.615 0 0 1 1.985.75c.476.51.713 1.187.713 2.031zM35.901 300.063c-.083 0-.119-.035-.119-.118v-.607c0-.083.036-.118.12-.118h8.08c.084 0 .12.035.12.118v.607c0 .083-.036.118-.12.118h-3.648c-.036 0-.048.012-.048.048v3.791c0 .036.012.048.048.048h3.648c.084 0 .12.035.12.118v.606c0 .084-.036.12-.12.12h-8.08c-.084 0-.12-.036-.12-.12v-.606c0-.083.036-.118.12-.118h3.6c.036 0 .048-.012.048-.048v-3.791c0-.036-.012-.048-.048-.048h-3.6zM36.401 291.638c.083 0 .119.036.119.12v4.372c0 .036.012.048.047.048h2.936c.036 0 .047-.012.047-.048v-3.066c0-.083.036-.119.12-.119h.498c.084 0 .12.036.12.12v3.065c0 .036.011.048.047.048h2.983c.035 0 .047-.012.047-.048v-4.373c0-.083.036-.119.12-.119h.498c.083 0 .12.036.12.12v5.145c0 .083-.037.119-.12.119h-8.081c-.083 0-.119-.036-.119-.119v-5.146c0-.083.036-.119.119-.119h.5zM44.101 284.982c0 .071-.023.119-.083.142l-3.684 1.747c-.024.012-.036.024-.036.048v2.02c0 .036.012.048.048.048h3.636c.084 0 .12.035.12.119v.606c0 .083-.036.118-.12.118h-8.08c-.084 0-.12-.035-.12-.118v-3.078a2.258 2.258 0 0 1 .63-1.652 2.294 2.294 0 0 1 1.664-.63 2.258 2.258 0 0 1 1.414.451c.393.302.66.738.749 1.225.012.035.036.035.06.023l3.66-1.782.06-.012c.059 0 .082.035.082.095v.63zm-7.582 3.957c0 .036.012.048.048.048h3.006c.036 0 .048-.012.048-.048v-2.21c0-.464-.143-.832-.428-1.117a1.51 1.51 0 0 0-1.117-.428 1.545 1.545 0 0 0-1.129.428 1.51 1.51 0 0 0-.428 1.117v2.21zM44.102 280.062c0 .083-.036.119-.119.119h-8.081c-.083 0-.119-.036-.119-.12v-.605c0-.083.036-.119.119-.119h8.081c.083 0 .12.036.12.119v.606zM44.197 274.703a3.34 3.34 0 0 1-.606 2.115c-.378.51-.981.804-1.616.784h-.369c-.083 0-.118-.035-.118-.118v-.583c0-.083.035-.119.118-.119h.321c.464 0 .832-.19 1.106-.57.31-.466.46-1.021.427-1.58 0-.607-.13-1.07-.392-1.391a1.224 1.224 0 0 0-1.022-.475 1.2 1.2 0 0 0-.713.213 2.365 2.365 0 0 0-.558.678c-.231.418-.434.85-.607 1.295-.182.472-.392.932-.63 1.379-.163.316-.4.589-.689.796-.31.214-.68.323-1.057.31a1.901 1.901 0 0 1-1.557-.702 3.042 3.042 0 0 1-.547-1.902c0-.879.202-1.568.618-2.08a2.008 2.008 0 0 1 1.64-.76h.262c.083 0 .118.036.118.119v.594c0 .083-.035.119-.118.119h-.214a1.39 1.39 0 0 0-1.13.535 2.33 2.33 0 0 0-.44 1.509 2.14 2.14 0 0 0 .346 1.295c.239.305.611.473.998.452.285 0 .523-.071.701-.226.19-.142.356-.356.487-.63.143-.273.321-.689.547-1.26.238-.582.463-1.045.665-1.402a2.9 2.9 0 0 1 .75-.855 1.83 1.83 0 0 1 1.092-.321 1.949 1.949 0 0 1 1.593.737c.426.593.635 1.314.594 2.044zM39.764 263.615c.024.036.048.036.072 0 .15-.397.42-.737.772-.974.37-.232.8-.348 1.236-.333.713 0 1.272.226 1.664.677.412.51.623 1.152.594 1.807v2.876c0 .083-.036.119-.119.119h-8.081c-.083 0-.119-.036-.119-.12v-2.792c0-.773.19-1.367.57-1.818.41-.45.999-.69 1.605-.654.391-.012.777.096 1.105.309.32.223.565.538.701.903zm-3.244 3.28c0 .036.012.048.047.048h2.853c.035 0 .047-.012.047-.048v-2.02a1.759 1.759 0 0 0-.392-1.2 1.355 1.355 0 0 0-1.046-.44 1.462 1.462 0 0 0-1.105.44 1.711 1.711 0 0 0-.404 1.2v2.02zm6.833-2.103a1.664 1.664 0 0 0-.427-1.2 1.557 1.557 0 0 0-1.153-.44 1.569 1.569 0 0 0-1.165.451c-.296.342-.45.785-.428 1.236v2.056c0 .036.012.048.048.048h3.078c.036 0 .047-.012.047-.048v-2.103zM36.402 254.95c.083 0 .119.036.119.12v4.373c0 .036.012.048.047.048h2.936c.035 0 .047-.012.047-.048v-3.066c0-.083.036-.119.12-.119h.498c.083 0 .12.036.12.119v3.066c0 .036.011.048.047.048h2.983c.035 0 .047-.012.047-.048v-4.373c0-.084.036-.12.119-.12h.5c.082 0 .118.036.118.12v5.145c0 .084-.036.12-.119.12h-8.081c-.083 0-.12-.036-.12-.12v-5.145c0-.084.037-.12.12-.12h.499zM35.783 248.13c0-.084.036-.12.119-.12h.511c.083 0 .119.036.119.12v2.329c0 .035.012.047.047.047h7.404c.083 0 .12.036.12.12v.605c0 .083-.037.12-.12.12H36.58c-.035 0-.047.011-.047.047v2.234c0 .083-.036.119-.119.119h-.511c-.083 0-.119-.036-.119-.12v-5.502zM35.783 241.367c0-.083.036-.12.119-.12h.511c.083 0 .119.037.119.12v2.33c0 .035.012.047.047.047h7.404c.083 0 .12.035.12.118v.607c0 .083-.037.118-.12.118H36.58c-.035 0-.047.012-.047.048v2.234c0 .083-.036.119-.119.119h-.511c-.083 0-.119-.036-.119-.119v-5.502zM36.4 234.236c.083 0 .12.036.12.12v4.373c0 .035.011.047.047.047h2.935c.036 0 .048-.012.048-.047v-3.066c0-.084.035-.12.118-.12h.5c.083 0 .118.036.118.12v3.066c0 .035.012.047.048.047h2.983c.036 0 .047-.012.047-.047v-4.374c0-.083.036-.119.12-.119h.498c.084 0 .12.036.12.12v5.145c0 .083-.036.119-.12.119h-8.08c-.084 0-.12-.036-.12-.119v-5.146c0-.083.036-.119.12-.119h.498zM44.102 227.582c0 .07-.024.118-.083.142l-3.684 1.747c-.024.012-.036.024-.036.048v2.02c0 .036.012.048.048.048h3.636c.083 0 .12.035.12.118v.607c0 .083-.037.118-.12.118h-8.081c-.083 0-.119-.035-.119-.118v-3.079a2.258 2.258 0 0 1 .63-1.651 2.294 2.294 0 0 1 1.664-.63 2.258 2.258 0 0 1 1.414.451c.393.301.66.738.749 1.224.012.036.035.036.06.024l3.66-1.783.059-.011c.06 0 .083.035.083.095v.63zm-7.582 3.957c0 .036.012.048.047.048h3.007c.036 0 .048-.012.048-.048v-2.21c0-.464-.143-.832-.428-1.118a1.51 1.51 0 0 0-1.117-.427 1.545 1.545 0 0 0-1.13.427 1.51 1.51 0 0 0-.427 1.118v2.21zM35.034 224.551a.17.17 0 0 1 .072-.143c.594-.38 1.33-.689 2.222-.927a11.35 11.35 0 0 1 5.68 0c.8.2 1.561.525 2.259.963a.166.166 0 0 1 .071.143v.558c0 .048-.012.083-.036.095a.119.119 0 0 1-.107-.012c-.71-.38-1.47-.66-2.258-.831a11.801 11.801 0 0 0-7.76.831l-.071.024c-.048 0-.072-.035-.072-.107v-.594z"/></g><g id="Arrow"><path style="stroke:url(#linear-gradient-52);stroke-width:2px;stroke-linecap:square;stroke-linejoin:round;fill:none" d="m39.304 208.036.877-79.366"/><path style="stroke-width:0;fill:url(#linear-gradient-53)" d="m45.15 130.184-4.89-8.69-5.082 8.58 9.972.11z"/></g></g><g class="cls-58"><path class="cls-57" d="M271.577 42.945a.368.368 0 0 1-.113-.272V21.04a.37.37 0 0 1 .113-.272.369.369 0 0 1 .271-.112h3.744a.37.37 0 0 1 .272.112.37.37 0 0 1 .112.272v17.983c0 .108.053.16.16.16H286.6c.107 0 .197.038.273.113a.371.371 0 0 1 .111.272v3.104a.371.371 0 0 1-.111.272.372.372 0 0 1-.273.112h-14.752a.367.367 0 0 1-.271-.112zM292.136 41.905c-1.28-.939-2.155-2.219-2.624-3.84-.299-1.003-.448-2.09-.448-3.264 0-1.259.15-2.39.448-3.392.49-1.579 1.376-2.816 2.656-3.712 1.28-.896 2.816-1.344 4.608-1.344 1.749 0 3.242.442 4.48 1.328 1.237.885 2.112 2.117 2.624 3.695.341 1.068.512 2.187.512 3.36 0 1.153-.15 2.23-.448 3.233-.47 1.664-1.339 2.97-2.608 3.92-1.269.95-2.8 1.423-4.592 1.423s-3.328-.468-4.608-1.407zm6.4-3.104c.49-.427.842-1.013 1.056-1.76a9.26 9.26 0 0 0 .256-2.24c0-.896-.086-1.654-.256-2.272-.235-.725-.597-1.29-1.088-1.697-.49-.404-1.088-.607-1.792-.607-.725 0-1.328.203-1.808.607-.48.406-.827.972-1.04 1.697-.171.511-.256 1.27-.256 2.272 0 .96.074 1.707.224 2.24.213.747.57 1.333 1.072 1.76s1.114.64 1.84.64c.704 0 1.3-.213 1.792-.64zM310.12 42.673c-1.068-.405-1.894-.97-2.48-1.696a3.811 3.811 0 0 1-.88-2.464v-.32a.37.37 0 0 1 .112-.273.37.37 0 0 1 .271-.111h3.552c.106 0 .197.037.272.111a.374.374 0 0 1 .113.273v.032c0 .47.26.87.783 1.2.522.33 1.179.495 1.969.495.724 0 1.311-.143 1.76-.431s.671-.645.671-1.073c0-.383-.192-.671-.576-.863s-1.014-.395-1.888-.608c-1.003-.257-1.792-.501-2.368-.737-1.365-.468-2.453-1.044-3.263-1.728-.812-.682-1.217-1.664-1.217-2.943 0-1.579.613-2.832 1.84-3.76 1.227-.928 2.853-1.392 4.88-1.392 1.366 0 2.56.218 3.584.655 1.024.438 1.819 1.052 2.384 1.84s.848 1.686.848 2.689a.371.371 0 0 1-.111.272.372.372 0 0 1-.273.112h-3.424a.37.37 0 0 1-.272-.112.371.371 0 0 1-.112-.272c0-.47-.24-.864-.72-1.184-.48-.32-1.114-.48-1.904-.48-.704 0-1.28.128-1.728.384-.447.255-.672.607-.672 1.056 0 .426.219.747.656.96.437.213 1.168.437 2.193.672.234.063.5.133.8.208.297.075.618.165.96.272 1.514.448 2.708 1.023 3.583 1.728.874.704 1.312 1.728 1.312 3.072 0 1.578-.624 2.81-1.872 3.696-1.248.885-2.928 1.328-5.04 1.328-1.429 0-2.677-.203-3.743-.608zM325.96 42.673c-1.067-.405-1.893-.97-2.48-1.696a3.811 3.811 0 0 1-.88-2.464v-.32a.37.37 0 0 1 .112-.273.37.37 0 0 1 .272-.111h3.552c.106 0 .197.037.272.111a.374.374 0 0 1 .112.273v.032c0 .47.261.87.784 1.2.522.33 1.178.495 1.968.495.725 0 1.312-.143 1.76-.431s.672-.645.672-1.073c0-.383-.192-.671-.576-.863s-1.014-.395-1.888-.608c-1.003-.257-1.792-.501-2.368-.737-1.365-.468-2.453-1.044-3.264-1.728-.811-.682-1.216-1.664-1.216-2.943 0-1.579.613-2.832 1.84-3.76 1.227-.928 2.853-1.392 4.88-1.392 1.366 0 2.56.218 3.584.655 1.024.438 1.819 1.052 2.384 1.84s.848 1.686.848 2.689a.371.371 0 0 1-.112.272.372.372 0 0 1-.272.112h-3.424a.37.37 0 0 1-.272-.112.371.371 0 0 1-.112-.272c0-.47-.24-.864-.72-1.184-.48-.32-1.115-.48-1.904-.48-.704 0-1.28.128-1.728.384-.448.255-.672.607-.672 1.056 0 .426.219.747.656.96.437.213 1.168.437 2.193.672.234.063.5.133.8.208.297.075.617.165.96.272 1.514.448 2.708 1.023 3.583 1.728.874.704 1.312 1.728 1.312 3.072 0 1.578-.624 2.81-1.872 3.696-1.248.885-2.928 1.328-5.04 1.328-1.429 0-2.677-.203-3.743-.608zM339.32 42.945a.368.368 0 0 1-.112-.272V21.04a.37.37 0 0 1 .112-.272.37.37 0 0 1 .271-.112h3.745c.106 0 .197.037.272.112a.373.373 0 0 1 .111.272v21.632a.371.371 0 0 1-.111.272.372.372 0 0 1-.272.112h-3.745a.368.368 0 0 1-.271-.112zM361.704 35.856c-.022.257-.16.385-.416.385H351.4c-.128 0-.17.053-.128.16.065.427.18.853.353 1.28.553 1.194 1.684 1.792 3.391 1.792 1.365-.021 2.443-.577 3.233-1.664.085-.128.18-.192.287-.192.064 0 .138.043.224.128l2.304 2.272c.106.107.16.203.16.288 0 .043-.043.128-.128.256-.704.875-1.611 1.552-2.72 2.032-1.11.48-2.326.72-3.648.72-1.835 0-3.387-.417-4.656-1.249s-2.182-1.994-2.736-3.487c-.448-1.067-.672-2.464-.672-4.192 0-1.174.16-2.208.48-3.104.49-1.515 1.349-2.72 2.576-3.616 1.227-.896 2.683-1.344 4.368-1.344 2.133 0 3.845.618 5.136 1.856 1.29 1.237 2.074 2.89 2.352 4.96.128.81.17 1.717.128 2.72zm-10.24-3.743a7.52 7.52 0 0 0-.224 1.024c0 .107.054.16.16.16h5.536c.128 0 .171-.053.128-.16-.106-.619-.16-.917-.16-.896-.192-.64-.527-1.137-1.008-1.489-.48-.351-1.072-.527-1.776-.527-1.344 0-2.23.629-2.656 1.888zM367.08 42.673c-1.067-.405-1.893-.97-2.48-1.696a3.811 3.811 0 0 1-.88-2.464v-.32a.37.37 0 0 1 .113-.273.37.37 0 0 1 .271-.111h3.552c.106 0 .197.037.272.111a.374.374 0 0 1 .113.273v.032c0 .47.26.87.783 1.2.522.33 1.179.495 1.969.495.724 0 1.311-.143 1.76-.431s.671-.645.671-1.073c0-.383-.192-.671-.576-.863s-1.014-.395-1.888-.608c-1.003-.257-1.792-.501-2.368-.737-1.365-.468-2.453-1.044-3.263-1.728-.812-.682-1.217-1.664-1.217-2.943 0-1.579.613-2.832 1.84-3.76 1.227-.928 2.853-1.392 4.88-1.392 1.366 0 2.56.218 3.584.655 1.024.438 1.819 1.052 2.384 1.84s.848 1.686.848 2.689a.371.371 0 0 1-.111.272.372.372 0 0 1-.273.112h-3.424a.37.37 0 0 1-.272-.112.371.371 0 0 1-.112-.272c0-.47-.24-.864-.72-1.184-.48-.32-1.115-.48-1.904-.48-.704 0-1.28.128-1.728.384-.447.255-.672.607-.672 1.056 0 .426.219.747.656.96.437.213 1.168.437 2.193.672.234.063.5.133.8.208.297.075.618.165.96.272 1.514.448 2.708 1.023 3.583 1.728.874.704 1.312 1.728 1.312 3.072 0 1.578-.624 2.81-1.872 3.696-1.248.885-2.928 1.328-5.04 1.328-1.429 0-2.677-.203-3.743-.608zM382.92 42.673c-1.067-.405-1.893-.97-2.48-1.696a3.811 3.811 0 0 1-.88-2.464v-.32a.37.37 0 0 1 .112-.273.37.37 0 0 1 .272-.111h3.552c.106 0 .197.037.272.111a.374.374 0 0 1 .112.273v.032c0 .47.261.87.784 1.2.522.33 1.178.495 1.968.495.725 0 1.312-.143 1.76-.431s.672-.645.672-1.073c0-.383-.192-.671-.576-.863s-1.014-.395-1.888-.608c-1.003-.257-1.792-.501-2.368-.737-1.365-.468-2.453-1.044-3.264-1.728-.811-.682-1.216-1.664-1.216-2.943 0-1.579.613-2.832 1.84-3.76 1.227-.928 2.853-1.392 4.88-1.392 1.365 0 2.56.218 3.584.655 1.024.438 1.819 1.052 2.384 1.84s.848 1.686.848 2.689a.371.371 0 0 1-.112.272.372.372 0 0 1-.272.112h-3.424a.37.37 0 0 1-.272-.112.371.371 0 0 1-.112-.272c0-.47-.24-.864-.72-1.184-.48-.32-1.115-.48-1.904-.48-.704 0-1.28.128-1.728.384-.448.255-.672.607-.672 1.056 0 .426.219.747.656.96.437.213 1.168.437 2.192.672.235.063.501.133.8.208.298.075.618.165.96.272 1.515.448 2.71 1.023 3.584 1.728.874.704 1.312 1.728 1.312 3.072 0 1.578-.624 2.81-1.872 3.696-1.248.885-2.928 1.328-5.04 1.328-1.43 0-2.677-.203-3.744-.608zM406.344 42.336c-1.26-.65-2.23-1.562-2.912-2.735-.683-1.173-1.024-2.528-1.024-4.064v-7.392c0-1.537.34-2.891 1.024-4.064.683-1.173 1.653-2.08 2.912-2.72 1.258-.64 2.72-.96 4.384-.96 1.643 0 3.088.304 4.336.911s2.219 1.473 2.912 2.593c.693 1.12 1.04 2.416 1.04 3.887 0 .193-.128.31-.385.353l-3.743.224h-.064c-.214 0-.32-.118-.32-.352 0-1.13-.347-2.038-1.04-2.72s-1.606-1.025-2.736-1.025c-1.152 0-2.075.342-2.768 1.025s-1.04 1.59-1.04 2.72v7.711c0 1.11.346 2.006 1.04 2.688.693.684 1.616 1.024 2.768 1.024 1.13 0 2.042-.34 2.735-1.024.694-.682 1.04-1.578 1.04-2.688 0-.234.128-.352.385-.352l3.743.16c.108 0 .198.033.273.097a.29.29 0 0 1 .112.223c0 1.473-.347 2.774-1.04 3.905-.693 1.13-1.664 2.005-2.912 2.624s-2.693.927-4.336.927c-1.664 0-3.126-.324-4.384-.976zM424.648 41.905c-1.28-.939-2.155-2.219-2.624-3.84-.299-1.003-.448-2.09-.448-3.264 0-1.259.15-2.39.448-3.392.49-1.579 1.376-2.816 2.655-3.712 1.28-.896 2.817-1.344 4.609-1.344 1.749 0 3.242.442 4.48 1.328 1.236.885 2.111 2.117 2.624 3.695.341 1.068.512 2.187.512 3.36 0 1.153-.15 2.23-.448 3.233-.47 1.664-1.34 2.97-2.609 3.92-1.268.95-2.8 1.423-4.592 1.423s-3.328-.468-4.607-1.407zm6.4-3.104c.49-.427.842-1.013 1.056-1.76a9.26 9.26 0 0 0 .256-2.24c0-.896-.086-1.654-.256-2.272-.235-.725-.598-1.29-1.088-1.697-.491-.404-1.089-.607-1.792-.607-.725 0-1.328.203-1.808.607-.48.406-.828.972-1.04 1.697-.171.511-.256 1.27-.256 2.272 0 .96.074 1.707.223 2.24.213.747.572 1.333 1.073 1.76s1.114.64 1.84.64c.704 0 1.3-.213 1.791-.64zM461.959 27.856c.938 1.004 1.408 2.412 1.408 4.225v10.592a.368.368 0 0 1-.113.272.368.368 0 0 1-.271.112h-3.744a.368.368 0 0 1-.272-.112.368.368 0 0 1-.112-.272v-9.6c0-.875-.224-1.568-.672-2.08s-1.046-.768-1.792-.768c-.747 0-1.355.255-1.824.768-.47.512-.704 1.194-.704 2.048v9.632a.368.368 0 0 1-.112.272.368.368 0 0 1-.272.112h-3.712c-.107 0-.197-.037-.272-.112s-.112-.165-.112-.272v-9.6c0-.853-.235-1.541-.704-2.064-.47-.523-1.078-.784-1.824-.784-.683 0-1.254.203-1.712.607-.459.406-.731.972-.816 1.697v10.144a.371.371 0 0 1-.112.272.372.372 0 0 1-.272.112h-3.744a.368.368 0 0 1-.272-.112.368.368 0 0 1-.112-.272v-15.68c0-.107.037-.198.112-.272a.369.369 0 0 1 .272-.113h3.744c.106 0 .197.038.272.113a.372.372 0 0 1 .112.272v1.248c0 .064.021.107.064.128.042.021.085 0 .128-.064.874-1.302 2.229-1.952 4.064-1.952 1.066 0 2 .224 2.8.671a4.514 4.514 0 0 1 1.84 1.92c.064.129.139.129.224 0 .469-.874 1.104-1.525 1.904-1.951s1.701-.64 2.704-.64c1.664 0 2.965.501 3.904 1.503zM481.8 34.865c0 1.471-.204 2.805-.608 4-.491 1.365-1.265 2.447-2.32 3.248-1.056.8-2.364 1.2-3.92 1.2-1.536 0-2.732-.533-3.584-1.6-.043-.065-.086-.086-.128-.065-.043.022-.065.064-.065.129v6.847a.372.372 0 0 1-.11.272.373.373 0 0 1-.273.113h-3.745a.369.369 0 0 1-.271-.113.369.369 0 0 1-.112-.272V26.993c0-.107.037-.198.112-.272a.369.369 0 0 1 .271-.113h3.745c.106 0 .197.038.272.113a.372.372 0 0 1 .111.272v1.056c0 .064.022.1.065.112.042.01.085-.005.128-.048.895-1.174 2.133-1.76 3.712-1.76 1.471 0 2.746.41 3.824 1.231 1.077.822 1.85 1.969 2.32 3.44.384 1.089.575 2.369.575 3.84zm-4.672-.064c0-1.344-.224-2.41-.672-3.2-.492-.917-1.28-1.376-2.369-1.376-.981 0-1.717.459-2.208 1.376-.448.768-.671 1.845-.671 3.231 0 1.43.234 2.54.704 3.329.49.853 1.216 1.28 2.175 1.28s1.708-.417 2.24-1.248c.534-.832.8-1.963.8-3.392zM494.727 26.832c.171.086.235.246.193.48l-.672 3.648c-.022.257-.171.331-.449.225a3.553 3.553 0 0 0-1.12-.16c-.17 0-.405.02-.704.064-.767.064-1.419.347-1.952.847-.533.502-.8 1.168-.8 2v8.737a.371.371 0 0 1-.111.272.372.372 0 0 1-.273.112h-3.744a.368.368 0 0 1-.271-.112.368.368 0 0 1-.112-.272v-15.68c0-.107.037-.198.112-.272a.369.369 0 0 1 .271-.113h3.744c.107 0 .198.038.273.113a.372.372 0 0 1 .111.272v1.215c0 .064.022.107.065.128.042.022.074.012.095-.031.875-1.28 2.048-1.92 3.52-1.92.768 0 1.377.15 1.824.447zM511.239 35.856c-.022.257-.16.385-.416.385h-9.888c-.128 0-.17.053-.128.16.065.427.18.853.353 1.28.553 1.194 1.684 1.792 3.391 1.792 1.366-.021 2.443-.577 3.233-1.664.085-.128.18-.192.287-.192.064 0 .139.043.224.128l2.304 2.272c.107.107.16.203.16.288 0 .043-.043.128-.128.256-.704.875-1.61 1.552-2.72 2.032s-2.325.72-3.648.72c-1.835 0-3.386-.417-4.656-1.249s-2.182-1.994-2.735-3.487c-.449-1.067-.673-2.464-.673-4.192 0-1.174.16-2.208.48-3.104.49-1.515 1.349-2.72 2.576-3.616 1.227-.896 2.683-1.344 4.369-1.344 2.132 0 3.844.618 5.135 1.856 1.29 1.237 2.075 2.89 2.352 4.96.128.81.17 1.717.128 2.72zm-10.24-3.743a7.52 7.52 0 0 0-.224 1.024c0 .107.054.16.16.16h5.536c.128 0 .171-.053.128-.16-.106-.619-.16-.917-.16-.896-.191-.64-.527-1.137-1.008-1.489-.48-.351-1.072-.527-1.776-.527-1.344 0-2.23.629-2.655 1.888zM516.616 42.673c-1.068-.405-1.894-.97-2.48-1.696a3.811 3.811 0 0 1-.88-2.464v-.32a.37.37 0 0 1 .112-.273.37.37 0 0 1 .271-.111h3.552c.106 0 .197.037.272.111a.374.374 0 0 1 .113.273v.032c0 .47.26.87.783 1.2.522.33 1.179.495 1.969.495.724 0 1.311-.143 1.76-.431s.671-.645.671-1.073c0-.383-.192-.671-.576-.863s-1.013-.395-1.888-.608c-1.002-.257-1.791-.501-2.368-.737-1.365-.468-2.453-1.044-3.263-1.728-.812-.682-1.217-1.664-1.217-2.943 0-1.579.613-2.832 1.84-3.76 1.227-.928 2.853-1.392 4.88-1.392 1.366 0 2.56.218 3.585.655 1.023.438 1.818 1.052 2.383 1.84s.848 1.686.848 2.689a.371.371 0 0 1-.111.272.372.372 0 0 1-.273.112h-3.424a.37.37 0 0 1-.272-.112.371.371 0 0 1-.111-.272c0-.47-.24-.864-.721-1.184-.48-.32-1.114-.48-1.903-.48-.705 0-1.28.128-1.729.384-.447.255-.672.607-.672 1.056 0 .426.219.747.656.96.437.213 1.168.437 2.193.672.234.063.5.133.8.208.297.075.618.165.96.272 1.514.448 2.709 1.023 3.584 1.728.874.704 1.311 1.728 1.311 3.072 0 1.578-.624 2.81-1.872 3.696-1.248.885-2.928 1.328-5.04 1.328-1.429 0-2.677-.203-3.743-.608zM532.456 42.673c-1.068-.405-1.894-.97-2.48-1.696a3.811 3.811 0 0 1-.88-2.464v-.32a.37.37 0 0 1 .112-.273.37.37 0 0 1 .271-.111h3.552c.106 0 .197.037.272.111a.374.374 0 0 1 .113.273v.032c0 .47.26.87.783 1.2.522.33 1.179.495 1.969.495.724 0 1.311-.143 1.76-.431s.671-.645.671-1.073c0-.383-.192-.671-.576-.863s-1.014-.395-1.888-.608c-1.003-.257-1.792-.501-2.368-.737-1.365-.468-2.453-1.044-3.264-1.728-.811-.682-1.216-1.664-1.216-2.943 0-1.579.613-2.832 1.84-3.76 1.227-.928 2.853-1.392 4.88-1.392 1.366 0 2.56.218 3.584.655 1.024.438 1.819 1.052 2.384 1.84s.848 1.686.848 2.689a.371.371 0 0 1-.112.272.372.372 0 0 1-.272.112h-3.424a.37.37 0 0 1-.272-.112.371.371 0 0 1-.112-.272c0-.47-.24-.864-.72-1.184-.48-.32-1.115-.48-1.904-.48-.704 0-1.28.128-1.728.384-.447.255-.672.607-.672 1.056 0 .426.219.747.656.96.437.213 1.168.437 2.193.672.234.063.5.133.8.208.297.075.618.165.96.272 1.514.448 2.708 1.023 3.583 1.728.874.704 1.312 1.728 1.312 3.072 0 1.578-.624 2.81-1.872 3.696-1.248.885-2.928 1.328-5.04 1.328-1.429 0-2.677-.203-3.743-.608zM546.328 24.033c-.48-.48-.72-1.083-.72-1.808 0-.747.234-1.355.704-1.824.469-.47 1.076-.704 1.823-.704s1.355.235 1.825.704c.468.47.704 1.077.704 1.824 0 .725-.24 1.328-.72 1.808s-1.083.72-1.809.72-1.328-.24-1.807-.72zm-.384 18.912a.368.368 0 0 1-.112-.272V26.96a.37.37 0 0 1 .112-.272.37.37 0 0 1 .271-.111h3.745c.106 0 .197.037.272.111a.373.373 0 0 1 .111.272v15.713a.371.371 0 0 1-.111.272.372.372 0 0 1-.272.112h-3.745a.368.368 0 0 1-.271-.112zM556.52 41.905c-1.28-.939-2.155-2.219-2.624-3.84-.299-1.003-.448-2.09-.448-3.264 0-1.259.15-2.39.448-3.392.49-1.579 1.376-2.816 2.655-3.712 1.28-.896 2.817-1.344 4.609-1.344 1.749 0 3.242.442 4.48 1.328 1.237.885 2.112 2.117 2.624 3.695.341 1.068.512 2.187.512 3.36 0 1.153-.15 2.23-.448 3.233-.47 1.664-1.34 2.97-2.609 3.92-1.268.95-2.8 1.423-4.591 1.423s-3.329-.468-4.608-1.407zm6.4-3.104c.49-.427.842-1.013 1.056-1.76a9.26 9.26 0 0 0 .256-2.24c0-.896-.086-1.654-.256-2.272-.235-.725-.597-1.29-1.088-1.697-.49-.404-1.089-.607-1.792-.607-.725 0-1.328.203-1.808.607-.48.406-.827.972-1.04 1.697-.171.511-.256 1.27-.256 2.272 0 .96.074 1.707.223 2.24.213.747.572 1.333 1.073 1.76s1.114.64 1.84.64c.704 0 1.3-.213 1.792-.64zM584.391 27.92c1.045 1.046 1.568 2.465 1.568 4.257v10.496a.371.371 0 0 1-.112.272.372.372 0 0 1-.272.112h-3.744a.368.368 0 0 1-.272-.112.368.368 0 0 1-.112-.272v-9.569c0-.853-.24-1.546-.72-2.08-.48-.532-1.115-.8-1.904-.8s-1.424.268-1.903.8c-.481.534-.721 1.227-.721 2.08v9.569a.371.371 0 0 1-.112.272.372.372 0 0 1-.272.112h-3.744a.368.368 0 0 1-.272-.112.368.368 0 0 1-.112-.272v-15.68c0-.107.037-.198.112-.272a.369.369 0 0 1 .272-.113h3.744c.106 0 .197.038.272.113a.372.372 0 0 1 .112.272v1.12c0 .064.021.107.064.128.042.021.074.01.096-.033.875-1.236 2.176-1.855 3.904-1.855 1.706 0 3.082.522 4.128 1.567zM591.447 31.712c-.48-.48-.72-1.082-.72-1.807 0-.747.235-1.355.704-1.824.469-.47 1.077-.705 1.823-.705.748 0 1.355.236 1.825.705.47.47.704 1.077.704 1.824 0 .725-.24 1.327-.72 1.807s-1.083.72-1.809.72c-.724 0-1.327-.24-1.807-.72zm0 10.465c-.48-.48-.72-1.083-.72-1.808 0-.747.235-1.355.704-1.825.469-.468 1.077-.703 1.823-.703.748 0 1.355.235 1.825.703.47.47.704 1.078.704 1.825 0 .725-.24 1.328-.72 1.808s-1.083.72-1.809.72c-.724 0-1.327-.24-1.807-.72zM238.49 56.416a.367.367 0 0 1-.272.113h-10.496c-.107 0-.16.053-.16.16v4.96c0 .107.053.16.16.16h6.88c.107 0 .197.037.273.111a.373.373 0 0 1 .11.273v3.104a.371.371 0 0 1-.11.272.372.372 0 0 1-.273.112h-6.88c-.107 0-.16.053-.16.16v5.183c0 .108.053.16.16.16h10.496c.107 0 .198.038.272.113a.368.368 0 0 1 .112.272v3.104a.368.368 0 0 1-.112.272.368.368 0 0 1-.272.112h-14.784a.367.367 0 0 1-.271-.112.368.368 0 0 1-.113-.272V53.04a.37.37 0 0 1 .113-.271.369.369 0 0 1 .271-.112h14.784a.37.37 0 0 1 .272.112.37.37 0 0 1 .112.272v3.104a.367.367 0 0 1-.112.271zM254.154 59.92c1.045 1.046 1.567 2.465 1.567 4.257v10.496a.371.371 0 0 1-.111.272.372.372 0 0 1-.273.112h-3.744a.368.368 0 0 1-.271-.112.368.368 0 0 1-.112-.272v-9.569c0-.853-.24-1.546-.72-2.08-.48-.532-1.115-.8-1.904-.8s-1.424.268-1.904.8c-.48.534-.72 1.227-.72 2.08v9.569a.371.371 0 0 1-.112.272.372.372 0 0 1-.272.112h-3.744a.368.368 0 0 1-.272-.112.368.368 0 0 1-.112-.272v-15.68c0-.107.037-.198.112-.272a.369.369 0 0 1 .272-.113h3.744c.106 0 .197.038.272.113a.372.372 0 0 1 .112.272v1.12c0 .064.021.107.064.128.042.021.074.01.096-.033.875-1.236 2.175-1.855 3.904-1.855 1.706 0 3.082.522 4.128 1.567zM261.658 74.033c-1.248-.853-2.139-2.027-2.672-3.52-.363-1.067-.544-2.326-.544-3.776 0-1.43.18-2.667.544-3.713.512-1.45 1.397-2.591 2.656-3.423 1.258-.832 2.741-1.248 4.448-1.248 1.706 0 3.205.427 4.496 1.28 1.29.853 2.149 1.93 2.576 3.232.17.511.256.896.256 1.152v.064c0 .191-.107.31-.32.352l-3.68.544h-.064c-.192 0-.32-.107-.384-.32l-.096-.512c-.15-.555-.48-1.013-.992-1.376s-1.12-.544-1.824-.544c-.683 0-1.259.17-1.728.512s-.8.81-.993 1.407c-.234.64-.351 1.516-.351 2.625s.106 1.983.32 2.624c.192.64.528 1.141 1.008 1.503.48.364 1.06.544 1.744.544.661 0 1.242-.175 1.744-.527.501-.352.848-.837 1.04-1.456a.459.459 0 0 0 .032-.192c.021-.021.032-.054.032-.097.021-.255.17-.362.448-.32l3.68.577c.213.043.32.16.32.352 0 .17-.064.49-.192.96-.449 1.429-1.318 2.55-2.608 3.36s-2.779 1.215-4.464 1.215c-1.707 0-3.184-.426-4.432-1.28zM278.506 73.905c-1.28-.939-2.155-2.219-2.624-3.84-.298-1.003-.448-2.09-.448-3.264 0-1.259.15-2.39.448-3.392.49-1.579 1.376-2.816 2.656-3.712 1.28-.896 2.816-1.344 4.608-1.344 1.75 0 3.242.442 4.48 1.328 1.237.885 2.112 2.117 2.625 3.695.34 1.068.511 2.187.511 3.36 0 1.153-.15 2.23-.448 3.233-.47 1.664-1.339 2.97-2.608 3.92-1.269.95-2.8 1.423-4.592 1.423s-3.328-.468-4.608-1.407zm6.4-3.104c.491-.427.843-1.013 1.056-1.76a9.26 9.26 0 0 0 .256-2.24c0-.896-.086-1.654-.256-2.272-.235-.725-.597-1.29-1.087-1.697-.492-.404-1.09-.607-1.792-.607-.726 0-1.329.203-1.809.607-.48.406-.827.972-1.04 1.697-.17.512-.256 1.27-.256 2.272 0 .96.074 1.707.224 2.24.213.747.571 1.333 1.072 1.76s1.114.64 1.84.64c.704 0 1.3-.213 1.792-.64zM303.995 52.769a.37.37 0 0 1 .271-.112h3.744c.107 0 .198.037.273.112a.373.373 0 0 1 .111.272v21.632a.371.371 0 0 1-.111.272.372.372 0 0 1-.273.112h-3.744a.368.368 0 0 1-.271-.112.368.368 0 0 1-.113-.272v-1.056c0-.064-.021-.101-.064-.112s-.085.005-.128.048c-.895 1.173-2.123 1.76-3.68 1.76-1.493 0-2.779-.417-3.856-1.249s-1.85-1.972-2.32-3.423c-.363-1.11-.543-2.4-.543-3.872 0-1.515.191-2.837.576-3.968.49-1.365 1.263-2.448 2.32-3.248 1.056-.8 2.361-1.2 3.919-1.2 1.536 0 2.73.533 3.584 1.6.043.064.085.085.128.064.043-.021.064-.064.064-.128V53.04a.37.37 0 0 1 .113-.271zm-.145 14.063c0-1.428-.234-2.548-.704-3.36-.491-.831-1.205-1.247-2.143-1.247-1.003 0-1.76.416-2.273 1.248-.533.832-.8 1.963-.8 3.392 0 1.28.224 2.346.672 3.2.533.917 1.322 1.375 2.368 1.375.96 0 1.706-.458 2.24-1.376.427-.788.64-1.866.64-3.231zM312.41 56.033c-.48-.48-.72-1.083-.72-1.808 0-.747.234-1.355.704-1.824.469-.47 1.076-.704 1.823-.704s1.355.235 1.825.704c.468.47.704 1.077.704 1.824 0 .725-.24 1.328-.72 1.808s-1.083.72-1.809.72-1.328-.24-1.807-.72zm-.384 18.912a.368.368 0 0 1-.112-.272V58.96a.37.37 0 0 1 .112-.272.37.37 0 0 1 .271-.111h3.745c.106 0 .197.037.272.111a.373.373 0 0 1 .111.272v15.713a.371.371 0 0 1-.111.272.372.372 0 0 1-.272.112h-3.745a.368.368 0 0 1-.271-.112zM332.65 59.92c1.045 1.046 1.567 2.465 1.567 4.257v10.496a.371.371 0 0 1-.111.272.372.372 0 0 1-.272.112h-3.745a.368.368 0 0 1-.271-.112.368.368 0 0 1-.112-.272v-9.569c0-.853-.24-1.546-.72-2.08-.48-.532-1.115-.8-1.904-.8s-1.424.268-1.904.8c-.48.534-.72 1.227-.72 2.08v9.569a.371.371 0 0 1-.112.272.372.372 0 0 1-.272.112h-3.744a.368.368 0 0 1-.272-.112.368.368 0 0 1-.112-.272v-15.68c0-.107.037-.198.112-.272a.369.369 0 0 1 .272-.113h3.744c.106 0 .197.038.272.113a.372.372 0 0 1 .112.272v1.12c0 .064.021.107.064.128.042.021.074.01.096-.033.875-1.236 2.176-1.855 3.904-1.855 1.706 0 3.082.522 4.128 1.567zM347.61 58.72a.369.369 0 0 1 .271-.112h3.745c.106 0 .197.038.272.113a.372.372 0 0 1 .111.272v14.591c0 2.795-.804 4.79-2.416 5.985-1.61 1.194-3.685 1.792-6.223 1.792-.747 0-1.58-.054-2.496-.16-.214-.022-.32-.16-.32-.416l.128-3.296c0-.278.149-.395.447-.352.769.128 1.473.192 2.113.192 1.365 0 2.416-.3 3.152-.896.735-.598 1.104-1.558 1.104-2.88 0-.064-.022-.101-.064-.113-.043-.01-.086.006-.129.049-.81.875-1.994 1.312-3.551 1.312-1.387 0-2.662-.336-3.825-1.009-1.162-.671-1.989-1.754-2.48-3.248-.32-.98-.48-2.25-.48-3.807 0-1.664.193-3.019.576-4.064.449-1.301 1.206-2.347 2.273-3.136 1.066-.79 2.304-1.184 3.712-1.184 1.642 0 2.9.49 3.775 1.472.043.043.086.059.13.048.041-.01.063-.048.063-.112v-.768c0-.107.037-.198.112-.272zm-.112 7.985c0-.662-.022-1.173-.064-1.537a5.17 5.17 0 0 0-.224-1.024 2.88 2.88 0 0 0-.96-1.392c-.449-.351-1.003-.527-1.664-.527-.64 0-1.184.176-1.632.527a3.09 3.09 0 0 0-.993 1.392c-.298.64-.448 1.504-.448 2.593 0 1.195.13 2.048.385 2.56.191.576.527 1.04 1.008 1.391.48.353 1.05.529 1.712.529.682 0 1.248-.177 1.696-.529a2.7 2.7 0 0 0 .928-1.36c.17-.64.256-1.514.256-2.623zM365.13 74.497c-1.28-.544-2.268-1.323-2.96-2.336-.695-1.014-1.04-2.192-1.04-3.537v-.704c0-.106.037-.196.11-.272a.373.373 0 0 1 .273-.111h3.648c.106 0 .197.037.272.111a.373.373 0 0 1 .112.272v.48c0 .854.395 1.574 1.184 2.16.79.587 1.857.88 3.2.88 1.13 0 1.973-.24 2.529-.72.553-.48.83-1.072.83-1.775 0-.512-.17-.945-.511-1.297-.34-.351-.806-.66-1.392-.927-.587-.267-1.52-.635-2.8-1.104-1.43-.491-2.64-.993-3.632-1.504a7.296 7.296 0 0 1-2.495-2.096c-.673-.885-1.01-1.979-1.01-3.28 0-1.28.332-2.4.993-3.36s1.58-1.696 2.752-2.209c1.173-.511 2.528-.767 4.064-.767 1.621 0 3.067.287 4.336.864 1.269.576 2.261 1.381 2.976 2.416.715 1.035 1.072 2.234 1.072 3.6v.48c0 .107-.037.197-.112.272s-.165.112-.272.112h-3.68a.368.368 0 0 1-.272-.112.368.368 0 0 1-.112-.272v-.256c0-.897-.368-1.659-1.104-2.288-.736-.63-1.744-.945-3.024-.945-1.003 0-1.787.214-2.352.64-.565.428-.848 1.014-.848 1.76 0 .534.165.982.496 1.345.331.363.821.688 1.473.976.65.288 1.658.677 3.023 1.168 1.515.555 2.704 1.045 3.568 1.472.864.427 1.643 1.061 2.336 1.904.693.843 1.04 1.936 1.04 3.28 0 2.005-.736 3.59-2.208 4.752-1.472 1.162-3.466 1.743-5.984 1.743-1.707 0-3.2-.272-4.48-.815zM395.944 66.865c0 1.471-.203 2.805-.607 4-.492 1.365-1.265 2.447-2.32 3.248-1.056.8-2.364 1.2-3.92 1.2-1.537 0-2.732-.533-3.585-1.6-.043-.065-.086-.086-.128-.065-.043.022-.064.064-.064.129v6.848a.372.372 0 0 1-.111.271.373.373 0 0 1-.273.113h-3.744a.369.369 0 0 1-.271-.113.369.369 0 0 1-.113-.271V58.993c0-.107.037-.198.113-.272a.369.369 0 0 1 .271-.113h3.744c.107 0 .197.038.273.113a.372.372 0 0 1 .11.272v1.056c0 .064.022.1.065.112.042.01.085-.005.128-.048.896-1.174 2.133-1.76 3.712-1.76 1.472 0 2.746.41 3.824 1.231 1.078.822 1.851 1.969 2.32 3.44.385 1.089.576 2.369.576 3.84zm-4.672-.064c0-1.344-.224-2.41-.672-3.2-.491-.917-1.28-1.376-2.368-1.376-.981 0-1.718.459-2.208 1.376-.448.768-.672 1.845-.672 3.231 0 1.43.235 2.54.704 3.329.49.853 1.216 1.28 2.176 1.28s1.707-.417 2.24-1.248c.533-.832.8-1.963.8-3.392zM413.448 67.856c-.022.257-.16.385-.416.385h-9.888c-.128 0-.17.053-.128.16.065.427.18.853.353 1.28.553 1.194 1.684 1.792 3.391 1.792 1.366-.021 2.443-.577 3.233-1.664.085-.128.18-.192.287-.192.064 0 .139.043.224.128l2.304 2.272c.107.107.16.203.16.288 0 .043-.043.128-.128.256-.704.875-1.61 1.552-2.72 2.032s-2.325.72-3.648.72c-1.835 0-3.386-.417-4.656-1.249s-2.182-1.994-2.735-3.487c-.449-1.067-.673-2.464-.673-4.192 0-1.174.16-2.208.48-3.104.49-1.515 1.349-2.72 2.576-3.616 1.227-.896 2.683-1.344 4.369-1.344 2.132 0 3.844.618 5.135 1.856 1.29 1.237 2.075 2.89 2.352 4.96.128.81.17 1.717.128 2.72zm-10.24-3.743a7.52 7.52 0 0 0-.224 1.024c0 .107.054.16.16.16h5.536c.128 0 .171-.053.128-.16-.106-.619-.16-.917-.16-.896-.191-.64-.527-1.137-1.008-1.489-.48-.351-1.072-.527-1.776-.527-1.344 0-2.23.629-2.655 1.888zM430.92 67.856c-.021.257-.159.385-.416.385h-9.887c-.128 0-.171.053-.128.16.064.427.18.853.352 1.28.554 1.194 1.685 1.792 3.392 1.792 1.365-.021 2.442-.577 3.232-1.664.085-.128.181-.192.288-.192.064 0 .138.043.224.128l2.304 2.272c.106.107.16.203.16.288 0 .043-.043.128-.128.256-.704.875-1.611 1.552-2.72 2.032-1.11.48-2.326.72-3.648.72-1.835 0-3.387-.417-4.656-1.249s-2.182-1.994-2.736-3.487c-.448-1.067-.673-2.464-.673-4.192 0-1.174.16-2.208.48-3.104.491-1.515 1.35-2.72 2.577-3.616 1.227-.896 2.683-1.344 4.368-1.344 2.133 0 3.845.618 5.136 1.856 1.29 1.237 2.074 2.89 2.352 4.96.127.81.17 1.717.127 2.72zm-10.239-3.743a7.52 7.52 0 0 0-.224 1.024c0 .107.053.16.16.16h5.536c.128 0 .17-.053.128-.16-.107-.619-.16-.917-.16-.896-.192-.64-.528-1.137-1.008-1.489-.48-.351-1.072-.527-1.776-.527-1.344 0-2.23.629-2.656 1.888zM444.024 52.769a.37.37 0 0 1 .271-.112h3.745c.106 0 .197.037.272.112a.373.373 0 0 1 .111.272v21.632a.371.371 0 0 1-.11.272.372.372 0 0 1-.273.112h-3.745a.368.368 0 0 1-.271-.112.368.368 0 0 1-.112-.272v-1.056c0-.064-.022-.101-.065-.112s-.085.005-.128.048c-.895 1.173-2.123 1.76-3.68 1.76-1.493 0-2.779-.417-3.856-1.249s-1.85-1.972-2.32-3.423c-.362-1.11-.543-2.4-.543-3.872 0-1.515.191-2.837.576-3.968.49-1.365 1.264-2.448 2.32-3.248 1.056-.8 2.362-1.2 3.92-1.2 1.535 0 2.73.533 3.583 1.6.043.064.085.085.128.064.043-.021.065-.064.065-.128V53.04a.37.37 0 0 1 .112-.271zm-.145 14.063c0-1.428-.234-2.548-.704-3.36-.49-.831-1.205-1.247-2.143-1.247-1.003 0-1.76.416-2.273 1.248-.533.832-.8 1.963-.8 3.392 0 1.28.224 2.346.672 3.2.534.917 1.323 1.375 2.369 1.375.96 0 1.706-.458 2.24-1.376.427-.788.64-1.866.64-3.231zM462.376 74.737l-5.12-15.713a.352.352 0 0 1-.033-.16c0-.191.117-.287.353-.287h4.128c.234 0 .383.107.447.32l2.624 9.696c.021.064.054.095.097.095.042 0 .074-.031.095-.095l2.624-9.697c.064-.212.213-.32.449-.32l4.128.065c.127 0 .223.037.288.111.063.076.074.187.03.337L467.4 74.737c-.063.213-.203.32-.416.32h-4.191c-.214 0-.353-.107-.416-.32zM476.52 74.673c-1.067-.405-1.893-.97-2.48-1.696a3.811 3.811 0 0 1-.88-2.464v-.32a.37.37 0 0 1 .112-.273.37.37 0 0 1 .272-.111h3.551c.107 0 .198.037.273.111a.374.374 0 0 1 .112.273v.032c0 .47.26.87.783 1.2.523.33 1.179.495 1.969.495.725 0 1.312-.143 1.76-.431s.672-.645.672-1.073c0-.383-.193-.671-.577-.863s-1.013-.395-1.887-.608c-1.003-.257-1.792-.501-2.368-.737-1.366-.468-2.453-1.044-3.264-1.728-.812-.682-1.217-1.664-1.217-2.943 0-1.579.613-2.832 1.841-3.76 1.227-.928 2.853-1.392 4.88-1.392 1.365 0 2.56.218 3.584.655 1.023.438 1.818 1.052 2.384 1.84s.847 1.686.847 2.689a.371.371 0 0 1-.111.272.372.372 0 0 1-.273.112h-3.423a.37.37 0 0 1-.273-.112.371.371 0 0 1-.111-.272c0-.47-.24-.864-.72-1.184-.48-.32-1.115-.48-1.904-.48-.704 0-1.28.128-1.729.384-.447.255-.672.607-.672 1.056 0 .426.22.747.657.96.436.213 1.168.437 2.192.672.234.063.501.133.8.208.298.075.618.165.96.272 1.514.448 2.709 1.023 3.584 1.728.874.704 1.311 1.728 1.311 3.072 0 1.578-.624 2.81-1.872 3.696-1.248.885-2.927 1.328-5.04 1.328-1.428 0-2.677-.203-3.743-.608zM496.568 74.945a.368.368 0 0 1-.112-.272V53.04a.37.37 0 0 1 .112-.272.369.369 0 0 1 .271-.112h3.745a.37.37 0 0 1 .271.112.37.37 0 0 1 .112.272v21.632a.368.368 0 0 1-.112.272.368.368 0 0 1-.271.112h-3.745a.367.367 0 0 1-.271-.112zM526.726 59.856c.939 1.004 1.408 2.412 1.408 4.225v10.592a.368.368 0 0 1-.112.272.368.368 0 0 1-.271.112h-3.745a.368.368 0 0 1-.271-.112.368.368 0 0 1-.112-.272v-9.6c0-.875-.224-1.568-.672-2.08s-1.046-.768-1.792-.768c-.747 0-1.356.255-1.824.768-.47.512-.705 1.194-.705 2.048v9.632a.368.368 0 0 1-.112.272.368.368 0 0 1-.271.112h-3.712c-.108 0-.197-.038-.273-.112s-.111-.165-.111-.272v-9.6c0-.853-.235-1.541-.704-2.064-.47-.523-1.078-.784-1.824-.784-.683 0-1.254.203-1.712.607-.46.406-.732.972-.817 1.697v10.144a.371.371 0 0 1-.111.272.372.372 0 0 1-.272.112h-3.745a.368.368 0 0 1-.271-.112.368.368 0 0 1-.112-.272v-15.68c0-.107.037-.198.112-.272a.369.369 0 0 1 .271-.113h3.745c.106 0 .197.038.272.113a.372.372 0 0 1 .111.272v1.248c0 .064.022.107.065.128.042.021.085 0 .128-.064.874-1.302 2.228-1.952 4.063-1.952 1.067 0 2 .224 2.801.671a4.514 4.514 0 0 1 1.84 1.92c.063.129.138.129.223 0 .47-.874 1.105-1.525 1.905-1.951s1.7-.64 2.704-.64c1.664 0 2.965.501 3.903 1.503zM541.575 59.073c1.089.48 1.936 1.135 2.545 1.967a4.61 4.61 0 0 1 .91 2.785v10.848a.371.371 0 0 1-.11.272.372.372 0 0 1-.273.112h-3.744a.368.368 0 0 1-.272-.112.368.368 0 0 1-.112-.272v-1.056c0-.064-.021-.107-.063-.128-.043-.021-.086 0-.128.064-.897 1.173-2.337 1.76-4.32 1.76-1.665 0-3.008-.405-4.033-1.216-1.024-.81-1.536-2.005-1.536-3.584 0-1.643.576-2.917 1.729-3.825 1.15-.906 2.794-1.36 4.927-1.36h3.264c.106 0 .16-.052.16-.16v-.703c0-.704-.214-1.254-.64-1.649-.426-.394-1.067-.591-1.92-.591-.662 0-1.21.117-1.648.352-.437.234-.72.565-.848.992-.064.235-.203.341-.416.32l-3.872-.513c-.255-.042-.374-.138-.352-.287.085-.896.443-1.707 1.072-2.432.629-.725 1.461-1.29 2.496-1.697 1.034-.404 2.193-.607 3.472-.607 1.387 0 2.624.24 3.712.72zm-2.016 12.144c.64-.491.96-1.12.96-1.888v-1.152c0-.107-.054-.16-.16-.16h-2.304c-.96 0-1.712.181-2.256.544-.544.363-.816.875-.816 1.536 0 .576.203 1.029.608 1.36.406.33.95.496 1.632.496.917 0 1.697-.246 2.336-.736zM558.359 58.72a.369.369 0 0 1 .271-.112h3.745c.106 0 .197.038.272.113a.372.372 0 0 1 .111.272v14.591c0 2.795-.804 4.79-2.416 5.985-1.61 1.194-3.685 1.792-6.223 1.792-.747 0-1.58-.054-2.496-.16-.214-.022-.32-.16-.32-.416l.128-3.296c0-.278.149-.395.448-.352.768.128 1.472.192 2.112.192 1.365 0 2.416-.3 3.152-.896.736-.598 1.104-1.558 1.104-2.88 0-.064-.022-.101-.064-.113-.043-.01-.086.006-.129.049-.81.875-1.994 1.312-3.551 1.312-1.387 0-2.662-.336-3.825-1.009-1.162-.671-1.989-1.754-2.48-3.248-.32-.98-.48-2.25-.48-3.807 0-1.664.193-3.019.577-4.064.448-1.301 1.205-2.347 2.272-3.136 1.066-.79 2.304-1.184 3.712-1.184 1.642 0 2.9.49 3.775 1.472.043.043.086.059.13.048.041-.01.063-.048.063-.112v-.768c0-.107.037-.198.112-.272zm-.112 7.985c0-.662-.022-1.173-.064-1.537a5.17 5.17 0 0 0-.224-1.024 2.88 2.88 0 0 0-.96-1.392c-.449-.351-1.003-.527-1.664-.527-.64 0-1.184.176-1.632.527a3.09 3.09 0 0 0-.992 1.392c-.3.64-.449 1.504-.449 2.593 0 1.195.13 2.048.385 2.56.191.576.527 1.04 1.008 1.391.48.353 1.05.529 1.712.529.682 0 1.248-.177 1.696-.529a2.7 2.7 0 0 0 .928-1.36c.17-.64.256-1.514.256-2.623zM580.678 67.856c-.021.257-.159.385-.416.385h-9.887c-.128 0-.171.053-.128.16.064.427.18.853.352 1.28.554 1.194 1.685 1.792 3.392 1.792 1.365-.021 2.442-.577 3.232-1.664.085-.128.18-.192.287-.192.065 0 .139.043.225.128l2.304 2.272c.106.107.16.203.16.288 0 .043-.043.128-.128.256-.704.875-1.611 1.552-2.72 2.032-1.11.48-2.326.72-3.648.72-1.835 0-3.387-.417-4.657-1.249s-2.181-1.994-2.735-3.487c-.448-1.067-.673-2.464-.673-4.192 0-1.174.16-2.208.48-3.104.491-1.515 1.35-2.72 2.577-3.616 1.226-.896 2.683-1.344 4.368-1.344 2.133 0 3.845.618 5.136 1.856 1.29 1.237 2.074 2.89 2.351 4.96.128.81.171 1.717.128 2.72zm-10.239-3.743a7.52 7.52 0 0 0-.225 1.024c0 .107.054.16.16.16h5.537c.128 0 .17-.053.128-.16-.107-.619-.16-.917-.16-.896-.192-.64-.528-1.137-1.008-1.489-.48-.351-1.073-.527-1.777-.527-1.343 0-2.23.629-2.655 1.888zM593.35 74.497c-1.28-.544-2.267-1.323-2.96-2.336-.694-1.014-1.04-2.192-1.04-3.537v-.704c0-.106.037-.196.112-.272a.373.373 0 0 1 .272-.111h3.647c.107 0 .198.037.273.111a.373.373 0 0 1 .112.272v.48c0 .854.395 1.574 1.184 2.16.789.587 1.856.88 3.2.88 1.13 0 1.973-.24 2.528-.72.554-.48.831-1.072.831-1.775 0-.512-.17-.945-.511-1.297-.341-.351-.806-.66-1.392-.927-.587-.267-1.52-.635-2.8-1.104-1.43-.491-2.64-.993-3.633-1.504a7.296 7.296 0 0 1-2.495-2.096c-.673-.885-1.008-1.979-1.008-3.28 0-1.28.33-2.4.992-3.36s1.579-1.696 2.752-2.209c1.173-.511 2.528-.767 4.064-.767 1.621 0 3.067.287 4.336.864 1.269.576 2.26 1.381 2.976 2.416.714 1.035 1.072 2.234 1.072 3.6v.48c0 .107-.037.197-.112.272s-.165.112-.272.112h-3.68a.368.368 0 0 1-.272-.112.368.368 0 0 1-.112-.272v-.256c0-.897-.368-1.659-1.104-2.288-.736-.63-1.744-.945-3.024-.945-1.003 0-1.787.214-2.352.64-.565.428-.848 1.014-.848 1.76 0 .534.165.982.496 1.345.33.363.82.688 1.472.976.65.288 1.659.677 3.024 1.168 1.514.555 2.704 1.045 3.568 1.472.863.427 1.643 1.061 2.336 1.904.692.843 1.04 1.936 1.04 3.28 0 2.005-.736 3.59-2.208 4.752-1.473 1.162-3.467 1.743-5.984 1.743-1.707 0-3.2-.272-4.48-.815zM609.526 56.033c-.48-.48-.72-1.083-.72-1.808 0-.747.235-1.355.704-1.824.47-.47 1.077-.704 1.824-.704s1.354.235 1.824.704c.469.47.704 1.077.704 1.824 0 .725-.24 1.328-.72 1.808s-1.083.72-1.808.72-1.329-.24-1.808-.72zm-.384 18.912a.368.368 0 0 1-.112-.272V58.96a.37.37 0 0 1 .112-.272.37.37 0 0 1 .272-.111h3.744c.106 0 .197.037.272.111a.373.373 0 0 1 .112.272v15.713a.371.371 0 0 1-.112.272.372.372 0 0 1-.272.112h-3.744a.368.368 0 0 1-.272-.112zM616.277 74.945a.368.368 0 0 1-.112-.272v-3.424c0-.17.064-.331.192-.48l7.2-7.904c.107-.128.085-.192-.064-.192h-6.752a.367.367 0 0 1-.272-.112.367.367 0 0 1-.112-.272v-3.296c0-.107.037-.198.112-.272a.369.369 0 0 1 .272-.113h11.968c.107 0 .197.038.272.113a.373.373 0 0 1 .112.272v3.392c0 .15-.064.31-.192.48l-7.424 7.904c-.086.127-.064.191.064.191h7.328c.106 0 .197.038.272.113a.373.373 0 0 1 .113.272v3.328a.372.372 0 0 1-.113.272.372.372 0 0 1-.272.112h-12.32a.37.37 0 0 1-.272-.112zM646.47 67.856c-.022.257-.16.385-.417.385h-9.887c-.128 0-.171.053-.128.16.064.427.18.853.352 1.28.554 1.194 1.685 1.792 3.392 1.792 1.365-.021 2.442-.577 3.232-1.664.085-.128.18-.192.287-.192.065 0 .139.043.225.128l2.304 2.272c.106.107.16.203.16.288 0 .043-.043.128-.128.256-.704.875-1.611 1.552-2.72 2.032-1.11.48-2.326.72-3.648.72-1.835 0-3.387-.417-4.657-1.249s-2.181-1.994-2.735-3.487c-.448-1.067-.673-2.464-.673-4.192 0-1.174.16-2.208.48-3.104.491-1.515 1.35-2.72 2.577-3.616 1.226-.896 2.683-1.344 4.368-1.344 2.133 0 3.845.618 5.136 1.856 1.29 1.237 2.074 2.89 2.351 4.96.128.81.171 1.717.128 2.72zm-10.24-3.743a7.52 7.52 0 0 0-.225 1.024c0 .107.054.16.16.16h5.537c.128 0 .17-.053.128-.16-.107-.619-.16-.917-.16-.896-.192-.64-.528-1.137-1.008-1.489-.48-.351-1.073-.527-1.777-.527-1.343 0-2.23.629-2.655 1.888z"/></g></g></svg>