<svg viewBox="0 0 80 80" xmlns="http://www.w3.org/2000/svg" xml:space="preserve" style="fill-rule:evenodd;clip-rule:evenodd;stroke-linecap:round;stroke-linejoin:round"><path d="M43.333 70H12a2 2 0 0 1-2-2V12a2 2 0 0 1 2-2h56a2 2 0 0 1 2 2v31.333" style="fill:none;fill-rule:nonzero;stroke:url(#a);stroke-width:3px"/><path d="m10 53.334 23.333-10 18.334 8.333" style="fill:none;fill-rule:nonzero;stroke:url(#b);stroke-width:3px"/><path d="M53.333 33.333a6.666 6.666 0 1 1 0-13.333 6.666 6.666 0 0 1 0 13.333z" style="fill:none;fill-rule:nonzero;stroke:url(#c);stroke-width:3px"/><path d="M53.333 63.334h10m10 0h-10m0 0v-10m0 10v10" style="fill:none;fill-rule:nonzero;stroke:url(#d);stroke-width:3px"/><defs><linearGradient id="a" x1="0" y1="0" x2="1" y2="0" gradientUnits="userSpaceOnUse" gradientTransform="rotate(45.102 -5.803 15.342) scale(92.1371)"><stop offset="0" style="stop-color:#48eae6;stop-opacity:1"/><stop offset=".43" style="stop-color:#3cc0e4;stop-opacity:1"/><stop offset="1" style="stop-color:#2061df;stop-opacity:1"/></linearGradient><linearGradient id="b" x1="0" y1="0" x2="1" y2="0" gradientUnits="userSpaceOnUse" gradientTransform="rotate(45.102 -5.803 15.342) scale(92.1371)"><stop offset="0" style="stop-color:#48eae6;stop-opacity:1"/><stop offset=".43" style="stop-color:#3cc0e4;stop-opacity:1"/><stop offset="1" style="stop-color:#2061df;stop-opacity:1"/></linearGradient><linearGradient id="c" x1="0" y1="0" x2="1" y2="0" gradientUnits="userSpaceOnUse" gradientTransform="rotate(45.102 -5.803 15.342) scale(92.1371)"><stop offset="0" style="stop-color:#48eae6;stop-opacity:1"/><stop offset=".43" style="stop-color:#3cc0e4;stop-opacity:1"/><stop offset="1" style="stop-color:#2061df;stop-opacity:1"/></linearGradient><linearGradient id="d" x1="0" y1="0" x2="1" y2="0" gradientUnits="userSpaceOnUse" gradientTransform="rotate(45.102 -5.803 15.342) scale(92.1371)"><stop offset="0" style="stop-color:#48eae6;stop-opacity:1"/><stop offset=".43" style="stop-color:#3cc0e4;stop-opacity:1"/><stop offset="1" style="stop-color:#2061df;stop-opacity:1"/></linearGradient></defs></svg>