<svg viewBox="0 0 80 80" xmlns="http://www.w3.org/2000/svg" xml:space="preserve" style="fill-rule:evenodd;clip-rule:evenodd"><path d="M58.571 60H68a2 2 0 0 0 2-2V36.667c0-7.364-5.969-13.333-13.333-13.333H23.333C15.97 23.334 10 29.303 10 36.667V58a2 2 0 0 0 2 2h9.429" style="fill:none;fill-rule:nonzero;stroke:url(#a);stroke-width:3px"/><path d="M26.667 23.333V12a2 2 0 0 1 2-2h22.666a2 2 0 0 1 2 2v11.333" style="fill:none;fill-rule:nonzero;stroke:url(#b);stroke-width:3px"/><path d="M20.327 67.717 21.429 60l1.659-11.616a2 2 0 0 1 1.98-1.717h29.864c.996 0 1.84.731 1.98 1.717L58.572 60l1.102 7.717A2 2 0 0 1 57.694 70H22.306a1.999 1.999 0 0 1-1.979-2.283z" style="fill:none;fill-rule:nonzero;stroke:url(#c);stroke-width:3px"/><path d="m56.667 33.367.033-.037" style="fill:none;fill-rule:nonzero;stroke:url(#d);stroke-width:3px;stroke-linecap:round;stroke-linejoin:round"/><defs><linearGradient id="a" x1="0" y1="0" x2="1" y2="0" gradientUnits="userSpaceOnUse" gradientTransform="rotate(43.901 -7.964 15.752) scale(86.9748)"><stop offset="0" style="stop-color:#48eae6;stop-opacity:1"/><stop offset=".43" style="stop-color:#3cc0e4;stop-opacity:1"/><stop offset="1" style="stop-color:#2061df;stop-opacity:1"/></linearGradient><linearGradient id="b" x1="0" y1="0" x2="1" y2="0" gradientUnits="userSpaceOnUse" gradientTransform="rotate(43.901 -7.964 15.752) scale(86.9748)"><stop offset="0" style="stop-color:#48eae6;stop-opacity:1"/><stop offset=".43" style="stop-color:#3cc0e4;stop-opacity:1"/><stop offset="1" style="stop-color:#2061df;stop-opacity:1"/></linearGradient><linearGradient id="c" x1="0" y1="0" x2="1" y2="0" gradientUnits="userSpaceOnUse" gradientTransform="rotate(43.901 -7.964 15.752) scale(86.9748)"><stop offset="0" style="stop-color:#48eae6;stop-opacity:1"/><stop offset=".43" style="stop-color:#3cc0e4;stop-opacity:1"/><stop offset="1" style="stop-color:#2061df;stop-opacity:1"/></linearGradient><linearGradient id="d" x1="0" y1="0" x2="1" y2="0" gradientUnits="userSpaceOnUse" gradientTransform="rotate(43.901 -7.964 15.752) scale(86.9748)"><stop offset="0" style="stop-color:#48eae6;stop-opacity:1"/><stop offset=".43" style="stop-color:#3cc0e4;stop-opacity:1"/><stop offset="1" style="stop-color:#2061df;stop-opacity:1"/></linearGradient></defs></svg>