<?xml version="1.0" encoding="UTF-8"?>
<svg xmlns="http://www.w3.org/2000/svg" xmlns:xlink="http://www.w3.org/1999/xlink" version="1.1" viewBox="0 0 1724.12993 689.67289">
  <defs>
    <style>
      .cls-1 {
        fill: url(#linear-gradient-8);
      }

      .cls-2 {
        fill: url(#linear-gradient-7);
      }

      .cls-3 {
        fill: url(#linear-gradient-5);
      }

      .cls-4 {
        fill: url(#linear-gradient-6);
      }

      .cls-5 {
        fill: url(#linear-gradient-9);
      }

      .cls-6 {
        fill: url(#linear-gradient-4);
      }

      .cls-7 {
        fill: url(#linear-gradient-3);
      }

      .cls-8 {
        fill: url(#linear-gradient-2);
      }

      .cls-9 {
        fill: url(#linear-gradient);
      }

      .cls-10 {
        fill: url(#linear-gradient-10);
      }

      .cls-11 {
        fill: url(#linear-gradient-11);
      }

      .cls-12 {
        fill: url(#linear-gradient-12);
      }

      .cls-13 {
        fill: url(#linear-gradient-13);
      }

      .cls-14 {
        fill: url(#linear-gradient-14);
      }
    </style>
    <linearGradient id="linear-gradient" x1="50.50028" y1="50.49701" x2="639.16992" y2="639.16665" gradientUnits="userSpaceOnUse">
      <stop offset="0" stop-color="#15b7b3"/>
      <stop offset="1" stop-color="#92ba00"/>
    </linearGradient>
    <linearGradient id="linear-gradient-2" x1="344.83384" y1="344.83775" x2="1034.50412" y2="344.83775" gradientUnits="userSpaceOnUse">
      <stop offset="0" stop-color="#fff200"/>
      <stop offset="1" stop-color="#ff4d00"/>
    </linearGradient>
    <linearGradient id="linear-gradient-3" x1="689.62451" y1="344.83775" x2="1379.29479" y2="344.83775" gradientUnits="userSpaceOnUse">
      <stop offset="0" stop-color="#ff4545"/>
      <stop offset="1" stop-color="#852222"/>
    </linearGradient>
    <linearGradient id="linear-gradient-4" x1="1034.45965" y1="344.83775" x2="1724.12993" y2="344.83775" gradientUnits="userSpaceOnUse">
      <stop offset="0" stop-color="#d300ff"/>
      <stop offset="1" stop-color="#2d5291"/>
    </linearGradient>
    <linearGradient id="linear-gradient-5" x1="327.12322" y1="172.41434" x2="24.08793" y2="172.41434" gradientUnits="userSpaceOnUse">
      <stop offset="0" stop-color="#fff"/>
      <stop offset="1" stop-color="#e6e7e8"/>
    </linearGradient>
    <linearGradient id="linear-gradient-6" x1="35.09529" y1="172.41456" x2="309.73988" y2="172.41456" xlink:href="#linear-gradient-5"/>
    <linearGradient id="linear-gradient-7" x1="670.64413" y1="517.25517" x2="376.30478" y2="517.25517" xlink:href="#linear-gradient-5"/>
    <linearGradient id="linear-gradient-8" x1="379.92586" y1="517.25503" x2="654.57045" y2="517.25503" xlink:href="#linear-gradient-5"/>
    <linearGradient id="linear-gradient-9" x1="1029.17362" y1="172.41695" x2="710.74929" y2="172.41695" xlink:href="#linear-gradient-5"/>
    <linearGradient id="linear-gradient-10" x1="724.72012" y1="172.41691" x2="999.36472" y2="172.41691" xlink:href="#linear-gradient-5"/>
    <linearGradient id="linear-gradient-11" x1="1357.9714" y1="517.25517" x2="1062.40319" y2="517.25517" xlink:href="#linear-gradient-5"/>
    <linearGradient id="linear-gradient-12" x1="1069.55164" y1="517.25503" x2="1344.19624" y2="517.25503" xlink:href="#linear-gradient-5"/>
    <linearGradient id="linear-gradient-13" x1="1709.5052" y1="172.41695" x2="1406.92107" y2="172.41695" xlink:href="#linear-gradient-5"/>
    <linearGradient id="linear-gradient-14" x1="1414.39022" y1="172.41691" x2="1689.03435" y2="172.41691" xlink:href="#linear-gradient-5"/>
  </defs>
  <!-- Generator: Adobe Illustrator 28.7.0, SVG Export Plug-In . SVG Version: 1.2.0 Build 136)  -->
  <g>
    <g id="Layer_1">
      <g>
        <g>
          <path class="cls-9" d="M517.25272,344.83517c95.22245-.00447,172.41756,77.19064,172.41756,172.41756,0,95.21809-77.19505,172.41314-172.41756,172.41756-95.22256-.00436-172.41767-77.19947-172.41756-172.41756-.00005-95.22697-77.19508-172.422-172.41758-172.41758C77.19497,344.83073-.00005,267.6357,0,172.41756-.00005,77.19058,77.195-.00447,172.41756,0c95.2225-.00441,172.41753,77.19061,172.41758,172.41758,0,95.21809,77.19503,172.41311,172.41758,172.41758Z"/>
          <path class="cls-8" d="M689.669,172.42016C689.66454,77.19771,766.85964.00261,862.08656.00261c95.21809,0,172.41314,77.19505,172.41756,172.41756-.00436,95.22256-77.19947,172.41767-172.41756,172.41756-95.22697.00005-172.422,77.19508-172.41758,172.41758-.00441,95.22261-77.19944,172.41764-172.41758,172.41758-95.22697.00005-172.42203-77.195-172.41756-172.41756-.00441-95.2225,77.19061-172.41753,172.41758-172.41758,95.21809,0,172.41311-77.19503,172.41758-172.41758Z"/>
          <path class="cls-7" d="M1206.87723,344.83777c95.22245-.00447,172.41756,77.19064,172.41756,172.41756,0,95.21809-77.19505,172.41314-172.41756,172.41756-95.22256-.00436-172.41767-77.19947-172.41756-172.41756-.00005-95.22697-77.19508-172.422-172.41758-172.41758-95.22261-.00441-172.41764-77.19944-172.41758-172.41758C689.62445,77.19319,766.8195-.00186,862.04206.00261c95.2225-.00441,172.41753,77.19061,172.41758,172.41758,0,95.21809,77.19503,172.41311,172.41758,172.41758Z"/>
          <path class="cls-6" d="M1379.29481,172.42016C1379.29034,77.19771,1456.48545.00261,1551.71237.00261c95.21809,0,172.41314,77.19505,172.41756,172.41756-.00436,95.22256-77.19947,172.41767-172.41756,172.41756-95.22697.00005-172.422,77.19508-172.41758,172.41758-.00441,95.22261-77.19944,172.41764-172.41758,172.41758-95.22697.00005-172.42203-77.195-172.41756-172.41756-.00441-95.2225,77.19061-172.41753,172.41758-172.41758,95.21809,0,172.41311-77.19503,172.41758-172.41758Z"/>
        </g>
        <g>
          <g>
            <path class="cls-3" d="M283.17434,283.17097c-29.58426,29.58426-68.91819,45.87694-110.75662,45.87672-41.83843.00022-81.17236-16.29246-110.75662-45.87672-29.58405-29.58405-45.87694-68.91819-45.87672-110.75662,0-41.83821,16.29268-81.17214,45.87694-110.75641S130.57929,15.78121,172.41772,15.781c41.83843-.00022,81.1728,16.29246,110.75684,45.8765,29.58426,29.58426,45.87672,68.91841,45.8765,110.75684,0,41.83865-16.29246,81.17236-45.87672,110.75662Z"/>
            <path class="cls-4" d="M172.41782,309.73709c-36.68016,0-71.16473-14.28433-97.1017-40.22084-25.93697-25.93697-40.22084-60.42154-40.22084-97.1017s14.28386-71.16473,40.22084-97.1017,60.42107-40.22036,97.1017-40.22084c36.68063,0,71.16567,14.28386,97.1017,40.22036,25.93697,25.93697,40.22084,60.42201,40.22036,97.10217,0,36.68016-14.28386,71.16473-40.22036,97.1017-25.93697,25.9365-60.42154,40.22084-97.1017,40.22084Z"/>
          </g>
          <g>
            <path class="cls-2" d="M628.0048,406.49854c29.58426,29.58426,45.87694,68.91819,45.87672,110.75662.00022,41.83843-16.29246,81.17236-45.87672,110.75662-29.58405,29.58405-68.91819,45.87694-110.75662,45.87672-41.83821,0-81.17214-16.29268-110.75641-45.87694-29.58426-29.58426-45.87672-68.91797-45.87694-110.75641-.00022-41.83843,16.29246-81.1728,45.8765-110.75684,29.58426-29.58426,68.91841-45.87672,110.75684-45.8765,41.83865,0,81.17236,16.29246,110.75662,45.87672Z"/>
            <path class="cls-1" d="M517.24839,654.57709c-36.68016,0-71.16473-14.28433-97.1017-40.22131-25.9365-25.93603-40.22036-60.4206-40.22084-97.10028,0-36.68063,14.28386-71.16614,40.22036-97.10217,25.9365-25.93697,60.42107-40.22036,97.10217-40.22036s71.16426,14.28433,97.1017,40.22131c25.9365,25.93603,40.22036,60.4206,40.22036,97.10123s-14.28386,71.1652-40.22036,97.10123c-25.93697,25.93697-60.4206,40.22036-97.09793,40.22036h-.00377Z"/>
          </g>
          <g>
            <path class="cls-5" d="M972.79885,283.17357c-29.58426,29.58426-68.91819,45.87694-110.75662,45.87672-41.83843.00022-81.17236-16.29246-110.75662-45.87672-29.58405-29.58405-45.87694-68.91819-45.87672-110.75662,0-41.83821,16.29268-81.17214,45.87694-110.75641,29.58426-29.58426,68.91797-45.87672,110.75641-45.87694,41.83843-.00022,81.1728,16.29246,110.75684,45.8765,29.58426,29.58426,45.87672,68.91841,45.8765,110.75684,0,41.83865-16.29246,81.17236-45.87672,110.75662Z"/>
            <path class="cls-10" d="M862.04172,309.73898c-36.67969.00094-71.16426-14.28339-97.10123-40.22036s-40.22084-60.42154-40.22036-97.10123c0-36.68063,14.28386-71.1652,40.22084-97.1017,25.9365-25.93697,60.42107-40.22084,97.10123-40.22084,36.68016-.00047,71.1652,14.28339,97.10217,40.22036,25.9365,25.9365,40.22036,60.42154,40.22036,97.1017s-14.28386,71.16473-40.22084,97.1017c-25.93603,25.93697-60.41965,40.22036-97.09793,40.22036h-.00424Z"/>
          </g>
          <g>
            <path class="cls-11" d="M1317.63061,406.49854c29.58426,29.58426,45.87694,68.91819,45.87672,110.75662.00022,41.83843-16.29246,81.17236-45.87672,110.75662-29.58405,29.58405-68.91819,45.87694-110.75662,45.87672-41.83821,0-81.17214-16.29268-110.75641-45.87694-29.58426-29.58426-45.87672-68.91797-45.87694-110.75641-.00022-41.83843,16.29246-81.1728,45.8765-110.75684s68.91841-45.87672,110.75684-45.8765c41.83865,0,81.17236,16.29246,110.75662,45.87672Z"/>
            <path class="cls-12" d="M1206.87417,654.57709c-36.68016,0-71.16473-14.28433-97.1017-40.22131-25.9365-25.93603-40.22036-60.4206-40.22084-97.10028,0-36.68063,14.28386-71.16614,40.22036-97.10217,25.93603-25.93697,60.42107-40.22036,97.10217-40.22036s71.16473,14.28433,97.10076,40.22131c25.93697,25.93603,40.22131,60.42154,40.22131,97.10123s-14.28433,71.1652-40.22131,97.10123c-25.93697,25.93697-60.41965,40.22036-97.09698,40.22036h-.00377Z"/>
          </g>
          <g>
            <path class="cls-13" d="M1662.46913,283.17357c-29.58426,29.58426-68.91819,45.87694-110.75662,45.87672-41.83843.00022-81.17236-16.29246-110.75662-45.87672-29.58405-29.58405-45.87694-68.91819-45.87672-110.75662,0-41.83821,16.29268-81.17214,45.87694-110.75641,29.58426-29.58426,68.91797-45.87672,110.75641-45.87694,41.83843-.00022,81.1728,16.29246,110.75684,45.8765,29.58426,29.58426,45.87672,68.91841,45.8765,110.75684,0,41.83865-16.29246,81.17236-45.87672,110.75662Z"/>
            <path class="cls-14" d="M1551.71276,309.73898c-36.67969.00094-71.16426-14.28339-97.10123-40.22036s-40.22131-60.42154-40.22131-97.1017,14.28433-71.16426,40.22131-97.10123c25.93603-25.93697,60.4206-40.22084,97.10123-40.22084,36.67969-.00047,71.16426,14.28339,97.10123,40.22036,25.93792,25.93697,40.22131,60.42154,40.22036,97.10123,0,36.6811-14.28339,71.16614-40.22036,97.10217-25.93603,25.93697-60.41871,40.22036-97.09746,40.22036h-.00377Z"/>
          </g>
        </g>
      </g>
      <path d="M168.89065,117.47681c-3.17128,0-6.13508,1.58564-7.89114,4.22343l-5.54232,8.31348-19.94644,3.14905c-2.00798-2.14135-4.80137-3.56398-7.96524-3.14164h-.00741l-13.27046,1.77088c-4.70505.6224-8.23939,4.66059-8.23939,9.39527v69.23458c0,5.2163,4.26789,9.48419,9.48419,9.48419h113.81027c5.2163,0,9.48419-4.26789,9.48419-9.48419v-67.61189c0-4.08265-2.62297-7.63922-6.3796-8.94329l.13337-1.26703c.32602-2.98604-1.76347-5.74238-4.71987-6.23141l-8.20975-1.37076c-.3853-.06668-.76318-.08891-1.14107-.0815-2.62297.10374-4.93474,2.03762-5.40154,4.71246l-.11855.66686-.72613-.13337-5.64606-8.46167c-1.75606-2.63779-4.71987-4.22343-7.89114-4.22343h-29.81592ZM168.89065,121.27048h29.81592c1.90425,0,3.68253.94842,4.73469,2.53406l6.54261,9.81762,20.32432,3.58621c2.73411.48162,4.70505,2.83044,4.70505,5.6016v67.61189c0,3.16387-2.52665,5.69051-5.69051,5.69051h-113.81027c-3.16387,0-5.69051-2.52665-5.69051-5.69051v-69.23458c0-2.86008,2.09689-5.26076,4.94215-5.63865l13.27786-1.77088c2.23768-.29638,4.26048.73354,5.43118,2.45255l.68168.98547,23.53264-3.71217,6.46851-9.69906c1.05956-1.58564,2.83044-2.53406,4.73469-2.53406ZM219.00866,128.73928l8.20975,1.36335c1.0077.17042,1.68196,1.05956,1.57082,2.08208l-.09632.88173-11.98861-2.11171.11855-.67427c.18524-1.04474,1.13366-1.71901,2.18581-1.54118ZM183.79861,138.34202c-18.83501,0-34.14308,15.30807-34.14308,34.14308s15.30807,34.14308,34.14308,34.14308c15.55259,0,28.66744-10.44743,32.77973-24.68853,4.97179-.28156,8.9507-4.42349,8.9507-9.45455s-3.97891-9.17299-8.9507-9.45455c-4.11229-14.2411-17.22714-24.68853-32.77973-24.68853ZM134.48083,140.23886c-1.04474,0-1.89684.8521-1.89684,1.89684s.8521,1.89684,1.89684,1.89684,1.89684-.8521,1.89684-1.89684-.8521-1.89684-1.89684-1.89684ZM121.20296,141.18728c-3.84554,0-6.63893,3.59362-6.63893,7.58735s2.79339,7.58735,6.63893,7.58735,6.63893-3.59362,6.63893-7.58735-2.79339-7.58735-6.63893-7.58735ZM183.79861,142.1357c16.78257,0,30.34941,13.56684,30.34941,30.34941s-13.56684,30.34941-30.34941,30.34941-30.34941-13.56684-30.34941-30.34941,13.56684-30.34941,30.34941-30.34941ZM121.20296,144.98095c1.38558,0,2.84526,1.50413,2.84526,3.79368s-1.45968,3.79368-2.84526,3.79368-2.84526-1.50413-2.84526-3.79368,1.45968-3.79368,2.84526-3.79368ZM134.48083,147.82621c-1.04474,0-1.89684.8521-1.89684,1.89684s.8521,1.89684,1.89684,1.89684,1.89684-.8521,1.89684-1.89684-.8521-1.89684-1.89684-1.89684ZM183.79861,147.82621c-13.59647,0-24.65889,11.06242-24.65889,24.65889s11.06242,24.65889,24.65889,24.65889,24.65889-11.06242,24.65889-24.65889-11.06242-24.65889-24.65889-24.65889ZM183.79861,151.61989c11.54404,0,20.86522,9.32118,20.86522,20.86522s-9.32118,20.86522-20.86522,20.86522-20.86522-9.32118-20.86522-20.86522,9.32118-20.86522,20.86522-20.86522ZM134.48083,155.41356c-1.04474,0-1.89684.8521-1.89684,1.89684s.8521,1.89684,1.89684,1.89684,1.89684-.8521,1.89684-1.89684-.8521-1.89684-1.89684-1.89684ZM134.48083,163.00091c-1.04474,0-1.89684.8521-1.89684,1.89684s.8521,1.89684,1.89684,1.89684,1.89684-.8521,1.89684-1.89684-.8521-1.89684-1.89684-1.89684ZM217.46007,166.99465c2.46737.6224,4.27529,2.81562,4.27529,5.49046s-1.80792,4.86806-4.27529,5.49046c.28897-1.78569.48162-3.61585.48162-5.49046s-.19265-3.70476-.48162-5.49046ZM134.48083,170.58826c-1.04474,0-1.89684.8521-1.89684,1.89684s.8521,1.89684,1.89684,1.89684,1.89684-.8521,1.89684-1.89684-.8521-1.89684-1.89684-1.89684ZM134.48083,178.17562c-1.04474,0-1.89684.8521-1.89684,1.89684s.8521,1.89684,1.89684,1.89684,1.89684-.8521,1.89684-1.89684-.8521-1.89684-1.89684-1.89684ZM134.48083,185.76297c-1.04474,0-1.89684.8521-1.89684,1.89684s.8521,1.89684,1.89684,1.89684,1.89684-.8521,1.89684-1.89684-.8521-1.89684-1.89684-1.89684ZM134.48083,193.35032c-1.04474,0-1.89684.8521-1.89684,1.89684s.8521,1.89684,1.89684,1.89684,1.89684-.8521,1.89684-1.89684-.8521-1.89684-1.89684-1.89684ZM134.48083,200.93767c-1.04474,0-1.89684.8521-1.89684,1.89684s.8521,1.89684,1.89684,1.89684,1.89684-.8521,1.89684-1.89684-.8521-1.89684-1.89684-1.89684ZM134.48083,208.52502c-1.04474,0-1.89684.8521-1.89684,1.89684s.8521,1.89684,1.89684,1.89684,1.89684-.8521,1.89684-1.89684-.8521-1.89684-1.89684-1.89684Z"/>
      <path d="M803.24025,120.41987c-4.19164,0-7.58735,3.39571-7.58735,7.58735v72.07984c0,1.41325.49091,2.66102,1.1633,3.79368h-8.75065v5.69051c0,5.20769,4.27651,9.48419,9.48419,9.48419h128.98497c5.20768,0,9.48419-4.2765,9.48419-9.48419v-5.69051h-8.75065c.67239-1.13265,1.1633-2.38042,1.1633-3.79368v-72.07984c0-4.19164-3.39572-7.58735-7.58735-7.58735h-117.60394ZM803.24025,124.21355h117.60394c2.2576,0,3.79368,1.53607,3.79368,3.79368v72.07984c0,2.25761-1.53607,3.79368-3.79368,3.79368h-47.42095v1.89684c0,1.05188-.84495,1.89684-1.89684,1.89684h-18.96838c-1.05188,0-1.89684-.84495-1.89684-1.89684v-1.89684h-47.42095c-2.25761,0-3.79368-1.53606-3.79368-3.79368v-72.07984c0-2.25761,1.53607-3.79368,3.79368-3.79368ZM808.93077,131.8009c-1.1381,0-1.89684.75873-1.89684,1.89684s.75873,1.89684,1.89684,1.89684,1.89684-.75873,1.89684-1.89684-.75873-1.89684-1.89684-1.89684ZM816.51812,131.8009c-1.1381,0-1.89684.75873-1.89684,1.89684s.75873,1.89684,1.89684,1.89684,1.89684-.75873,1.89684-1.89684-.75873-1.89684-1.89684-1.89684ZM824.10547,131.8009c-1.1381,0-1.89684.75873-1.89684,1.89684s.75873,1.89684,1.89684,1.89684,1.89684-.75873,1.89684-1.89684-.75873-1.89684-1.89684-1.89684ZM831.69282,131.8009c-1.1381,0-1.89684.75873-1.89684,1.89684s.75873,1.89684,1.89684,1.89684,1.89684-.75873,1.89684-1.89684-.75873-1.89684-1.89684-1.89684ZM839.28017,131.8009c-1.1381,0-1.89684.75873-1.89684,1.89684s.75873,1.89684,1.89684,1.89684,1.89684-.75873,1.89684-1.89684-.75873-1.89684-1.89684-1.89684ZM846.86752,131.8009c-1.1381,0-1.89684.75873-1.89684,1.89684s.75873,1.89684,1.89684,1.89684,1.89684-.75873,1.89684-1.89684-.75874-1.89684-1.89684-1.89684ZM854.45487,131.8009c-1.1381,0-1.89684.75873-1.89684,1.89684s.75874,1.89684,1.89684,1.89684,1.89684-.75873,1.89684-1.89684-.75874-1.89684-1.89684-1.89684ZM862.04223,131.8009c-1.1381,0-1.89684.75873-1.89684,1.89684s.75874,1.89684,1.89684,1.89684,1.89684-.75873,1.89684-1.89684-.75874-1.89684-1.89684-1.89684ZM869.62958,131.8009c-1.1381,0-1.89684.75873-1.89684,1.89684s.75874,1.89684,1.89684,1.89684,1.89684-.75873,1.89684-1.89684-.75874-1.89684-1.89684-1.89684ZM877.21693,131.8009c-1.1381,0-1.89684.75873-1.89684,1.89684s.75874,1.89684,1.89684,1.89684,1.89684-.75873,1.89684-1.89684-.75874-1.89684-1.89684-1.89684ZM884.80428,131.8009c-1.1381,0-1.89684.75873-1.89684,1.89684s.75874,1.89684,1.89684,1.89684,1.89684-.75873,1.89684-1.89684-.75874-1.89684-1.89684-1.89684ZM892.39163,131.8009c-1.1381,0-1.89684.75873-1.89684,1.89684s.75874,1.89684,1.89684,1.89684,1.89684-.75873,1.89684-1.89684-.75874-1.89684-1.89684-1.89684ZM899.97898,131.8009c-1.1381,0-1.89684.75873-1.89684,1.89684s.75874,1.89684,1.89684,1.89684,1.89684-.75873,1.89684-1.89684-.75874-1.89684-1.89684-1.89684ZM907.56633,131.8009c-1.1381,0-1.89684.75873-1.89684,1.89684s.75874,1.89684,1.89684,1.89684,1.89684-.75873,1.89684-1.89684-.75874-1.89684-1.89684-1.89684ZM915.15368,131.8009c-1.1381,0-1.89684.75873-1.89684,1.89684s.75874,1.89684,1.89684,1.89684,1.89684-.75873,1.89684-1.89684-.75874-1.89684-1.89684-1.89684ZM808.93077,139.38825c-1.1381,0-1.89684.75873-1.89684,1.89684s.75873,1.89684,1.89684,1.89684,1.89684-.75873,1.89684-1.89684-.75873-1.89684-1.89684-1.89684ZM915.15368,139.38825c-1.1381,0-1.89684.75873-1.89684,1.89684s.75874,1.89684,1.89684,1.89684,1.89684-.75873,1.89684-1.89684-.75874-1.89684-1.89684-1.89684ZM808.93077,146.9756c-1.1381,0-1.89684.75873-1.89684,1.89684s.75873,1.89684,1.89684,1.89684,1.89684-.75873,1.89684-1.89684-.75873-1.89684-1.89684-1.89684ZM915.15368,146.9756c-1.1381,0-1.89684.75873-1.89684,1.89684s.75874,1.89684,1.89684,1.89684,1.89684-.75873,1.89684-1.89684-.75874-1.89684-1.89684-1.89684ZM871.52641,150.76928v29.21204l7.77629-5.50157,5.31263,10.43261,4.17156-2.08578-5.50157-10.24367,9.67684-2.08578-21.43575-19.72785ZM808.93077,154.56295c-1.1381,0-1.89684.75874-1.89684,1.89684s.75873,1.89684,1.89684,1.89684,1.89684-.75874,1.89684-1.89684-.75873-1.89684-1.89684-1.89684ZM915.15368,154.56295c-1.1381,0-1.89684.75874-1.89684,1.89684s.75874,1.89684,1.89684,1.89684,1.89684-.75874,1.89684-1.89684-.75874-1.89684-1.89684-1.89684ZM808.93077,162.15031c-1.1381,0-1.89684.75874-1.89684,1.89684s.75873,1.89684,1.89684,1.89684,1.89684-.75874,1.89684-1.89684-.75873-1.89684-1.89684-1.89684ZM915.15368,162.15031c-1.1381,0-1.89684.75874-1.89684,1.89684s.75874,1.89684,1.89684,1.89684,1.89684-.75874,1.89684-1.89684-.75874-1.89684-1.89684-1.89684ZM808.93077,169.73766c-1.1381,0-1.89684.75874-1.89684,1.89684s.75873,1.89684,1.89684,1.89684,1.89684-.75874,1.89684-1.89684-.75873-1.89684-1.89684-1.89684ZM915.15368,169.73766c-1.1381,0-1.89684.75874-1.89684,1.89684s.75874,1.89684,1.89684,1.89684,1.89684-.75874,1.89684-1.89684-.75874-1.89684-1.89684-1.89684ZM808.93077,177.32501c-1.1381,0-1.89684.75874-1.89684,1.89684s.75873,1.89684,1.89684,1.89684,1.89684-.75874,1.89684-1.89684-.75873-1.89684-1.89684-1.89684ZM915.15368,177.32501c-1.1381,0-1.89684.75874-1.89684,1.89684s.75874,1.89684,1.89684,1.89684,1.89684-.75874,1.89684-1.89684-.75874-1.89684-1.89684-1.89684ZM808.93077,184.91236c-1.1381,0-1.89684.75874-1.89684,1.89684s.75873,1.89684,1.89684,1.89684,1.89684-.75874,1.89684-1.89684-.75873-1.89684-1.89684-1.89684ZM915.15368,184.91236c-1.1381,0-1.89684.75874-1.89684,1.89684s.75874,1.89684,1.89684,1.89684,1.89684-.75874,1.89684-1.89684-.75874-1.89684-1.89684-1.89684ZM808.93077,192.49971c-1.1381,0-1.89684.75874-1.89684,1.89684s.75873,1.89684,1.89684,1.89684,1.89684-.75874,1.89684-1.89684-.75873-1.89684-1.89684-1.89684ZM915.15368,192.49971c-1.1381,0-1.89684.75874-1.89684,1.89684s.75874,1.89684,1.89684,1.89684,1.89684-.75874,1.89684-1.89684-.75874-1.89684-1.89684-1.89684ZM791.85923,207.67441h55.79741c.84085,2.09938,2.51709,3.79368,4.9014,3.79368h18.96838c2.38431,0,4.06055-1.6943,4.9014-3.79368h55.79741v1.89684c0,3.1384-2.5521,5.69051-5.69051,5.69051h-128.98497c-3.1384,0-5.69051-2.55211-5.69051-5.69051v-1.89684Z"/>
      <path d="M1167.04039,457.71334c-5.2163,0-9.48419,4.26789-9.48419,9.48419v106.22292c0,5.2163,4.26789,9.48419,9.48419,9.48419h81.56403v-9.48419h7.58735v-110.01659h-80.48965c-1.4745-3.33428-4.80137-5.69051-8.66173-5.69051ZM1167.04039,461.50701c3.16387,0,5.69051,2.52665,5.69051,5.69051h79.66719v102.42924h-76.69597c-1.4745-3.33429-4.80137-5.69051-8.66173-5.69051-2.17099,0-4.09006.86691-5.69051,2.1043v-98.84303c0-3.16387,2.52665-5.69051,5.69051-5.69051ZM1174.62774,469.09436c-1.04474,0-1.89684.8521-1.89684,1.89684s.8521,1.89684,1.89684,1.89684,1.89684-.8521,1.89684-1.89684-.8521-1.89684-1.89684-1.89684ZM1174.62774,476.68172c-1.04474,0-1.89684.8521-1.89684,1.89684s.8521,1.89684,1.89684,1.89684,1.89684-.8521,1.89684-1.89684-.8521-1.89684-1.89684-1.89684ZM1187.90561,480.47539v3.79368h53.11146v-3.79368h-53.11146ZM1174.62774,484.26907c-1.04474,0-1.89684.8521-1.89684,1.89684s.8521,1.89684,1.89684,1.89684,1.89684-.8521,1.89684-1.89684-.8521-1.89684-1.89684-1.89684ZM1174.62774,491.85642c-1.04474,0-1.89684.8521-1.89684,1.89684s.8521,1.89684,1.89684,1.89684,1.89684-.8521,1.89684-1.89684-.8521-1.89684-1.89684-1.89684ZM1187.90561,495.65009v22.76205h32.24624v-22.76205h-32.24624ZM1225.84236,495.65009v3.79368h15.1747v-3.79368h-15.1747ZM1174.62774,499.44377c-1.04474,0-1.89684.8521-1.89684,1.89684s.8521,1.89684,1.89684,1.89684,1.89684-.8521,1.89684-1.89684-.8521-1.89684-1.89684-1.89684ZM1191.69928,499.44377h24.65889v15.1747h-24.65889v-15.1747ZM1225.84236,505.13428v3.79368h15.1747v-3.79368h-15.1747ZM1174.62774,507.03112c-1.04474,0-1.89684.8521-1.89684,1.89684s.8521,1.89684,1.89684,1.89684,1.89684-.8521,1.89684-1.89684-.8521-1.89684-1.89684-1.89684ZM1174.62774,514.61847c-1.04474,0-1.89684.8521-1.89684,1.89684s.8521,1.89684,1.89684,1.89684,1.89684-.8521,1.89684-1.89684-.8521-1.89684-1.89684-1.89684ZM1225.84236,514.61847v3.79368h15.1747v-3.79368h-15.1747ZM1174.62774,522.20582c-1.04474,0-1.89684.8521-1.89684,1.89684s.8521,1.89684,1.89684,1.89684,1.89684-.8521,1.89684-1.89684-.8521-1.89684-1.89684-1.89684ZM1187.90561,524.10266v3.79368h53.11146v-3.79368h-53.11146ZM1174.62774,529.79318c-1.04474,0-1.89684.8521-1.89684,1.89684s.8521,1.89684,1.89684,1.89684,1.89684-.8521,1.89684-1.89684-.8521-1.89684-1.89684-1.89684ZM1187.90561,533.58685v3.79368h53.11146v-3.79368h-53.11146ZM1174.62774,537.38053c-1.04474,0-1.89684.8521-1.89684,1.89684s.8521,1.89684,1.89684,1.89684,1.89684-.8521,1.89684-1.89684-.8521-1.89684-1.89684-1.89684ZM1187.90561,543.07104v3.79368h18.96838v-3.79368h-18.96838ZM1212.5645,543.07104v13.27786h28.45257v-13.27786h-28.45257ZM1174.62774,544.96788c-1.04474,0-1.89684.8521-1.89684,1.89684s.8521,1.89684,1.89684,1.89684,1.89684-.8521,1.89684-1.89684-.8521-1.89684-1.89684-1.89684ZM1216.35818,546.86472h20.86522v5.69051h-20.86522v-5.69051ZM1174.62774,552.55523c-1.04474,0-1.89684.8521-1.89684,1.89684s.8521,1.89684,1.89684,1.89684,1.89684-.8521,1.89684-1.89684-.8521-1.89684-1.89684-1.89684ZM1187.90561,552.55523v3.79368h18.96838v-3.79368h-18.96838ZM1174.62774,560.14258c-1.04474,0-1.89684.8521-1.89684,1.89684s.8521,1.89684,1.89684,1.89684,1.89684-.8521,1.89684-1.89684-.8521-1.89684-1.89684-1.89684ZM1167.04039,567.72993c3.16387,0,5.69051,2.52665,5.69051,5.69051h72.07984v5.69051h-77.77035c-3.16387,0-5.69051-2.52665-5.69051-5.69051s2.52665-5.69051,5.69051-5.69051Z"/>
      <path d="M446.11676,464.55569v102.42924h73.97667v-3.79368h-70.183v-94.84189h125.1913v66.38932h3.79368v-70.183h-132.77865ZM461.29146,479.73039v72.07984h58.80197v-3.79368h-55.0083v-17.9718l28.40441-19.5278,7.70961,5.77572c.23302.81341.97661,1.37413,1.82274,1.37447.0037.00001.00741.00001.01111,0l12.32574,9.23227,16.13794-12.53691,27.16331,20.37619h5.0607v-55.0083h-102.42924ZM465.08514,483.52407h94.84189v24.65889c-1.04759,0-1.89684.84924-1.89684,1.89684s.84924,1.89684,1.89684,1.89684v7.58735c-1.04759,0-1.89684.84924-1.89684,1.89684s.84924,1.89684,1.89684,1.89684v7.58735l-2.86008-2.14506c.59443-.3361.96232-.96576.96324-1.64862,0-1.04759-.84924-1.89684-1.89684-1.89684-.87998.00078-1.64388.60668-1.84497,1.46338l-12.39613-9.29895c.59443-.3361.96232-.96576.96324-1.64862,0-1.04759-.84924-1.89684-1.89684-1.89684-.87998.00078-1.64388.60668-1.84497,1.46338l-7.66145-5.74608-.03705.02964c-.21061-.84372-.96796-1.43616-1.83756-1.43745-1.04759,0-1.89684.84924-1.89684,1.89684.0009.69654.38349,1.33656.99658,1.66714l-12.38131,9.62127c-.04936-1.00983-.8821-1.80345-1.89313-1.80422-.59249.00144-1.15026.27964-1.50784.75207l-12.14791-9.1026c.24481-.3273.37735-.72492.37789-1.13366,0-1.04759-.84924-1.89684-1.89684-1.89684-.59639.00088-1.15764.28218-1.51525.75948l-4.1271-3.09348-12.20719,8.39128c-.3246-.23784-.71643-.36629-1.11884-.36677-1.04759,0-1.89684.84924-1.89684,1.89684.00139.16786.02506.3348.07039.49644l-7.66145,5.26447c.00167-.02344.00291-.0469.0037-.07039,0-1.04759-.84924-1.89684-1.89684-1.89684s-1.89684.84924-1.89684,1.89684c.00109.81108.51774,1.53172,1.28555,1.7931l-3.18239,2.18951v-7.77629c1.0476,0,1.89684-.84924,1.89684-1.89684s-.84924-1.89684-1.89684-1.89684v-7.58735c1.0476,0,1.89684-.84924,1.89684-1.89684s-.84924-1.89684-1.89684-1.89684v-18.96838ZM476.46617,496.80193c-1.04759,0-1.89684.84924-1.89684,1.89684s.84924,1.89684,1.89684,1.89684,1.89684-.84924,1.89684-1.89684-.84924-1.89684-1.89684-1.89684ZM484.05352,496.80193c-1.04759,0-1.89684.84924-1.89684,1.89684s.84924,1.89684,1.89684,1.89684,1.89684-.84924,1.89684-1.89684-.84924-1.89684-1.89684-1.89684ZM506.81557,496.80193c-1.04759,0-1.89684.84924-1.89684,1.89684s.84924,1.89684,1.89684,1.89684,1.89684-.84924,1.89684-1.89684-.84924-1.89684-1.89684-1.89684ZM514.40292,496.80193c-1.04759,0-1.89684.84924-1.89684,1.89684s.84924,1.89684,1.89684,1.89684,1.89684-.84924,1.89684-1.89684-.84924-1.89684-1.89684-1.89684ZM537.16498,496.80193c-1.04759,0-1.89684.84924-1.89684,1.89684s.84924,1.89684,1.89684,1.89684,1.89684-.84924,1.89684-1.89684-.84924-1.89684-1.89684-1.89684ZM544.75233,496.80193c-1.04759,0-1.89684.84924-1.89684,1.89684s.84924,1.89684,1.89684,1.89684,1.89684-.84924,1.89684-1.89684-.84924-1.89684-1.89684-1.89684ZM472.67249,502.49245c-1.04759,0-1.89684.84924-1.89684,1.89684s.84924,1.89684,1.89684,1.89684,1.89684-.84924,1.89684-1.89684-.84924-1.89684-1.89684-1.89684ZM480.25984,502.49245c-1.04759,0-1.89684.84924-1.89684,1.89684s.84924,1.89684,1.89684,1.89684,1.89684-.84924,1.89684-1.89684-.84924-1.89684-1.89684-1.89684ZM487.84719,502.49245c-1.04759,0-1.89684.84924-1.89684,1.89684s.84924,1.89684,1.89684,1.89684,1.89684-.84924,1.89684-1.89684-.84924-1.89684-1.89684-1.89684ZM495.43454,502.49245c-1.04759,0-1.89684.84924-1.89684,1.89684s.84924,1.89684,1.89684,1.89684,1.89684-.84924,1.89684-1.89684-.84924-1.89684-1.89684-1.89684ZM503.02189,502.49245c-1.04759,0-1.89684.84924-1.89684,1.89684s.84924,1.89684,1.89684,1.89684,1.89684-.84924,1.89684-1.89684-.84924-1.89684-1.89684-1.89684ZM510.60925,502.49245c-1.04759,0-1.89684.84924-1.89684,1.89684s.84924,1.89684,1.89684,1.89684,1.89684-.84924,1.89684-1.89684-.84924-1.89684-1.89684-1.89684ZM518.1966,502.49245c-1.04759,0-1.89684.84924-1.89684,1.89684s.84924,1.89684,1.89684,1.89684,1.89684-.84924,1.89684-1.89684-.84924-1.89684-1.89684-1.89684ZM525.78395,502.49245c-1.04759,0-1.89684.84924-1.89684,1.89684s.84924,1.89684,1.89684,1.89684,1.89684-.84924,1.89684-1.89684-.84924-1.89684-1.89684-1.89684ZM533.3713,502.49245c-1.04759,0-1.89684.84924-1.89684,1.89684s.84924,1.89684,1.89684,1.89684,1.89684-.84924,1.89684-1.89684-.84924-1.89684-1.89684-1.89684ZM540.95865,502.49245c-1.04759,0-1.89684.84924-1.89684,1.89684s.84924,1.89684,1.89684,1.89684,1.89684-.84924,1.89684-1.89684-.84924-1.89684-1.89684-1.89684ZM548.546,502.49245c-1.04759,0-1.89684.84924-1.89684,1.89684s.84924,1.89684,1.89684,1.89684,1.89684-.84924,1.89684-1.89684-.84924-1.89684-1.89684-1.89684ZM556.13335,502.49245c-1.04759,0-1.89684.84924-1.89684,1.89684s.84924,1.89684,1.89684,1.89684,1.89684-.84924,1.89684-1.89684-.84924-1.89684-1.89684-1.89684ZM468.87881,508.18296c-1.04759,0-1.89684.84924-1.89684,1.89684s.84924,1.89684,1.89684,1.89684,1.89684-.84924,1.89684-1.89684-.84924-1.89684-1.89684-1.89684ZM476.46617,508.18296c-1.04759,0-1.89684.84924-1.89684,1.89684s.84924,1.89684,1.89684,1.89684,1.89684-.84924,1.89684-1.89684-.84924-1.89684-1.89684-1.89684ZM484.05352,508.18296c-1.04759,0-1.89684.84924-1.89684,1.89684s.84924,1.89684,1.89684,1.89684,1.89684-.84924,1.89684-1.89684-.84924-1.89684-1.89684-1.89684ZM506.81557,508.18296c-1.04759,0-1.89684.84924-1.89684,1.89684s.84924,1.89684,1.89684,1.89684,1.89684-.84924,1.89684-1.89684-.84924-1.89684-1.89684-1.89684ZM514.40292,508.18296c-1.04759,0-1.89684.84924-1.89684,1.89684s.84924,1.89684,1.89684,1.89684,1.89684-.84924,1.89684-1.89684-.84924-1.89684-1.89684-1.89684ZM521.99027,508.18296c-1.04759,0-1.89684.84924-1.89684,1.89684s.84924,1.89684,1.89684,1.89684,1.89684-.84924,1.89684-1.89684-.84924-1.89684-1.89684-1.89684ZM537.16498,508.18296c-1.04759,0-1.89684.84924-1.89684,1.89684s.84924,1.89684,1.89684,1.89684,1.89684-.84924,1.89684-1.89684-.84924-1.89684-1.89684-1.89684ZM544.75233,508.18296c-1.04759,0-1.89684.84924-1.89684,1.89684s.84924,1.89684,1.89684,1.89684,1.89684-.84924,1.89684-1.89684-.84924-1.89684-1.89684-1.89684ZM552.33968,508.18296c-1.04759,0-1.89684.84924-1.89684,1.89684s.84924,1.89684,1.89684,1.89684,1.89684-.84924,1.89684-1.89684-.84924-1.89684-1.89684-1.89684ZM472.67249,513.87348c-1.04759,0-1.89684.84924-1.89684,1.89684s.84924,1.89684,1.89684,1.89684,1.89684-.84924,1.89684-1.89684-.84924-1.89684-1.89684-1.89684ZM510.60925,513.87348c-1.04759,0-1.89684.84924-1.89684,1.89684s.84924,1.89684,1.89684,1.89684,1.89684-.84924,1.89684-1.89684-.84924-1.89684-1.89684-1.89684ZM518.1966,513.87348c-1.04759,0-1.89684.84924-1.89684,1.89684s.84924,1.89684,1.89684,1.89684,1.89684-.84924,1.89684-1.89684-.84924-1.89684-1.89684-1.89684ZM548.546,513.87348c-1.04759,0-1.89684.84924-1.89684,1.89684s.84924,1.89684,1.89684,1.89684,1.89684-.84924,1.89684-1.89684-.84924-1.89684-1.89684-1.89684ZM556.13335,513.87348c-1.04759,0-1.89684.84924-1.89684,1.89684s.84924,1.89684,1.89684,1.89684,1.89684-.84924,1.89684-1.89684-.84924-1.89684-1.89684-1.89684ZM552.33968,519.56399c-1.04759,0-1.89684.84924-1.89684,1.89684s.84924,1.89684,1.89684,1.89684,1.89684-.84924,1.89684-1.89684-.84924-1.89684-1.89684-1.89684ZM546.64916,540.4292v5.69051h-18.96838v3.79368h18.96838v5.69051h11.38103v-15.1747h-11.38103ZM550.44284,544.22288h3.79368v7.58735h-3.79368v-7.58735ZM563.7207,546.11972c-1.04759,0-1.89684.84924-1.89684,1.89684s.84924,1.89684,1.89684,1.89684,1.89684-.84924,1.89684-1.89684-.84924-1.89684-1.89684-1.89684ZM571.30806,546.11972c-1.04759,0-1.89684.84924-1.89684,1.89684s.84924,1.89684,1.89684,1.89684,1.89684-.84924,1.89684-1.89684-.84924-1.89684-1.89684-1.89684ZM578.89541,546.11972c-1.04759,0-1.89684.84924-1.89684,1.89684s.84924,1.89684,1.89684,1.89684,1.89684-.84924,1.89684-1.89684-.84924-1.89684-1.89684-1.89684ZM586.48276,546.11972c-1.04759,0-1.89684.84924-1.89684,1.89684s.84924,1.89684,1.89684,1.89684,1.89684-.84924,1.89684-1.89684-.84924-1.89684-1.89684-1.89684ZM569.41122,557.50074v5.69051h-41.73043v3.79368h41.73043v5.69051h11.38103v-15.1747h-11.38103ZM573.20489,561.29442h3.79368v7.58735h-3.79368v-7.58735ZM586.48276,563.19126c-1.04759,0-1.89684.84924-1.89684,1.89684s.84924,1.89684,1.89684,1.89684,1.89684-.84924,1.89684-1.89684-.84924-1.89684-1.89684-1.89684ZM546.64916,574.57229v5.69051h-18.96838v3.79368h18.96838v5.69051h11.38103v-15.1747h-11.38103ZM550.44284,578.36596h3.79368v7.58735h-3.79368v-7.58735ZM563.7207,580.2628c-1.04759,0-1.89684.84924-1.89684,1.89684s.84924,1.89684,1.89684,1.89684,1.89684-.84924,1.89684-1.89684-.84924-1.89684-1.89684-1.89684ZM571.30806,580.2628c-1.04759,0-1.89684.84924-1.89684,1.89684s.84924,1.89684,1.89684,1.89684,1.89684-.84924,1.89684-1.89684-.84924-1.89684-1.89684-1.89684ZM578.89541,580.2628c-1.04759,0-1.89684.84924-1.89684,1.89684s.84924,1.89684,1.89684,1.89684,1.89684-.84924,1.89684-1.89684-.84924-1.89684-1.89684-1.89684ZM586.48276,580.2628c-1.04759,0-1.89684.84924-1.89684,1.89684s.84924,1.89684,1.89684,1.89684,1.89684-.84924,1.89684-1.89684-.84924-1.89684-1.89684-1.89684Z"/>
      <path d="M1496.70399,118.3552c-4.16799,0-7.58735,3.41936-7.58735,7.58735v102.42924h125.1913v-102.42924c0-4.16799-3.41936-7.58735-7.58735-7.58735h-110.01659ZM1496.70399,122.14887h110.01659c2.11814,0,3.79368,1.67554,3.79368,3.79368v98.63557h-117.60394v-98.63557c0-2.11813,1.67554-3.79368,3.79368-3.79368ZM1492.91032,139.22042c0,1.04759.84924,1.89684,1.89684,1.89684s1.89684-.84924,1.89684-1.89684-.84924-1.89684-1.89684-1.89684-1.89684.84924-1.89684,1.89684ZM1610.51426,139.22042c0-1.04759-.84924-1.89684-1.89684-1.89684s-1.89684.84924-1.89684,1.89684.84924,1.89684,1.89684,1.89684,1.89684-.84924,1.89684-1.89684ZM1500.49767,125.94255c-2.09519,0-3.79368,1.69849-3.79368,3.79368s1.69849,3.79368,3.79368,3.79368,3.79368-1.69848,3.79368-3.79368-1.69849-3.79368-3.79368-3.79368ZM1511.87869,125.94255c-2.09519,0-3.79368,1.69849-3.79368,3.79368s1.69848,3.79368,3.79368,3.79368,3.79368-1.69848,3.79368-3.79368-1.69848-3.79368-3.79368-3.79368ZM1523.25972,125.94255c-2.09519,0-3.79368,1.69849-3.79368,3.79368s1.69848,3.79368,3.79368,3.79368,3.79368-1.69848,3.79368-3.79368-1.69848-3.79368-3.79368-3.79368ZM1502.3945,137.32358c-1.0476,0-1.89684.84924-1.89684,1.89684s.84924,1.89684,1.89684,1.89684,1.89684-.84924,1.89684-1.89684-.84924-1.89684-1.89684-1.89684ZM1509.98186,137.32358c-1.04759,0-1.89684.84924-1.89684,1.89684s.84924,1.89684,1.89684,1.89684,1.89684-.84924,1.89684-1.89684-.84924-1.89684-1.89684-1.89684ZM1517.56921,137.32358c-1.04759,0-1.89684.84924-1.89684,1.89684s.84924,1.89684,1.89684,1.89684,1.89684-.84924,1.89684-1.89684-.84924-1.89684-1.89684-1.89684ZM1525.15656,137.32358c-1.04759,0-1.89684.84924-1.89684,1.89684s.84924,1.89684,1.89684,1.89684,1.89684-.84924,1.89684-1.89684-.84924-1.89684-1.89684-1.89684ZM1532.74391,137.32358c-1.04759,0-1.89684.84924-1.89684,1.89684s.84924,1.89684,1.89684,1.89684,1.89684-.84924,1.89684-1.89684-.84924-1.89684-1.89684-1.89684ZM1540.33126,137.32358c-1.04759,0-1.89684.84924-1.89684,1.89684s.84924,1.89684,1.89684,1.89684,1.89684-.84924,1.89684-1.89684-.84924-1.89684-1.89684-1.89684ZM1547.91861,137.32358c-1.04759,0-1.89684.84924-1.89684,1.89684s.84924,1.89684,1.89684,1.89684,1.89684-.84924,1.89684-1.89684-.84924-1.89684-1.89684-1.89684ZM1555.50596,137.32358c-1.04759,0-1.89684.84924-1.89684,1.89684s.84924,1.89684,1.89684,1.89684,1.89684-.84924,1.89684-1.89684-.84924-1.89684-1.89684-1.89684ZM1563.09331,137.32358c-1.04759,0-1.89684.84924-1.89684,1.89684s.84924,1.89684,1.89684,1.89684,1.89684-.84924,1.89684-1.89684-.84924-1.89684-1.89684-1.89684ZM1570.68067,137.32358c-1.04759,0-1.89684.84924-1.89684,1.89684s.84924,1.89684,1.89684,1.89684,1.89684-.84924,1.89684-1.89684-.84924-1.89684-1.89684-1.89684ZM1578.26802,137.32358c-1.04759,0-1.89684.84924-1.89684,1.89684s.84924,1.89684,1.89684,1.89684,1.89684-.84924,1.89684-1.89684-.84924-1.89684-1.89684-1.89684ZM1585.85537,137.32358c-1.04759,0-1.89684.84924-1.89684,1.89684s.84924,1.89684,1.89684,1.89684,1.89684-.84924,1.89684-1.89684-.84924-1.89684-1.89684-1.89684ZM1593.44272,137.32358c-1.04759,0-1.89684.84924-1.89684,1.89684s.84924,1.89684,1.89684,1.89684,1.89684-.84924,1.89684-1.89684-.84924-1.89684-1.89684-1.89684ZM1601.03007,137.32358c-1.04759,0-1.89684.84924-1.89684,1.89684s.84924,1.89684,1.89684,1.89684,1.89684-.84924,1.89684-1.89684-.84924-1.89684-1.89684-1.89684ZM1508.08502,150.60144c-3.12024,0-5.69051,2.57027-5.69051,5.69051v53.11146c0,3.12024,2.57027,5.69051,5.69051,5.69051h1.89684c1.04759.01482,1.90885-.82241,1.92366-1.87001.01482-1.0476-.82241-1.90885-1.87001-1.92367-.01788-.00025-.03577-.00025-.05365,0h-1.89684c-1.07177,0-1.89684-.82507-1.89684-1.89684v-53.11146c0-1.07177.82507-1.89684,1.89684-1.89684h34.14308c1.07177,0,1.89684.82507,1.89684,1.89684v53.11146c0,1.07177-.82507,1.89684-1.89684,1.89684h-1.89684c-1.04759-.01482-1.90885.82241-1.92367,1.87001-.01481,1.0476.82242,1.90885,1.87001,1.92367.01788.00025.03577.00025.05365,0h1.89684c3.12024,0,5.69051-2.57027,5.69051-5.69051v-53.11146c0-3.12024-2.57027-5.69051-5.69051-5.69051h-34.14308ZM1561.19648,150.60144c-3.12024,0-5.69051,2.57027-5.69051,5.69051v5.69051c0,3.12024,2.57027,5.69051,5.69051,5.69051h34.14308c3.12025,0,5.69051-2.57027,5.69051-5.69051v-5.69051c0-3.12024-2.57027-5.69051-5.69051-5.69051h-34.14308ZM1561.19648,154.39512h34.14308c1.07177,0,1.89684.82507,1.89684,1.89684v5.69051c0,1.07177-.82507,1.89684-1.89684,1.89684h-34.14308c-1.07177,0-1.89684-.82507-1.89684-1.89684v-5.69051c0-1.07177.82507-1.89684,1.89684-1.89684ZM1555.50596,177.15717v3.79368h45.52411v-3.79368h-45.52411ZM1555.50596,188.5382v3.79368h45.52411v-3.79368h-45.52411ZM1555.50596,199.91923v3.79368h45.52411v-3.79368h-45.52411ZM1517.56921,211.30025c-1.04759,0-1.89684.84924-1.89684,1.89684s.84924,1.89684,1.89684,1.89684,1.89684-.84924,1.89684-1.89684-.84924-1.89684-1.89684-1.89684ZM1525.15656,211.30025c-1.04759,0-1.89684.84924-1.89684,1.89684s.84924,1.89684,1.89684,1.89684,1.89684-.84924,1.89684-1.89684-.84924-1.89684-1.89684-1.89684ZM1532.74391,211.30025c-1.04759,0-1.89684.84924-1.89684,1.89684s.84924,1.89684,1.89684,1.89684,1.89684-.84924,1.89684-1.89684-.84924-1.89684-1.89684-1.89684ZM1555.50596,211.30025v3.79368h26.55573v-3.79368h-26.55573Z"/>
    </g>
  </g>
</svg>