<svg xmlns="http://www.w3.org/2000/svg" xml:space="preserve" style="fill-rule:evenodd;clip-rule:evenodd;stroke-linejoin:round;stroke-miterlimit:2" viewBox="0 0 501 97"><path d="M160.53 30.41a17.15 17.15 0 0 1 13.56 6.7.69.69 0 0 0 1 .11l5.71-4.55a.71.71 0 0 0 .11-1 26.01 26.01 0 0 0-20.61-10.13c-14.91 0-27 12.85-27 28.65s12.13 28.65 27 28.65a25.87 25.87 0 0 0 20.6-10.12.69.69 0 0 0-.12-1l-5.7-4.5a.706.706 0 0 0-1 .11A17.27 17.27 0 0 1 160.53 70c-10.19 0-18.16-8.7-18.16-19.79s7.97-19.8 18.16-19.8M188.27 19.91h7.16c.389 0 .71.321.71.71V77.4c0 .384-.316.7-.7.7h-7.16a.714.714 0 0 1-.71-.71V20.61c0-.384.316-.7.7-.7M220.54 39.55c-9.49 0-19.09 6.72-19.09 19.57 0 11.29 8.21 19.81 19.09 19.81s19.17-8.52 19.17-19.81-8.24-19.57-19.17-19.57m10.53 19.57c0 6.52-4.53 11.44-10.53 11.44s-10.44-4.92-10.44-11.44 4.49-11.2 10.44-11.2 10.53 4.81 10.53 11.2M278.3 40.37h-7.17c-.384 0-.7.316-.7.7v19c0 7.42-5.12 10.05-9.51 10.05-3.88 0-7.79-2.93-7.79-9.48V41.07c0-.384-.316-.7-.7-.7h-7.17c-.384 0-.7.316-.7.7v20.5c0 11.25 5.09 17.44 14.34 17.44 3.36 0 8.8-1.93 10.84-6.19l.69.14v4.44c0 .389.321.71.71.71h7.16c.389 0 .71-.321.71-.71V41.07c0-.384-.316-.7-.7-.7zM322.27 19.91h-7.17c-.384 0-.7.316-.7.7V46l-.44-.7c-2.18-3.51-6.87-5.78-11.95-5.78-8.76 0-17.62 6.75-17.62 19.65 0 11.25 7.61 19.73 17.69 19.73 3.84 0 9.25-1.54 11.88-5.86l.44-.72v5.09c0 .384.316.7.7.7h7.17c.384 0 .7-.316.7-.7v-56.8c0-.384-.316-.7-.7-.7m-8 39.21q.006.181.006.363c0 5.942-4.815 10.865-10.756 10.997-5.86 0-10.45-5-10.45-11.36s4.59-11.2 10.45-11.2c6.004.152 10.831 5.195 10.72 11.2zM333 40.37h7.16c.384 0 .7.316.7.7V77.4c0 .384-.316.7-.7.7H333a.714.714 0 0 1-.71-.71V41.07a.713.713 0 0 1 .71-.7M336.61 21.06l-.12-.001c-3.056 0-5.57 2.514-5.57 5.57v.001c.033 3.09 2.6 5.608 5.69 5.58h.07c3.039 0 5.54-2.5 5.54-5.54v-.04l.001-.092c0-3.006-2.474-5.48-5.48-5.48zM370.35 39.55c-3.14 0-8.72 1.69-10.85 6.19l-.69-.14v-4.53c0-.384-.316-.7-.7-.7h-7.17c-.384 0-.7.316-.7.7v36.339999999999996c0 .384.316.7.7.7h7.16c.389 0 .71-.321.71-.71v-19c0-7.36 5.12-10 9.51-10 3.88 0 7.79 2.91 7.79 9.4v19.6c0 .389.321.71.71.71H384c.389 0 .71-.321.71-.71V56.91c-.02-11.19-5.12-17.36-14.36-17.36M427.48 40.37h-7.17c-.384 0-.7.316-.7.7v5l-.43-.7c-2.19-3.51-6.88-5.78-12-5.78-8.75 0-17.62 6.75-17.62 19.65 0 11.25 7.61 19.73 17.7 19.73 3.83 0 9.24-1.54 11.88-5.86l.43-.72v5.01c0 .389.321.71.71.71h7.16c.384 0 .7-.316.7-.7V41.07a.703.703 0 0 0-.66-.7m-8 18.75q.006.181.006.362c0 5.954-4.834 10.882-10.786 10.998-5.86 0-10.44-5-10.44-11.36s4.58-11.2 10.44-11.2c6.02.13 10.871 5.18 10.76 11.2zM460.15 40.5a13.7 13.7 0 0 0-5.14-1c-4.76 0-8.22 2.85-10 8.25l-.64-.09v-6.59c0-.384-.316-.7-.7-.7h-7.18c-.384 0-.7.316-.7.7V77.4c0 .389.321.71.71.71h7.24c.384 0 .7-.316.7-.7V65c0-14.8 5.91-17 9.44-17 1.489.004 2.963.31 4.33.9.193.09.417.09.61 0a.7.7 0 0 0 .36-.48l1.42-7.11a.71.71 0 0 0-.45-.81M499.88 40.68a.69.69 0 0 0-.59-.31h-7.71a.72.72 0 0 0-.66.45L481.59 65l-9.42-24.18a.72.72 0 0 0-.66-.45h-7.86a.69.69 0 0 0-.58.31.7.7 0 0 0-.07.66l14 34.38-7.73 20.09a.713.713 0 0 0 .648 1h7.512a.69.69 0 0 0 .65-.45l21.86-55a.69.69 0 0 0-.06-.68M97.91 28.11C92.617 11.512 77.151.126 59.73 0 45.08-.084 31.533 7.964 24.6 20.87 10.416 23.412-.009 35.871-.009 50.281c0 11.651 6.814 22.283 17.399 27.149l.75.34h.05v-8.5A22.31 22.31 0 0 1 7.561 50.274c0-11.336 8.647-20.958 19.919-22.164l2.1-.22.92-1.89C35.824 14.717 47.254 7.51 59.73 7.57c14.958.106 28.028 10.462 31.55 25l.72 2.86h3c9.995.205 18.114 8.463 18.15 18.46 0 7.05-4.07 12.82-11 15.74v8.06l.5-.16c11.14-3.65 18.06-12.71 18.06-23.64-.094-13.022-9.887-24.095-22.8-25.78" style="fill:#3448c5;fill-rule:nonzero" transform="translate(.009 .001)"/><path d="m45.07 76.79 1.66 1.66a.33.33 0 0 1-.23.56H33.4c-3.292 0-6-2.708-6-6V47.57a.33.33 0 0 0-.33-.33h-2.803a.332.332 0 0 1-.237-.56l11.12-11.12a.33.33 0 0 1 .47 0l11.11 11.12a.33.33 0 0 1-.23.56h-2.84a.34.34 0 0 0-.34.33v25a6 6 0 0 0 1.75 4.22M69.64 76.79l1.67 1.66a.33.33 0 0 1-.237.56H58c-3.292 0-6-2.708-6-6V54a.34.34 0 0 0-.33-.34h-2.83a.33.33 0 0 1-.23-.56L59.72 42a.33.33 0 0 1 .47 0l11.12 11.08a.33.33 0 0 1-.237.56H68.23a.34.34 0 0 0-.33.34v18.59a6 6 0 0 0 1.74 4.22M94.22 76.79l1.66 1.66a.33.33 0 0 1-.23.56H82.54c-3.292 0-6-2.708-6-6V60.38a.33.33 0 0 0-.33-.33h-2.804a.33.33 0 0 1-.226-.57L84.3 48.37a.32.32 0 0 1 .46 0l11.12 11.11a.33.33 0 0 1-.226.57H92.8a.33.33 0 0 0-.33.33v12.19a6 6 0 0 0 1.75 4.22" style="fill:#3448c5;fill-rule:nonzero" transform="translate(.009 .001)"/></svg>