<svg viewBox="0 0 80 80" xmlns="http://www.w3.org/2000/svg" xml:space="preserve" style="fill-rule:evenodd;clip-rule:evenodd;stroke-linecap:round;stroke-linejoin:round"><path d="M15.411 17.495a33.211 33.211 0 0 0-8.744 22.506C6.667 58.41 21.591 73.334 40 73.334a33.206 33.206 0 0 0 22.048-8.333" style="fill:none;fill-rule:nonzero;stroke:url(#a);stroke-width:3px"/><path d="M71.007 52.258A33.25 33.25 0 0 0 73.333 40C73.333 21.59 58.41 6.667 40 6.667c-4.104 0-8.035.741-11.667 2.098" style="fill:none;fill-rule:nonzero;stroke:url(#b);stroke-width:3px"/><path d="M30 50c2.148 2.864 6.143 4.498 10 4.637 3.714.133 7.3-1.119 8.991-3.993" style="fill:none;fill-rule:nonzero;stroke:url(#c);stroke-width:3px"/><path d="M40 54.637v7.03" style="fill:none;fill-rule:nonzero;stroke:url(#d);stroke-width:3px"/><path d="M31.667 31.667c0 3.936 2.841 5.548 6.287 6.666" style="fill:none;fill-rule:nonzero;stroke:url(#e);stroke-width:3px"/><path d="M50 28.334c-2.283-2.284-6.304-3.872-10-3.971v-6.029" style="fill:none;fill-rule:nonzero;stroke:url(#f);stroke-width:3px"/><path d="m10 10 60 60" style="fill:none;fill-rule:nonzero;stroke:url(#g);stroke-width:3px"/><defs><linearGradient id="a" x1="0" y1="0" x2="1" y2="0" gradientUnits="userSpaceOnUse" gradientTransform="scale(94.3058) rotate(43.93 -.053 .122)"><stop offset="0" style="stop-color:#48eae6;stop-opacity:1"/><stop offset=".43" style="stop-color:#3cc0e4;stop-opacity:1"/><stop offset="1" style="stop-color:#2061df;stop-opacity:1"/></linearGradient><linearGradient id="b" x1="0" y1="0" x2="1" y2="0" gradientUnits="userSpaceOnUse" gradientTransform="scale(94.3058) rotate(43.93 -.053 .122)"><stop offset="0" style="stop-color:#48eae6;stop-opacity:1"/><stop offset=".43" style="stop-color:#3cc0e4;stop-opacity:1"/><stop offset="1" style="stop-color:#2061df;stop-opacity:1"/></linearGradient><linearGradient id="c" x1="0" y1="0" x2="1" y2="0" gradientUnits="userSpaceOnUse" gradientTransform="scale(94.3058) rotate(43.93 -.053 .122)"><stop offset="0" style="stop-color:#48eae6;stop-opacity:1"/><stop offset=".43" style="stop-color:#3cc0e4;stop-opacity:1"/><stop offset="1" style="stop-color:#2061df;stop-opacity:1"/></linearGradient><linearGradient id="d" x1="0" y1="0" x2="1" y2="0" gradientUnits="userSpaceOnUse" gradientTransform="scale(94.3058) rotate(43.93 -.053 .122)"><stop offset="0" style="stop-color:#48eae6;stop-opacity:1"/><stop offset=".43" style="stop-color:#3cc0e4;stop-opacity:1"/><stop offset="1" style="stop-color:#2061df;stop-opacity:1"/></linearGradient><linearGradient id="e" x1="0" y1="0" x2="1" y2="0" gradientUnits="userSpaceOnUse" gradientTransform="scale(94.3058) rotate(43.93 -.053 .122)"><stop offset="0" style="stop-color:#48eae6;stop-opacity:1"/><stop offset=".43" style="stop-color:#3cc0e4;stop-opacity:1"/><stop offset="1" style="stop-color:#2061df;stop-opacity:1"/></linearGradient><linearGradient id="f" x1="0" y1="0" x2="1" y2="0" gradientUnits="userSpaceOnUse" gradientTransform="scale(94.3058) rotate(43.93 -.053 .122)"><stop offset="0" style="stop-color:#48eae6;stop-opacity:1"/><stop offset=".43" style="stop-color:#3cc0e4;stop-opacity:1"/><stop offset="1" style="stop-color:#2061df;stop-opacity:1"/></linearGradient><linearGradient id="g" x1="0" y1="0" x2="1" y2="0" gradientUnits="userSpaceOnUse" gradientTransform="scale(94.3058) rotate(43.93 -.053 .122)"><stop offset="0" style="stop-color:#48eae6;stop-opacity:1"/><stop offset=".43" style="stop-color:#3cc0e4;stop-opacity:1"/><stop offset="1" style="stop-color:#2061df;stop-opacity:1"/></linearGradient></defs></svg>