<svg width="188" height="187" viewBox="0 0 188 187" fill="none" xmlns="http://www.w3.org/2000/svg">
<g clip-path="url(#clip0_542_773)">
<rect x="3.63043" y="3" width="180.667" height="180.667" rx="22.5833" fill="white"/>
<rect x="3.63043" y="3" width="180.667" height="180.667" fill="url(#paint0_linear_542_773)"/>
<rect x="3.63043" y="3" width="180.667" height="180.667" fill="url(#paint1_linear_542_773)"/>
<g filter="url(#filter0_f_542_773)">
<circle cx="93.9638" cy="101.802" r="70.5729" fill="#48EAE6"/>
</g>
<path d="M54.4429 48.1666V98.9791C54.4429 114.57 41.8043 127.208 26.2138 127.208H3.63043" stroke="white" stroke-width="22.5833"/>
<path d="M133.485 48.1666V98.9791C133.485 114.57 146.123 127.208 161.714 127.208H184.297" stroke="white" stroke-width="22.5833"/>
<g style="mix-blend-mode:multiply">
<g style="mix-blend-mode:multiply">
<path d="M65.7346 48.1666H43.1512L65.7346 93.3333V48.1666Z" fill="#15B7B3"/>
</g>
<g style="mix-blend-mode:multiply">
<path d="M122.193 48.1666H144.776L122.193 93.3333V48.1666Z" fill="#15B7B3"/>
</g>
</g>
<g style="mix-blend-mode:multiply" opacity="0.6">
<rect x="43.1512" y="48.1666" width="22.5833" height="33.875" fill="url(#paint2_linear_542_773)"/>
<rect x="122.193" y="48.1666" width="22.5833" height="33.875" fill="url(#paint3_linear_542_773)"/>
</g>
<g style="mix-blend-mode:multiply" opacity="0.6">
<mask id="mask0_542_773" style="mask-type:alpha" maskUnits="userSpaceOnUse" x="3" y="48" width="182" height="91">
<path d="M54.4429 48.1666V98.9791C54.4429 114.57 41.8043 127.208 26.2138 127.208H3.63043" stroke="white" stroke-width="22.5833"/>
<path d="M133.485 48.1666V98.9791C133.485 114.57 146.123 127.208 161.714 127.208H184.297" stroke="white" stroke-width="22.5833"/>
</mask>
<g mask="url(#mask0_542_773)">
<g filter="url(#filter1_f_542_773)">
<path d="M26.2137 166.729L93.9637 65.1041L161.714 166.729H26.2137Z" fill="#0D2759"/>
</g>
</g>
</g>
<path d="M43.1514 48.1666H71.3805L93.9639 82.0416L116.547 48.1666H144.776L110.901 98.9791L144.747 149.792H116.547L93.9639 115.917L71.3805 149.792H43.1512L77.0264 98.9791L43.1514 48.1666Z" fill="white"/>
</g>
<rect x="3.63043" y="3" width="180.667" height="180.667" rx="22.5833" stroke="white" stroke-width="5.64583"/>
<defs>
<filter id="filter0_f_542_773" x="-21.7758" y="-13.9375" width="231.479" height="231.479" filterUnits="userSpaceOnUse" color-interpolation-filters="sRGB">
<feFlood flood-opacity="0" result="BackgroundImageFix"/>
<feBlend mode="normal" in="SourceGraphic" in2="BackgroundImageFix" result="shape"/>
<feGaussianBlur stdDeviation="22.5833" result="effect1_foregroundBlur_542_773"/>
</filter>
<filter id="filter1_f_542_773" x="12.0992" y="50.9895" width="163.729" height="129.854" filterUnits="userSpaceOnUse" color-interpolation-filters="sRGB">
<feFlood flood-opacity="0" result="BackgroundImageFix"/>
<feBlend mode="normal" in="SourceGraphic" in2="BackgroundImageFix" result="shape"/>
<feGaussianBlur stdDeviation="7.05729" result="effect1_foregroundBlur_542_773"/>
</filter>
<linearGradient id="paint0_linear_542_773" x1="93.9638" y1="3" x2="93.9638" y2="183.667" gradientUnits="userSpaceOnUse">
<stop offset="0.249681" stop-color="#0D2759"/>
<stop offset="0.531221" stop-color="#2061DF"/>
</linearGradient>
<linearGradient id="paint1_linear_542_773" x1="93.9638" y1="48.6183" x2="93.9638" y2="180.053" gradientUnits="userSpaceOnUse">
<stop stop-color="#15B7B3" stop-opacity="0"/>
<stop offset="0.732348" stop-color="#15B7B3"/>
</linearGradient>
<linearGradient id="paint2_linear_542_773" x1="54.4429" y1="48.1666" x2="54.4429" y2="82.0416" gradientUnits="userSpaceOnUse">
<stop offset="0.1" stop-color="#0D2759"/>
<stop offset="1" stop-color="#0D2759" stop-opacity="0"/>
</linearGradient>
<linearGradient id="paint3_linear_542_773" x1="133.485" y1="48.1666" x2="133.485" y2="82.0416" gradientUnits="userSpaceOnUse">
<stop offset="0.1" stop-color="#0D2759"/>
<stop offset="1" stop-color="#0D2759" stop-opacity="0"/>
</linearGradient>
<clipPath id="clip0_542_773">
<rect x="3.63043" y="3" width="180.667" height="180.667" rx="22.5833" fill="white"/>
</clipPath>
</defs>
</svg>
