<svg xmlns="http://www.w3.org/2000/svg" width="188" height="187" fill="none" viewBox="0 0 188 187"><g clip-path="url(#a)"><rect width="180.667" height="180.667" x="3.63" y="3" fill="#fff" rx="22.583"/><path fill="url(#b)" d="M3.63 3h180.667v180.667H3.63z"/><path fill="url(#c)" d="M3.63 3h180.667v180.667H3.63z"/><g filter="url(#d)"><circle cx="93.964" cy="101.802" r="70.573" fill="#48eae6"/></g><path stroke="#fff" stroke-width="22.583" d="M54.443 48.167v50.812c0 15.591-12.639 28.229-28.23 28.229H3.63M133.485 48.167v50.812c0 15.591 12.638 28.229 28.229 28.229h22.583"/><g style="mix-blend-mode:multiply"><path fill="#15b7b3" d="M65.735 48.167H43.15l22.584 45.166zM122.193 48.167h22.583l-22.583 45.166z" style="mix-blend-mode:multiply"/></g><g opacity=".6" style="mix-blend-mode:multiply"><path fill="url(#e)" d="M43.151 48.167h22.583v33.875H43.151z"/><path fill="url(#f)" d="M122.193 48.167h22.583v33.875h-22.583z"/></g><g opacity=".6" style="mix-blend-mode:multiply"><mask id="g" width="182" height="91" x="3" y="48" maskUnits="userSpaceOnUse" style="mask-type:alpha"><path stroke="#fff" stroke-width="22.583" d="M54.443 48.167v50.812c0 15.591-12.639 28.229-28.23 28.229H3.63M133.485 48.167v50.812c0 15.591 12.638 28.229 28.229 28.229h22.583"/></mask><g filter="url(#h)" mask="url(#g)"><path fill="#0d2759" d="m26.214 166.729 67.75-101.625 67.75 101.625z"/></g></g><path fill="#fff" d="M43.151 48.167h28.23l22.583 33.875 22.583-33.875h28.229l-33.875 50.812 33.846 50.813h-28.2l-22.583-33.875-22.583 33.875H43.15l33.875-50.813z"/></g><rect width="180.667" height="180.667" x="3.63" y="3" stroke="#fff" stroke-width="5.646" rx="22.583"/><defs><linearGradient id="b" x1="93.964" x2="93.964" y1="3" y2="183.667" gradientUnits="userSpaceOnUse"><stop offset=".25" stop-color="#0d2759"/><stop offset=".531" stop-color="#2061df"/></linearGradient><linearGradient id="c" x1="93.964" x2="93.964" y1="48.618" y2="180.053" gradientUnits="userSpaceOnUse"><stop stop-color="#15b7b3" stop-opacity="0"/><stop offset=".732" stop-color="#15b7b3"/></linearGradient><linearGradient id="e" x1="54.443" x2="54.443" y1="48.167" y2="82.042" gradientUnits="userSpaceOnUse"><stop offset=".1" stop-color="#0d2759"/><stop offset="1" stop-color="#0d2759" stop-opacity="0"/></linearGradient><linearGradient id="f" x1="133.485" x2="133.485" y1="48.167" y2="82.042" gradientUnits="userSpaceOnUse"><stop offset=".1" stop-color="#0d2759"/><stop offset="1" stop-color="#0d2759" stop-opacity="0"/></linearGradient><filter id="d" width="231.479" height="231.479" x="-21.776" y="-13.938" color-interpolation-filters="sRGB" filterUnits="userSpaceOnUse"><feFlood flood-opacity="0" result="BackgroundImageFix"/><feBlend in="SourceGraphic" in2="BackgroundImageFix" result="shape"/><feGaussianBlur result="effect1_foregroundBlur_542_773" stdDeviation="22.583"/></filter><filter id="h" width="163.729" height="129.854" x="12.099" y="50.989" color-interpolation-filters="sRGB" filterUnits="userSpaceOnUse"><feFlood flood-opacity="0" result="BackgroundImageFix"/><feBlend in="SourceGraphic" in2="BackgroundImageFix" result="shape"/><feGaussianBlur result="effect1_foregroundBlur_542_773" stdDeviation="7.057"/></filter><clipPath id="a"><rect width="180.667" height="180.667" x="3.63" y="3" fill="#fff" rx="22.583"/></clipPath></defs></svg>