<svg width="48" height="48" viewBox="0 0 48 48" fill="none" xmlns="http://www.w3.org/2000/svg">
<path d="M40.634 8.31121C37.5747 6.90744 34.294 5.87321 30.8638 5.28087C30.8013 5.26943 30.7389 5.298 30.7067 5.35514C30.2848 6.10557 29.8175 7.08457 29.4902 7.85406C25.8008 7.30172 22.1304 7.30172 18.5166 7.85406C18.1893 7.06747 17.705 6.10557 17.2811 5.35514C17.249 5.29991 17.1866 5.27134 17.1241 5.28087C13.6958 5.87132 10.4151 6.90555 7.35387 8.31121C7.32737 8.32263 7.30465 8.3417 7.28958 8.36644C1.06678 17.6632 -0.6379 26.7314 0.19836 35.6872C0.202144 35.731 0.22674 35.7729 0.260796 35.7995C4.36642 38.8146 8.34341 40.645 12.2466 41.8583C12.309 41.8773 12.3752 41.8545 12.415 41.803C13.3383 40.5422 14.1613 39.2127 14.867 37.8146C14.9086 37.7328 14.8688 37.6356 14.7837 37.6032C13.4783 37.108 12.2352 36.5042 11.0395 35.8186C10.9449 35.7634 10.9373 35.6281 11.0243 35.5633C11.2759 35.3748 11.5276 35.1786 11.7679 34.9805C11.8114 34.9443 11.872 34.9367 11.9231 34.9595C19.7786 38.5461 28.2831 38.5461 36.0459 34.9595C36.097 34.9348 36.1576 34.9424 36.203 34.9786C36.4433 35.1767 36.6949 35.3748 36.9484 35.5633C37.0354 35.6281 37.0298 35.7634 36.9352 35.8186C35.7394 36.5176 34.4964 37.108 33.189 37.6014C33.1039 37.6337 33.0661 37.7328 33.1077 37.8146C33.8285 39.2108 34.6515 40.5402 35.5578 41.8012C35.5957 41.8545 35.6637 41.8773 35.7262 41.8583C39.6483 40.645 43.6252 38.8146 47.7309 35.7995C47.7668 35.7729 47.7895 35.7329 47.7933 35.6891C48.7942 25.3352 46.117 16.3413 40.6964 8.36833C40.6832 8.3417 40.6605 8.32263 40.634 8.31121ZM16.04 30.234C13.675 30.234 11.7263 28.0627 11.7263 25.3962C11.7263 22.7296 13.6372 20.5583 16.04 20.5583C18.4617 20.5583 20.3916 22.7487 20.3538 25.3962C20.3538 28.0627 18.4428 30.234 16.04 30.234ZM31.9895 30.234C29.6245 30.234 27.6758 28.0627 27.6758 25.3962C27.6758 22.7296 29.5867 20.5583 31.9895 20.5583C34.4113 20.5583 36.3411 22.7487 36.3033 25.3962C36.3033 28.0627 34.4113 30.234 31.9895 30.234Z" fill="#111111"/>
</svg>
