<svg width="64" height="61" viewBox="0 0 64 61" fill="none" xmlns="http://www.w3.org/2000/svg">
<g clip-path="url(#clip0_435_421)">
<mask id="mask0_435_421" style="mask-type:luminance" maskUnits="userSpaceOnUse" x="0" y="0" width="63" height="61">
<path d="M62.3617 0.671387H0.823242V60.6714H62.3617V0.671387Z" fill="white"/>
</mask>
<g mask="url(#mask0_435_421)">
<path d="M51.4643 0.671387H11.7207C5.70219 0.671387 0.823242 5.55033 0.823242 11.5688V49.774C0.823242 55.7924 5.70219 60.6714 11.7207 60.6714H51.4643C57.4827 60.6714 62.3617 55.7924 62.3617 49.774V11.5688C62.3617 5.55033 57.4827 0.671387 51.4643 0.671387Z" fill="#001E36"/>
<path d="M14.6797 42.7469V16.3677C14.6797 16.1755 14.7623 16.0787 14.9274 16.0787C15.3673 16.0787 15.7688 16.0723 16.3746 16.0581C16.9797 16.0445 17.6333 16.0308 18.3355 16.0169C19.0373 16.0032 19.7804 15.9895 20.5648 15.9755C21.3491 15.962 22.1265 15.9551 22.8971 15.9548C24.9884 15.9548 26.7497 16.2163 28.1812 16.7393C29.4725 17.1761 30.6501 17.8952 31.6283 18.8446C32.4576 19.6675 33.0984 20.6605 33.5066 21.755C33.8928 22.8203 34.0885 23.9451 34.0847 25.0782C34.0847 27.2804 33.5755 29.0968 32.5572 30.5274C31.5322 31.964 30.0914 33.0518 28.429 33.6443C26.6951 34.2912 24.7684 34.5106 22.6495 34.5106C22.0438 34.5106 21.6172 34.5038 21.3697 34.49C21.122 34.4764 20.7506 34.4695 20.2552 34.4693V42.7057C20.2624 42.7562 20.2577 42.8076 20.2416 42.856C20.2255 42.9044 20.1983 42.9483 20.1623 42.9843C20.1262 43.0204 20.0822 43.0475 20.0339 43.0637C19.9855 43.0798 19.934 43.0844 19.8836 43.0772H14.9687C14.7758 43.0772 14.6797 42.9675 14.6797 42.7469ZM20.2552 21.0326V29.6364C20.6125 29.6642 20.9427 29.6779 21.2459 29.6777H22.6082C23.6105 29.6744 24.6063 29.5154 25.5599 29.2064C26.3777 28.9635 27.1085 28.4906 27.6653 27.8441C28.2019 27.2114 28.4702 26.3307 28.4703 25.2021C28.4921 24.4035 28.2843 23.6155 27.8716 22.9316C27.4378 22.2701 26.8108 21.7585 26.0759 21.4661C25.1163 21.0931 24.0913 20.9176 23.0623 20.9501C22.4017 20.9501 21.8169 20.9569 21.3079 20.9706C20.7983 20.9849 20.4474 21.0055 20.2552 21.0326Z" fill="#31A8FF"/>
<path d="M50.0464 28.0719C49.2706 27.6733 48.4443 27.3817 47.5901 27.205C46.6489 26.989 45.6866 26.8783 44.721 26.8747C44.1987 26.8606 43.6771 26.9231 43.1729 27.0605C42.852 27.1319 42.5668 27.3148 42.3679 27.5765C42.2333 27.7858 42.1617 28.0294 42.1615 28.2783C42.169 28.5197 42.2561 28.7519 42.4092 28.9388C42.6503 29.2209 42.945 29.4524 43.276 29.62C43.8646 29.9369 44.4712 30.2195 45.0925 30.4663C46.4779 30.9301 47.8018 31.5607 49.0349 32.3446C49.8749 32.8747 50.57 33.6053 51.0577 34.4706C51.4679 35.29 51.6733 36.1966 51.6564 37.1127C51.6811 38.3224 51.3354 39.5107 50.6656 40.5184C49.9486 41.5414 48.9526 42.3367 47.7964 42.8095C46.5438 43.3598 44.9957 43.6351 43.1523 43.6352C41.9812 43.6471 40.812 43.5364 39.6639 43.305C38.7594 43.1391 37.8788 42.8618 37.0425 42.4793C36.9522 42.4327 36.8771 42.3614 36.826 42.2737C36.7747 42.1859 36.7496 42.0854 36.7535 41.9839V37.5255C36.7486 37.4818 36.7555 37.4377 36.7737 37.3976C36.7919 37.3576 36.8206 37.3234 36.8568 37.2984C36.8923 37.2784 36.933 37.2696 36.9735 37.2733C37.0141 37.277 37.0525 37.293 37.0838 37.3191C38.0715 37.9015 39.1439 38.3263 40.2625 38.5782C41.2484 38.8253 42.2597 38.9569 43.276 38.9704C44.2391 38.9704 44.9478 38.8465 45.4021 38.5988C45.6073 38.5049 45.7808 38.3536 45.9017 38.1631C46.0226 37.9726 46.0857 37.7511 46.0833 37.5255C46.0833 37.1681 45.8769 36.8242 45.4641 36.4934C45.0513 36.1632 44.2119 35.7641 42.9458 35.2962C41.6496 34.8451 40.4206 34.2202 39.2923 33.4386C38.4854 32.8774 37.8209 32.1351 37.3521 31.2712C36.9461 30.4578 36.7408 29.5589 36.7535 28.6498C36.7512 27.5575 37.0513 26.4859 37.6204 25.5537C38.2693 24.5271 39.2012 23.7099 40.3038 23.2006C41.5145 22.5955 43.0282 22.2928 44.8449 22.2924C45.9088 22.2838 46.9717 22.3597 48.0235 22.5194C48.7853 22.6161 49.53 22.8175 50.2365 23.1181C50.2926 23.1341 50.3441 23.163 50.3871 23.2024C50.4301 23.2418 50.4633 23.2906 50.4842 23.3451C50.5121 23.4459 50.526 23.5501 50.5255 23.6547V27.8242C50.5284 27.8727 50.5184 27.9211 50.4967 27.9646C50.475 28.0081 50.4422 28.045 50.4017 28.0719C50.3465 28.0993 50.2857 28.1137 50.224 28.1137C50.1624 28.1137 50.1016 28.0993 50.0464 28.0719Z" fill="#31A8FF"/>
</g>
</g>
<defs>
<clipPath id="clip0_435_421">
<rect width="62.25" height="60" fill="white" transform="translate(0.822266 0.671265)"/>
</clipPath>
</defs>
</svg>
