<svg width="193" height="193" viewBox="0 0 193 193" fill="none" xmlns="http://www.w3.org/2000/svg">
<g clip-path="url(#clip0_542_773)">
<rect x="6.63043" y="6" width="180.667" height="180.667" rx="22.5833" fill="white"/>
<rect x="6.63043" y="6" width="180.667" height="180.667" fill="url(#paint0_linear_542_773)"/>
<rect x="6.63043" y="6" width="180.667" height="180.667" fill="url(#paint1_linear_542_773)"/>
<g filter="url(#filter0_f_542_773)">
<circle cx="96.9638" cy="104.802" r="70.5729" fill="#48EAE6"/>
</g>
<path d="M57.4429 51.1666V101.979C57.4429 117.57 44.8043 130.208 29.2138 130.208H6.63043" stroke="white" stroke-width="22.5833"/>
<path d="M136.485 51.1666V101.979C136.485 117.57 149.123 130.208 164.714 130.208H187.297" stroke="white" stroke-width="22.5833"/>
<g style="mix-blend-mode:multiply">
<g style="mix-blend-mode:multiply">
<path d="M68.7346 51.1666H46.1512L68.7346 96.3333V51.1666Z" fill="#15B7B3"/>
</g>
<g style="mix-blend-mode:multiply">
<path d="M125.193 51.1666H147.776L125.193 96.3333V51.1666Z" fill="#15B7B3"/>
</g>
</g>
<g style="mix-blend-mode:multiply" opacity="0.6">
<rect x="46.1512" y="51.1666" width="22.5833" height="33.875" fill="url(#paint2_linear_542_773)"/>
<rect x="125.193" y="51.1666" width="22.5833" height="33.875" fill="url(#paint3_linear_542_773)"/>
</g>
<g style="mix-blend-mode:multiply" opacity="0.6">
<mask id="mask0_542_773" style="mask-type:alpha" maskUnits="userSpaceOnUse" x="6" y="51" width="182" height="91">
<path d="M57.4429 51.1666V101.979C57.4429 117.57 44.8043 130.208 29.2138 130.208H6.63043" stroke="white" stroke-width="22.5833"/>
<path d="M136.485 51.1666V101.979C136.485 117.57 149.123 130.208 164.714 130.208H187.297" stroke="white" stroke-width="22.5833"/>
</mask>
<g mask="url(#mask0_542_773)">
<g filter="url(#filter1_f_542_773)">
<path d="M29.2137 169.729L96.9637 68.1041L164.714 169.729H29.2137Z" fill="#0D2759"/>
</g>
</g>
</g>
<path d="M46.1514 51.1666H74.3805L96.9639 85.0416L119.547 51.1666H147.776L113.901 101.979L147.747 152.792H119.547L96.9639 118.917L74.3805 152.792H46.1512L80.0264 101.979L46.1514 51.1666Z" fill="white"/>
</g>
<rect x="3.80752" y="3.17708" width="186.312" height="186.312" rx="25.4062" stroke="white" stroke-width="5.64583"/>
<defs>
<filter id="filter0_f_542_773" x="-18.7758" y="-10.9375" width="231.479" height="231.479" filterUnits="userSpaceOnUse" color-interpolation-filters="sRGB">
<feFlood flood-opacity="0" result="BackgroundImageFix"/>
<feBlend mode="normal" in="SourceGraphic" in2="BackgroundImageFix" result="shape"/>
<feGaussianBlur stdDeviation="22.5833" result="effect1_foregroundBlur_542_773"/>
</filter>
<filter id="filter1_f_542_773" x="15.0992" y="53.9895" width="163.729" height="129.854" filterUnits="userSpaceOnUse" color-interpolation-filters="sRGB">
<feFlood flood-opacity="0" result="BackgroundImageFix"/>
<feBlend mode="normal" in="SourceGraphic" in2="BackgroundImageFix" result="shape"/>
<feGaussianBlur stdDeviation="7.05729" result="effect1_foregroundBlur_542_773"/>
</filter>
<linearGradient id="paint0_linear_542_773" x1="96.9638" y1="6" x2="96.9638" y2="186.667" gradientUnits="userSpaceOnUse">
<stop offset="0.249681" stop-color="#0D2759"/>
<stop offset="0.531221" stop-color="#2061DF"/>
</linearGradient>
<linearGradient id="paint1_linear_542_773" x1="96.9638" y1="51.6183" x2="96.9638" y2="183.053" gradientUnits="userSpaceOnUse">
<stop stop-color="#15B7B3" stop-opacity="0"/>
<stop offset="0.732348" stop-color="#15B7B3"/>
</linearGradient>
<linearGradient id="paint2_linear_542_773" x1="57.4429" y1="51.1666" x2="57.4429" y2="85.0416" gradientUnits="userSpaceOnUse">
<stop offset="0.1" stop-color="#0D2759"/>
<stop offset="1" stop-color="#0D2759" stop-opacity="0"/>
</linearGradient>
<linearGradient id="paint3_linear_542_773" x1="136.485" y1="51.1666" x2="136.485" y2="85.0416" gradientUnits="userSpaceOnUse">
<stop offset="0.1" stop-color="#0D2759"/>
<stop offset="1" stop-color="#0D2759" stop-opacity="0"/>
</linearGradient>
<clipPath id="clip0_542_773">
<rect x="6.63043" y="6" width="180.667" height="180.667" rx="22.5833" fill="white"/>
</clipPath>
</defs>
</svg>
