<svg xmlns="http://www.w3.org/2000/svg" xmlns:xlink="http://www.w3.org/1999/xlink" viewBox="0 0 364.81 230.02"><defs><linearGradient id="linear-gradient-7" x1="347.25" y1="242.34" x2="437.08" y2="244.32" gradientTransform="matrix(1.1 .19 .19 1.19 -261.51 -327.27)" gradientUnits="userSpaceOnUse"><stop offset=".39" stop-color="#00629b"/><stop offset=".84" stop-color="#c8c9ca"/><stop offset="1" stop-color="#c8c9ca"/></linearGradient><linearGradient id="linear-gradient-14" x1="196.22" y1="83.44" x2="315.07" y2="83.44" xlink:href="#linear-gradient"/><linearGradient id="linear-gradient" x1="196.22" y1="62.9" x2="315.07" y2="62.9" gradientUnits="userSpaceOnUse"><stop offset="0" stop-color="#78be20"/><stop offset=".06" stop-color="#5fab3a"/><stop offset=".17" stop-color="#3d915d"/><stop offset=".27" stop-color="#227c78"/><stop offset=".37" stop-color="#0f6e8c"/><stop offset=".48" stop-color="#046597"/><stop offset=".59" stop-color="#00629b"/><stop offset="1" stop-color="#00629b"/></linearGradient><linearGradient id="linear-gradient-2" x1="153.77" y1="60.21" x2="260.11" y2="60.21" gradientUnits="userSpaceOnUse"><stop offset=".17" stop-color="#00629b" stop-opacity="0"/><stop offset=".19" stop-color="#00629b" stop-opacity=".06"/><stop offset=".26" stop-color="#00629b" stop-opacity=".32"/><stop offset=".33" stop-color="#00629b" stop-opacity=".53"/><stop offset=".4" stop-color="#00629b" stop-opacity=".68"/><stop offset=".46" stop-color="#00629b" stop-opacity=".77"/><stop offset=".52" stop-color="#00629b" stop-opacity=".8"/><stop offset=".64" stop-color="#00629b" stop-opacity=".88"/><stop offset=".83" stop-color="#00629b" stop-opacity=".97"/><stop offset="1" stop-color="#00629b"/></linearGradient><linearGradient id="linear-gradient-3" x1="206.14" y1="64.78" x2="313.98" y2="64.78" gradientUnits="userSpaceOnUse"><stop offset="0" stop-color="#00629b"/><stop offset="1" stop-color="#78be20"/></linearGradient><linearGradient id="linear-gradient-4" x1="228.09" y1="44.47" x2="323.41" y2="44.47" xlink:href="#linear-gradient-3"/><linearGradient id="linear-gradient-5" x1="166.02" y1="103.82" x2="318.57" y2="103.82" gradientUnits="userSpaceOnUse"><stop offset="0" stop-color="#00629b" stop-opacity="0"/><stop offset=".13" stop-color="#00629b" stop-opacity=".07"/><stop offset=".35" stop-color="#00629b" stop-opacity=".27"/><stop offset=".65" stop-color="#00629b" stop-opacity=".58"/><stop offset="1" stop-color="#00629b"/></linearGradient><linearGradient id="linear-gradient-6" x1="220.18" y1="79.48" x2="347.75" y2="79.48" gradientUnits="userSpaceOnUse"><stop offset="0" stop-color="#78be20"/><stop offset="1" stop-color="#ddddde" stop-opacity=".1"/></linearGradient><linearGradient id="linear-gradient-13" x1="196.22" y1="75.33" x2="315.07" y2="75.33" xlink:href="#linear-gradient"/><linearGradient id="linear-gradient-8" x1="246.43" y1="108.09" x2="248.59" y2="82.98" gradientUnits="userSpaceOnUse"><stop offset="0" stop-color="#509f48"/><stop offset=".11" stop-color="#5aa73e"/><stop offset=".37" stop-color="#6bb42d"/><stop offset=".65" stop-color="#75bc23"/><stop offset="1" stop-color="#78be20"/></linearGradient><linearGradient id="linear-gradient-9" x1="271.11" y1="110.21" x2="273.27" y2="85.1" xlink:href="#linear-gradient-8"/><linearGradient id="linear-gradient-10" x1="196.22" y1="78.43" x2="315.07" y2="78.43" xlink:href="#linear-gradient"/><linearGradient id="linear-gradient-11" x1="196.22" y1="69.81" x2="315.07" y2="69.81" xlink:href="#linear-gradient"/><linearGradient id="linear-gradient-12" x1="196.22" y1="84.76" x2="315.07" y2="84.76" xlink:href="#linear-gradient"/><radialGradient id="radial-gradient" cx="-263.05" cy="-898.31" r="24.09" gradientTransform="matrix(4.39 0 0 .49 1412.7 577.88)" gradientUnits="userSpaceOnUse"><stop offset="0" stop-color="#181818"/><stop offset=".14" stop-color="#717171"/><stop offset=".31" stop-color="#9c9c9c" stop-opacity=".7"/><stop offset=".5" stop-color="#c7c7c7" stop-opacity=".39"/><stop offset=".69" stop-color="#e6e6e6" stop-opacity=".18"/><stop offset=".86" stop-color="#f9f9f9" stop-opacity=".05"/><stop offset="1" stop-color="#fff" stop-opacity="0"/></radialGradient><style>.cls-7{fill:#00629b}.cls-8{fill:#414042}.cls-9{fill:#78be20}.cls-15{fill:none}</style></defs><g style="isolation:isolate"><g id="Layer_2" data-name="Layer 2"><g id="Layer_11" data-name="Layer 11"><ellipse cx="259.19" cy="136.9" rx="105.62" ry="11.82" style="opacity:.5;mix-blend-mode:multiply;fill:url(#radial-gradient)"/><path d="M268.69 54.07a1.25 1.25 0 1 0-.13 2.5c20.09 1 37.3 7.51 42.44 15.16.16-1.16.28-2.33.36-3.52-6.98-7.45-23.14-13.12-42.67-14.14z" style="fill:url(#linear-gradient)"/><path d="M158.44 108.71a28.25 28.25 0 0 1-4.21-.27.55.55 0 0 1 .19-1.09 38.24 38.24 0 0 0 20-3c13.92-6.08 23.52-20.25 27.77-41 3.23-15.71 11.56-36.52 32.93-46.49a54.65 54.65 0 0 1 24.47-5.16.55.55 0 0 1 .51.59.54.54 0 0 1-.59.51 53.4 53.4 0 0 0-24 5.08C224 23.33 209 35.64 203.28 63.62c-8.4 40.92-34.55 45.09-44.84 45.09z" style="fill:url(#linear-gradient-2)"/><path d="M260.06 118.7A53.92 53.92 0 1 1 314 64.78a54 54 0 0 1-53.94 53.92zm0-105.34a51.42 51.42 0 1 0 51.42 51.42 51.48 51.48 0 0 0-51.42-51.42z" style="fill:url(#linear-gradient-3)"/><path d="M228.64 62.79a.54.54 0 0 1-.21 0 .55.55 0 0 1-.3-.71c6.92-17.11 17.66-28.25 31.92-33.1 28.86-9.83 62.75 9.71 63.09 9.91a.55.55 0 0 1 .2.75.57.57 0 0 1-.76.2c-.33-.2-33.8-19.49-62.18-9.82-13.94 4.7-24.4 15.62-31.25 32.42a.55.55 0 0 1-.51.35z" style="fill:url(#linear-gradient-4)"/><path class="cls-7" transform="rotate(114.83 228.742 61.916)" d="M225.04 58.6h7.41v6.64h-7.41z"/><path class="cls-8" transform="rotate(115.2 300.417 69.629)" d="M298.48 67.89h3.86v3.46h-3.86z"/><path class="cls-8" transform="rotate(115.2 222.659 75.094)" d="M220.73 73.36h3.86v3.46h-3.86z"/><path class="cls-8" transform="rotate(64.15 272.73 20.763)" d="M270.95 19.16h3.59v3.22h-3.59z"/><path class="cls-9" transform="rotate(71.62 252.276 77.432)" d="M248.23 73.81h8.08v7.24h-8.08z"/><path class="cls-9" transform="rotate(-50.22 230.525 29.597)" d="M226.02 27.77h9.01v3.65h-9.01z"/><path class="cls-7" transform="rotate(22.55 244.7 107.908)" d="M240.17 105.85h9.01v4.08h-9.01z"/><path d="M264.71 127.14h-2a.56.56 0 0 1-.55-.56.55.55 0 0 1 .58-.54H265a.55.55 0 0 1 .56.55.56.56 0 0 1-.56.55zm2.5 0a.56.56 0 0 1-.57-.53.55.55 0 0 1 .54-.57c.75 0 1.5-.07 2.24-.12a.55.55 0 0 1 .6.51.56.56 0 0 1-.52.59c-.76 0-1.51.09-2.27.12zm-6.76-.09c-.75-.05-1.51-.11-2.26-.18a.56.56 0 0 1-.51-.6.57.57 0 0 1 .62-.5q1.11.1 2.22.18a.55.55 0 0 1 0 1.1zm11.26-.23a.55.55 0 0 1-.06-1.09q1.11-.12 2.22-.27a.56.56 0 0 1 .64.47.55.55 0 0 1-.48.62c-.75.1-1.51.19-2.26.27zm-15.75-.2h-.07c-.75-.09-1.5-.2-2.25-.32a.55.55 0 1 1 .19-1.09c.73.12 1.47.23 2.21.32a.55.55 0 0 1 .48.62.56.56 0 0 1-.52.43zm20.21-.4a.57.57 0 0 1-.55-.46.55.55 0 0 1 .46-.64c.73-.12 1.47-.26 2.19-.41a.57.57 0 0 1 .67.43.55.55 0 0 1-.44.65c-.74.15-1.48.29-2.23.42zm-24.65-.33h-.11q-1.11-.23-2.22-.48a.55.55 0 0 1-.42-.66.57.57 0 0 1 .68-.41c.73.17 1.46.33 2.18.47a.55.55 0 0 1 .44.65.56.56 0 0 1-.55.39zm29.06-.58a.56.56 0 0 1-.54-.42.54.54 0 0 1 .41-.66l2.16-.56a.55.55 0 1 1 .3 1.06c-.72.2-1.45.39-2.19.56a.34.34 0 0 1-.14-.02zm-33.44-.45h-.15c-.73-.2-1.45-.41-2.18-.63a.54.54 0 0 1-.36-.69.56.56 0 0 1 .7-.36c.71.22 1.43.43 2.14.62a.54.54 0 0 1 .39.68.56.56 0 0 1-.54.34zm37.78-.75a.57.57 0 0 1-.54-.38.56.56 0 0 1 .36-.7c.71-.22 1.42-.46 2.11-.71a.57.57 0 0 1 .72.33.55.55 0 0 1-.33.71c-.71.25-1.43.49-2.15.72zm-42.07-.58a.63.63 0 0 1-.19 0c-.71-.25-1.42-.51-2.13-.79a.53.53 0 0 1-.31-.71.55.55 0 0 1 .73-.31c.69.27 1.39.53 2.09.77a.55.55 0 0 1 .34.7.56.56 0 0 1-.53.3zm46.3-.93a.57.57 0 0 1-.53-.34.56.56 0 0 1 .31-.72c.7-.27 1.38-.56 2.05-.86a.57.57 0 0 1 .75.27.55.55 0 0 1-.28.73c-.69.31-1.39.6-2.09.88a.52.52 0 0 1-.21 0zm-50.49-.7a.59.59 0 0 1-.22 0c-.7-.3-1.38-.61-2.07-.94a.53.53 0 0 1-.25-.73.56.56 0 0 1 .75-.26c.67.32 1.34.63 2 .92a.55.55 0 0 1 .29.73.59.59 0 0 1-.5.24zm54.59-1.11a.55.55 0 0 1-.25-1c.67-.32 1.32-.66 2-1a.58.58 0 0 1 .77.22.54.54 0 0 1-.22.74c-.67.36-1.34.71-2 1a.54.54 0 0 1-.3 0zm-58.63-.83a.63.63 0 0 1-.27-.06c-.67-.35-1.33-.71-2-1.09a.55.55 0 0 1-.21-.75.57.57 0 0 1 .77-.2c.65.37 1.3.72 1.95 1.07a.53.53 0 0 1 .23.74.54.54 0 0 1-.47.25zm62.57-1.3a.56.56 0 0 1-.48-.26.55.55 0 0 1 .19-.76c.64-.38 1.26-.77 1.88-1.17a.57.57 0 0 1 .78.15.55.55 0 0 1-.16.77c-.62.41-1.26.8-1.91 1.19a.56.56 0 0 1-.3.04zm-66.46-.92a.59.59 0 0 1-.31-.09q-.94-.6-1.89-1.23a.54.54 0 0 1-.14-.77.56.56 0 0 1 .78-.13q.92.61 1.86 1.2a.54.54 0 0 1 .17.76.56.56 0 0 1-.47.22zm70.21-1.52a.56.56 0 0 1-.46-.23.55.55 0 0 1 .12-.77c.6-.43 1.19-.87 1.77-1.33a.57.57 0 0 1 .79.09.54.54 0 0 1-.08.77c-.59.47-1.19.92-1.81 1.36a.59.59 0 0 1-.33.07zm-73.92-1a.59.59 0 0 1-.33-.11c-.61-.45-1.21-.9-1.8-1.37a.55.55 0 0 1-.08-.78.58.58 0 0 1 .79-.08c.58.46 1.17.91 1.76 1.35a.55.55 0 0 1 .12.77.6.6 0 0 1-.48.19zm77.42-1.78a.58.58 0 0 1-.42-.18.54.54 0 0 1 .05-.78c.55-.48 1.1-1 1.62-1.48a.58.58 0 0 1 .8 0 .54.54 0 0 1 0 .78c-.54.52-1.09 1-1.66 1.52a.56.56 0 0 1-.39.11zm-80.92-1a.57.57 0 0 1-.36-.13l-1.73-1.4a.54.54 0 0 1-.08-.77.57.57 0 0 1 .79-.08l1.75 1.41a.55.55 0 0 1 .06.78.56.56 0 0 1-.43.16zm84.14-2.08a.54.54 0 0 1-.38-.15.54.54 0 0 1 0-.78c.51-.53 1-1.08 1.46-1.64a.59.59 0 0 1 .8-.07.54.54 0 0 1 .07.78q-.72.86-1.5 1.68a.55.55 0 0 1-.45.15zm-87.64-.7a.6.6 0 0 1-.34-.11c-.59-.46-1.19-.9-1.79-1.34a.56.56 0 0 1-.11-.77.57.57 0 0 1 .79-.11q.92.66 1.8 1.35a.54.54 0 0 1 .1.77.57.57 0 0 1-.47.18zm-3.6-2.65a.59.59 0 0 1-.33-.11l-1.82-1.28a.53.53 0 0 1-.14-.76.57.57 0 0 1 .78-.14l1.84 1.29a.55.55 0 0 1 .13.77.58.58 0 0 1-.46.22zm94.11 0a.62.62 0 0 1-.34-.11.54.54 0 0 1-.11-.77c.44-.58.86-1.17 1.26-1.78a.59.59 0 0 1 .78-.16.54.54 0 0 1 .17.76c-.42.63-.86 1.24-1.31 1.84a.58.58 0 0 1-.45.14zm-97.79-2.49a.55.55 0 0 1-.32-.1c-.61-.41-1.23-.82-1.86-1.22a.54.54 0 0 1-.16-.76.59.59 0 0 1 .79-.16l1.87 1.23a.55.55 0 0 1 .15.77.59.59 0 0 1-.47.16zM313 103.25a.58.58 0 0 1-.28-.07.56.56 0 0 1-.21-.76c.37-.62.72-1.26 1.05-1.9a.57.57 0 0 1 .76-.25.55.55 0 0 1 .25.74c-.34.66-.7 1.32-1.08 2a.55.55 0 0 1-.49.24zM209 102a.55.55 0 0 1-.3-.09l-1.9-1.17a.55.55 0 0 1-.18-.76.58.58 0 0 1 .78-.17l1.9 1.19a.55.55 0 0 1 .17.76.58.58 0 0 1-.47.24zm-3.82-2.33a.67.67 0 0 1-.3-.08L203 98.47a.54.54 0 0 1-.2-.75.57.57 0 0 1 .77-.2c.65.37 1.29.75 1.94 1.14a.53.53 0 0 1 .19.75.57.57 0 0 1-.53.27zM315 99.32a.59.59 0 0 1-.22 0 .54.54 0 0 1-.29-.72 49 49 0 0 0 .8-2 .58.58 0 0 1 .72-.33.53.53 0 0 1 .34.7c-.25.71-.53 1.4-.83 2.08a.57.57 0 0 1-.52.27zm-113.71-1.88a.57.57 0 0 1-.28-.08l-2-1.08a.55.55 0 0 1-.21-.75.56.56 0 0 1 .76-.21l2 1.09a.55.55 0 0 1 .21.75.58.58 0 0 1-.48.28zm-3.93-2.16a.52.52 0 0 1-.27-.07l-2-1a.53.53 0 0 1-.23-.74.57.57 0 0 1 .76-.23l2 1a.54.54 0 0 1 .22.74.54.54 0 0 1-.48.3zm119.16-.1h-.16a.55.55 0 0 1-.38-.69c.2-.69.39-1.39.55-2.09a.56.56 0 0 1 .67-.42.55.55 0 0 1 .43.66q-.25 1.09-.57 2.16a.57.57 0 0 1-.54.38zm-123.14-2a.58.58 0 0 1-.26-.06c-.67-.35-1.34-.68-2-1a.55.55 0 0 1-.25-.74.57.57 0 0 1 .76-.24l2 1a.55.55 0 0 1 .24.74.57.57 0 0 1-.49.33zm-4-2a.53.53 0 0 1-.25 0l-2-1a.54.54 0 0 1-.26-.74.57.57 0 0 1 .75-.25c.67.31 1.34.64 2 1a.54.54 0 0 1 .25.74.55.55 0 0 1-.51.28zm128.15-.32h-.09a.55.55 0 0 1-.47-.63c.12-.71.22-1.42.3-2.15a.56.56 0 0 1 1.11.11q-.11 1.13-.3 2.22a.55.55 0 0 1-.57.48zM185.3 89.29a.52.52 0 0 1-.24-.05l-2-.93a.54.54 0 0 1-.27-.73.56.56 0 0 1 .74-.27c.67.3 1.36.61 2 .94a.54.54 0 0 1 .27.73.56.56 0 0 1-.5.31zm-4.09-1.84a.69.69 0 0 1-.24 0l-2.05-.89a.54.54 0 0 1-.29-.73.56.56 0 0 1 .74-.28c.67.29 1.36.58 2.07.9a.54.54 0 0 1 .28.72.55.55 0 0 1-.51.28zM318 86.51a.56.56 0 0 1-.54-.57v-.81a.56.56 0 0 1 .56-.54.56.56 0 0 1 .55.57v.83a.57.57 0 0 1-.57.52zm-140.89-.83a.54.54 0 0 1-.22-.05l-2.08-.86a.53.53 0 0 1-.3-.71.55.55 0 0 1 .73-.3l2.09.86a.54.54 0 0 1 .29.72.56.56 0 0 1-.54.34zm-4.2-1.68a.52.52 0 0 1-.21 0l-2.09-.82a.55.55 0 0 1-.32-.71.57.57 0 0 1 .73-.31l2.1.82a.54.54 0 0 1 .31.72.57.57 0 0 1-.52.3zm-4.2-1.61a.48.48 0 0 1-.2 0c-1.36-.5-2.11-.75-2.11-.76a.54.54 0 0 1-.35-.7.58.58 0 0 1 .72-.34s.76.26 2.14.77a.55.55 0 0 1 .33.71.57.57 0 0 1-.53.3z" style="fill:url(#linear-gradient-5)"/><path class="cls-7" transform="rotate(93.67 318.233 83.919)" d="M315.3 81.29h5.89v5.28h-5.89z"/><path class="cls-9" transform="rotate(120 322.863 39.312)" d="M319.91 36.67h5.89v5.28h-5.89z"/><path d="M220.75 126.46a.55.55 0 0 1-.55-.54c-.45-31.09 8.8-54.92 27.43-70.79 36.95-31.46 99-21 99.67-20.86a.55.55 0 0 1-.19 1.09c-.62-.11-62.22-10.52-98.77 20.61-18.39 15.67-27.49 39.19-27 69.93a.55.55 0 0 1-.55.56z" style="fill:url(#linear-gradient-6)"/><path class="cls-7" transform="rotate(93.67 269.372 55.3)" d="M266.21 52.47h6.33v5.68h-6.33z"/><path d="M255.13 89.08a.61.61 0 0 1-.55-.33.62.62 0 0 1 .26-.84c.74-.39 1.47-.77 2.18-1.16a.62.62 0 1 1 .6 1.09L255.41 89a.58.58 0 0 1-.28.08zm4.36-2.37a.63.63 0 0 1-.54-.31.62.62 0 0 1 .24-.85l2.13-1.24a.62.62 0 1 1 .64 1.07l-2.16 1.25a.58.58 0 0 1-.31.08zm4.28-2.54a.62.62 0 0 1-.53-.29.63.63 0 0 1 .2-.86c.71-.44 1.4-.88 2.08-1.32a.62.62 0 0 1 .68 1c-.68.45-1.39.89-2.1 1.34a.68.68 0 0 1-.33.13zm4.16-2.71a.64.64 0 0 1-.52-.27.63.63 0 0 1 .16-.87c.69-.47 1.36-.95 2-1.42a.62.62 0 0 1 .87.14.61.61 0 0 1-.14.86c-.66.49-1.34 1-2 1.45a.66.66 0 0 1-.37.11zm4-2.92a.64.64 0 0 1-.5-.25.62.62 0 0 1 .12-.87c.66-.51 1.31-1 1.93-1.53a.64.64 0 0 1 .88.09.63.63 0 0 1-.09.88l-2 1.55a.62.62 0 0 1-.27.13zm3.85-3.14a.59.59 0 0 1-.47-.22.61.61 0 0 1 .06-.87q.94-.82 1.83-1.65a.62.62 0 0 1 .85.91c-.6.56-1.22 1.12-1.87 1.68a.6.6 0 0 1-.38.15zm3.65-3.4a.64.64 0 0 1-.44-.18.63.63 0 0 1 0-.88c.6-.59 1.16-1.18 1.71-1.77a.62.62 0 1 1 .91.85q-.83.9-1.74 1.8a.62.62 0 0 1-.44.18zm3.38-3.65a.62.62 0 0 1-.41-.14.63.63 0 0 1-.07-.88 44.7 44.7 0 0 0 1.55-1.91.62.62 0 1 1 1 .77c-.5.65-1 1.3-1.58 2a.62.62 0 0 1-.49.17zm3-3.92a.66.66 0 0 1-.36-.11.63.63 0 0 1-.15-.87c.48-.68.93-1.36 1.36-2a.62.62 0 0 1 .85-.2.63.63 0 0 1 .2.86c-.44.7-.9 1.4-1.39 2.09a.61.61 0 0 1-.47.24zm2.63-4.21a.56.56 0 0 1-.3-.08.61.61 0 0 1-.24-.84c.4-.72.78-1.46 1.12-2.18a.62.62 0 0 1 1.12.54c-.35.74-.74 1.5-1.15 2.24a.65.65 0 0 1-.51.33zm2.14-4.48a.5.5 0 0 1-.23 0 .61.61 0 0 1-.34-.8c.3-.75.59-1.52.84-2.3a.63.63 0 0 1 .79-.39.62.62 0 0 1 .39.78c-.26.8-.56 1.6-.87 2.37a.63.63 0 0 1-.54.35zm1.61-4.74H292a.62.62 0 0 1-.44-.76c.2-.79.38-1.59.53-2.38a.62.62 0 0 1 .72-.5.63.63 0 0 1 .5.73c-.15.82-.34 1.65-.55 2.46a.63.63 0 0 1-.57.45zm.91-4.88h-.1a.6.6 0 0 1-.54-.68c.09-.81.16-1.63.2-2.44a.6.6 0 0 1 .65-.59.63.63 0 0 1 .59.65q-.06 1.26-.21 2.52a.63.63 0 0 1-.59.58zm-93.7-.34a.58.58 0 0 1-.28-.07.61.61 0 0 1-.26-.84l.82-1.55a.62.62 0 1 1 1.09.59l-.77 1.58a.64.64 0 0 1-.6.33zm2-3.73a.67.67 0 0 1-.3-.08.62.62 0 0 1-.24-.85L202.1 39a.62.62 0 0 1 1.08.62c-.44.76-.85 1.48-1.22 2.16a.65.65 0 0 1-.55.31zm91.93-.89a.61.61 0 0 1-.62-.61c0-.81-.07-1.63-.14-2.44a.62.62 0 0 1 1.24-.11c.07.84.12 1.69.14 2.52a.63.63 0 0 1-.61.64zm-89.43-3.39a.62.62 0 0 1-.53-.94c.42-.69.85-1.4 1.31-2.13a.63.63 0 0 1 .86-.2.62.62 0 0 1 .19.86c-.45.72-.88 1.43-1.29 2.11a.65.65 0 0 1-.54.3zm89-1.52a.63.63 0 0 1-.62-.52c-.12-.81-.27-1.62-.45-2.41a.63.63 0 0 1 .47-.74.62.62 0 0 1 .74.47c.18.82.34 1.65.47 2.48a.62.62 0 0 1-.52.71zm-86.35-2.7a.59.59 0 0 1-.34-.1.62.62 0 0 1-.18-.86c.45-.68.91-1.38 1.39-2.08a.62.62 0 0 1 1 .7c-.48.7-.94 1.39-1.38 2.06a.63.63 0 0 1-.49.28zm85.27-2.15a.61.61 0 0 1-.59-.45c-.23-.77-.48-1.55-.75-2.33a.63.63 0 0 1 .38-.79.61.61 0 0 1 .79.38c.28.8.54 1.6.77 2.4a.62.62 0 0 1-.43.77zm-82.46-2a.66.66 0 0 1-.36-.11.63.63 0 0 1-.15-.87c.48-.67 1-1.34 1.48-2a.62.62 0 1 1 1 .74c-.5.67-1 1.34-1.46 2a.61.61 0 0 1-.51.28zm80.81-2.73a.62.62 0 0 1-.57-.38c-.32-.76-.65-1.5-1-2.23a.62.62 0 0 1 1.12-.54c.36.75.71 1.51 1 2.29a.63.63 0 0 1-.34.82.64.64 0 0 1-.21.08zm-77.83-1.25a.64.64 0 0 1-.39-.14.63.63 0 0 1-.1-.87c.51-.65 1-1.3 1.57-1.95a.62.62 0 0 1 .87-.09.63.63 0 0 1 .09.88c-.53.64-1 1.28-1.55 1.93a.66.66 0 0 1-.49.28zM288 22.24a.62.62 0 0 1-.54-.32c-.4-.73-.82-1.43-1.24-2.12a.62.62 0 1 1 1.06-.66c.43.71.86 1.43 1.27 2.18a.62.62 0 0 1-.25.84.54.54 0 0 1-.3.08zm-72.51-.62a.61.61 0 0 1-.41-.16.63.63 0 0 1-.06-.87c.55-.63 1.1-1.25 1.67-1.87a.62.62 0 1 1 .92.84c-.56.61-1.11 1.22-1.65 1.84a.62.62 0 0 1-.46.22zM285.4 18a.62.62 0 0 1-.51-.26c-.48-.69-1-1.35-1.45-2a.62.62 0 1 1 1-.76c.51.66 1 1.34 1.49 2a.62.62 0 0 1-.16.86.58.58 0 0 1-.37.16zm-66.53 0a.64.64 0 0 1-.44-.18.62.62 0 0 1 0-.87c.58-.6 1.17-1.19 1.78-1.77a.62.62 0 1 1 .86.89c-.59.57-1.18 1.16-1.75 1.74a.59.59 0 0 1-.45.19zm3.57-3.46a.61.61 0 0 1-.46-.2.62.62 0 0 1 .05-.88q.93-.84 1.89-1.65a.62.62 0 0 1 .88.08.61.61 0 0 1-.08.87c-.63.53-1.25 1.08-1.86 1.62a.61.61 0 0 1-.42.11zm59.92-.42a.64.64 0 0 1-.47-.21c-.55-.64-1.1-1.25-1.64-1.82a.62.62 0 0 1 0-.88.61.61 0 0 1 .87 0c.57.59 1.13 1.21 1.7 1.87a.62.62 0 0 1-.07.87.58.58 0 0 1-.39.12zm-56.1-2.78a.62.62 0 0 1-.38-1.11c.66-.51 1.33-1 2-1.5a.61.61 0 0 1 .86.14.62.62 0 0 1-.14.87q-1 .72-2 1.47a.58.58 0 0 1-.34.08zm52.66-.8a.63.63 0 0 1-.42-.17c-.61-.56-1.23-1.1-1.85-1.59a.62.62 0 0 1 .77-1c.65.51 1.29 1.07 1.92 1.65a.62.62 0 0 1 0 .88.63.63 0 0 1-.42.18zM230.31 8.4a.63.63 0 0 1-.52-.28.62.62 0 0 1 .18-.86c.71-.46 1.42-.89 2.14-1.32a.63.63 0 0 1 .63 1.06c-.71.41-1.4.84-2.09 1.28a.61.61 0 0 1-.34.12zm44.61-.84a.56.56 0 0 1-.3-.08q-1.1-.62-2.16-1.17a.62.62 0 0 1-.27-.84.63.63 0 0 1 .81-.27c.74.38 1.47.78 2.21 1.2a.62.62 0 0 1 .24.85.64.64 0 0 1-.53.31zM234.6 5.9a.61.61 0 0 1-.55-.34.61.61 0 0 1 .27-.83c.75-.39 1.5-.75 2.27-1.1a.62.62 0 1 1 .51 1.13c-.75.34-1.48.7-2.21 1.07a.59.59 0 0 1-.29.07zm35.91-.61a.58.58 0 0 1-.26 0c-.76-.35-1.51-.67-2.26-1a.63.63 0 0 1-.35-.81.62.62 0 0 1 .81-.34q1.16.45 2.31 1a.62.62 0 0 1-.25 1.18zm-31.37-1.43a.62.62 0 0 1-.23-1.2c.79-.3 1.59-.58 2.38-.84a.64.64 0 0 1 .79.41.63.63 0 0 1-.41.78c-.77.24-1.55.51-2.31.81a.57.57 0 0 1-.22.04zm26.75-.41a.69.69 0 0 1-.2 0q-1.19-.41-2.34-.72a.62.62 0 0 1-.43-.77.62.62 0 0 1 .76-.43c.8.22 1.6.47 2.41.74a.63.63 0 0 1 .39.79.62.62 0 0 1-.59.39zm-22-1.09a.62.62 0 0 1-.15-1.22c.81-.21 1.64-.39 2.47-.54a.64.64 0 0 1 .72.5.63.63 0 0 1-.5.73c-.8.14-1.6.32-2.39.51zm17.23-.24H261c-.8-.17-1.61-.32-2.4-.44A.63.63 0 0 1 258 1a.64.64 0 0 1 .71-.52c.82.12 1.65.28 2.48.46a.62.62 0 0 1-.13 1.22zm-12.35-.64a.62.62 0 0 1-.61-.56.61.61 0 0 1 .54-.68c.84-.1 1.69-.17 2.52-.2a.63.63 0 0 1 .65.59.63.63 0 0 1-.59.65c-.81 0-1.63.1-2.44.19zm7.44-.1h-.05c-.82-.07-1.64-.12-2.44-.13a.63.63 0 0 1-.61-.64.61.61 0 0 1 .63-.61c.83 0 1.68.07 2.53.14a.62.62 0 0 1-.06 1.24z" style="fill:url(#linear-gradient-7)"/><path class="cls-7" transform="rotate(114.83 199.613 45.192)" d="M196.99 42.84h5.25v4.7h-5.25z"/><path d="M253.22 19.22c-6.33 8.59-12 25.07-2.94 54.76a.63.63 0 0 0 1.21-.36c-8.89-29.2-3.42-45.3 2.74-53.66a28.22 28.22 0 0 1 6.8-6.59h-2.15a29.16 29.16 0 0 0-5.66 5.85z" style="fill:url(#linear-gradient-8)"/><path d="M288.57 30.55C285 16.3 278.65 8.77 270.28 8.76a17.33 17.33 0 0 0-7.62 2.18c.86 0 1.72.11 2.58.19a14.28 14.28 0 0 1 5-1.11C280 10 285 21.36 287.35 30.86c7.07 28 1.3 76.58-9.8 82.58a.64.64 0 0 0-.25.86.62.62 0 0 0 .55.33.61.61 0 0 0 .3-.08c11.72-6.33 17.75-55.01 10.42-84z" style="fill:url(#linear-gradient-9)"/><path class="cls-7" d="M135.66 216.68a16.4 16.4 0 0 0 7.06 1.9c3.76 0 6.53-2.11 6.53-5.2 0-7.48-13.42-5.33-13.42-14.58 0-5.2 4.29-7.51 8.17-7.51a16.7 16.7 0 0 1 6.69 1.48l-.82 2.23a14.72 14.72 0 0 0-5.87-1.32c-3.59 0-5.61 2.11-5.61 5.12 0 7.06 13.42 5.41 13.42 14.58 0 4.62-3.92 7.6-9.09 7.6a17.24 17.24 0 0 1-7.8-2.07zM155.07 210.24c0-5.9 4.25-10.78 10.24-10.78s10.24 4.88 10.24 10.78S171.3 221 165.31 221s-10.24-4.86-10.24-10.76zm18 0c0-4.62-3-8.46-7.76-8.46s-7.76 3.84-7.76 8.46 3.1 8.42 7.76 8.42 7.76-3.8 7.76-8.42zM196.12 219.53a15.58 15.58 0 0 1-6.82 1.47c-6.6 0-10.49-4.88-10.49-10.78s3.89-10.74 10.49-10.74a17.59 17.59 0 0 1 6.86 1.41l-.75 2.14a16.37 16.37 0 0 0-6.11-1.23c-5.28 0-8.09 4-8.09 8.42s2.81 8.46 8 8.46a16.64 16.64 0 0 0 6.07-1.36zM202.27 191.49a1.68 1.68 0 0 1 1.73 1.66 1.7 1.7 0 0 1-1.73 1.69 1.66 1.66 0 0 1-1.74-1.69 1.64 1.64 0 0 1 1.74-1.66zm-1.2 8.51h2.4v20.44h-2.4zM225.52 219.74A16.5 16.5 0 0 1 219 221c-6.32 0-10.2-4.84-10.2-10.74s3.88-10.78 9.5-10.78c6.4 0 9 5 9 10.66h-16.11c0 4.83 2.85 8.54 7.8 8.54a16.46 16.46 0 0 0 6.07-1.24zm-.71-11.69c-.57-4.33-3.05-6.27-6.52-6.27-3.22 0-6.11 2-6.9 6.27zM233.11 202.06h-2.93V200h2.93v-5.2l2.4-1.08V200h5.08v2.06h-5.08v12.39c0 2.73 1.16 4.21 3.8 4.21a7.94 7.94 0 0 0 2.39-.37l.5 2.23a11.47 11.47 0 0 1-3.1.46c-3.43 0-6-2.11-6-6.28zM247.36 227.71c1.53 0 2.64-.91 3.35-3.06l1.36-4.21h-.83L244.06 200h2.52l5.2 15.07c.29.87.7 2.23 1 3.39.29-1.16.7-2.48 1-3.39l4.89-15.07h2.52l-8.38 25.72c-.95 2.94-3.06 4.3-5.45 4.3a8.82 8.82 0 0 1-3.8-.79l.7-2.18a7.72 7.72 0 0 0 3.1.66zM12.57 69.7H7.82c-1.1 0-5.56.18-5.56.18L2 69.53c.18-5.39.29-10.71.29-16.1v-4c0-6.71-.06-13.49-.52-20.2l.23-.4h4c1.91 0 5.27-.12 6.49-.17l.23.34c-.17 7.94-.29 15.92-.29 23.91 0 5.5.12 11 .41 16.44zM47.94 62.29c-.18 2.38-.29 4.86-.41 7.06l-.46.35c-8.45 0-17 .06-25.47.12l-.29-.41c.23-5.32.29-10.65.29-16v-12c0-4.11-.06-8.16-.41-12.21l.35-.35c6.31 0 21.59-.12 25.41-.12l.29.35c-.17 2.38-.35 4.46-.4 6.72l-.35.34c-5-.11-9.9-.17-14.82-.17 0 1.1-.06 2.66-.06 4.28 0 1.86 0 3.71.06 4.93 4.69 0 9.32-.06 13.95-.24l.35.41c-.18 2.2-.29 4.34-.41 6.54l-.34.35c-8.51-.06-13.55-.06-13.55-.06 0 3.42.06 6.77.12 10.13 5.32 0 10.59-.11 15.86-.4zM80.47 62.29c-.17 2.38-.29 4.86-.4 7.06l-.47.35c-8.45 0-17 .06-25.47.12l-.29-.41c.23-5.32.29-10.65.29-16v-12c0-4.11-.06-8.16-.4-12.21l.34-.35c6.31 0 21.6-.12 25.42-.12l.29.35c-.18 2.38-.35 4.46-.41 6.72l-.35.34C74 36 69.12 36 64.2 36v9.21c4.69 0 9.32-.06 14-.24l.34.41c-.17 2.2-.29 4.34-.4 6.54l-.35.35c-8.51-.06-13.55-.06-13.55-.06 0 3.42.06 6.77.12 10.13 5.33 0 10.59-.11 15.86-.4zM113 62.29c-.18 2.38-.29 4.86-.41 7.06l-.46.35c-8.45 0-17 .06-25.47.12l-.29-.41c.23-5.32.29-10.65.29-16v-12c0-4.11-.06-8.16-.41-12.21l.35-.35c6.31 0 21.59-.12 25.41-.12l.29.35c-.17 2.38-.35 4.46-.4 6.72l-.35.34c-5-.11-9.9-.17-14.82-.17 0 1.1-.06 2.66-.06 4.28 0 1.86 0 3.71.06 4.93 4.69 0 9.32-.06 14-.24l.35.41c-.18 2.2-.29 4.34-.41 6.54l-.34.35c-8.51-.06-13.55-.06-13.55-.06 0 3.42.06 6.77.11 10.13 5.33 0 10.6-.11 15.87-.4z"/><path class="cls-9" d="M2.2 116.85a26.63 26.63 0 0 0 11.88 3.09c4.74 0 7.69-2.54 7.69-6.32 0-9.41-20.4-7.21-20.4-22.74 0-8.37 7-13.25 15-13.25a29.26 29.26 0 0 1 12.08 2.82L26.1 86.9a25.2 25.2 0 0 0-9.75-2.2c-4.4 0-6.6 2.55-6.6 6.18 0 9 20.4 7.63 20.4 22.74 0 8.1-7.07 13.39-16.07 13.39A30.43 30.43 0 0 1 0 123.44zM39.42 76.32a4.54 4.54 0 1 1 0 9.07 4.54 4.54 0 1 1 0-9.07zm-3.85 15.11h7.7v34.69h-7.7zM54.73 132.92a24.27 24.27 0 0 0 10.37 2.33c6.46 0 9.69-4.32 9.69-10.37v-3.23a13.11 13.11 0 0 1-10.24 4.47c-10 0-16.2-8.38-16.2-17.79s6.25-17.79 16.2-17.79a13.26 13.26 0 0 1 10.51 4.74l.41-3.85 7 .69v33.59c0 9.61-7.14 16.34-17.38 16.34a26.92 26.92 0 0 1-12.7-3zm20.54-24.59c0-6.66-4.33-11-9.82-11-5.7 0-9.14 4.74-9.14 11s3.3 11 9.14 11c5.15-.01 9.82-3.93 9.82-11zM89.14 92.12l6.59-.69.69 4.47c2.47-3.57 6.25-5.36 11-5.36 6.93 0 11.47 5.08 11.47 13.26v22.32h-7.7v-21.29c0-4.33-1.58-7.49-5.35-7.49-5.57 0-9 4.74-9 12.78v16h-7.7zM150.4 122a13.12 13.12 0 0 1-10.58 5c-10 0-16.21-8.79-16.21-18.27s6.46-18.2 16.21-18.2a13.38 13.38 0 0 1 10.23 4.53v-3.63l7.7.69v34h-6.67zm.13-13.33c0-6.8-4.32-11.33-9.82-11.33s-9.13 5-9.13 11.4c0 6.11 3.3 11.47 9.13 11.47 5.15 0 9.82-4.21 9.82-11.54zM164.34 76.87l7.66-1.64v42c0 2.13.75 3 2.75 3l-.76 6.66c-5.84 0-9.68-2.13-9.68-8.72zM2.54 135h13.81c9.34 0 16.14 5.29 16.14 14.7s-6.94 14.8-16.21 14.8h-5.77v18.13h-8zm13 22.6c6.8 0 8.93-3.16 8.93-7.9s-2.56-7.7-8.74-7.7h-5.22v15.59zM37.15 148.63l6.6-.68.82 4.94a12.42 12.42 0 0 1 11.13-5.84v6.8c-7 0-10.86 5.5-10.86 13.4v15.38h-7.69zM57.14 165.32c0-9.82 7.28-18.27 17.85-18.27s17.86 8.45 17.86 18.27-7.14 18.2-17.86 18.2-17.85-8.38-17.85-18.2zm27.74 0c0-6.8-4.46-11.47-9.89-11.47s-9.89 4.67-9.89 11.47 4.4 11.4 9.89 11.4 9.89-4.67 9.89-11.4zM126.57 181.05a26.1 26.1 0 0 1-11.75 2.47c-11.47 0-18.4-8.38-18.4-18.27s6.87-18.2 18.4-18.2a29.62 29.62 0 0 1 11.89 2.61l-2.2 6.18a26.26 26.26 0 0 0-9.55-2c-6.73 0-10.58 5.29-10.58 11.4s3.85 11.47 10.58 11.47a25.19 25.19 0 0 0 9.55-2.13zM159.6 181.05a28.13 28.13 0 0 1-11.88 2.47c-11.61 0-18.13-8.24-18.13-18.2s6.18-18.27 16.34-18.27c10.65 0 15.94 8.25 15.94 19.51h-24.59c.48 5.56 3.57 10.16 10.64 10.16a25.83 25.83 0 0 0 10.17-2.19zm-5.49-19.78c-1.1-6-4.47-7.42-8.18-7.42s-7.21 1.93-8.38 7.42zM166.05 174.39c3 1.37 5.77 2.4 8.73 2.4s4.73-1.58 4.73-3.78c0-5.7-14.28-4.39-14.28-15.79 0-6.32 5.36-10.17 11.54-10.17a23 23 0 0 1 9.61 2.27l-2.2 6.11a16.49 16.49 0 0 0-6.86-1.65c-2.89 0-4.12 1.38-4.12 3.44 0 5.42 14.28 4.94 14.28 15.93 0 6.18-5.56 10.37-12.43 10.37a23 23 0 0 1-10.85-2.74zM191.39 174.39c3 1.37 5.77 2.4 8.73 2.4s4.73-1.58 4.73-3.78c0-5.7-14.28-4.39-14.28-15.79 0-6.32 5.36-10.17 11.54-10.17a23 23 0 0 1 9.61 2.27l-2.2 6.11a16.49 16.49 0 0 0-6.86-1.65c-2.89 0-4.12 1.38-4.12 3.44 0 5.42 14.28 4.94 14.28 15.93 0 6.18-5.56 10.37-12.43 10.37a23 23 0 0 1-10.85-2.74zM221.13 132.84a4.53 4.53 0 1 1 0 9.06 4.53 4.53 0 1 1 0-9.06zM217.28 148H225v34.68h-7.69zM231.57 148.63l6.59-.68.69 4.46c2.47-3.57 6.25-5.36 11-5.36 6.94 0 11.47 5.09 11.47 13.26v22.32h-7.69v-21.29c0-4.33-1.58-7.49-5.36-7.49-5.56 0-9 4.74-9 12.78v16h-7.69zM272.43 189.43a24.24 24.24 0 0 0 10.37 2.33c6.45 0 9.68-4.32 9.68-10.37v-3.22a13.11 13.11 0 0 1-10.23 4.46c-10 0-16.21-8.38-16.21-17.79s6.25-17.79 16.21-17.79a13.29 13.29 0 0 1 10.51 4.74l.41-3.84 7 .68v33.59c0 9.61-7.14 16.34-17.37 16.34a27 27 0 0 1-12.71-3zM293 164.84c0-6.66-4.32-11-9.82-11-5.7 0-9.13 4.74-9.13 11s3.29 11 9.13 11c5.11-.01 9.82-3.92 9.82-11z"/><path class="cls-15" d="M272.49 94.88q-2.92 0-5.91-.15c-18-.94-39.94-5.84-56.14-16.49a51.4 51.4 0 0 0 95.36 10 41.37 41.37 0 0 1-5.8 2.53c-7.61 2.69-17.22 4.11-27.51 4.11zM312.49 77.34c-.1.44-.21.87-.32 1.3a6.67 6.67 0 0 0 .32-1.3z"/><path class="cls-15" d="M268.56 56.57a1.25 1.25 0 1 1 .13-2.5c19.53 1 35.69 6.69 42.67 14.14.07-1.14.12-2.28.12-3.43a51.42 51.42 0 1 0-101.88 9.86c15.9 11.42 38.61 16.63 57.11 17.59 12.17.63 23.7-.73 32.46-3.82a33.12 33.12 0 0 0 8.54-4.32A50.74 50.74 0 0 0 311 71.73c-5.14-7.65-22.35-14.12-42.44-15.16z"/><path d="M315.06 76.86a10.21 10.21 0 0 0-1.47-5.67 54.14 54.14 0 0 1-1.1 6.15 6.67 6.67 0 0 1-.32 1.3 53 53 0 0 1-2.4 7c3.29-2.56 5.12-5.56 5.29-8.78z" style="fill:url(#linear-gradient-10)"/><path d="M198.46 64a1.25 1.25 0 0 0-2 1.52 54.8 54.8 0 0 0 10.87 10.51c-.26-1.21-.47-2.42-.65-3.65a50.52 50.52 0 0 1-8.22-8.38z" style="fill:url(#linear-gradient-11)"/><path d="M266.71 92.23c-18.5-1-41.21-6.17-57.11-17.59q.36 1.83.84 3.6c16.2 10.65 38.13 15.55 56.14 16.49q3 .15 5.91.15c10.29 0 19.9-1.42 27.51-4.12a41.37 41.37 0 0 0 5.8-2.53c.7-1.35 1.33-2.73 1.91-4.14a33.12 33.12 0 0 1-8.54 4.32c-8.76 3.09-20.29 4.45-32.46 3.82z" style="fill:url(#linear-gradient-12)"/><path d="M209.6 74.64q-1.5-1.08-2.91-2.22c.18 1.23.39 2.44.65 3.65 1 .74 2 1.47 3.1 2.17q-.44-1.77-.84-3.6z" style="fill:url(#linear-gradient-13)"/><path d="M307.71 84.09c-.58 1.41-1.21 2.79-1.91 4.14a27.72 27.72 0 0 0 4-2.55 53 53 0 0 0 2.4-7 12.06 12.06 0 0 1-4.49 5.41z" style="fill:url(#linear-gradient-14)"/><path class="cls-7" d="M265 200.42h-1.12v-.62h2.93v.62h-1.12V204H265zM267.55 199.8h.8l.79 2.68c.06.21.14.52.2.8.06-.28.14-.59.2-.8l.8-2.68h.79l.6 4.16H271l-.33-2.39c0-.2 0-.47-.06-.73-.07.26-.15.53-.2.73l-.72 2.35H269l-.72-2.35c-.06-.2-.14-.47-.2-.73 0 .26 0 .53-.06.73l-.33 2.39H267z"/></g></g></g></svg>