<svg width="132" height="43" viewBox="0 0 132 43" fill="none" xmlns="http://www.w3.org/2000/svg">
<path d="M110.557 41.5385C109.694 41.5385 109.25 41.0946 109.25 40.2314V11.2056C109.25 10.3425 109.694 9.89859 110.557 9.89859H114.01C114.725 9.89859 115.119 10.3425 115.193 11.2056L115.267 12.4633H115.366C116.13 11.2056 116.969 10.3918 117.906 10.0219C118.991 9.62732 120.125 9.43004 121.26 9.4547C124.688 9.4547 127.08 10.6384 128.461 13.0059C129.842 15.3733 130.532 18.16 130.557 21.3412C130.557 24.5471 129.867 27.3338 128.461 29.7013C127.055 32.0687 124.663 33.2524 121.26 33.2278C120.125 33.2524 118.966 33.0551 117.906 32.6606C116.969 32.2906 116.13 31.4768 115.366 30.2191H115.267C115.317 30.811 115.341 31.3782 115.341 31.9701V40.2068C115.341 41.0699 114.897 41.5138 114.034 41.5138L110.557 41.5385ZM115.366 22.3523C115.366 24.3252 115.76 25.9035 116.525 27.1612C117.289 28.4189 118.227 29.0108 119.336 28.9861C121.309 28.9861 122.567 28.2956 123.183 26.9392C123.775 25.5829 124.096 23.7087 124.096 21.3659C124.096 19.0478 123.8 17.1982 123.183 15.8172C122.567 14.4608 121.285 13.7703 119.336 13.7457C118.251 13.7457 117.314 14.3622 116.525 15.5952C115.736 16.8283 115.366 18.4312 115.366 20.3794V22.3523Z" fill="#333333" stroke="#292929" stroke-width="2.08333"/>
<path d="M21.0876 10.4656L25.1567 21.9082L25.9705 25.6073H26.1431L26.7596 21.8589L29.6203 10.4656H34.9471L28.0667 33.0302H23.7756L19.2627 20.5272L18.6708 17.7158H18.4489L17.9063 20.5765L13.6153 33.0302H9.20101L2 10.4656H8.31321L11.5685 21.6862L12.111 25.6566H12.333L13.0974 21.6369L16.7966 10.4656H21.0876ZM54.6758 30.8847C53.788 31.5999 52.555 32.2164 51.0014 32.7096C49.4231 33.2029 47.7708 33.4248 46.1185 33.4248C42.518 33.4248 39.8793 32.3891 38.2023 30.2929C36.5254 28.1967 35.7116 25.2867 35.7116 21.6369C35.7116 17.6912 36.6487 14.7565 38.5229 12.7837C40.3971 10.8108 43.0359 9.82438 46.4391 9.82438C47.5488 9.82438 48.6586 9.97234 49.7436 10.2683C50.7794 10.5642 51.7658 11.0574 52.6043 11.7479C53.4921 12.4877 54.1826 13.4495 54.6019 14.5099C55.1197 15.669 55.3664 17.124 55.3664 18.8503C55.3664 19.5161 55.317 20.1819 55.243 20.8724C55.1691 21.6123 55.0704 22.3767 54.9225 23.1166H41.5315C41.6302 24.9908 42.0987 26.3965 42.9619 27.3582C43.825 28.32 45.28 28.7886 47.2529 28.7886C48.3626 28.8132 49.4724 28.6159 50.5081 28.246C51.2973 27.9501 52.0618 27.5802 52.7523 27.087L54.6758 30.8847ZM46.3651 14.4853C44.8361 14.4853 43.7017 14.9538 42.9619 15.8663C42.2467 16.7541 41.8275 17.9625 41.6795 19.4914H49.9903C50.1136 17.8885 49.867 16.6554 49.2258 15.7923C48.6339 14.9292 47.6968 14.4853 46.3651 14.4853ZM59.6327 1.53833H65.428V12.2658H65.6007C66.2665 11.526 67.0803 10.9341 68.0174 10.5642C69.0532 10.145 70.1629 9.92302 71.2727 9.94768C73.9607 9.94768 75.9829 10.8601 77.3886 12.7097C78.8189 14.5346 79.5341 17.3213 79.5341 21.0697C79.5341 25.0894 78.5477 28.1474 76.5501 30.2189C74.5772 32.3151 71.8645 33.3508 68.412 33.3508C66.6611 33.3755 64.9101 33.2029 63.1839 32.8576C61.6056 32.5617 60.4218 32.2164 59.608 31.8219L59.6327 1.53833ZM69.5957 14.8552C68.6339 14.8059 67.6968 15.1265 66.957 15.6937C66.2418 16.3348 65.724 17.1486 65.428 18.0611V27.8021C65.8966 28.0487 66.4145 28.1967 66.957 28.2954C67.5489 28.394 68.1407 28.4433 68.7326 28.4187C70.3109 28.4187 71.4946 27.8515 72.3084 26.7171C73.1469 25.558 73.5662 23.7331 73.5662 21.2177C73.5662 16.976 72.2345 14.8552 69.5957 14.8552Z" fill="#333333" stroke="#292929" stroke-width="2.07407"/>
<path d="M86.9814 12.6359H89.5462V15.2253H86.9814V12.6359Z" fill="black"/>
<path d="M86.9814 12.6359H89.5462V15.2253H86.9814V12.6359Z" stroke="black" stroke-width="1.76852" stroke-miterlimit="4.64"/>
<path fill-rule="evenodd" clip-rule="evenodd" d="M85.7743 13.8937H103.53C104.393 13.8937 105.084 14.5842 105.084 15.4226V27.9504C105.084 28.8135 104.393 29.504 103.555 29.504H85.7743C84.9112 29.504 84.2207 28.8135 84.2207 27.975V15.4473C84.2207 14.6088 84.9112 13.9183 85.7743 13.8937Z" fill="black" stroke="black" stroke-width="2.2037" stroke-miterlimit="4.64"/>
<path fill-rule="evenodd" clip-rule="evenodd" d="M87.0039 12.636H89.5686V15.2254H87.0039V12.636Z" fill="url(#paint0_linear_435_309)" stroke="#366A04" stroke-width="1.77778"/>
<path fill-rule="evenodd" clip-rule="evenodd" d="M85.7714 13.8936H103.552C104.415 13.8936 105.106 14.5841 105.106 15.4472V27.9502C105.106 28.8134 104.415 29.5039 103.552 29.5039H85.7714C84.9083 29.5039 84.2178 28.8134 84.2178 27.9502V15.4472C84.2178 14.5841 84.9083 13.8936 85.7714 13.8936Z" fill="url(#paint1_linear_435_309)" stroke="#366A04" stroke-width="2.2037"/>
<path d="M98.475 21.7111C98.475 23.8073 96.7734 25.5335 94.6525 25.5335C92.5563 25.5335 90.8301 23.8319 90.8301 21.7111C90.8301 19.6149 92.5317 17.8887 94.6525 17.8887C96.7734 17.8887 98.475 19.5903 98.475 21.7111Z" fill="white" stroke="#366A04" stroke-width="2.2037"/>
<path d="M86.1906 14.4608H103.059C104.168 14.4608 104.538 14.9294 104.538 15.8911V27.4817C104.538 28.4682 104.144 28.9121 103.059 28.9121H86.1906C85.0809 28.9121 84.7109 28.4928 84.7109 27.4817V15.8911C84.7356 14.8061 85.2042 14.4608 86.1906 14.4608Z" stroke="url(#paint2_linear_435_309)" stroke-width="2.06481" stroke-linejoin="round"/>
<path d="M104.316 13.3017C104.316 15.5212 102.516 17.3461 100.296 17.3461C98.0769 17.3461 96.252 15.5458 96.252 13.3264C96.252 11.1069 98.0522 9.28199 100.272 9.28199C102.516 9.25733 104.316 11.0576 104.316 13.3017Z" fill="url(#paint3_radial_435_309)"/>
<defs>
<linearGradient id="paint0_linear_435_309" x1="88.1431" y1="13.6406" x2="88.9594" y2="15.3595" gradientUnits="userSpaceOnUse">
<stop stop-color="#8AE234"/>
<stop offset="1" stop-color="#4E9A06"/>
</linearGradient>
<linearGradient id="paint1_linear_435_309" x1="89.1034" y1="12.083" x2="98.0059" y2="27.501" gradientUnits="userSpaceOnUse">
<stop stop-color="#8AE234"/>
<stop offset="1" stop-color="#4E9A06"/>
</linearGradient>
<linearGradient id="paint2_linear_435_309" x1="89.9482" y1="12.647" x2="97.7829" y2="27.7789" gradientUnits="userSpaceOnUse">
<stop stop-color="white" stop-opacity="0.55"/>
<stop offset="1" stop-color="white" stop-opacity="0"/>
</linearGradient>
<radialGradient id="paint3_radial_435_309" cx="0" cy="0" r="1" gradientUnits="userSpaceOnUse" gradientTransform="translate(100.268 13.2194) scale(4.04272 4.0427)">
<stop stop-color="white"/>
<stop offset="0.5" stop-color="#FFF520" stop-opacity="0.9"/>
<stop offset="1" stop-color="#FFF300" stop-opacity="0"/>
</radialGradient>
</defs>
</svg>
