<svg width="50" height="61" viewBox="0 0 50 61" fill="none" xmlns="http://www.w3.org/2000/svg">
<g clip-path="url(#clip0_435_419)">
<path d="M47.8436 21.1253C47.4956 21.3953 41.3516 24.8573 41.3516 32.5553C41.3516 41.4593 49.1696 44.6093 49.4036 44.6873C49.3676 44.8793 48.1616 49.0013 45.2816 53.2013C42.7136 56.8973 40.0316 60.5873 35.9516 60.5873C31.8716 60.5873 30.8216 58.2173 26.1116 58.2173C21.5216 58.2173 19.8896 60.6653 16.1576 60.6653C12.4256 60.6653 9.82162 57.2453 6.82762 53.0453C3.35962 48.1133 0.557617 40.4513 0.557617 33.1793C0.557617 21.5153 8.14162 15.3293 15.6056 15.3293C19.5716 15.3293 22.8776 17.9333 25.3676 17.9333C27.7376 17.9333 31.4336 15.1733 35.9456 15.1733C37.6556 15.1733 43.7996 15.3293 47.8436 21.1253ZM33.8036 10.2353C35.6696 8.02126 36.9896 4.94927 36.9896 1.87726C36.9896 1.45126 36.9536 1.01926 36.8756 0.671265C33.8396 0.785265 30.2276 2.69326 28.0496 5.21926C26.3396 7.16327 24.7436 10.2353 24.7436 13.3493C24.7436 13.8173 24.8216 14.2853 24.8576 14.4353C25.0496 14.4713 25.3616 14.5133 25.6736 14.5133C28.3976 14.5133 31.8236 12.6893 33.8036 10.2353Z" fill="black"/>
</g>
<defs>
<clipPath id="clip0_435_419">
<rect width="48.9844" height="60" fill="white" transform="translate(0.485352 0.671265)"/>
</clipPath>
</defs>
</svg>
