<svg width="65" height="65" viewBox="0 0 65 65" fill="none" xmlns="http://www.w3.org/2000/svg">
<g clip-path="url(#clip0_435_410)">
<g opacity="0.53" filter="url(#filter0_f_435_410)">
<path d="M61.9962 33.6883C61.9962 37.3996 61.237 41.0746 59.7621 44.5035C58.2871 47.9323 56.1253 51.0479 53.4 53.6722C50.6747 56.2965 47.4392 58.3782 43.8784 59.7985C40.3176 61.2188 36.5012 61.9498 32.647 61.9498C28.7928 61.9498 24.9764 61.2188 21.4156 59.7985C17.8548 58.3782 14.6193 56.2965 11.894 53.6722C9.1687 51.0479 7.00686 47.9323 5.53192 44.5035C4.05699 41.0746 3.29785 37.3996 3.29785 33.6883C3.29785 26.1929 6.38999 19.0044 11.894 13.7044C17.3981 8.4043 24.8631 5.42676 32.647 5.42676C36.5012 5.42676 40.3176 6.15776 43.8784 7.57804C47.4392 8.99831 50.6747 11.08 53.4 13.7044C56.1253 16.3287 58.2871 19.4442 59.7621 22.8731C61.237 26.3019 61.9962 29.9769 61.9962 33.6883Z" fill="black"/>
</g>
<path d="M63.1117 31.1928C63.1117 35.1938 62.3237 39.1555 60.7926 42.8519C59.2615 46.5482 57.0174 49.9068 54.1883 52.7359C51.3592 55.565 48.0006 57.8091 44.3042 59.3402C40.6079 60.8713 36.6461 61.6593 32.6452 61.6593C24.565 61.6593 16.8157 58.4495 11.1021 52.7359C5.38856 47.0223 2.17871 39.2731 2.17871 31.1928C2.17871 23.1126 5.38856 15.3633 11.1021 9.64976C16.8157 3.93618 24.565 0.72632 32.6452 0.726318C36.6461 0.726318 40.6079 1.51436 44.3042 3.04545C48.0006 4.57653 51.3592 6.82068 54.1883 9.64976C57.0174 12.4788 59.2615 15.8374 60.7926 19.5338C62.3237 23.2302 63.1117 27.1919 63.1117 31.1928Z" fill="url(#paint0_linear_435_410)" stroke="#CDCDCD" stroke-width="0.0744099" stroke-linecap="round" stroke-linejoin="round"/>
<path d="M60.7248 31.1927C60.7248 38.6398 57.7664 45.7818 52.5006 51.0477C47.2347 56.3135 40.0926 59.2719 32.6456 59.2719C25.1985 59.2719 18.0565 56.3135 12.7906 51.0477C7.52474 45.7818 4.56641 38.6398 4.56641 31.1927C4.56641 23.7456 7.52474 16.6036 12.7906 11.3377C18.0565 6.07186 25.1985 3.11353 32.6456 3.11353C40.0926 3.11353 47.2347 6.07186 52.5006 11.3377C57.7664 16.6036 60.7248 23.7456 60.7248 31.1927Z" fill="url(#paint1_radial_435_410)"/>
<path d="M32.6448 4.57788C32.418 4.57788 32.2354 4.76046 32.2354 4.98726V9.70934C32.2354 9.93615 32.418 10.1187 32.6448 10.1187C32.8716 10.1187 33.0542 9.93615 33.0542 9.70934V4.98726C33.0542 4.76046 32.8716 4.57788 32.6448 4.57788ZM29.9666 4.74715C29.9395 4.74423 29.9116 4.74423 29.8834 4.74749C29.6578 4.77103 29.4951 4.97158 29.5187 5.19716L29.7251 7.17267C29.7486 7.39825 29.9492 7.56091 30.1747 7.53735C30.4003 7.51381 30.563 7.31327 30.5394 7.08768L30.3332 5.11218C30.3126 4.9148 30.1564 4.76558 29.9666 4.74715ZM35.3417 4.7491C35.1519 4.76738 34.9957 4.91659 34.9749 5.11394L34.7671 7.08929C34.7434 7.31485 34.9061 7.51558 35.1317 7.53931C35.3572 7.56304 35.5578 7.40054 35.5815 7.17497L35.7893 5.19946C35.813 4.9739 35.6503 4.77333 35.4248 4.74962C35.3966 4.7467 35.3689 4.74668 35.3417 4.7491ZM27.2155 5.14611C27.1882 5.14632 27.1605 5.14902 27.1328 5.15486C26.9109 5.20184 26.7701 5.41832 26.817 5.64021L27.795 10.2598C27.842 10.4817 28.0585 10.6225 28.2803 10.5756C28.5022 10.5286 28.6431 10.3123 28.5961 10.0904L27.6181 5.4706C27.577 5.27644 27.4062 5.14462 27.2155 5.14611ZM38.0927 5.15C37.902 5.14805 37.7311 5.28026 37.6899 5.47438L36.7086 10.0934C36.6614 10.3153 36.8021 10.5319 37.0239 10.579C37.2458 10.6262 37.4623 10.4854 37.5095 10.2636L38.4908 5.64452C38.5379 5.42267 38.3972 5.20611 38.1754 5.15899C38.1477 5.15316 38.1199 5.15 38.0927 5.15ZM24.5899 5.88641C24.5369 5.88155 24.4822 5.88738 24.4282 5.90528C24.2125 5.9754 24.0953 6.20532 24.1653 6.42102L24.7791 8.31014C24.8493 8.52585 25.0794 8.64313 25.2951 8.57305C25.5108 8.50293 25.6279 8.27283 25.5578 8.05713L24.944 6.16801C24.8915 6.00623 24.7489 5.89993 24.5899 5.88641ZM40.7034 5.88738C40.5444 5.9009 40.4019 6.00725 40.3493 6.16902L39.7352 8.05796C39.665 8.27365 39.7822 8.50376 39.9979 8.57388C40.2136 8.644 40.4437 8.5268 40.5138 8.31115L41.128 6.42203C41.1981 6.20633 41.0809 5.97623 40.8652 5.90612C40.8114 5.88861 40.7564 5.88291 40.7034 5.88738ZM21.9935 6.83653C21.9403 6.8375 21.8865 6.84918 21.8347 6.87223C21.6276 6.96433 21.5348 7.20528 21.6269 7.41253L23.5448 11.7275C23.6369 11.9348 23.8779 12.0274 24.0851 11.9353C24.2923 11.8432 24.3852 11.6023 24.2931 11.395L22.375 7.08001C22.3059 6.92456 22.1531 6.83344 21.9935 6.83653ZM43.3291 6.85102C43.1696 6.84811 43.0166 6.93865 42.9473 7.09397L41.0236 11.4063C40.9312 11.6134 41.0235 11.8546 41.2306 11.947C41.4378 12.0394 41.6789 11.947 41.7713 11.7399L43.695 7.42755C43.7874 7.22042 43.6951 6.9793 43.488 6.88689C43.4362 6.86384 43.3823 6.85219 43.3291 6.85102ZM19.5835 8.11167C19.505 8.10584 19.424 8.12334 19.3503 8.16594C19.1539 8.27935 19.0871 8.52874 19.2005 8.72515L20.1936 10.4454C20.307 10.6418 20.5564 10.7086 20.7528 10.5952C20.9493 10.4818 21.0161 10.2324 20.9027 10.036L19.9095 8.31578C19.8386 8.19301 19.7145 8.12084 19.5835 8.11167ZM45.7061 8.11167C45.5751 8.12043 45.4511 8.19298 45.3803 8.31575L44.3869 10.0359C44.2735 10.2324 44.3405 10.4818 44.5369 10.5952C44.7334 10.7086 44.9827 10.6417 45.0962 10.4453L46.0893 8.72512C46.2027 8.52871 46.1359 8.27932 45.9395 8.16591C45.8658 8.12341 45.7847 8.10623 45.7061 8.11167ZM17.2434 9.57127C17.1646 9.57418 17.0857 9.59947 17.0168 9.64936C16.8333 9.78254 16.7927 10.0375 16.9259 10.2211L19.6986 14.0433C19.8318 14.2269 20.087 14.2675 20.2705 14.1344C20.4541 14.0012 20.4947 13.7462 20.3615 13.5626L17.5886 9.7404C17.5053 9.62565 17.3746 9.56678 17.2434 9.57127ZM48.0756 9.59208C47.9444 9.58722 47.8136 9.64606 47.7302 9.76064L44.9522 13.5792C44.8187 13.7626 44.859 14.0177 45.0424 14.1511C45.2258 14.2845 45.4809 14.2444 45.6144 14.061L48.3922 10.2425C48.5256 10.0591 48.4853 9.80401 48.3019 9.67058C48.2332 9.62059 48.1543 9.5949 48.0756 9.59208ZM15.1516 11.3255C15.0471 11.3197 14.9404 11.3546 14.8562 11.4305C14.6876 11.5822 14.674 11.84 14.8258 12.0086L16.1548 13.485C16.3066 13.6535 16.5644 13.6671 16.733 13.5153C16.9015 13.3636 16.9151 13.1056 16.7633 12.937L15.4344 11.4608C15.3586 11.3765 15.2561 11.331 15.1516 11.3255ZM50.141 11.3285C50.0365 11.3343 49.934 11.3795 49.8582 11.4638L48.5291 12.9398C48.3774 13.1084 48.3908 13.3663 48.5594 13.5181C48.7279 13.6699 48.9857 13.6563 49.1375 13.4878L50.4667 12.0117C50.6185 11.8432 50.6049 11.5852 50.4364 11.4335C50.352 11.3576 50.2455 11.323 50.141 11.3285ZM13.1467 13.2513C13.0422 13.2571 12.9399 13.3024 12.864 13.3867C12.7123 13.5552 12.7259 13.813 12.8944 13.9648L16.4039 17.1241C16.5724 17.2758 16.8302 17.2622 16.982 17.0937C17.1337 16.9252 17.1203 16.6673 16.9517 16.5156L13.4421 13.3563C13.3577 13.2804 13.2513 13.2458 13.1467 13.2513ZM52.1556 13.2651C52.0511 13.2593 51.9443 13.2941 51.86 13.3699L48.3484 16.5267C48.1797 16.6783 48.1659 16.9362 48.3175 17.1048C48.4691 17.2735 48.7271 17.2872 48.8958 17.1356L52.4075 13.9787C52.5762 13.8271 52.5899 13.5693 52.4383 13.4006C52.3624 13.3163 52.2601 13.2707 52.1556 13.2651ZM11.4795 15.3951C11.3483 15.3902 11.2174 15.4493 11.1341 15.564C11.0008 15.7475 11.0412 16.0024 11.2248 16.1357L12.8317 17.3033C13.0152 17.4366 13.2701 17.3963 13.4035 17.2128C13.5368 17.0293 13.4964 16.7742 13.313 16.6409L11.7061 15.4734C11.6373 15.4234 11.5583 15.3979 11.4795 15.3951ZM53.8212 15.4099C53.7424 15.4129 53.6635 15.4381 53.5947 15.488L51.987 16.6545C51.8035 16.7877 51.7629 17.0429 51.896 17.2265C52.0292 17.41 52.2842 17.4505 52.4678 17.3173L54.0756 16.1508C54.2592 16.0176 54.2996 15.7626 54.1665 15.5791C54.0832 15.4643 53.9524 15.4055 53.8212 15.4099ZM9.92153 17.6818C9.79053 17.6905 9.6666 17.7631 9.59572 17.8858C9.48232 18.0822 9.54913 18.3316 9.74555 18.445L13.8349 20.8061C14.0313 20.9195 14.2807 20.8527 14.3941 20.6563C14.5075 20.4598 14.4407 20.2104 14.2443 20.097L10.1549 17.736C10.0813 17.6935 10.0001 17.6763 9.92153 17.6818ZM55.3681 17.6818C55.2895 17.6759 55.2083 17.6934 55.1347 17.736L51.0453 20.0971C50.8489 20.2105 50.7821 20.4599 50.8955 20.6563C51.0089 20.8527 51.2583 20.9195 51.4547 20.8061L55.5443 18.4451C55.7407 18.3317 55.8075 18.0823 55.6941 17.8859C55.6232 17.7631 55.4991 17.6909 55.3681 17.6818ZM8.74357 20.1191C8.58403 20.1152 8.43105 20.2066 8.36175 20.3619C8.26935 20.569 8.36169 20.8102 8.56883 20.9025L10.383 21.7118C10.5902 21.8042 10.8313 21.7118 10.9237 21.5047C11.0161 21.2976 10.9236 21.0564 10.7164 20.964L8.90241 20.1548C8.85067 20.1317 8.79674 20.1202 8.74357 20.1191ZM56.554 20.136C56.5008 20.1369 56.4468 20.1486 56.395 20.1717L54.5804 20.9795C54.3732 21.0718 54.2806 21.3127 54.3728 21.5199C54.4651 21.7271 54.7063 21.8198 54.9135 21.7275L56.728 20.9196C56.9352 20.8274 57.0277 20.5863 56.9355 20.3791C56.8663 20.2237 56.7135 20.1328 56.554 20.136ZM7.69371 22.6666C7.5347 22.6799 7.39215 22.7862 7.33945 22.9479C7.26923 23.1635 7.38614 23.3937 7.60183 23.464L12.0916 24.9269C12.3072 24.9972 12.5374 24.8802 12.6077 24.6646C12.6779 24.4489 12.561 24.2187 12.3453 24.1485L7.85556 22.6855C7.80167 22.6679 7.7467 22.6621 7.69371 22.6666ZM57.6019 22.6841C57.5489 22.6793 57.4942 22.6851 57.4402 22.703L52.9495 24.1628C52.7337 24.2329 52.6166 24.463 52.6867 24.6787C52.7568 24.8944 52.9869 25.0115 53.2026 24.9414L57.6933 23.4816C57.909 23.4115 58.0263 23.1814 57.9562 22.9657C57.9036 22.804 57.7609 22.6976 57.6019 22.6841ZM7.03962 25.3408C6.8489 25.3388 6.67786 25.4712 6.6366 25.6653C6.58943 25.8872 6.73016 26.1037 6.95198 26.1509L8.89499 26.5638C9.11684 26.611 9.33335 26.4702 9.38052 26.2484C9.42769 26.0265 9.28695 25.81 9.06513 25.7629L7.1223 25.35C7.09458 25.3441 7.06685 25.3408 7.03962 25.3408ZM58.2509 25.3447C58.2237 25.3449 58.1961 25.3486 58.1684 25.3534L56.2254 25.7662C56.0035 25.8133 55.8629 26.0297 55.91 26.2515C55.9572 26.4734 56.1737 26.6142 56.3955 26.5671L58.3384 26.1543C58.5602 26.1072 58.7011 25.8907 58.6539 25.6688C58.6127 25.4747 58.4416 25.343 58.2509 25.3447ZM6.54455 28.0306C6.3547 28.0488 6.19843 28.1978 6.17758 28.3951C6.15375 28.6207 6.316 28.8215 6.54154 28.8453L11.2375 29.3418C11.463 29.3656 11.6638 29.2032 11.6877 28.9777C11.7115 28.7521 11.5491 28.5513 11.3235 28.5275L6.62759 28.031C6.59939 28.0281 6.57168 28.0281 6.54455 28.0306ZM58.7495 28.0659C58.7223 28.063 58.6944 28.063 58.6662 28.0663L53.9698 28.5564C53.7442 28.5799 53.5816 28.7805 53.6051 29.0061C53.6286 29.2316 53.8292 29.3943 54.0548 29.3707L58.7512 28.8806C58.9768 28.8571 59.1394 28.6565 59.1159 28.4309C59.0953 28.2336 58.9393 28.0844 58.7495 28.0659ZM6.46504 30.7841C6.23823 30.7841 6.05566 30.9666 6.05566 31.1934C6.05566 31.4202 6.23823 31.6028 6.46504 31.6028H8.45133C8.67813 31.6028 8.86089 31.4202 8.86089 31.1934C8.86089 30.9666 8.67813 30.7841 8.45133 30.7841H6.46504ZM56.8383 30.7841C56.6115 30.7841 56.4289 30.9666 56.4289 31.1934C56.4289 31.4202 56.6115 31.6028 56.8383 31.6028H58.8246C59.0514 31.6028 59.234 31.4202 59.234 31.1934C59.234 30.9666 59.0514 30.7841 58.8246 30.7841H56.8383ZM11.318 33.0158C11.2909 33.0128 11.2632 33.0128 11.235 33.0161L6.53834 33.5062C6.31276 33.5298 6.15015 33.7303 6.17367 33.9559C6.1972 34.1815 6.39775 34.3441 6.62333 34.3206L11.32 33.8304C11.5456 33.8069 11.7082 33.6064 11.6846 33.3808C11.664 33.1834 11.5079 33.0342 11.318 33.0158ZM53.9691 33.0448C53.7792 33.0629 53.623 33.2119 53.6021 33.4093C53.5783 33.6348 53.7405 33.8356 53.9661 33.8595L58.662 34.3559C58.8876 34.3798 59.0884 34.2173 59.1122 33.9918C59.136 33.7662 58.9736 33.5654 58.7481 33.5416L54.0523 33.0451C54.0241 33.0422 53.9962 33.0422 53.9691 33.0448ZM8.97697 35.8104C8.94974 35.8106 8.92202 35.8133 8.8943 35.8192L6.95129 36.2319C6.72943 36.2791 6.5888 36.4956 6.63591 36.7174C6.68308 36.9393 6.89959 37.0799 7.12145 37.0328L9.06445 36.6202C9.2863 36.5731 9.42695 36.3566 9.37982 36.1347C9.33859 35.9406 9.16768 35.8088 8.97697 35.8104ZM56.3121 35.8143C56.1214 35.8123 55.9505 35.9446 55.9093 36.1387C55.8621 36.3605 56.0026 36.5771 56.2245 36.6242L58.1675 37.0371C58.3893 37.0843 58.6059 36.9438 58.653 36.7219C58.7002 36.5001 58.5594 36.2834 58.3376 36.2362L56.3948 35.8233C56.3671 35.8175 56.3393 35.8143 56.3121 35.8143ZM12.2488 37.4267C12.1958 37.4219 12.1411 37.4277 12.0872 37.4456L7.59636 38.9054C7.38066 38.9755 7.26351 39.2056 7.33363 39.4213C7.40375 39.637 7.63384 39.7541 7.84954 39.684L12.3402 38.2242C12.5559 38.1541 12.6732 37.924 12.6031 37.7083C12.5505 37.5465 12.4078 37.4402 12.2488 37.4267ZM53.0364 37.4412C52.8774 37.4545 52.7348 37.5608 52.6821 37.7225C52.6119 37.9381 52.7288 38.1683 52.9445 38.2386L57.4342 39.7015C57.6499 39.7718 57.8801 39.6548 57.9503 39.4392C58.0207 39.2235 57.9037 38.9933 57.688 38.9231L53.1982 37.4601C53.1443 37.4425 53.0894 37.4367 53.0364 37.4412ZM10.5352 40.624C10.482 40.625 10.4281 40.6365 10.3763 40.6595L8.56159 41.4675C8.35439 41.5597 8.26191 41.8008 8.35415 42.008C8.44645 42.2152 8.68744 42.3076 8.89463 42.2154L10.7094 41.4076C10.9166 41.3154 11.009 41.0743 10.9168 40.8671C10.8476 40.7117 10.6947 40.6208 10.5352 40.624ZM54.7479 40.6396C54.5884 40.6357 54.4354 40.727 54.3661 40.8823C54.2737 41.0895 54.366 41.3306 54.5732 41.423L56.3872 42.2322C56.5943 42.3246 56.8355 42.2323 56.9279 42.0251C57.0203 41.818 56.9279 41.5769 56.7208 41.4845L54.9068 40.6753C54.855 40.6521 54.8011 40.6406 54.7479 40.6396ZM14.0683 41.5267C13.9897 41.5209 13.9086 41.5384 13.8349 41.581L9.74555 43.942C9.54913 44.0554 9.48232 44.3048 9.59572 44.5012C9.70912 44.6976 9.95851 44.7645 10.1549 44.6511L14.2443 42.2902C14.4407 42.1768 14.5075 41.9272 14.3941 41.7308C14.3232 41.6081 14.1993 41.5359 14.0683 41.5267ZM51.2215 41.5267C51.0905 41.5355 50.9664 41.608 50.8955 41.7308C50.7821 41.9272 50.8489 42.1768 51.0453 42.2902L55.1347 44.651C55.3311 44.7644 55.5807 44.6976 55.6941 44.5012C55.8075 44.3048 55.7407 44.0554 55.5443 43.942L51.4547 41.581C51.3811 41.5385 51.3001 41.5213 51.2215 41.5267ZM13.0483 44.9915C12.9695 44.9944 12.8907 45.0198 12.8218 45.0698L11.2142 46.2363C11.0306 46.3695 10.99 46.6244 11.1231 46.808C11.2563 46.9916 11.5113 47.0322 11.6949 46.899L13.3027 45.7325C13.4863 45.5993 13.5269 45.3443 13.3937 45.1607C13.3105 45.046 13.1796 44.987 13.0483 44.9915ZM52.2316 45.0053C52.1003 45.0005 51.9695 45.0596 51.8862 45.1742C51.7528 45.3577 51.7933 45.6128 51.9768 45.7462L53.5838 46.9137C53.7672 47.047 54.0222 47.0066 54.1555 46.823C54.2888 46.6395 54.2485 46.3846 54.0651 46.2513L52.4581 45.0838C52.3894 45.0338 52.3103 45.0081 52.2316 45.0053ZM16.6894 45.1467C16.585 45.1408 16.4784 45.1756 16.394 45.2514L12.8822 48.4083C12.7136 48.5599 12.6999 48.8177 12.8515 48.9864C13.0031 49.155 13.2609 49.1687 13.4296 49.0171L16.9414 45.8603C17.1101 45.7087 17.1238 45.4508 16.9721 45.2822C16.8964 45.1978 16.7939 45.1522 16.6894 45.1467ZM48.5905 45.1579C48.4859 45.1638 48.3835 45.209 48.3076 45.2933C48.1558 45.4618 48.1694 45.7196 48.3379 45.8714L51.8474 49.0307C52.016 49.1825 52.274 49.1689 52.4257 49.0003C52.5775 48.8318 52.5639 48.574 52.3954 48.4222L48.8857 45.2629C48.8014 45.1871 48.695 45.1525 48.5905 45.1579ZM20.021 48.157C19.8898 48.1521 19.7588 48.2109 19.6754 48.3255L16.8976 52.1441C16.7642 52.3275 16.8043 52.5826 16.9876 52.716C17.171 52.8494 17.4262 52.8093 17.5596 52.6258L20.3374 48.8073C20.4708 48.6239 20.4307 48.3688 20.2474 48.2354C20.1786 48.1854 20.0998 48.1597 20.021 48.157ZM45.2458 48.1741C45.167 48.177 45.0881 48.2022 45.0193 48.2522C44.8357 48.3854 44.7951 48.6404 44.9283 48.824L47.701 52.6462C47.8341 52.8298 48.0891 52.8704 48.2727 52.7372C48.4563 52.604 48.4969 52.3491 48.3638 52.1655L45.591 48.3432C45.5078 48.2285 45.377 48.1696 45.2458 48.1741ZM16.435 48.7639C16.3305 48.7697 16.228 48.8149 16.1522 48.8992L14.8231 50.3753C14.6713 50.5438 14.6848 50.8018 14.8534 50.9535C15.0219 51.1053 15.2797 51.0917 15.4315 50.9231L16.7607 49.4471C16.9125 49.2785 16.8988 49.0205 16.7303 48.8688C16.646 48.7929 16.5395 48.7584 16.435 48.7639ZM48.8521 48.7658C48.7476 48.76 48.6412 48.7949 48.5569 48.8708C48.3883 49.0225 48.3748 49.2803 48.5264 49.4489L49.8553 50.9253C50.007 51.0938 50.2648 51.1074 50.4334 50.9556C50.602 50.8039 50.6155 50.5459 50.4638 50.3773L49.1349 48.9011C49.059 48.8168 48.9566 48.7713 48.8521 48.7658ZM23.9001 50.4033C23.7406 50.3995 23.5878 50.4908 23.5185 50.6461L21.5946 54.9585C21.5022 55.1656 21.5945 55.4067 21.8017 55.4991C22.0088 55.5915 22.2499 55.4992 22.3423 55.292L24.2662 50.9797C24.3586 50.7726 24.2663 50.5314 24.0591 50.439C24.0074 50.4159 23.9533 50.4044 23.9001 50.4033ZM41.3635 50.4152C41.3103 50.4162 41.2563 50.4277 41.2045 50.4507C40.9974 50.5428 40.9046 50.7838 40.9967 50.991L42.9146 55.306C43.0067 55.5131 43.2478 55.6059 43.4551 55.5138C43.6622 55.4217 43.755 55.1807 43.6629 54.9735L41.745 50.6585C41.6759 50.5031 41.523 50.4122 41.3635 50.4152ZM20.5194 51.7366C20.3885 51.7454 20.2645 51.8179 20.1936 51.9407L19.2005 53.6609C19.0871 53.8573 19.1539 54.1067 19.3503 54.2201C19.5467 54.3335 19.7961 54.2667 19.9095 54.0703L20.9027 52.3501C21.0161 52.1537 20.9493 51.9043 20.7528 51.7909C20.6792 51.7484 20.598 51.7312 20.5194 51.7366ZM44.7702 51.7366C44.6916 51.7308 44.6106 51.7484 44.5369 51.7909C44.3405 51.9043 44.2737 52.1537 44.3871 52.3501L45.3803 54.0703C45.4937 54.2667 45.7431 54.3335 45.9395 54.2201C46.1359 54.1067 46.2027 53.8574 46.0893 53.6609L45.0962 51.9407C45.0253 51.818 44.9012 51.7458 44.7702 51.7366ZM28.1832 51.7983C27.9924 51.7964 27.8215 51.9286 27.7803 52.1227L26.799 56.7418C26.7518 56.9636 26.8926 57.1802 27.1144 57.2273C27.3362 57.2745 27.5528 57.1337 27.5999 56.9119L28.5812 52.2928C28.6284 52.071 28.4877 51.8544 28.2658 51.8073C28.2381 51.8015 28.2104 51.7983 28.1832 51.7983ZM37.092 51.8012C37.0647 51.8014 37.0372 51.8041 37.0095 51.81C36.7876 51.8569 36.6468 52.0733 36.6937 52.2951L37.6717 56.9149C37.7187 57.1368 37.9352 57.2776 38.1571 57.2307C38.3789 57.1837 38.5198 56.9672 38.4728 56.7453L37.4947 52.1259C37.4535 51.9317 37.2827 51.7997 37.092 51.8012ZM32.6448 52.2671C32.418 52.2671 32.2354 52.4497 32.2354 52.6765V57.3986C32.2354 57.6254 32.418 57.808 32.6448 57.808C32.8716 57.808 33.0542 57.6254 33.0542 57.3986V52.6765C33.0542 52.4497 32.8716 52.2671 32.6448 52.2671ZM25.13 53.793C24.971 53.8065 24.8284 53.9128 24.7758 54.0746L24.1618 55.9637C24.0917 56.1794 24.2089 56.4095 24.4245 56.4797C24.6402 56.5498 24.8703 56.4324 24.9405 56.2168L25.5544 54.3278C25.6246 54.1121 25.5074 53.882 25.2917 53.8119C25.2378 53.7944 25.183 53.7885 25.13 53.793ZM40.1564 53.794C40.1034 53.7891 40.0487 53.7949 39.9947 53.8127C39.779 53.8829 39.6617 54.1129 39.7318 54.3287L40.3456 56.2178C40.4157 56.4335 40.6458 56.5506 40.8615 56.4805C41.0772 56.4104 41.1945 56.1805 41.1245 55.9648L40.5105 54.0756C40.4579 53.9139 40.3154 53.8075 40.1564 53.794ZM30.0751 54.8461C29.8853 54.8644 29.7289 55.0134 29.7081 55.2108L29.5005 57.1863C29.4768 57.4119 29.6393 57.6124 29.8648 57.6362C30.0904 57.6599 30.2911 57.4974 30.3149 57.2718L30.5225 55.2965C30.5462 55.0709 30.3837 54.8702 30.1581 54.8465C30.1299 54.8435 30.1022 54.8435 30.0751 54.8461ZM35.1981 54.8481C35.1709 54.8451 35.143 54.8451 35.1148 54.8484C34.8892 54.8719 34.7266 55.0725 34.7501 55.2981L34.9565 57.2738C34.98 57.4993 35.1806 57.6618 35.4062 57.6383C35.6318 57.6147 35.7944 57.4142 35.7709 57.1886L35.5647 55.2131C35.5441 55.0157 35.3879 54.8665 35.1981 54.8481Z" fill="#F4F2F3"/>
<g opacity="0.409" filter="url(#filter1_f_435_410)">
<path d="M51.832 14.8175L29.434 27.8308L15.2725 50.1251L35.9897 34.7801L51.832 14.8175Z" fill="black"/>
</g>
<path d="M35.8565 34.5544L29.4365 27.8312L52.2107 12.511L35.8565 34.5544Z" fill="#FF5150"/>
<path d="M35.8553 34.5544L29.4353 27.8312L13.0811 49.8746L35.8553 34.5544Z" fill="#F1F1F1"/>
<path opacity="0.243" d="M13.0811 49.8747L35.8552 34.5544L52.2094 12.511L13.0811 49.8747Z" fill="black"/>
</g>
<defs>
<filter id="filter0_f_435_410" x="1.40269" y="3.5316" width="62.4886" height="60.3134" filterUnits="userSpaceOnUse" color-interpolation-filters="sRGB">
<feFlood flood-opacity="0" result="BackgroundImageFix"/>
<feBlend mode="normal" in="SourceGraphic" in2="BackgroundImageFix" result="shape"/>
<feGaussianBlur stdDeviation="0.947581" result="effect1_foregroundBlur_435_410"/>
</filter>
<filter id="filter1_f_435_410" x="14.7338" y="14.2788" width="37.6369" height="36.3849" filterUnits="userSpaceOnUse" color-interpolation-filters="sRGB">
<feFlood flood-opacity="0" result="BackgroundImageFix"/>
<feBlend mode="normal" in="SourceGraphic" in2="BackgroundImageFix" result="shape"/>
<feGaussianBlur stdDeviation="0.269329" result="effect1_foregroundBlur_435_410"/>
</filter>
<linearGradient id="paint0_linear_435_410" x1="32.6441" y1="61.6587" x2="32.6441" y2="0.726159" gradientUnits="userSpaceOnUse">
<stop stop-color="#BDBDBD"/>
<stop offset="1" stop-color="white"/>
</linearGradient>
<radialGradient id="paint1_radial_435_410" cx="0" cy="0" r="1" gradientUnits="userSpaceOnUse" gradientTransform="translate(32.7722 27.0984) scale(30.4664 30.4664)">
<stop stop-color="#06C2E7"/>
<stop offset="0.25" stop-color="#0DB8EC"/>
<stop offset="0.5" stop-color="#12AEF1"/>
<stop offset="0.75" stop-color="#1F86F9"/>
<stop offset="1" stop-color="#107DDD"/>
</radialGradient>
<clipPath id="clip0_435_410">
<rect width="64.3521" height="64" fill="white" transform="translate(0.469727 0.671265)"/>
</clipPath>
</defs>
</svg>
