<svg width="195" height="206" viewBox="0 0 195 206" fill="none" xmlns="http://www.w3.org/2000/svg">
<g filter="url(#filter0_d_296_3773)">
<g clip-path="url(#clip0_296_3773)">
<rect x="33.1113" y="14" width="128" height="128" rx="16" fill="white"/>
<rect x="33.1113" y="14" width="128" height="128" fill="url(#paint0_linear_296_3773)"/>
<rect x="33.1113" y="14" width="128" height="128" fill="url(#paint1_linear_296_3773)"/>
<g filter="url(#filter1_f_296_3773)">
<circle cx="97.1113" cy="84" r="50" fill="#48EAE6"/>
</g>
<path d="M69.1113 46V82C69.1113 93.0457 60.157 102 49.1113 102H33.1113" stroke="white" stroke-width="16"/>
<path d="M125.111 46V82C125.111 93.0457 134.066 102 145.111 102H161.111" stroke="white" stroke-width="16"/>
<g style="mix-blend-mode:multiply" opacity="0.3">
<g style="mix-blend-mode:multiply">
<path d="M77.1113 46H61.1113L77.1113 78V46Z" fill="white"/>
</g>
<g style="mix-blend-mode:multiply">
<path d="M117.111 46H133.111L117.111 78V46Z" fill="white"/>
</g>
</g>
<g style="mix-blend-mode:multiply" opacity="0.6">
<rect x="61.1113" y="46" width="16" height="24" fill="url(#paint2_linear_296_3773)"/>
<rect x="117.111" y="46" width="16" height="24" fill="url(#paint3_linear_296_3773)"/>
</g>
<g style="mix-blend-mode:multiply" opacity="0.6">
<mask id="mask0_296_3773" style="mask-type:alpha" maskUnits="userSpaceOnUse" x="33" y="46" width="129" height="64">
<path d="M69.1113 46V82C69.1113 93.0457 60.157 102 49.1113 102H33.1113" stroke="white" stroke-width="16"/>
<path d="M125.111 46V82C125.111 93.0457 134.066 102 145.111 102H161.111" stroke="white" stroke-width="16"/>
</mask>
<g mask="url(#mask0_296_3773)">
<g filter="url(#filter2_f_296_3773)">
<path d="M49.1113 130L97.1113 58L145.111 130H49.1113Z" fill="white"/>
</g>
</g>
</g>
<path d="M61.1114 46H81.1114L97.1114 70L113.111 46H133.111L109.111 82L133.091 118H113.111L97.1114 94L81.1114 118H61.1113L85.1114 82L61.1114 46Z" fill="white"/>
</g>
<rect x="31.1113" y="12" width="132" height="132" rx="18" stroke="white" stroke-width="4"/>
</g>
<path d="M16.5618 166.392H19.9944V195.86C19.9944 197.765 19.5817 199.483 18.7564 201.014C17.9311 202.545 16.7681 203.759 15.2675 204.655C13.767 205.552 11.985 206 9.92175 206C7.25822 206 5.08239 205.309 3.39424 203.927C1.74361 202.545 0.636935 200.641 0.0742188 198.213L3.05661 197.148C3.31921 198.232 3.71311 199.221 4.23832 200.118C4.76352 201.014 5.47629 201.724 6.37664 202.247C7.3145 202.769 8.4962 203.031 9.92175 203.031C11.5349 203.031 12.8291 202.657 13.8045 201.91C14.7799 201.163 15.4739 200.248 15.8865 199.165C16.3367 198.045 16.5618 196.943 16.5618 195.86V166.392Z" fill="white"/>
<path d="M42.9022 186.224C45.2281 186.224 47.1038 185.869 48.5293 185.16C49.9924 184.45 51.0428 183.46 51.6805 182.19C52.3558 180.921 52.6934 179.464 52.6934 177.821C52.6934 175.169 51.9244 173.096 50.3863 171.602C48.8857 170.108 46.391 169.361 42.9022 169.361H33.1109V186.224H42.9022ZM56.0697 177.821C56.0697 179.427 55.8071 180.939 55.2819 182.359C54.7567 183.74 53.9502 184.954 52.8622 186C51.7743 187.008 50.405 187.811 48.7544 188.409C47.1038 188.969 45.153 189.249 42.9022 189.249H33.1109V205.608H29.6783V166.392H42.9022C46.0159 166.392 48.5293 166.896 50.4426 167.905C52.3558 168.913 53.7626 170.276 54.6629 171.994C55.6008 173.712 56.0697 175.655 56.0697 177.821Z" fill="white"/>
<path d="M87.1646 169.361H65.2187V184.095H81.7063V187.064H65.2187V202.639H87.1646V205.608H61.7861V166.392H87.1646V169.361Z" fill="white"/>
<path d="M122.808 177.933C121.458 175.057 119.526 172.853 117.012 171.322C114.536 169.791 111.685 169.025 108.459 169.025C105.458 169.025 102.738 169.716 100.3 171.098C97.8987 172.48 95.9855 174.441 94.5599 176.98C93.1719 179.483 92.4779 182.489 92.4779 186C92.4779 189.473 93.1719 192.48 94.5599 195.02C95.9855 197.559 97.8987 199.52 100.3 200.902C102.738 202.246 105.458 202.919 108.459 202.919C110.747 202.919 112.886 202.508 114.874 201.686C116.862 200.865 118.569 199.688 119.995 198.157C121.458 196.588 122.564 194.721 123.315 192.555V187.737H108.684V184.936H126.747V192.779C125.922 195.356 124.628 197.653 122.865 199.669C121.139 201.649 119.038 203.199 116.562 204.319C114.086 205.44 111.385 206 108.459 206C105.683 206 103.113 205.514 100.75 204.543C98.3864 203.572 96.3231 202.209 94.5599 200.454C92.7967 198.661 91.4275 196.551 90.4521 194.123C89.5142 191.658 89.0453 188.951 89.0453 186C89.0453 183.049 89.5142 180.36 90.4521 177.933C91.4275 175.468 92.7967 173.358 94.5599 171.602C96.3231 169.81 98.3864 168.428 100.75 167.457C103.113 166.486 105.683 166 108.459 166C111.085 166 113.523 166.43 115.774 167.289C118.025 168.148 119.995 169.399 121.683 171.042C123.408 172.648 124.778 174.571 125.791 176.812L122.808 177.933Z" fill="white"/>
<path d="M127.286 166.392H138.709L147.544 178.941L155.816 166.392H167.239L153.509 186L167.239 205.608H155.816L147.544 193.059L138.709 205.608H127.286L141.523 186L127.286 166.392Z" fill="white"/>
<path d="M176.985 166.392V197.429H194.148V205.608H167.194V166.392H176.985Z" fill="white"/>
<defs>
<filter id="filter0_d_296_3773" x="9.91127" y="0.4" width="174.4" height="174.4" filterUnits="userSpaceOnUse" color-interpolation-filters="sRGB">
<feFlood flood-opacity="0" result="BackgroundImageFix"/>
<feColorMatrix in="SourceAlpha" type="matrix" values="0 0 0 0 0 0 0 0 0 0 0 0 0 0 0 0 0 0 127 0" result="hardAlpha"/>
<feOffset dy="9.6"/>
<feGaussianBlur stdDeviation="9.6"/>
<feComposite in2="hardAlpha" operator="out"/>
<feColorMatrix type="matrix" values="0 0 0 0 0.0705882 0 0 0 0 0.188235 0 0 0 0 0.34902 0 0 0 0.3 0"/>
<feBlend mode="normal" in2="BackgroundImageFix" result="effect1_dropShadow_296_3773"/>
<feBlend mode="normal" in="SourceGraphic" in2="effect1_dropShadow_296_3773" result="shape"/>
</filter>
<filter id="filter1_f_296_3773" x="15.1113" y="2" width="164" height="164" filterUnits="userSpaceOnUse" color-interpolation-filters="sRGB">
<feFlood flood-opacity="0" result="BackgroundImageFix"/>
<feBlend mode="normal" in="SourceGraphic" in2="BackgroundImageFix" result="shape"/>
<feGaussianBlur stdDeviation="16" result="effect1_foregroundBlur_296_3773"/>
</filter>
<filter id="filter2_f_296_3773" x="39.1113" y="48" width="116" height="92" filterUnits="userSpaceOnUse" color-interpolation-filters="sRGB">
<feFlood flood-opacity="0" result="BackgroundImageFix"/>
<feBlend mode="normal" in="SourceGraphic" in2="BackgroundImageFix" result="shape"/>
<feGaussianBlur stdDeviation="5" result="effect1_foregroundBlur_296_3773"/>
</filter>
<linearGradient id="paint0_linear_296_3773" x1="97.1113" y1="14" x2="97.1113" y2="142" gradientUnits="userSpaceOnUse">
<stop offset="0.249681" stop-color="#0D2759"/>
<stop offset="0.531221" stop-color="#2061DF"/>
</linearGradient>
<linearGradient id="paint1_linear_296_3773" x1="97.1113" y1="46.32" x2="97.1113" y2="139.44" gradientUnits="userSpaceOnUse">
<stop stop-color="#15B7B3" stop-opacity="0"/>
<stop offset="0.732348" stop-color="#15B7B3"/>
</linearGradient>
<linearGradient id="paint2_linear_296_3773" x1="69.1113" y1="46" x2="69.1113" y2="70" gradientUnits="userSpaceOnUse">
<stop offset="0.1" stop-color="#0D2759"/>
<stop offset="1" stop-color="#0D2759" stop-opacity="0"/>
</linearGradient>
<linearGradient id="paint3_linear_296_3773" x1="125.111" y1="46" x2="125.111" y2="70" gradientUnits="userSpaceOnUse">
<stop offset="0.1" stop-color="#0D2759"/>
<stop offset="1" stop-color="#0D2759" stop-opacity="0"/>
</linearGradient>
<clipPath id="clip0_296_3773">
<rect x="33.1113" y="14" width="128" height="128" rx="16" fill="white"/>
</clipPath>
</defs>
</svg>
