<svg xmlns="http://www.w3.org/2000/svg" width="204" height="196" fill="none"><g clip-path="url(#a)"><rect width="128" height="128" x="37.66" y="4" fill="#fff" rx="16"/><path fill="url(#b)" d="M37.66 4h128v128h-128z"/><path fill="url(#c)" d="M37.66 4h128v128h-128z"/><g filter="url(#d)"><circle cx="101.66" cy="74" r="50" fill="#48EAE6"/></g><path stroke="#fff" stroke-width="16" d="M73.66 36v36c0 11.046-8.954 20-20 20h-16M129.66 36v36c0 11.046 8.954 20 20 20h16"/><g style="mix-blend-mode:multiply"><path fill="#15B7B3" d="M81.66 36h-16l16 32zM121.66 36h16l-16 32z" style="mix-blend-mode:multiply"/></g><g opacity=".6" style="mix-blend-mode:multiply"><path fill="url(#e)" d="M65.66 36h16v24h-16z"/><path fill="url(#f)" d="M121.66 36h16v24h-16z"/></g><g opacity=".6" style="mix-blend-mode:multiply"><mask id="g" width="129" height="64" x="37" y="36" maskUnits="userSpaceOnUse" style="mask-type:alpha"><path stroke="#fff" stroke-width="16" d="M73.66 36v36c0 11.046-8.954 20-20 20h-16M129.66 36v36c0 11.046 8.954 20 20 20h16"/></mask><g filter="url(#h)" mask="url(#g)"><path fill="#0D2759" d="m53.66 120 48-72 48 72z"/></g></g><path fill="#fff" d="M65.66 36h20l16 24 16-24h20l-24 36 23.979 36H117.66l-16-24-16 24h-20l24-36z"/></g><rect width="132" height="132" x="35.66" y="2" stroke="#fff" stroke-width="4" rx="18"/><path fill="#fff" d="M16.562 156.392h3.432v29.468q0 2.858-1.238 5.154a9.3 9.3 0 0 1-3.488 3.641Q13.017 196 9.922 196q-3.996 0-6.528-2.073-2.475-2.072-3.32-5.714l2.983-1.065a11 11 0 0 0 1.181 2.97 5.84 5.84 0 0 0 2.139 2.129q1.407.784 3.545.784 2.42 0 3.883-1.121t2.082-2.745q.675-1.68.675-3.305zM42.902 176.224q3.49 0 5.627-1.064 2.195-1.065 3.151-2.97 1.014-1.904 1.013-4.369 0-3.978-2.307-6.219-2.25-2.241-7.484-2.241h-9.791v16.863zm13.168-8.403q0 2.408-.788 4.538a9.9 9.9 0 0 1-2.42 3.641q-1.632 1.512-4.108 2.409-2.475.84-5.852.84h-9.791v16.359h-3.433v-39.216h13.224q4.67 0 7.54 1.513t4.22 4.089q1.408 2.577 1.408 5.827M87.165 159.361H65.219v14.734h16.487v2.969H65.22v15.575h21.946v2.969H61.786v-39.216h25.379zM122.808 167.933q-2.025-4.314-5.796-6.611-3.714-2.297-8.553-2.297-4.502 0-8.159 2.073-3.601 2.073-5.74 5.882-2.082 3.754-2.082 9.02 0 5.21 2.082 9.02 2.138 3.809 5.74 5.882 3.657 2.017 8.159 2.017 3.432 0 6.415-1.233a14.4 14.4 0 0 0 5.121-3.529q2.194-2.353 3.32-5.602v-4.818h-14.631v-2.801h18.063v7.843a19.3 19.3 0 0 1-3.882 6.89q-2.589 2.97-6.303 4.65T108.459 196q-4.164 0-7.709-1.457t-6.19-4.089q-2.645-2.69-4.108-6.331-1.407-3.697-1.407-8.123t1.407-8.067q1.463-3.697 4.108-6.331a18.4 18.4 0 0 1 6.19-4.145q3.545-1.457 7.709-1.457 3.939 0 7.315 1.289a17.1 17.1 0 0 1 5.909 3.753q2.588 2.409 4.108 5.77zM136.383 156.392h11.424l8.834 12.549 8.272-12.549h11.423L162.606 176l13.73 19.608h-11.423l-8.272-12.549-8.834 12.549h-11.424L150.62 176z"/><path fill="#fff" d="M186.083 156.392v31.037h17.162v8.179h-26.954v-39.216z"/><defs><linearGradient id="b" x1="101.66" x2="101.66" y1="4" y2="132" gradientUnits="userSpaceOnUse"><stop offset=".25" stop-color="#0D2759"/><stop offset=".531" stop-color="#2061DF"/></linearGradient><linearGradient id="c" x1="101.66" x2="101.66" y1="36.32" y2="129.44" gradientUnits="userSpaceOnUse"><stop stop-color="#15B7B3" stop-opacity="0"/><stop offset=".732" stop-color="#15B7B3"/></linearGradient><linearGradient id="e" x1="73.66" x2="73.66" y1="36" y2="60" gradientUnits="userSpaceOnUse"><stop offset=".1" stop-color="#0D2759"/><stop offset="1" stop-color="#0D2759" stop-opacity="0"/></linearGradient><linearGradient id="f" x1="129.66" x2="129.66" y1="36" y2="60" gradientUnits="userSpaceOnUse"><stop offset=".1" stop-color="#0D2759"/><stop offset="1" stop-color="#0D2759" stop-opacity="0"/></linearGradient><filter id="d" width="164" height="164" x="19.66" y="-8" color-interpolation-filters="sRGB" filterUnits="userSpaceOnUse"><feFlood flood-opacity="0" result="BackgroundImageFix"/><feBlend in="SourceGraphic" in2="BackgroundImageFix" result="shape"/><feGaussianBlur result="effect1_foregroundBlur_621_701" stdDeviation="16"/></filter><filter id="h" width="116" height="92" x="43.66" y="38" color-interpolation-filters="sRGB" filterUnits="userSpaceOnUse"><feFlood flood-opacity="0" result="BackgroundImageFix"/><feBlend in="SourceGraphic" in2="BackgroundImageFix" result="shape"/><feGaussianBlur result="effect1_foregroundBlur_621_701" stdDeviation="5"/></filter><clipPath id="a"><rect width="128" height="128" x="37.66" y="4" fill="#fff" rx="16"/></clipPath></defs></svg>