<svg viewBox="0 0 80 80" xmlns="http://www.w3.org/2000/svg" xml:space="preserve" style="fill-rule:evenodd;clip-rule:evenodd;stroke-linejoin:round"><path d="M26.667 50C42.916 50 50 43.163 50 26.667 50 43.163 57.035 50 73.333 50 57.035 50 50 57.035 50 73.333 50 57.035 42.916 50 26.667 50z" style="fill:none;fill-rule:nonzero;stroke:url(#a);stroke-width:3px"/><path d="M6.667 21.667c10.446 0 15-4.395 15-15 0 10.605 4.522 15 15 15-10.478 0-15 4.522-15 15 0-10.478-4.554-15-15-15z" style="fill:none;fill-rule:nonzero;stroke:url(#b);stroke-width:3px"/><defs><linearGradient id="a" x1="0" y1="0" x2="1" y2="0" gradientUnits="userSpaceOnUse" gradientTransform="scale(91.551) rotate(45.522 -.04 .1)"><stop offset="0" style="stop-color:#48eae6;stop-opacity:1"/><stop offset=".43" style="stop-color:#3cc0e4;stop-opacity:1"/><stop offset="1" style="stop-color:#2061df;stop-opacity:1"/></linearGradient><linearGradient id="b" x1="0" y1="0" x2="1" y2="0" gradientUnits="userSpaceOnUse" gradientTransform="scale(91.551) rotate(45.522 -.04 .1)"><stop offset="0" style="stop-color:#48eae6;stop-opacity:1"/><stop offset=".43" style="stop-color:#3cc0e4;stop-opacity:1"/><stop offset="1" style="stop-color:#2061df;stop-opacity:1"/></linearGradient></defs></svg>