<svg xmlns="http://www.w3.org/2000/svg" xml:space="preserve" style="fill-rule:evenodd;clip-rule:evenodd;stroke-miterlimit:10" viewBox="0 0 1987 1760"><path d="M0 0h792v612H0z" style="fill:none" transform="translate(-597.922 -296.68)scale(4.16667)"/><path d="M0 422.213h-309.976c-45.86 0-83.381-37.521-83.381-83.38V83.381c0-45.86 37.521-83.381 83.381-83.381H0c45.859 0 83.38 37.521 83.38 83.381v255.452c0 45.859-37.521 83.38-83.38 83.38" style="fill:#a7f175;fill-rule:nonzero" transform="translate(1638.988)scale(4.16667)"/><path d="M0-265.218s50.283-17.418 112.069-19.39c61.785-1.972 125.214 12.488 125.543 57.513.328 45.025-65.73 70.659-103.524 90.378s-78.218 51.598-70.33 75.26c7.887 23.663 49.297 27.935 77.232 2.301 27.935-25.635 54.555-63.758 61.457-77.561 6.901-13.803 11.174-26.544 11.174-26.544h21.362l-.341 184.299h-89.607l74.173-145.266h-11.174s-31.551 66.715-61.129 96.622-65.401 48.968-98.594 48.64-73.945-24.753-72.96-65.124c.986-40.372 35.823-86.383 103.524-111.031 67.702-24.649 138.689-38.452 139.347-67.044.657-28.593-78.218-19.719-114.041-9.202C67.147-220.495.986-180.098.986-180.098z" style="fill-rule:nonzero;stroke:#070505;stroke-width:1.41px" transform="translate(549.564 1429.08)scale(4.16667)"/></svg>