<svg xmlns="http://www.w3.org/2000/svg" xmlns:xlink="http://www.w3.org/1999/xlink" width="512" height="512"><defs><linearGradient xlink:href="#g" id="F" gradientUnits="userSpaceOnUse" gradientTransform="rotate(60 717.317 524.507)" x1="277.627" y1="637.059" x2="454.048" y2="683.489"/><linearGradient id="h"><stop style="stop-color:#fff;stop-opacity:1" offset="0"/><stop style="stop-color:#b0b0b0;stop-opacity:1" offset="1"/></linearGradient><linearGradient id="b"><stop style="stop-color:#ff7004;stop-opacity:1" offset="0"/><stop style="stop-color:#ba4704;stop-opacity:1" offset="1"/></linearGradient><linearGradient id="c"><stop style="stop-color:#d70016;stop-opacity:1" offset="0"/><stop style="stop-color:#8d0016;stop-opacity:1" offset="1"/></linearGradient><linearGradient id="d"><stop style="stop-color:#d000d0;stop-opacity:1" offset="0"/><stop style="stop-color:#760076;stop-opacity:1" offset="1"/></linearGradient><linearGradient id="e"><stop style="stop-color:#1476e6;stop-opacity:1" offset="0"/><stop style="stop-color:#143e9a;stop-opacity:1" offset="1"/></linearGradient><linearGradient id="f"><stop style="stop-color:#17b414;stop-opacity:1" offset="0"/><stop style="stop-color:#176314;stop-opacity:1" offset="1"/></linearGradient><linearGradient id="g"><stop style="stop-color:#f7f10e;stop-opacity:1" offset="0"/><stop style="stop-color:#c58907;stop-opacity:1" offset="1"/></linearGradient><linearGradient xlink:href="#h" id="K" x1="256" y1="224" x2="256" y2="288" gradientUnits="userSpaceOnUse"/><linearGradient xlink:href="#b" id="E" gradientUnits="userSpaceOnUse" gradientTransform="translate(518.203 -554.747)" x1="372.859" y1="593.388" x2="318.297" y2="726.388"/><linearGradient xlink:href="#c" id="D" gradientUnits="userSpaceOnUse" gradientTransform="translate(518.203 -554.747)" x1="179.047" y1="580.06" x2="180.172" y2="752.06"/><linearGradient xlink:href="#d" id="C" gradientUnits="userSpaceOnUse" gradientTransform="translate(518.203 -554.747)" x1="108.797" y1="721.607" x2="54.765" y2="857.607"/><linearGradient xlink:href="#e" id="B" gradientUnits="userSpaceOnUse" gradientTransform="translate(518.203 -554.747)" x1="186.765" y1="873.544" x2="170.547" y2="997.544"/><linearGradient xlink:href="#f" id="A" gradientUnits="userSpaceOnUse" gradientTransform="translate(518.203 -554.747)" x1="317.074" y1="815.922" x2="343.89" y2="1000.923"/><linearGradient xlink:href="#g" id="z" gradientUnits="userSpaceOnUse" gradientTransform="translate(518.203 -554.747)" x1="393.14" y1="738.919" x2="444.453" y2="904.919"/><linearGradient xlink:href="#c" id="J" gradientUnits="userSpaceOnUse" gradientTransform="rotate(-60 -207.193 521.26)" x1="432.115" y1="650.053" x2="263.694" y2="710.341"/><linearGradient xlink:href="#d" id="I" gradientUnits="userSpaceOnUse" gradientTransform="rotate(-120 100.977 522.342)" x1="456.976" y1="694.418" x2="273.627" y2="643.987"/><linearGradient xlink:href="#e" id="H" gradientUnits="userSpaceOnUse" gradientTransform="rotate(180 255.062 522.883)" x1="326.125" y1="701.766" x2="342.125" y2="581.766"/><linearGradient xlink:href="#f" id="G" gradientUnits="userSpaceOnUse" gradientTransform="rotate(120 409.147 523.424)" x1="253.838" y1="725.269" x2="401.186" y2="612.484"/><linearGradient id="a"><stop style="stop-color:#fff;stop-opacity:1" offset="0"/><stop style="stop-color:#fff;stop-opacity:0" offset="1"/></linearGradient><linearGradient xlink:href="#b" id="y" gradientUnits="userSpaceOnUse" x1="372.859" y1="593.388" x2="318.297" y2="726.388" gradientTransform="translate(1.875 -533.766)"/><linearGradient xlink:href="#c" id="x" gradientUnits="userSpaceOnUse" x1="179.047" y1="580.06" x2="180.172" y2="752.06" gradientTransform="translate(1.875 -533.766)"/><linearGradient xlink:href="#d" id="w" gradientUnits="userSpaceOnUse" x1="108.797" y1="721.607" x2="54.765" y2="857.607" gradientTransform="translate(1.875 -533.766)"/><linearGradient xlink:href="#e" id="v" gradientUnits="userSpaceOnUse" x1="186.765" y1="873.544" x2="170.547" y2="997.544" gradientTransform="translate(1.875 -533.766)"/><linearGradient xlink:href="#f" id="u" gradientUnits="userSpaceOnUse" x1="317.074" y1="815.922" x2="343.89" y2="1000.923" gradientTransform="translate(1.875 -533.766)"/><linearGradient xlink:href="#g" id="t" gradientUnits="userSpaceOnUse" x1="393.14" y1="738.919" x2="444.453" y2="904.919" gradientTransform="translate(1.875 -533.766)"/><filter id="p" x="-.102" width="1.204" y="-.141" height="1.282"><feGaussianBlur stdDeviation="9.267"/></filter><filter id="Z" x="-.6" width="2.2" y="-.6" height="2.2"><feGaussianBlur stdDeviation="12"/></filter><filter id="U"><feGaussianBlur stdDeviation="4.822"/></filter><filter id="Q"><feGaussianBlur stdDeviation="4.72"/></filter><filter id="P"><feGaussianBlur stdDeviation="4.766"/></filter><filter id="O"><feGaussianBlur stdDeviation="5.065"/></filter><filter id="N"><feGaussianBlur stdDeviation="4.717"/></filter><filter id="L"><feGaussianBlur stdDeviation="4.612"/></filter><filter id="M"><feGaussianBlur stdDeviation="4.822"/></filter><filter id="j"><feGaussianBlur stdDeviation="9"/></filter><filter id="i" color-interpolation-filters="sRGB"><feGaussianBlur stdDeviation="9"/></filter><filter id="m" x="-.102" width="1.204" y="-.141" height="1.282"><feGaussianBlur stdDeviation="9.267"/></filter><filter id="o" x="-.119" width="1.239" y="-.107" height="1.214"><feGaussianBlur stdDeviation="9.267"/></filter><filter id="Y" x="-.3" width="1.6" y="-.3" height="1.6"><feGaussianBlur stdDeviation="25.864"/></filter><filter id="q" x="-.125" width="1.251" y="-.11" height="1.221"><feGaussianBlur stdDeviation="9.267"/></filter><filter id="r" x="-.119" width="1.239" y="-.107" height="1.214"><feGaussianBlur stdDeviation="9.267"/></filter><filter id="l" color-interpolation-filters="sRGB"><feGaussianBlur stdDeviation="11.392"/></filter><filter id="n" x="-.126" width="1.251" y="-.111" height="1.221"><feGaussianBlur stdDeviation="9.291"/></filter><filter id="s" x="-.118" width="1.235" y="-.118" height="1.235"><feGaussianBlur stdDeviation="3.136"/></filter><filter id="V"><feGaussianBlur stdDeviation="4.831"/></filter><filter id="R"><feGaussianBlur stdDeviation="4.819"/></filter><filter id="S"><feGaussianBlur stdDeviation="4.825"/></filter><filter id="W"><feGaussianBlur stdDeviation="5.057"/></filter><filter id="T"><feGaussianBlur stdDeviation="5.057"/></filter><filter style="color-interpolation-filters:sRGB" id="X" x="-.096" width="1.192" y="-.096" height="1.192"><feGaussianBlur stdDeviation="1.758"/></filter><radialGradient xlink:href="#a" id="k" cx="385.346" cy="495.543" fx="385.346" fy="495.543" r="205.641" gradientTransform="matrix(-1.7175 -.22708 .17382 -1.31464 961.041 1140.425)" gradientUnits="userSpaceOnUse"/></defs><g style="display:inline"><path style="opacity:.95;fill:#1a1a1a;fill-opacity:1;stroke:none;filter:url(#i)" d="M510 287a225 225 0 1 1-.431-13.92" transform="matrix(.95556 0 0 .95556 -17.333 -17.244)"/><path style="opacity:.95;fill:#1a1a1a;fill-opacity:1;stroke:none;display:inline;filter:url(#j)" d="M510 287a225 225 0 1 1-.431-13.92" transform="matrix(.95556 0 0 .95556 -17.333 -17.244)"/><path transform="matrix(.95556 0 0 .95556 -17.333 -17.244)" d="M510 287a225 225 0 1 1-.431-13.92" style="opacity:.95;fill:#1a1a1a;fill-opacity:1;stroke:none;display:inline"/></g><g style="display:inline"><path d="m303.203 32.669-55.469 157.906 218.438-36.75C433.818 91.69 374.213 46.032 303.203 32.669z" style="fill:#000;fill-opacity:1;fill-rule:nonzero;stroke:none;display:inline;filter:url(#m)"/><path style="fill:#000;fill-opacity:1;fill-rule:nonzero;stroke:none;display:inline;filter:url(#n)" d="M473.012 185.213 308.527 216.13l141.045 170.798c37.633-59.087 47.373-133.536 23.44-201.714z"/><path d="m425.809 408.545-109.016-126.99L239.4 489.101c69.988 3.047 139.331-25.742 186.409-80.557z" style="fill:#000;fill-opacity:1;fill-rule:nonzero;stroke:none;display:inline;filter:url(#o)"/><path style="fill:#000;fill-opacity:1;fill-rule:nonzero;stroke:none;display:inline;filter:url(#p)" d="m208.797 479.331 55.469-157.906-218.438 36.75c32.354 62.135 91.959 107.793 162.969 121.156z"/><path d="m38.988 326.787 164.485-30.916L62.428 125.073C24.795 184.16 15.055 258.61 38.988 326.787z" style="fill:#000;fill-opacity:1;fill-rule:nonzero;stroke:none;display:inline;filter:url(#q)"/><path style="fill:#000;fill-opacity:1;fill-rule:nonzero;stroke:none;display:inline;filter:url(#r)" d="m86.191 103.455 109.016 126.99L272.6 22.899C202.612 19.851 133.269 48.64 86.19 103.455z"/><path d="M288 256a32 32 0 1 1-64 0 32 32 0 1 1 64 0z" style="display:inline;fill:#000;fill-opacity:1;stroke:none;filter:url(#s)"/></g><g style="display:inline"><path style="fill:url(#y);fill-opacity:1;fill-rule:nonzero;stroke:none;display:inline" d="m303.203 32.669-55.469 157.906 218.438-36.75C433.818 91.69 374.213 46.032 303.203 32.669z"/><path d="M473.012 185.213 308.527 216.13l141.045 170.798c37.633-59.087 47.373-133.536 23.44-201.714z" style="fill:url(#F);fill-opacity:1;fill-rule:nonzero;stroke:none;display:inline"/><path style="fill:url(#G);fill-opacity:1;fill-rule:nonzero;stroke:none;display:inline" d="m425.809 408.545-109.016-126.99L239.4 489.101c69.988 3.047 139.331-25.742 186.409-80.557z"/><path d="m208.797 479.331 55.469-157.906-218.438 36.75c32.354 62.135 91.959 107.793 162.969 121.156z" style="fill:url(#H);fill-opacity:1;fill-rule:nonzero;stroke:none;display:inline"/><path style="fill:url(#I);fill-opacity:1;fill-rule:nonzero;stroke:none;display:inline" d="m38.988 326.787 164.485-30.916L62.428 125.073C24.795 184.16 15.055 258.61 38.988 326.787z"/><path d="m86.191 103.455 109.016 126.99L272.6 22.899C202.612 19.851 133.269 48.64 86.19 103.455z" style="fill:url(#J);fill-opacity:1;fill-rule:nonzero;stroke:none;display:inline"/><path style="fill:url(#K);fill-opacity:1;stroke:none" d="M288 256a32 32 0 1 1-64 0 32 32 0 1 1 64 0z"/></g><g style="opacity:.5;display:inline"><path style="opacity:.15;fill:#fff;fill-opacity:1;fill-rule:nonzero;stroke:none;display:inline;filter:url(#R)" d="M262.75 177.906c62.523-10.733 125.195-20.603 187.625-31.875C419.72 95.155 367.864 57.206 309.656 44.25L262.75 177.906z"/><path style="opacity:.25;fill:#fff;fill-opacity:1;fill-rule:nonzero;stroke:none;display:inline;filter:url(#S)" d="M327.031 222.844c40.524 48.788 80.415 98.102 121.406 146.5 28.721-51.924 35.594-115.91 17.782-172.719L327.03 222.844z"/><path style="opacity:.15;fill:#fff;fill-opacity:1;fill-rule:nonzero;stroke:none;display:inline;filter:url(#T)" d="M253.688 479.313c59.785-1.051 118.43-27.006 158.75-70.875l-92.22-107.5-66.53 178.375z"/><path style="opacity:.15;fill:#fff;fill-opacity:1;fill-rule:nonzero;stroke:none;display:inline;filter:url(#U)" d="M61.438 365.688c30.573 50.936 82.515 89.038 140.906 102.062l46.906-133.656-187.813 31.594z"/><path style="opacity:.25;fill:#fff;fill-opacity:1;fill-rule:nonzero;stroke:none;display:inline;filter:url(#V)" d="M63.25 143.219c-28.513 51.852-35.189 115.62-17.469 172.156l139.25-26.219L63.72 142.344l-.469.875z"/><path style="opacity:.15;fill:#fff;fill-opacity:1;fill-rule:nonzero;stroke:none;display:inline;filter:url(#W)" d="M257.719 32.719C198.32 33.77 139.789 59.879 99.53 103.53l92.25 107.531 66.531-178.375-.593.032z"/><path style="opacity:.15;fill:#fff;fill-opacity:1;stroke:none;display:inline;filter:url(#X)" d="M254.781 234.031c-17.879-.186-28.234 25.63-14.562 37.5 10.37 10.67 31.406 7.507 36.219-7.156 5.241-12.604-3.314-29.036-17.282-30.156a21.476 21.476 0 0 0-4.375-.188z"/></g></svg>