<svg xmlns="http://www.w3.org/2000/svg" width="400" height="400" viewBox="0 0 128 128"><defs><clipPath id="g" clipPathUnits="userSpaceOnUse"><path style="clip-rule:evenodd" d="M556.75 516.626c2.252 9.368 8.092 26.186 18.874 29.118 6.024 1.639 11.393-1.373 5.753-5.147-11.502-7.696-17.738-10.542-24.627-23.971"/></clipPath><clipPath id="a" clipPathUnits="userSpaceOnUse"><path d="M0 792h612V0H0v792z"/></clipPath><clipPath id="c" clipPathUnits="userSpaceOnUse"><path style="clip-rule:evenodd" d="M596.497 511.716c-6.962 6.661-20.973 17.643-31.626 14.277-5.954-1.882-8.839-7.319-2.055-7.441 13.837-.25 20.622.731 33.681-6.836"/></clipPath><clipPath id="d" clipPathUnits="userSpaceOnUse"><path d="M558.323 524.527h38.192v-12.815h-38.192v12.815z"/></clipPath><clipPath id="e" clipPathUnits="userSpaceOnUse"><path style="clip-rule:evenodd" d="M596.515 511.712c-7.452 6.109-22.261 15.989-32.626 11.818-5.793-2.332-8.254-7.974-1.48-7.577 13.816.809 20.506 2.306 34.106-4.241"/></clipPath><clipPath id="f" clipPathUnits="userSpaceOnUse"><path d="M556.75 546.201h27.01v-29.575h-27.01v29.575z"/></clipPath><clipPath id="b" clipPathUnits="userSpaceOnUse"><path d="M558.893 526.62h37.604v-14.904h-37.604v14.904z"/></clipPath><clipPath id="h" clipPathUnits="userSpaceOnUse"><path d="M556.739 544.61h28.84v-27.979h-28.84v27.979z"/></clipPath><clipPath id="i" clipPathUnits="userSpaceOnUse"><path d="M548.843 543.235h11.247V504.74h-11.247v38.495z"/></clipPath><clipPath id="j" clipPathUnits="userSpaceOnUse"><path d="M547.048 542.875h13.046v-38.137h-13.046v38.137z"/></clipPath><clipPath id="m" clipPathUnits="userSpaceOnUse"><path d="M0 792h612V0H0v792z"/></clipPath><clipPath id="k" clipPathUnits="userSpaceOnUse"><path d="M311.058 513.261c-5.352-35.909 119.201-29.157 70.17-108.22 15.4 24.832 72.067 107.631 78.014 128.069 6.969 23.957-13.916 33.881-42.06 33.879-42.481-.003-101.489-22.62-106.124-53.728"/></clipPath><clipPath id="l" clipPathUnits="userSpaceOnUse"><path d="M195.725 405.366c-17.489-60.118 140.478-31.868 148.184 19.849 5.351 35.909-119.202 29.156-70.17 108.22-15.4-24.832-72.068-107.631-78.014-128.069"/></clipPath></defs><g clip-path="url(#a)" transform="matrix(2.47552 0 0 -2.47552 -1351.301 1358.604)"><g clip-path="url(#b)"><g clip-path="url(#c)"><path style="fill:#3498db;fill-rule:evenodd;stroke:none" d="M596.497 511.716c-6.962 6.661-20.973 17.643-31.626 14.277-5.954-1.882-8.839-7.319-2.055-7.441 13.837-.25 20.622.731 33.681-6.836"/></g></g><g clip-path="url(#d)"><g clip-path="url(#e)"><path style="fill:#75b9e7;fill-rule:evenodd;stroke:none" d="M596.515 511.712c-7.452 6.109-22.261 15.989-32.626 11.818-5.793-2.332-8.254-7.974-1.48-7.577 13.816.809 20.506 2.306 34.106-4.241"/></g></g><g clip-path="url(#f)"><g clip-path="url(#g)"><path style="fill:#1d6fa5;fill-rule:evenodd;stroke:none" d="M556.75 516.626c2.252 9.368 8.092 26.186 18.874 29.118 6.024 1.639 11.393-1.373 5.753-5.147-11.502-7.696-17.738-10.542-24.627-23.971"/></g></g><g><g clip-path="url(#h)"><path style="fill:#3498db;fill-rule:evenodd;stroke:none" d="M556.739 516.631c2.902 9.188 9.905 25.556 20.865 27.727 6.125 1.213 11.269-2.167 5.379-5.537-12.011-6.873-18.432-9.276-26.244-22.19"/></g></g><g><g clip-path="url(#i)"><path style="fill:#1d6fa5;fill-rule:evenodd;stroke:none" d="M560.09 504.74c-5.666 7.793-14.668 23.152-9.902 33.257 2.664 5.648 8.439 7.776 7.65 1.037-1.61-13.745-3.493-20.337 2.252-34.294"/></g></g><g><g clip-path="url(#j)"><path style="fill:#124364;fill-rule:evenodd;stroke:none" d="M560.094 504.738c-6.172 7.399-16.178 22.124-12.094 32.524 2.281 5.812 7.902 8.321 7.563 1.544-.691-13.823-2.131-20.525 4.531-34.068"/></g></g></g><g clip-path="url(#k)" transform="matrix(.1771 0 0 -.1771 27.464 174.01)"><path style="fill:#1d6fa5;stroke:none" d="M311.058 513.261c-5.352-35.909 119.201-29.157 70.17-108.22 15.4 24.832 72.067 107.631 78.014 128.069 6.969 23.957-13.916 33.881-42.06 33.879-42.481-.003-101.489-22.62-106.124-53.728"/></g><g clip-path="url(#l)" transform="matrix(.1771 0 0 -.1771 27.464 174.01)"><path style="fill:#1d6fa5;stroke:none" d="M195.725 405.366c-17.489-60.118 140.478-31.868 148.184 19.849 5.351 35.909-119.202 29.156-70.17 108.22-15.4-24.832-72.068-107.631-78.014-128.069"/></g><g clip-path="url(#m)" transform="matrix(.51552 0 0 -.51552 -125.251 338.322)"><path style="fill:#3498db;fill-opacity:1;fill-rule:evenodd;stroke:none" d="m0 0-.979 3.286-.732 4.018-.321 4.048.093 4.08.576 4.085 1.062 4.092 1.287 3.534 1.751 3.471 2.02 3.303 2.267 3.063 2.631 2.946 2.949 2.685 3.099 2.395 3.343 2.155 3.572 1.843 3.764 1.457 3.892 1.094 4.022.733 4.217.346 4.297-.161 2.091-.263 2.215-.384 2.168-.531 2.214-.624 2.754-.96 2.516-1.203 2.469-1.352 2.327-1.546 2.109-1.72 1.966-1.916 1.774-2.015 1.655-2.139 1.44-2.309 1.172-2.388 1.052-2.511.858-2.61.593-2.686.403-2.786.133-2.862-.033-2.889.555 1.998.481 2.02.367 1.899.215 1.945.073 1.99.023 1.844-.123 1.892-.217 1.842-.315 1.792-.411 1.742-.486 1.765-.579 1.715-1.454 3.282-1.834 3.081-2.127 2.935-2.437 2.709-2.728 2.561-2.989 2.242-3.207 2.069-3.396 1.728-3.615 1.556-3.799 1.21-2.775.643-2.773.401-2.916.203-2.96.058-3.055-.234-2.956-.428-3.002-.572-2.999-.816-2.88-1.018a44.713 44.713 0 0 1-9.292-6.147C-4.829 41.039-8.785 18.525 0 0m83.517 37.735c8.613-18.47 4.618-40.826-11.204-54.404a44.692 44.692 0 0 0-9.329-6.165l-2.86-1.012-2.926-.839-3.002-.572-3.029-.404-2.982-.258-2.959.058-2.916.205-2.844.424-2.777.643-3.8 1.212-3.615 1.554-3.396 1.726-3.207 2.071-2.989 2.24-2.655 2.537-2.436 2.711-2.128 2.933-1.834 3.084-1.453 3.28-1.139 3.504-.724 3.535-.269 3.709.096 3.836.579 3.842 1.04 4.018-.107-2.865.205-2.886.329-2.761.668-2.711.788-2.585 1.049-2.513 1.245-2.409 1.44-2.31 1.582-2.116 1.847-2.037 1.966-1.918 2.109-1.72 2.254-1.522 2.47-1.351 2.584-1.227 2.685-.936 2.218-.626 2.165-.529 2.214-.385 2.165-.286 4.223-.139 4.217.348 4.019.731 3.969 1.073 3.69 1.479 3.568 1.842 3.347 2.157 3.175 2.372 2.873 2.708 2.632 2.945 2.266 3.064 2.02 3.303 1.751 3.469 1.288 3.535 1.062 4.093.576 4.085.092 2.064v2.014l-.076 2.037-.245 2.013-.317 2.034-.414 1.984-.51 1.935-.324 1.079z" transform="translate(367.541 461.66)"/><path style="fill:#3498db;fill-opacity:1;fill-rule:evenodd;stroke:none" d="m0 0-3.872 1.728-4.366 2.55-4.059 2.961-3.753 3.372-3.37 3.833-2.985 4.293-2.282 4.058-1.846 4.437-1.473 4.557-1.053 4.596-.645 4.841-.143 4.933.248 4.84.672 4.876 1.143 4.832 1.665 4.709 2.111 4.536 2.553 4.364 3.068 4.239 3.615 3.904 1.933 1.75 2.141 1.77 2.245 1.608 2.373 1.575 3.118 1.814 3.157 1.391 3.258 1.231 3.326.937 3.314.595 3.383.302 3.32.041 3.34-.169 3.326-.511 3.188-.823 3.204-1.034 3.141-1.296 2.999-1.607 2.94-1.868 2.794-2.179 2.684-2.36-1.427 2.132-1.509 2.08-1.487 1.87-1.651 1.77-1.811 1.671-1.714 1.508-1.874 1.41-1.903 1.28-1.936 1.147-1.967 1.017-2.049.968-2.075.838-4.25 1.281-4.373.758-4.465.368-4.509-.106-4.6-.497-4.515-1.001-4.526-1.344-4.356-1.796-4.372-2.138-4.197-2.594-2.84-2.087-2.609-2.279-2.539-2.571-2.442-2.733-2.241-3.058-1.98-3.119-1.88-3.28-1.652-3.473-1.36-3.521a55.018 55.018 0 0 1-1.718-13.674C-42.415 28.528-24.468 6.678 0 0m31.856 108.799c24.277-6.795 42.045-28.556 42.045-54.346a55.24 55.24 0 0 0-1.727-13.722l-1.358-3.501-1.569-3.422-1.88-3.279-2.058-3.169-2.162-3.006-2.44-2.734-2.542-2.57-2.687-2.33-2.84-2.088-4.201-2.591-4.37-2.139-4.355-1.797-4.528-1.344-4.512-1.001-4.522-.447-4.504-.105-4.469.365-4.373.761-4.25 1.279L4.35 9.369.447 11.536l-3.697 2.735-3.525 3.182-3.138 3.639-2.937 4.212 2.603-2.408 2.876-2.13 2.856-1.92 3.082-1.555 3.062-1.345 3.204-1.035 3.264-.773 3.33-.512 3.261-.22 3.399.093 3.383.303 3.316.594 3.244.889 3.254 1.228 3.24 1.441 3.036 1.764 2.377 1.578 2.241 1.607 2.144 1.767 2.013 1.801 3.535 3.855 3.068 4.238 2.553 4.363 2.188 4.586 1.586 4.66 1.144 4.833.672 4.878.328 4.89-.221 4.878-.649 4.846-1.05 4.592-1.472 4.558-1.848 4.437-2.28 4.057-2.986 4.295-3.37 3.832-1.863 1.752-1.891 1.621-1.972 1.572-2.089 1.39-2.164 1.339-2.196 1.21-2.227 1.08-1.275.566z" transform="translate(393.462 426.25)"/><path style="fill:#1d6fa5;fill-opacity:1;fill-rule:evenodd;stroke:none" d="M0 0c16.521 5.225 28.5 20.673 28.5 38.922 0 .66-.017 1.317-.05 1.969l.342 1.759.268 2.352.202 2.185.029 2.251-.086 2.201L29 53.791l-.327 2.1-.407 2.138-.527 2.087-1.414 4.022-1.889 3.823-2.248 3.669-2.631 3.439-2.993 3.289-3.336 2.933-3.605 2.751-3.859 2.361-4.138 2.177-4.39 1.789-3.227 1.021-3.247.731-3.433.517-3.502.344-3.64.005-3.542-.23-3.609-.397-3.628-.692-3.647-.973-3.512-1.128-3.446-1.451-3.317-1.604-3.244-1.925-3.111-2.08-2.93-2.352-2.74-2.623 2.83 3.08 3.218 2.826 3.405 2.55 3.622 2.365 3.77 2.006 3.992 1.819 4.055 1.497 4.157 1.26 4.227.937 4.284.617 4.306.409 4.164.076 4.148-.215 4.094-.584 3.87-.887 3.77-1.144 4.862-2.082 4.608-2.47 2.188-1.382 2.125-1.555 2.006-1.606 1.883-1.653 1.853-1.743 1.732-1.787 1.612-1.843 1.546-2.005 2.767-4.081 2.374-4.317.986-2.175.953-2.257.745-2.269.715-2.365.506-2.372.424-2.34.307-2.387.19-2.441.102-2.403-.099-2.424-.189-2.386-.301-2.436-1.066-4.784-1.639-4.746-1.856-4.069-2.394-3.948-2.704-3.725-2.969-3.416-3.386-3.245-3.661-2.94-3.979-2.515-4.161-2.242-4.402-1.85L2.539.475 0 0zm-30.856-15.748 3.77-1.142 3.955-.923 4.009-.55 4.147-.215 4.25.04 4.304.412 4.203.65 4.224.937 4.158 1.261 4.055 1.496 3.992 1.819 3.769 2.008 3.623 2.365 3.405 2.55 3.218 2.824 2.83 3.082-2.742-2.627-2.928-2.35-3.112-2.08-3.248-1.927-3.309-1.6-3.452-1.452-3.513-1.13-3.644-.973-3.542-.722-3.611-.399-3.621-.199-3.559-.028-3.505.346-3.433.513-3.333.77-3.224 1.018-4.392 1.789-4.135 2.178-3.862 2.361-3.605 2.75L-42.048.04l-2.909 3.252-2.632 3.439-2.247 3.671-1.887 3.825-1.414 4.02-1.019 4.256-.532 4.254.029 4.419.47 4.535 1.043 4.497.04.114c.671 19.91 15.6 36.205 34.904 38.992h-.198l-4.827-.494-4.713-.934-4.598-1.373-4.396-1.852-4.164-2.243-3.892-2.545-3.747-2.908-3.39-3.246-2.969-3.418-2.698-3.723-2.399-3.948-1.854-4.066-1.639-4.749-1.062-4.784-.49-4.821v-4.826l.493-4.828 1.019-4.752 1.46-4.629 1.937-4.432 2.29-4.28 2.851-4.121 3.161-3.846 3.499-3.494 3.971-3.294 4.234-2.908 4.604-2.467 4.863-2.081z" transform="translate(422.048 441.493)"/><path style="fill:#1d6fa5;fill-opacity:1;fill-rule:evenodd;stroke:none" d="m0 0-3.883-.084-4.608.401-4.518.866-4.426 1.321-4.29 1.855-4.15 2.385-3.473 2.466-3.266 2.951-2.999 3.196-2.668 3.391-2.43 3.755-2.049 4.027-1.685 4.103-1.354 4.298-.943 4.449-.46 4.55-.03 4.577.404 4.612.884 4.708 1.466 4.646.914 2.204 1.082 2.304 1.228 2.207 1.347 2.233 1.874 2.72 2.068 2.388 2.215 2.29 2.387 2.077 2.509 1.788 2.681 1.576 2.731 1.332 2.833 1.167 2.953.877 2.959.566 3.058.396 3.109.157 3.108-.157 3.164-.396 3.164-.712 3.145-.903-2.016 1.206-2.062 1.132-1.963.965-2.059.821-2.151.674-2.009.579-2.103.433-2.075.315-2.052.194-2.026.071h-2.072l-2.045-.12-4.022-.602-3.917-1.081-3.838-1.443-3.692-1.852-3.611-2.209-3.347-2.595-3.22-2.882-2.903-3.191-2.78-3.479-2.46-3.79-1.536-2.837-1.268-2.907-1.095-3.122-.95-3.217-.662-3.408-.417-3.354-.275-3.45-.007-3.52.249-3.449a50.504 50.504 0 0 1 3.929-11.989C-46.266 7.022-22.863-4.043 0 0m-16.187 102.513c22.753 3.87 45.967-7.193 56.056-28.539a50.47 50.47 0 0 0 3.937-12.034l.248-3.426.04-3.446-.276-3.451-.466-3.428-.613-3.334-.95-3.216-1.096-3.121-1.317-2.981-1.532-2.838-2.463-3.789-2.78-3.479-2.904-3.191-3.22-2.883-3.343-2.593-3.566-2.139-3.69-1.85-3.84-1.443-3.919-1.082-4.018-.601-4.167-.192-4.076.265-4.13.82-4.161 1.253-4.022 1.785-4.078 2.338 3.098-.977 3.211-.637 3.115-.471 3.161-.082 3.058.085 3.059.395 3.006.638 2.952.877 2.784 1.094 2.777 1.407 2.685 1.574 2.509 1.787 2.34 2.006 2.215 2.291 2.115 2.457 1.823 2.65 1.351 2.233 1.228 2.208 1.082 2.3.96 2.279 1.42 4.573.881 4.71.407 4.608.017 4.652-.51 4.477-.943 4.449-1.351 4.3-1.639 4.175-2.094 3.951-2.434 3.757-2.664 3.391-3.003 3.196-3.264 2.951-3.475 2.466-4.148 2.385-4.29 1.855-2.227.721-2.198.601-2.248.53-2.27.334-2.317.262-2.291.144-2.267.022-1.275-.029z" transform="translate(417.504 429.468)"/></g></svg>