<svg xmlns="http://www.w3.org/2000/svg" viewBox="0 0 256.4 250" xml:space="preserve"><path fill="#001E36" d="M45.4 0H211c25.1 0 45.4 20.3 45.4 45.4v159.2c0 25.1-20.3 45.4-45.4 45.4H45.4C20.3 250 0 229.7 0 204.6V45.4C0 20.3 20.3 0 45.4 0z"/><g fill="#31A8FF"><path d="M134.6 176.7H66.9c-1.2 0-1.7-.6-1.7-1.9V65.6c-.1-.7.4-1.4 1.2-1.5H87.7c.5-.1 1.2.3 1.2.9v90h49.4c1.1 0 1.4.5 1.2 1.5l-3.1 18.6c0 .5-.3 1-.6 1.3-.4.2-.8.3-1.2.3zM151.7 91.2h18.7c1.1 0 1.9.7 2.2 1.7.4.7.7 1.6.9 2.5.2 1.1.4 2.2.5 3.3.1 1.2.2 2.5.2 3.8 3.2-3.7 7.1-6.8 11.4-9.2 4.9-2.7 10.4-4 15.9-3.8.7-.1 1.4.4 1.5 1.2V112c0 .9-.5 1.2-1.7 1.2-6.9-.4-13.9.9-20.2 3.6-2.1 1-4.2 2.2-5.8 4v54.5c0 1.1-.4 1.5-1.4 1.5h-20.8c-.9.1-1.6-.4-1.7-1.3v-59.6c0-2.6 0-5.2-.1-8s-.1-5.6-.2-8.3c-.1-2.4-.3-4.7-.6-7.1-.1-.5.2-1.1.7-1.2.2-.2.3-.2.5-.1z"/></g></svg>