<svg version="1.1" id="svg44" xmlns="http://www.w3.org/2000/svg" x="0" y="0" viewBox="0 0 512 512" style="enable-background:new 0 0 512 512" xml:space="preserve"><style></style><linearGradient id="path34-4_00000052069020947075151100000010140638130624436886_" gradientUnits="userSpaceOnUse" x1="-415.369" y1="688.394" x2="-415.514" y2="586.711" gradientTransform="matrix(3.7794 0 0 -3.7794 1953.936 2729.19)"><stop offset="0" style="stop-color:#afccfb"/><stop offset="1" style="stop-color:#8bb5f8"/></linearGradient><path id="path34-4" style="fill:url(#path34-4_00000052069020947075151100000010140638130624436886_)" d="m256 256 110.9 64L256 512c141.4 0 256-114.6 256-256 0-46.6-12.5-90.3-34.3-128H256v128z"/><linearGradient id="path36-1_00000165197466272322593430000007933251624600468612_" gradientUnits="userSpaceOnUse" x1="-699.373" y1="796.46" x2="-699.282" y2="794.975" gradientTransform="matrix(231.6257 0 0 -231.6247 162241.016 184481.906)"><stop offset="0" style="stop-color:#1972e7"/><stop offset="1" style="stop-color:#1969d5"/></linearGradient><path id="path36-1" style="fill:url(#path36-1_00000165197466272322593430000007933251624600468612_)" d="M256 0C161.2 0 78.6 51.5 34.3 128l110.8 192L256 256V128h221.7C433.4 51.5 350.7 0 256 0z"/><linearGradient id="path38-7_00000047030317141797111950000009190773286797101227_" gradientUnits="userSpaceOnUse" x1="-699.84" y1="799.973" x2="-698.088" y2="798.962" gradientTransform="matrix(94.9316 164.4269 164.4276 -94.9311 -64917.355 191142.813)"><stop offset="0" style="stop-color:#659cf6"/><stop offset="1" style="stop-color:#4285f4"/></linearGradient><path id="path38-7" style="fill:url(#path38-7_00000047030317141797111950000009190773286797101227_)" d="M0 256c0 141.4 114.6 256 256 256l110.9-192L256 256l-110.9 64L34.3 128C12.5 165.7 0 209.4 0 256"/><path id="path40" d="M384 256c0 70.7-57.3 128-128 128s-128-57.3-128-128 57.3-128 128-128 128 57.3 128 128" style="stroke:#000;stroke-miterlimit:10"/><linearGradient id="path42-5_00000055682703508271731300000008984872210056520338_" gradientUnits="userSpaceOnUse" x1="-449.4" y1="681.801" x2="-449.119" y2="626.871" gradientTransform="matrix(3.7794 0 0 -3.7794 1953.936 2729.19)"><stop offset="0" style="stop-color:#3680f0"/><stop offset="1" style="stop-color:#2678ec"/></linearGradient><path id="path42-5" style="fill:url(#path42-5_00000055682703508271731300000008984872210056520338_)" d="M360 256c0 57.4-46.6 104-104 104s-104-46.6-104-104 46.6-104 104-104 104 46.6 104 104"/><text transform="translate(188.517 298.94)" style="font-size:120px;font-family:'Lato-Bold';fill:#fff">Th</text></svg>