<?xml version="1.0" encoding="iso-8859-1"?>
<!-- Generator: Adobe Illustrator 19.0.0, SVG Export Plug-In . SVG Version: 6.00 Build 0)  -->
<svg version="1.1" id="Capa_1" xmlns="http://www.w3.org/2000/svg" xmlns:xlink="http://www.w3.org/1999/xlink" x="0px" y="0px"
	 viewBox="0 0 489.9 489.9" style="enable-background:new 0 0 489.9 489.9;" xml:space="preserve">
<g>
	<g>
		<g style="fill: #5eb4b2;">
			<circle cx="88.3" cy="361.15" r="43.5"/>
			<circle cx="388.7" cy="361.15" r="43.5"/>
			<path d="M396.9,133.75h-89.8v227h18.3c0-35,28.4-63.4,63.4-63.4s63.4,28.4,63.4,63.4h37.7v-98.7L396.9,133.75z M359.9,293.55
				h-22.5c-5.4,0-9.7-4.3-9.7-9.7c0-5.4,4.3-9.7,9.7-9.7h22.5c5.4,0,9.7,4.3,9.7,9.7C370,289.25,365.4,293.55,359.9,293.55z
				 M332,254.25v-95.6h52.5l69.2,95.6H332z"/>
			<path d="M0,361.15h24.9c0-35,28.4-63.4,63.4-63.4s63.4,28.4,63.4,63.4h135.6v-71.5H0V361.15z"/>
			<path d="M0,85.25v56h58.7v-9.1c0-16.4,19.1-25.5,31.8-15.1l58.6,47.6c9.6,7.8,9.6,22.5-0.1,30.3l-58.6,47.3
				c-12.8,10.3-31.8,1.2-31.8-15.2v-9.2H0v52.5h287.2v-185H0V85.25z"/>
			<polygon points="78.6,225.95 136.1,179.65 78.6,133.05 78.6,160.95 0,160.95 0,198.35 78.6,198.35 			"/>
		</g>
	</g>
</g>
<g>
</g>
<g>
</g>
<g>
</g>
<g>
</g>
<g>
</g>
<g>
</g>
<g>
</g>
<g>
</g>
<g>
</g>
<g>
</g>
<g>
</g>
<g>
</g>
<g>
</g>
<g>
</g>
<g>
</g>
</svg>
