<svg width="1024" height="1024" xmlns="http://www.w3.org/2000/svg"><defs><linearGradient id="e" x1="1142.588" x2="1280.895" y1="62.713" y2="200.874" gradientTransform="rotate(-5.889 1223.265 99.834)" gradientUnits="userSpaceOnUse"><stop stop-color="#343434" offset="0"/><stop stop-color="#4d4d4d" offset="1"/></linearGradient><linearGradient id="f" x1="1327.594" x2="1324.91" y1="230.862" y2="89.862" gradientTransform="scale(1 -1) rotate(-89.363 1091.82 1.789)" gradientUnits="userSpaceOnUse"><stop stop-color="#5596ea" offset="0"/><stop stop-color="#5596ea" stop-opacity="0" offset="1"/></linearGradient><linearGradient id="b" x1="112" x2="711.864" y1="512" y2="512" gradientTransform="translate(-1211.405 -699.405)" gradientUnits="userSpaceOnUse"><stop stop-color="#ff0" offset="0"/><stop stop-color="#ff0" stop-opacity="0" offset="1"/></linearGradient><linearGradient id="c" x1="112" x2="711.864" y1="512" y2="512" gradientTransform="translate(-324.595 187.405)" gradientUnits="userSpaceOnUse"><stop stop-color="#0ff" offset="0"/><stop stop-color="#0ff" stop-opacity="0" offset="1"/></linearGradient><linearGradient id="d" x1="112" x2="711.864" y1="512" y2="512" gradientTransform="translate(0 -1024)" gradientUnits="userSpaceOnUse"><stop stop-color="#f0f" offset="0"/><stop stop-color="#f0f" stop-opacity="0" offset="1"/></linearGradient><clipPath id="a"><circle cx="532" cy="538" r="400" fill-opacity=".475"/></clipPath></defs><circle transform="translate(-20)" cx="532" cy="532" r="406.5" clip-path="url(#a)" fill-opacity=".475"/><circle cx="512" cy="512" r="400" fill="#fff"/><circle transform="rotate(210)" cx="-699.405" cy="-187.405" r="400" fill="url(#b)"/><circle transform="rotate(-30)" cx="187.405" cy="699.405" r="400" fill="url(#c)"/><circle transform="rotate(90)" cx="512" cy="-512" r="400" fill="url(#d)"/><path d="M224.746 234.256a400 400 0 0 0-59.668 79.27c58.488 57.232 121.47 117.971 147.15 145.646 43.45 46.822 134.023 115.223 200.073 107.35 26.082 18.343 85.181 59.442 104.937 69.187-.387 9.444 1.504 19.02 4.9 28.527 18.523 51.842 87.765 85.52 47.46 140.772 79.34-48.078 100.442-128.312 66.824-185.541-20.992-35.735-51.532-47.466-76.955-38.924-15.225-17.22-75.788-67.51-98.086-85.867-14.218-63.94-100.445-129.892-155.373-158.498-33.57-17.483-110.359-60.679-181.262-101.922z" fill-opacity=".475"/><g><path d="M1287.872 191.77c-18.296 17.072-53.495-10.007-68.353-27.014-15.28-17.493-72.34-76.49-76.51-80.316-4.17-3.827-7.492-8.552-3.805-13.253 3.84-4.578 9.148-2.304 13.753.987 4.604 3.292 74.107 46.948 94.376 58.29 19.707 11.028 53.468 39.881 40.539 61.307z" fill="url(#e)" transform="translate(-3949.233 -128.646) scale(3.50294)"/><path d="M1317.223 208.618c-71.406 63.701-129.81 2.652-138.859-18.496 5.351 36.707 30.086 69.556 67.453 82.197 28.22 9.548 73.253 9.326 93.442-27.047z" fill="url(#f)" transform="translate(-3949.233 -128.646) scale(3.50294)"/><path d="M663.887 623.13c-20.433 9.359-18.223 16.122-36.365 13.205-12.513-2.013-120.912-84.18-120.912-84.18-5.494-13.186 1.097-31.313 13.477-45.66 11.483-15.074 27.86-25.263 41.895-22.608 0 0 102.769 89.109 107.32 100.937 6.599 17.15-.475 16.383-5.415 38.307z" fill="#bfbfbf"/><path d="M669.495 804.895c80.748-45.675 104.25-125.238 72.366-183.45-24.777-45.237-65.46-53.79-93.559-31.917-27.875 21.699-30.332 47.555-22.017 73.234 16.957 52.375 85.156 88.115 43.21 142.133z" fill="#282828"/></g></svg>