<svg xmlns="http://www.w3.org/2000/svg" width="432" height="136" fill="none"><g clip-path="url(#a)"><rect width="128" height="128" x="4" y="4" fill="#fff" rx="16"/><path fill="url(#b)" d="M4 4h128v128H4z"/><path fill="url(#c)" d="M4 4h128v128H4z"/><g filter="url(#d)"><circle cx="68" cy="74" r="50" fill="#48EAE6"/></g><path stroke="#fff" stroke-width="16" d="M40 36v36c0 11.046-8.954 20-20 20H4M96 36v36c0 11.046 8.954 20 20 20h16"/><g opacity=".3" style="mix-blend-mode:multiply"><path fill="#0D2759" d="M48 36H32l16 32zM88 36h16L88 68z" style="mix-blend-mode:multiply"/></g><g opacity=".6" style="mix-blend-mode:multiply"><path fill="url(#e)" d="M32 36h16v24H32z"/><path fill="url(#f)" d="M88 36h16v24H88z"/></g><g opacity=".6" style="mix-blend-mode:multiply"><mask id="g" width="128" height="64" x="4" y="36" maskUnits="userSpaceOnUse" style="mask-type:alpha"><path stroke="#fff" stroke-width="16" d="M40 36v36c0 11.046-8.954 20-20 20H4M96 36v36c0 11.046 8.954 20 20 20h16"/></mask><g filter="url(#h)" mask="url(#g)"><path fill="#0D2759" d="m20 120 48-72 48 72z"/></g></g><path fill="#fff" d="M32 36h20l16 24 16-24h20L80 72l23.979 36H84L68 84l-16 24H32l24-36z"/></g><rect width="132" height="132" x="2" y="2" stroke="#fff" stroke-width="4" rx="18"/><path fill="#fff" d="M185.748 48.135h4.528v38.87q0 3.77-1.633 6.8a12.3 12.3 0 0 1-4.602 4.803q-2.969 1.773-7.051 1.774-5.27 0-8.611-2.735-3.266-2.734-4.379-7.537l3.934-1.404a14.4 14.4 0 0 0 1.559 3.916 7.7 7.7 0 0 0 2.82 2.808q1.856 1.035 4.677 1.035 3.192 0 5.121-1.478t2.747-3.621q.89-2.217.89-4.36zM220.494 74.295q4.602 0 7.422-1.404 2.895-1.404 4.157-3.916 1.336-2.513 1.336-5.764 0-5.247-3.043-8.203-2.97-2.956-9.872-2.956h-12.916v22.243zm17.369-11.084q0 3.177-1.039 5.986A13 13 0 0 1 233.632 74q-2.152 1.996-5.419 3.177-3.266 1.11-7.719 1.109h-12.916v21.578h-4.528V48.135h17.444q6.16 0 9.946 1.996t5.567 5.394q1.856 3.4 1.856 7.686M278.88 52.052h-28.949v19.435h21.749v3.917h-21.749v20.544h28.949v3.916h-33.477V48.135h33.477zM325.896 63.359q-2.671-5.69-7.645-8.72-4.9-3.03-11.282-3.03-5.939 0-10.763 2.734-4.75 2.735-7.571 7.76-2.747 4.95-2.747 11.897 0 6.872 2.747 11.897 2.82 5.025 7.571 7.76 4.824 2.66 10.763 2.66 4.527 0 8.461-1.626t6.755-4.655q2.895-3.105 4.38-7.39V76.29h-19.299v-3.695h23.826v10.346a25.5 25.5 0 0 1-5.121 9.089q-3.415 3.917-8.314 6.134-4.9 2.217-10.688 2.217-5.493 0-10.169-1.922-4.677-1.92-8.165-5.394-3.489-3.548-5.419-8.35Q281.36 79.837 281.36 74q0-5.839 1.856-10.641 1.93-4.877 5.419-8.351 3.488-3.548 8.165-5.469 4.676-1.92 10.169-1.92 5.196 0 9.649 1.699 4.454 1.7 7.794 4.951 3.414 3.178 5.419 7.611zM343.803 48.135h15.068l11.654 16.554 10.911-16.554h15.068L378.393 74l18.111 25.864h-15.068l-10.911-16.553-11.654 16.553h-15.068L362.583 74z"/><path fill="#fff" d="M409.361 48.135v40.94H432v10.79h-35.555v-51.73z"/><defs><linearGradient id="b" x1="68" x2="68" y1="4" y2="132" gradientUnits="userSpaceOnUse"><stop offset=".25" stop-color="#0D2759"/><stop offset=".531" stop-color="#2061DF"/></linearGradient><linearGradient id="c" x1="68" x2="68" y1="36.32" y2="129.44" gradientUnits="userSpaceOnUse"><stop stop-color="#15B7B3" stop-opacity="0"/><stop offset=".732" stop-color="#15B7B3"/></linearGradient><linearGradient id="e" x1="40" x2="40" y1="36" y2="60" gradientUnits="userSpaceOnUse"><stop offset=".1" stop-color="#0D2759"/><stop offset="1" stop-color="#0D2759" stop-opacity="0"/></linearGradient><linearGradient id="f" x1="96" x2="96" y1="36" y2="60" gradientUnits="userSpaceOnUse"><stop offset=".1" stop-color="#0D2759"/><stop offset="1" stop-color="#0D2759" stop-opacity="0"/></linearGradient><filter id="d" width="164" height="164" x="-14" y="-8" color-interpolation-filters="sRGB" filterUnits="userSpaceOnUse"><feFlood flood-opacity="0" result="BackgroundImageFix"/><feBlend in="SourceGraphic" in2="BackgroundImageFix" result="shape"/><feGaussianBlur result="effect1_foregroundBlur_621_298" stdDeviation="16"/></filter><filter id="h" width="116" height="92" x="10" y="38" color-interpolation-filters="sRGB" filterUnits="userSpaceOnUse"><feFlood flood-opacity="0" result="BackgroundImageFix"/><feBlend in="SourceGraphic" in2="BackgroundImageFix" result="shape"/><feGaussianBlur result="effect1_foregroundBlur_621_298" stdDeviation="5"/></filter><clipPath id="a"><rect width="128" height="128" x="4" y="4" fill="#fff" rx="16"/></clipPath></defs></svg>