<svg version="1.0" width="384" height="384" xmlns="http://www.w3.org/2000/svg"><defs><linearGradient id="g" gradientUnits="userSpaceOnUse" x1="70.313%" y1="8.073%" x2="70.313%" y2="15.104%"><stop offset="0" style="stop-color:#92eefe"/><stop offset="1" style="stop-color:#59e5fe"/></linearGradient><linearGradient id="b" gradientUnits="userSpaceOnUse" x1="4.688%" y1="34.115%" x2="25.26%" y2="69.531%"><stop offset="0" style="stop-color:#00cce6"/><stop offset="1" style="stop-color:#0082e7"/></linearGradient><linearGradient id="f" gradientUnits="userSpaceOnUse" x1="48.438%" y1="11.198%" x2="48.438%" y2="31.771%"><stop offset="0" style="stop-color:#8ef6fd"/><stop offset="1" style="stop-color:#2be8ff"/></linearGradient><linearGradient id="d" gradientUnits="userSpaceOnUse" x1="29.167%" y1="45.313%" x2="50%" y2="81.25%"><stop offset="0" style="stop-color:#0cf4ff"/><stop offset=".28" style="stop-color:#04eefe"/><stop offset="1" style="stop-color:#00b1f7"/></linearGradient><linearGradient id="a" gradientUnits="userSpaceOnUse" x1="74.74%" y1="69.271%" x2="95.313%" y2="33.854%"><stop offset="0" style="stop-color:#1964e7"/><stop offset="1" style="stop-color:#6884f2"/></linearGradient><linearGradient id="h" gradientUnits="userSpaceOnUse" x1="57.031%" y1="28.646%" x2="64.844%" y2="41.927%"><stop offset="0" style="stop-color:#a6feff"/><stop offset=".53" style="stop-color:#bffdfe"/><stop offset="1" style="stop-color:#97edff"/></linearGradient><linearGradient id="e" gradientUnits="userSpaceOnUse" x1="29.167%" y1="28.385%" x2="29.167%" y2="40.625%"><stop offset="0" style="stop-color:#40fafd"/><stop offset="1" style="stop-color:#00e0ff"/></linearGradient><radialGradient id="c" gradientUnits="userSpaceOnUse" cx="80.208%" cy="64.063%" r="29.948%"><stop offset=".23" style="stop-color:#00cdff"/><stop offset=".49" style="stop-color:#00bcfa"/><stop offset=".77" style="stop-color:#00abf8"/><stop offset="1" style="stop-color:#0098f7"/></radialGradient></defs><path fill="url(#a)" d="M306 284.1c-4.4-1.4-8.4-3.9-11.2-6.8-4-4.3-27.8-47.5-27.8-50.6 0-1.7.4-2.5 1.3-2.1.9.3 3.7-5 8.7-16.6 8.4-19.1 8.6-19.3 15.6-14 19.1 14.6 36.1 22.1 53.9 23.6 7.5.7 9.5 1.6 9.5 4.4 0 1 3.169-3.492 3.569-3.292.5.1-7.469 18.492-14.369 33.892-11.8 26.6-12.7 28.3-16.1 29.9-4 2-18.8 3-23.1 1.6z"/><path fill="url(#b)" d="M56.1 283.3c-4.4-1.8-4.5-1.9-10.6-15.8-3.4-7.7-8-18.2-10.3-23.2l-6.205-14.554L35.8 235.2c4.7.1 15.3-2.4 26.7-6.4 3.3-1.1 8.4-2.7 11.3-3.6 3.6-1.1 5.2-2 5.2-3.2 0-1 1-2 2.3-2.3 1.2-.3 6.4-2.3 11.5-4.6s9.9-4.1 10.7-4.1c.8 0 1.5-.4 1.5-1 0-.5.6-1 1.3-1 .7 0 4.386 7.426 4.7 8.1 3.952 8.487 4.7 10 6.1 7.8.6-1 .9-.5.9 1.5 0 3.4-23.5 45.3-28.4 50.4-5.3 5.7-10 7.5-20.1 7.9-6.8.2-10.1-.1-13.4-1.4z"/><path fill="url(#c)" d="M307 284c0-.5-1.3-1-3-1-2.5 0-3-.4-3-2.5 0-2.2-.4-2.5-3.5-2.5-3.4 0-3.5-.1-3.5-3.7v-3.7l3.8 3.6c4.1 4 8.1 6.2 13 7.3 4.4.9 4.3 3.5-.3 3.5-1.9 0-3.5-.4-3.5-1z"/><path fill="url(#c)" d="M312.729 282.426c-.024-.764 6.709-.583 9.171-1.426 2.042-.699 5.5-2.1 7.6-3.6 4.2-2.8 5-2.6 4.1 1.1-.5 1.8-1.3 2.5-3.1 2.5-1.5 0-2.5.6-2.5 1.4 0 1.5-3 2.6-7.2 2.6-1.8 0-8.04-1.574-8.071-2.574zM196.4 261.4c-2.4-4.3-4.1-6.3-5-6-1 .4-1.4-.3-1.4-2.1 0-4.7 22.2-43 36.6-63.1 8-11.2 9.4-12.7 12.2-13 2.7-.3 3.2.1 3.8 2.4.4 1.5.3 3.3-.2 4-8.8 12.3-15.4 22.6-15.4 23.8 0 .8-.9 3.2-1.9 5.3-3.2 6.2-18.9 45.1-19.8 49.1-.3 1.2-.9 2.2-1.4 2.2-.5 0 3.972 14.164 3.972 15.264 0 3.9-7.872-11.364-11.472-17.864zM287 263.5c0-4.3 1.4-4.5 3.5-.5 2 3.8 1.9 4-1 4-2.2 0-2.5-.4-2.5-3.5z"/><path fill="url(#c)" d="M282 254.5c0-4.3 1.389-4.362 3.489-.362 2 3.8 5.23 8.309 2.33 8.309-2.2 0-5.819-4.847-5.819-7.947zM277 245.5c0-2.8-.4-3.5-1.9-3.5-2.1 0-3.1-1.9-3.1-6.1 0-2.2-.5-2.9-2-2.9-1.2 0-2.2-.9-2.6-2.4-.8-3.3-1.051-6.828.463-6.373C269.29 224.656 282 247.3 282 248.4c0 .3-1.1.6-2.5.6-2.2 0-2.5-.4-2.5-3.5zM303 283c0-.5-.9-1-2-1s-2-.7-2-1.5-.7-1.5-1.6-1.5c-2.5 0-4.4-2.6-4.4-5.9 0-3.7.776-3.834 2.9-.8 1.772 2.53 7.8 7.3 11.4 8.2 4 1 3.4 3.5-.8 3.5-1.9 0-3.5-.4-3.5-1zM201.364 268.219c-1.2-2.8-2.064-6.119-.664-7.019.5-.4 1.2-1.6 1.6-2.7 1.1-4.1 16.4-41.9 19.5-48.4.9-1.9 1.7-4.2 1.7-5.1.1-.8 2.5-5.1 5.4-9.5 2.9-4.4 4.1-6.6 2.7-5-1.4 1.7-5.9 8-9.8 14.2-4 6.2-7.6 11.2-8 11.3-.5 0-.8-1.6-.8-3.5 0-3 .3-3.5 2.5-3.5 1.9 0 2.6-.7 3.4-3.7.6-2.1 1.1-4.6 1.1-5.5 0-1 .5-1.8 1.1-1.8 1.6 0 3.8-3.1 3.9-5.2 0-1 .5-1.8 1-1.8.6 0 1-.6 1-1.4 0-.8.7-1.6 1.5-2 .8-.3 1.5-1.2 1.5-2 0-.7.7-1.6 1.5-2 .8-.3 1.5-1 1.5-1.5 0-1.2 5.6-7.1 6.7-7.1 1.1 0 6.142 10.08 6.968 12.011.33.772-2.068-.011-2.468-.011-.4 0-1.5 1.5-2.3 3.3-.9 1.7-5.7 11.3-10.7 21.2-5 9.9-9.4 19.4-9.8 21-.9 3.8-7.6 20.7-11.2 28.2-3.9 8.1-5.4 10.3-7.3 10.3-.9 0-.936-1.581-1.536-2.781z"/><path fill="url(#c)" d="M283 256.5c0-4.3 1-4.4 3.3-.6 2.2 3.8 2.2 4.1-.8 4.1-2.2 0-2.5-.4-2.5-3.5z"/><path fill="url(#c)" d="M278 247.5c0-4.3 1.117-4.468 3.3-.6 4.168 7.385 3.142 5.816-.8 4.1-2.017-.878-2.5-.4-2.5-3.5z"/><path fill="url(#b)" d="M34.2 239.3c-1.3-1.5-4.3-7-6.7-12.4l-5.821-13.798L28.1 216.7c12-1.4 62.9-25.9 62.9-30.2 0-1.1 3.66-5.354 4.16-4.554.2.2 4.14 8.554 7.34 15.854 3.63 8.224 5.177 12.911 6.157 14.966.766 1.607-.488 2.124-1.657 1.734-1-.3-5.5 1.1-10.1 3.1s-10 4.3-11.9 5.1l-3.5 1.4 4.5-.5c5.9-.6 3.5.8-6.8 3.9-4.2 1.2-10.4 3.2-13.7 4.4-6.4 2.2-24 7.1-26.5 7.4-.8.1-1.7.7-2 1.4-.3.8-1.3.2-2.8-1.4z"/><path fill="url(#b)" d="M27 221.8c0-1-.6-1.8-1.3-1.8-1.2 0-3.43-4.947-8.13-15.947-.2-.4 4.23-.253 8.93-1.953 16.5-6 31-13.9 45-24.5 8.5-6.6 10.5-8.4 10.5-10 0-.9.7-1.6 1.5-1.6s1.5-.4 1.5-1c0-.5.6-1 1.3-1 1.3 0 10.1 19.3 11.1 24.5.6 2.7.5 2.8-.7 1.3-1.7-2.1-2.7-2.3-2.7-.4 0 3.8-38.9 23.3-60 30-3 1-5.8 2.3-6.2 3-.5.7-.8.5-.8-.6z"/><path fill="url(#d)" d="M78 281.2c0-.4 1.3-1.5 2.9-2.5 1.5-.9 4.5-3.3 6.5-5.4l3.6-3.7v3.3c0 3.5-1.9 6.1-4.4 6.1-.9 0-1.6.7-1.6 1.5 0 1-1.1 1.5-3.5 1.5-1.9 0-3.5-.4-3.5-.8z"/><path fill="url(#b)" d="m15.3 199.6-4-9.1 2.7-.6c8.8-1.9 28.1-12 39.1-20.5 7.3-5.6 20.9-19.3 20.9-21 0-.8.5-1.4 1-1.4.6 0 1-.7 1-1.5s.602-1.449 1.3-1.5c.375-.027 1.059.354 2.155 2.424 2.007 3.791 5.302 11.487 8.879 20.276.151.37 1.99 4.402 2.49 5.702.5 1.3-1.224-.402-1.824-.402-.6 0-1-.7-1-1.5s-.7-1.5-1.5-1.5-1.5.7-1.5 1.6c0 1.6-2 3.4-10.5 10-12.9 9.8-29.4 19-41.9 23.4-2.8 1-6.4 2.4-8.1 3-1.6.7-3.5 1.4-4.1 1.5-.6.2-2.9-3.8-5.1-8.9z"/><path fill="url(#c)" d="M263.6 354.9c-10.7-2.5-20.2-10-26.7-21.1-5.6-9.6-5.7-9.8-2.1-9.8 1.6 0 6.1-1.5 9.8-3.2 7.8-3.6 17.7-4.8 23.7-2.9 4.1 1.4 14.3 10.5 20.7 18.4l4.5 5.7 5.5-.6 15.659-21.508c1.673-1.894-4.287 11.923-13.459 24.408-8.6 8.9-24.9 13.6-37.6 10.6zM306 283c0-2.1 1-2.4 4.8-1.4 3.6 1 2.7 3.4-1.3 3.4-2.8 0-3.5-.4-3.5-2z"/><path fill="url(#c)" d="M203.4 274.2c-3-5.6-3-5.7-1.2-7.6 2.7-2.9 14.4-29.4 16.2-36.8 1.1-4.7 21.1-44.7 23-46 .8-.6.8-.8 0-.8-.6 0-1.1-.7-1.1-1.5 0-3 2.4-1.4 5.5 3.8 3 4.9 3.5 8.7 1.2 8.7-1.4 0-21.8 42.2-22.5 46.5-1.1 6.7-2.6 10.5-9.2 24-3.4 7.1 20.049 66.562 20.399 67.168 1.523 2.634-29.399-52.168-32.299-57.468zM296 276.9v-3l3 2.1c4.4 3.1 4.5 4 .6 4-3.3 0-3.6-.2-3.6-3.1zM329.235 277.703c0-.3 2.365-1.203 4.265-3.203l3.558-3.778-1.758 4.178c-1.1 2.7-2.2 4.1-3.5 4.1-1 0-2.565-1.097-2.565-1.297zM288 265.5c0-4.4.9-4.4 3.8 0l2.131 3.898L291 269c-2.8 0-3-.3-3-3.5zM274 240.5c0-4.4.9-4.4 3.8 0l2.235 3.858L277 244c-2.8 0-3-.3-3-3.5zM269 231.5c0-4.4.9-4.4 3.8 0l2.599 4.611L272 235c-2.8 0-3-.3-3-3.5z"/><path fill="url(#b)" d="M97.5 191.4c-.9-1.4-1.4-2.8-1.2-3.1.3-.3 1.3.9 2.2 2.6 1.9 3.8 1.4 4.1-1 .5z"/><path d="M77.7 338.3c-.4-.3-.7-1.9-.7-3.5 0-2.5.3-2.8 3.5-2.8 3.3 0 3.5.2 3.5 3.5 0 3.2-.3 3.5-2.8 3.5-1.6 0-3.2-.3-3.5-.7z" fill="#00b0e7"/><path fill="url(#b)" d="M13.4 194.1c.4-.5.006-.657-.509-.814-.958-.291-8.27-16.598-7.331-17.099.3-.3 11.34-4.587 18.94-7.487 1.7-.7 3.2-1.5 3.5-1.8.3-.4 3.4-2.8 7-5.5 12.4-9.1 25.9-23.6 27.4-29.4 1.4-5.7 2.2-5.8 7-1.1 4.8 4.8 9.5 12.6 10.3 17.2.3 2.3.1 2.8-1.1 2.3-1-.4-1.6-.1-1.6.9 0 1.8-13.4 15.3-20.9 21.1-8 6.2-19.3 12.7-28.8 16.7-5.1 2.1-8.3 4-8.3 4.9 0 1.3-.1 1.3-1 0-.6-.9-1.3-1.1-1.7-.5-1 1.3-3.6 1.9-2.9.6z"/><path fill="url(#d)" d="M101.7 355c-4.9-1.3-13.7-5.8-13.7-7 0-.6 1.6-1 3.5-1s3.5.3 3.5.8c0 .4 4.4.6 9.7.5 6.9-.2 10.5.1 12.6 1.2 1.7.8 3.6 1.5 4.4 1.5 1.9 0 1.6 2.7-.4 3.5-3 1.1-15.6 1.5-19.6.5z"/><path fill="url(#c)" d="M296 346.5c0-1.1-.7-1.4-2.3-1-1.9.5-3.2-.5-7.6-5.9-6.8-8.4-15.7-16.5-20.1-18.4-2-.8-5.2-1.2-7.6-.9-4.8.5-16 5.4-18.8 8.3-2.2 2.1-4.4 2.7-4.2 1 0-.6-.3-1.2-.8-1.3-.8-.2-3.7-5-12.9-21.5l-3.8-6.8h3.1c2 0 3 .5 3 1.5 0 1.6 1.6 2.1 2.2.7.2-.4 4.1-3.9 8.8-7.6 8.1-6.7 8.4-7 8.1-10.7-.2-3.8-.2-3.9 3.1-3.9 3.1 0 3.7.7 8.8 8.6 3 4.8 8.5 11.4 12.1 14.9 8.3 7.8 13.8 9.9 22.8 8.9 4.3-.5 6.1-.3 6.1.5 0 .6.5 1.1 1.2 1.1.6 0 3.3 1.8 5.9 4 2.7 2.2 5.8 4 7.2 4 1.3 0 3.272.233 3.572.533-1.627 3.066-7.969 16.248-12.869 21.348-5.4 5.8-5.003 5.019-5.003 2.619zM209 283.9c-3.6-6.2-4.3-9.7-2.4-11.4 2.4-2.2 13.5-27.4 14.5-32.9.6-3.2 3-9.8 5.4-14.6 2.3-4.9 4-9.1 3.7-9.4-.3-.3 0-.6.6-.6.7 0 1.1-.3 1-.7-.4-1.1 10.764-24.313 12.964-26.713 1.8-1.9 2.136.213 5.136 5.013s3 4.9 1.2 7.9c-4.3 7.1-11.2 19.7-16.1 29.5-4.4 8.7-5.3 11.3-5.1 15.3.2 5.3-2 12.6-7.2 23.9-1.9 4.2-3.8 9-4.2 10.6-.3 1.7-1.3 3.6-2.1 4.3-.8.6-1.4 2.2-1.4 3.5 0 4.1-2.5 2.6-6-3.7zM319.1 283.5c.2-1 1.5-2 2.8-2.2 1.4-.2 3-.8 3.6-1.3.7-.5 1.5-.7 1.8-.3.4.3.7.1.7-.5 0-.7.5-1.2 1.1-1.2.7 0 1.634-.958 2.5-1.7 1.802-1.545 1.3-1.5 1.4 1.5.073 2.199-.6 3.5-1.7 3.9-1 .4-2.1 1.1-2.4 1.6-.4.5-2.8 1.2-5.4 1.5-4.1.4-4.7.3-4.4-1.3zM292 274.9c0-.6-.7-1.7-1.5-2.5-1.5-1.6-2.1-8.4-.7-8.4.6 0 2.4 2.5 6.6 9.3l1.6 2.7h-3c-1.6 0-3-.5-3-1.1zM284 258.5c0-4.4.9-4.4 3.8 0l2.442 4.114L287 262c-2.8 0-3-.3-3-3.5zM279 249.5c0-2.8-.4-3.5-2-3.5s-2-.7-2-3.5c0-1.9.3-3.5.6-3.5.9 0 4.3 4.4 4.4 5.5 0 .6 1.1 2.7 2.5 4.8l2.868 4.613L282 253c-2.8 0-3-.3-3-3.5zM270 233.5c0-4.1.5-4.3 3.1-1.2 2.5 3.1 2.4 4.7-.6 4.7-2.2 0-2.5-.4-2.5-3.5z"/><path fill="url(#c)" d="M290.6 272.4c-.3-.9-.6-2.9-.6-4.5 0-2.2-.5-2.9-2-2.9-1.6 0-2-.7-2-3.6 0-3.2.2-3.5 1.6-2.3.9.7 2.3 3 3.1 5.1.8 2.1.636 3.948 1.236 3.948.5 0 1.864.352 1.564.852-.3.6-.2 1 .3 1s1.2.9 1.5 2c.4 1.6 0 2-1.8 2-1.3 0-2.6-.7-2.9-1.6zM281 252.3c0-3.5.1-3.6 1.9-1.9 1 1 1.858 2.667 2.4 3.7.721 1.375 0 1.9-1.9 1.9-2.1 0-2.4-.5-2.4-3.7zM276 243.3c0-3.6 0-3.6 1.8-1.7 1 1 2.1 2.7 2.5 3.7.5 1.3.1 1.7-1.8 1.7-2.2 0-2.5-.4-2.5-3.7zM271 234.3c0-3.6 0-3.6 1.8-1.7 1 1 2.1 2.7 2.5 3.7.5 1.3.1 1.7-1.8 1.7-2.2 0-2.5-.4-2.5-3.7zM266 226c0-2.7-1.61-6.902 1.799-2.032.567.81 1.596 2.544 2.335 3.427.4 1.4.066 1.605-1.734 1.605-2 0-2.4-.5-2.4-3z"/><path fill="url(#a)" d="M352.6 227.5c-.3-.8-.3-2.1 0-2.8.8-2.3-1.7-3.4-9.1-4.1-17.8-1.5-34.8-9-53.9-23.6l-4-3.1-3.4 5.3c-1.8 2.9-3.2 4.8-3 4.2.2-.6 5.2-12.2 11.3-25.8 8.7-19.7 11.3-24.6 12.8-24.6 1.1 0 4.6 2.9 7.9 6.5 8.1 8.7 18.9 15.8 29.1 19.1 7.5 2.5 9.5 2.7 22.4 2.6l14.2-.2-1.8 4.3c-9.5 21.9-18.4 41.2-19.6 42.3-1.7 1.8-2.2 1.8-2.9-.1z"/><path fill="url(#b)" d="M19.283 182.389c-.5-.7-10.581-.11-10.981.19-.568.111-1.449-1.244-2.71-5.247-.691-2.194-4.337-11.402-3.197-11.706.676-.18.256 1.225.021.507-.44-1.346.385.863.288-.375-.483-6.127 3.097-17.579 3.673-18.118C8.858 145.315 16 155 16 153.5c0-.7 2.2-2.7 4.8-4.4 5.4-3.4 11.3-8.9 16.6-15.4 2.6-3.1 3.7-5.6 4.2-9.5l-.517-4.437c1.746-1.35 11 .363 10.382.869-3.341-1.563 4.698 1.408 9.935 4.168 1.682.887 4.169 2.559 5.129 3.449 2.089 1.938 1.278 3.044-.229 4.551-.7.7-1.1 1.8-.7 2.3.8 1.3-8.1 12.2-15.3 18.9-12.2 11.2-15.5 14.1-14.7 12.8.8-1.4-2.1.5-4.1 2.7-.5.5-2.2 1.5-3.6 2-14.7 5.7-4.12 10.108-4.32 11.408-.3 1.2-3.697.481-4.297-.519z"/><path fill="url(#d)" d="M118.5 354.2c-1.1-.2-2.5-.8-3.1-1.3-1.6-1.3-13.4-2-16.9-1-5.3 1.5-15.6-5.6-21.6-14.8l-2.34-5.369 3.74-1.531c2.3-1.4 6.3-4.3 8.8-6.4 2.6-2.1 5.2-3.8 5.8-3.8.6 0 1.1-.7 1.1-1.5 0-1.1 1.1-1.5 4.3-1.5 10.3 0 22.4-9.7 32.7-26.2 5-8 5.8-8.8 8.7-8.8 1.7 0 3.3.6 3.6 1.3.7 1.8-.2 25.9-1.5 37.4-1.2 11-.6 13.3 3.4 13.3 1.7 0 1.6.4-1.1 4.3-6.4 9.4-19.1 17.3-25.6 15.9z"/><path fill="url(#c)" d="M310 326.5c0-1.2-.4-1.4-1.7-.6-1.3.7-2.9-.1-7.2-4-3-2.7-6.1-4.9-6.8-4.9-.7 0-1.3-.3-1.3-.7 0-.5-2.7-.6-6-.5-7.5.5-14.5-1.8-19.6-6.3l-3.9-3.4 3.6-.1c2 0 3.8.3 4.2.6.8.9 13.4.8 18.6-.1 2.4-.4 7.5-1.8 11.3-3.2 3.9-1.3 10.6-2.7 15-3l8.565-2.42-2.065 5.22c-8.6 20.2-12.7 27.7-12.7 23.4zM223 308c-.8-.5-1.1-1-.6-1 .6 0 .1-.7-1-1.5-1-.8-1.4-1.5-.9-1.5.6 0 .6-.3-.1-.8-1.9-1.3-8.5-14.1-8.9-17.3-.3-2.4.1-3.6 1.4-4.6 1.1-.7 2.2-2.7 2.6-4.4.4-1.7 2.3-6.5 4.2-10.7 5.3-11.6 7.1-17.7 6.6-22.5-.4-3.5.3-5.8 4.2-13.7 7.2-14.8 17.827-37.313 19.027-37.313.6 0 3.273 4.813 4.873 7.813 2.7 4.9 4.781 7.218 3.381 8.818-1.3 1.6-14.581 20.482-17.581 26.682-3.2 6.9-5.3 13.7-4.8 16 .2 1.5 3.5 8 7.2 14.6 3.7 6.5 7.7 13.7 8.8 15.8 1.2 2.2 2.8 4.8 3.7 5.8.9 1 2.2 3.1 3 4.6.8 1.5 2 3.1 2.6 3.5.7.4 1.3 2.4 1.3 4.4 0 3.6 0 3.6-2.1 1.7-1.2-1-4.4-5.5-7.3-9.8-4.9-7.6-5.1-7.8-5.6-4.9-.4 2.3-2.5 4.6-9 9.8-4.7 3.8-9.5 7.9-10.7 9.2-2.5 2.6-2.3 2.6-4.3 1.3zM308.3 285.3c-2.7-.4-3.3-.9-3.3-2.8 0-2.2.3-2.4 2.6-1.5 1.4.6 5.2 1 8.4 1s7-.4 8.4-1c2.3-.8 2.6-.7 2.6 1.4 0 2-.6 2.4-4.6 3-4.8.6-8.4.6-14.1-.1zM297 278c0-2.7-.3-3-3-3-2.8 0-3-.3-3-3.5 0-4.4.9-4.4 3.8 0 1.2 1.9 3.8 4.5 5.7 5.7 4.4 2.9 4.4 3.8 0 3.8-3.2 0-3.5-.2-3.5-3z"/><path d="M89 272.4c0-1.2 3.4-6.4 4.2-6.4.4 0 .8 1.6.8 3.5 0 3.1-.3 3.5-2.5 3.5-1.4 0-2.5-.3-2.5-.6z" fill="#00b2f7"/><path fill="url(#c)" d="M285.6 264.4c-.3-.9-.6-2.9-.6-4.5 0-2.2-.5-2.9-1.9-2.9-2.1 0-3.1-1.9-3.1-6.1 0-2.2-.5-2.9-2-2.9-1.6 0-2-.7-2-3.5 0-1.9.4-3.5.8-3.5.8 0 14.2 23.1 14.2 24.4 0 1.4-4.8.5-5.4-1zM271 235.5c0-4.3 1-4.4 3.3-.6 2.2 3.8 2.2 4.1-.8 4.1-2.2 0-2.5-.4-2.5-3.5zM266 226.3l.1-3.8 2.4 2.8c3.2 3.6 3.1 4.7 0 4.7-2.2 0-2.5-.4-2.5-3.7z"/><path fill="url(#b)" d="M78.8 150.8c-2.2-2.2-2.2-2.8-.4-2.8.7 0 1.6 1 1.9 2.2.8 2.8.6 2.9-1.5.6z"/><path d="M89.2 271.5c2.9-4.4 3.8-4.4 3.8 0 0 3.2-.2 3.5-3 3.5h-3l2.2-3.5zM110 236.5c0-1.4 3.2-6.5 4-6.5.6 0 1 1.6 1 3.5 0 3.1-.3 3.5-2.5 3.5-1.4 0-2.5-.2-2.5-.5z" fill="#00c8e6"/><path fill="url(#b)" d="M2.193 166.474C.172 149.27 9.272 131.615 23.2 123.9c6.474-3.586 22.073-5.901 22.677-3.991.3.7.501 2.781 1.301 2.481 2.5-1 1.922-.39-.478 2.81-1.4 1.8-2.3 3.8-2 4.4.9 2.5-12 16.5-20.2 22-2.7 1.9-5 3.9-5 4.6 0 1.5-.78 10.549-1.58 9.349-.4-.6.891 1.125-.009 1.925-1.2.9-15.391 1.781-15.718-1z"/><path fill="url(#d)" d="M138.9 335.3c-.9-1.6-1-4.6-.4-11 .5-4.8.9-14.5 1-21.5.1-7 .4-13.1.8-13.4 1.1-1.2.8-2.4-.6-2.4-.7 0-3.9 4-7 8.8-9.6 15.1-21.5 24.2-31.4 24.2-3.4 0-4.1.3-3.7 1.5.4 1 0 1.5-1.1 1.5-.9 0-3.8 1.7-6.4 3.8-2.5 2.1-6 4.7-7.8 5.7-1.7 1-2.9 2.4-2.6 3.1.4 1 0 1.1-2 .1-1.8-.8-3.8-4.1-7.5-12.3l-12.53-30.2c18.078 2.934 41.412 1.32 41.412 1.32 7.9-1.3 1.805-6.489 9.205-3.989 8.4 2.9-2.233 9.746 4.967 4.946 2.2-1.5 5.066-1.021 6.066-1.621 1.1-.5 2.695 2.227 2.695 1.627 0-.6 3.645 2.503 4.545 1.803 2.8-2.3 3.94-6.386 20.04-33.886 8.6-14.8 19.7-33.5 24.7-41.7 8.8-14.1 9.3-14.7 12.4-14.7 3.1 0 3.3.2 3.3 3.3 0 1.7-1.2 5-2.5 7.2-1.4 2.2-2.5 5-2.5 6.2 0 1.1-1.1 4.5-2.5 7.5-1.4 2.9-2.5 6.2-2.5 7.3 0 1.1-.7 3.4-1.6 5-2.9 5.4-9.5 24.8-13.7 40-3.2 11.7-4.1 16.9-4.2 23.5l-.1 8.5-6.3 11.1c-5.2 9.1-6.7 11-8.6 11-1.4 0-2.9-.9-3.6-2.3z"/><path fill="url(#c)" d="M266.7 308.6c-5.7-4.3-12.7-13.8-21.9-29.8-10.3-18.1-13-23.4-13.4-26.9-.3-2.6 2.7-12.3 5.8-18.9 4-8.2 15.1-28 16.4-29.1 1.8-1.5 2.1-1.1 6.3 6.2 2.2 4.1 4.397 7.034 3.497 7.434-1.3.4-12.397 17.366-12.397 19.266 0 .5-1.6 4.3-3.5 8.3-1.9 4.1-3.9 10.1-4.4 13.4-.9 5.5-.8 6.4 1.7 11.5 1.5 3 3.3 6 4 6.8.6.7 1.2 2 1.2 2.7 0 1.3 5.6 3.5 8.8 3.5.6 0 1.2.4 1.2.9 0 .4 3.9 0 8.8-1 4.8-1 13.1-2.2 18.6-2.5 8.1-.6 10-1 10.3-2.4.4-1.5.68-.431 6 1.3 9.258 3.013 21.641 3.553 29.7-3.2 2.814-2.358 2.79-2.827-5.4 15.2-5.498 12.101-8 16.1-8 12.6 0-1.4-7.9-.2-16.5 2.7-10.2 3.3-18.1 4.7-23.2 3.9-2.7-.4-4.3-.3-3.9.3.3.5-.8.9-2.4 1-1.9 0-4.6-1.1-7.3-3.2z"/><path fill="url(#c)" d="M288.7 270.5c-.9-2-1.7-4.9-1.7-6.5 0-2.3-.5-3-1.9-3-2.1 0-3.1-1.9-3.1-6.1 0-2.2-.5-2.9-1.9-2.9-2.1 0-3.1-1.9-3.1-6.1 0-2.2-.5-2.9-1.9-2.9-2.1 0-3.1-1.9-3.1-6.1 0-2.2-.5-2.9-1.9-2.9-1 0-2.2-.7-2.5-1.6-.9-2.3-.7-7.4.2-7.4.5 0 6.9 11 14.4 24.5 13.4 24 13.6 24.5 10.9 24.5-2.1 0-3.1-.8-4.4-3.5z"/><path d="M111.2 234.3c3.5-7.4 4.8-8.1 4.8-2.8 0 3.1-.3 3.5-2.6 3.5-1.4 0-2.4-.3-2.2-.7z" fill="#00bff9"/><path fill="url(#c)" d="M248.2 283.8c-2.7-4.6-6.5-11.1-8.3-14.5-3.3-6-3.3-6.2-1.5-8.1 1-1.2 1.5-2.5 1.2-3-.7-1.2 2.6-11.7 5.7-17.9 1.5-2.9 2.7-5.7 2.7-6.3 0-2 10.5-22.9 11.5-22.9.6-.1 2.2 2.1 3.6 4.7 28.9 52.9 33.7 60.5 40.9 64.2 1.9 1.1 3.1 1.9 2.5 2-.5 0-.3.5.5 1.1 1.1.8.8.9-1.5.3-6.5-1.6-24.8.3-41 4.1-5.4 1.3-6.1 1.2-7.2-.2-.7-.9-1.6-1.4-1.9-1-.4.4-1.4.1-2.2-.6-1.3-1-1.4-.9-.7.3.9 1.5 1.7 6 1 6-.2 0-2.6-3.7-5.3-8.2z"/><path fill="url(#d)" d="M59.8 285.3c-2.2-.3-2.8-1-2.8-2.8 0-2.2.2-2.3 3-1.3 1.7.5 6.2.8 9.9.6 5.6-.3 7.8-1 12-3.5l5.1-3.2v2.9c0 2-.5 3-1.5 3-.8 0-1.5.4-1.5 1 0 2.6-15 4.7-24.2 3.3z"/><path fill="url(#c)" d="M309.9 284.1c.7-.5.9-1.1.5-1.3-.5-.3-.3-.3.4-.1.8.1 2 .3 2.8.3.8 0 1.4.5 1.4 1 0 .6-1.5 1-3.2 1-2.3 0-2.9-.3-1.9-.9z"/><path fill="url(#a)" d="M372.5 187.1c1.1-1.9-2.3-2.5-14.5-2.7-10.6-.1-13.7-.5-20.7-2.8-10.3-3.3-21-10.4-29.1-19.1l-6-6.5-2.1 2.7-2.92 4.763 1.72-4.563c3.3-9.2 10.4-22.4 14.6-26.8 8.9-9.5 22.9-14.3 35.3-12.1 21.9 3.8 37.2 24.7 33.3 45.7-1.3 7-5.8 18.3-7.3 18.3-.6 0-.8.6-.5 1.4.3.8-.1 1.7-.9 2-.8.3-1.2.2-.9-.3z"/><path fill="url(#d)" d="M114 301.9c-2.5-.4-11.9-1.1-21-1.4-9.1-.3-19.4-1.1-23-1.8-3.6-.6-7-1-7.7-.9-.7.2-1.7-.7-2.3-1.9-.7-1.1 1.432 4.803 1.009 4.774-.71-.049-11.283-24.012-11.85-25.026-.049-.087 2.341.952 5.341 2.852 7.1 4.2 13.6 5.2 20.8 3.1 9.1-2.6 12.9-7.2 27.4-32.6 14.7-26 16.3-28.2 16.3-22.6 0 3.7-1 5.6-3.1 5.6-1.5 0-1.9.7-1.9 3.5 0 2.4-.5 3.5-1.5 3.5-.8 0-1.5.9-1.5 1.9 0 3-1.1 5.1-2.6 5.1-.8 0-1.4.9-1.4 1.9 0 3-1.1 5.1-2.6 5.1-.8 0-1.4.9-1.4 1.9 0 3-1.1 5.1-2.6 5.1-.8 0-1.4 1-1.4 2.4 0 2.2.4 2.4 8.8 3 4.8.4 13 1.3 18.2 2.1 5.3.8 11.3 1.2 13.3.8 3.4-.5 4.1-1.2 9.8-11.2 3.4-5.8 6.5-10.8 6.9-11.1.4-.3 1-1.5 1.4-2.7.4-1.3 1.2-2.3 1.7-2.3s.9-.6.9-1.4c0-.8.6-2.1 1.4-2.8.7-.8 1.7-2.4 2-3.6.4-1.2 1.2-2.2 1.7-2.2s.9-.6.9-1.4c0-.8.6-2.1 1.4-2.8.7-.8 1.7-2.4 2-3.6.4-1.2 1.2-2.2 1.7-2.2s.9-.7.9-1.5.5-1.5 1-1.5c.6 0 1-.6 1-1.4 0-.8.6-2.1 1.3-2.8.6-.7 2-3 3.1-5 1-2 2.7-4.6 3.7-5.7 1.1-1.1 1.9-2.5 1.9-3.1 0-.5.5-1 1-1 .6 0 1-.7 1-1.5s.5-1.5 1-1.5c.6 0 1-.7 1-1.5s.5-1.5 1-1.5c.6 0 1-.7 1-1.5s.5-1.5 1-1.5c.6 0 1-.7 1-1.5 0-.9.7-1.8 1.5-2.1.8-.4 1.5-1.2 1.5-2s.5-1.4 1-1.4c.6 0 1-.7 1-1.5 0-.9.7-1.8 1.5-2.1.8-.4 1.5-1.2 1.5-2s.5-1.4 1-1.4c.6 0 1-.6 1-1.4 0-.8.8-2.1 1.8-2.8.9-.7 2.3-2.4 3-3.8 3.1-5.8 7.2-9 11.7-9 2.4 0 3.3.6 4.3 2.9 1.8 4.1 6.4 6.1 11 4.9 2.1-.5 5.6-1.2 8-1.5 4.1-.6 4.2-.5 4.2 2.4 0 1.7-1.324 4.513-2.124 5.113-2.3 1.9-20.176 26.887-26.576 37.187-3.3 5.2-10.3 17.2-15.5 26.5-25.9 46.3-46.146 83.429-47.546 83.429-.4 0-7.699-24.627-7.199-25.827.5-1.3 7.244-8.291 6.844-9.391-.7-1.9-10.432 4.116-8.432 1.516.8-.9 14.088-25.466 14.788-28.566.7-2.9 10.514-26.15 17.314-38.65C181.769 211.111 204 204.6 204 204c0-.5.5-1 1-1 .6 0 1-.9 1-2s.4-2 .9-2c1.1 0 8.1-14.2 8.1-16.4 0-.9.5-1.6 1.1-1.6.6 0 .8-.9.4-2s-.2-2 .4-2c.6 0 1.1-.9 1.1-2.1 0-3.3 7.107 1.841 8.997 2.568 1.3.5.956 34.592-4.334 1.02-.275-1.748-5.421 4.899-5.821 3.799-.5-1.5 10.598.758 5.598 6.858C207.34 207.545 179 215 152 261.5c-20.5 35.2-23.6 39.8-26.1 39.2-1-.3-1.9-.1-1.9.5 0 .5-.4.6-1 .3-.5-.3-1-.1-1 .4 0 1.2-1.5 1.2-8 0z"/><path fill="url(#e)" d="M113.7 158.9c-4.7-2.5-10.5-8.3-13.5-13.8-.226.149-3.021-6.353-2.641-6.603L109.3 141h11.4l-.8 4.8c-.4 2.6-.8 7.1-.8 10-.1 2.8-.4 5.2-.8 5.2-.5-.1-2.5-1-4.6-2.1z"/><path fill="url(#d)" d="M86.1 275.8c1.9-1.9 9.1-13.3 16-25.4 27.7-48.1 49.5-85.3 54.2-92.4 5.5-8.3 24.6-27.9 31.9-32.9l7.811-4.734L193 124.7c0 1.6-1.6 5.8-3.5 9.4-4 7.7-6.8 18.3-5.9 23 1 5 4.2 10.4 7.5 12.3 2.9 1.7 3.1 1.7 9.2-1.3 7.7-3.8 9.8-5.1 11.5-7.3.8-1.1 2.6-1.8 4.8-1.8 3.2 0 3.4.2 3.3 3.3-.1 1.7-.3 2.4-.6 1.4-.2-.9-.8-1.7-1.2-1.7-4.1 0-29.9 37.8-56.6 82.5-17.1 28.8-20.4 34.1-19 30.3 1-2.5-.3-4.2-2-2.8-1.1.9-3.7.8-10.7-.4-10.3-1.7-25.8-3.6-30.1-3.6-1.9 0-3.9 1.2-6.7 4.3-2.2 2.3-4.3 4.2-4.8 4.2-.4.1-1.8.7-3.1 1.4-1.9 1-1.6.6 1-2.1zM199 239c1.1-2.2 2.3-4 2.5-4 .3 0-.4 1.8-1.5 4s-2.3 4-2.5 4c-.3 0 .4-1.8 1.5-4zM204 230c1.1-2.2 2.3-4 2.5-4 .3 0-.4 1.8-1.5 4s-2.3 4-2.5 4c-.3 0 .4-1.8 1.5-4zM208.1 222.8c2.3-4.3 12.3-20.3 15.6-24.9 1.8-2.6 3.3-4.9 3.3-5.3 0-.4 1.8-3.1 4-6s4-6.1 4-7c0-.9.5-1.4 1-1.1.9.6 1.4-1 1.3-4.2-.1-.7.4-1.3.9-1.3 1.4 0 3.8-2.7 3.1-3.4-1-1-2.5-.7-1.8.4.4.6-.6.7-2.6.3-2.2-.4-3-.3-2.6.5.5.6 0 .8-1.3.5-2.6-.7-2.6-3.3 0-3.3 1.1 0 2-.4 2-1 0-.5.5-1 1.1-1 .6 0 3.7-1.2 6.9-2.6 3.2-1.4 14.838-7.011 15.374-7.632 1.501-1.738 14.447-13.873-8.076 9.514-.927.963-9.988 12.008-11.162 13.29-3.702 4.045.04-1-.036-.772-.1.4-3 4.5-6.5 9.2-7.4 10-14.6 20.6-20.5 30.8-2.4 3.9-4.5 7.2-4.7 7.2-.3 0 .1-1 .7-2.2z"/><path fill="url(#e)" d="M118.3 145.7c.6-1.6-8.9-2.2-10.9-.6-1.1.9-1.4.8-1.4-.2 0-1.1-.2-1.1-.8-.2-.7 1-1.4 1-3.5 0-3.4-1.5-6.041-8.407-5.7-16.8.562-13.82 10.158-21.837 16.538-22.402 4.647-.412 8.713-.04 11.71 3.311 2.997 3.351 3.85 4.597 3.752 9.191-.077 3.599-.9 7.1-2.9 11.5-1.6 3.5-3.5 8.8-4.3 11.9-.7 3.1-1.7 5.6-2.1 5.6-.5 0-.7-.6-.4-1.3z"/><path fill="url(#f)" d="M150.2 125.8c-2.4-2.9-4.5-13.6-4.5-22.8-.1-10.4 1.4-18.8 4.6-26.5 2.4-5.9 10.4-18.5 11.8-18.5.5 0 .9 1.6.9 3.5 0 2.9-.4 3.5-2.2 3.5-1.7 0-1.9.3-1 1.2.7.7 1.2 2 1.2 3 0 4.5 20 13.9 33.4 15.7 7.6 1.1 8 1 12.2-1.4 2.3-1.4 5.6-2.5 7.3-2.5 2.9 0 3.1-.3 3.1-3.5 0-2.3.5-3.5 1.4-3.5.7 0 1.6-1.3 2-3 .5-2.5 1-3 3.6-3 1.6 0 .652-10.304.652-9.804 4.381-.534-2.291 17.922-12.679 24.711-1.2.5 5.431-1.346 5.231-.346-.7 2.4-11.704 9.639-21.004 13.439-20.4 8.5-35.7 18.6-41.2 27.5-2.3 3.8-3.2 4.2-4.8 2.3z"/><path d="M219 163.5c0-1.8-2.1-2-3.8-.3-.9.9-1.2.5-1.2-2 0-3 .2-3.2 3.5-3.2s3.5.2 3.5 3.5c0 1.9-.4 3.5-1 3.5-.5 0-1-.7-1-1.5z" fill="#59e9fe"/><path fill="url(#f)" d="M193.5 88.3c-4.9-.7-12.1-2.4-16-3.8-9.6-3.5-19.2-9.7-19.7-12.7-.2-1.3-.8-2.3-1.5-2.3-.6 0-1.623 2.139-2.023 1.739-.393-.497.221-3.109.623-3.239.402-.13.812-.46.7-.9-.112-.44 1.012-1.968 1.9-3.5 1.029-1.775 2.225-3.209 2.5-3.5.814-.862 3.6-4.1 5.4-4.1 1 0 3.7 1.4 6.2 3.1 7.1 4.8 16.7 8.9 23.6 10 5.5.9 7.5.7 16.1-1.6 5.3-1.4 10.8-2.5 12.2-2.5 2.2 0 2.5.4 2.5 3.6 0 2.1-.4 3.3-1 2.9-.5-.3-1-.3-1.1.2 0 .4-.2 1.8-.3 3.1-.2 1.3-2.7 4.7-5.6 7.5-2.9 2.9-5 4.4-4.6 3.4.6-1.7.4-1.7-2.7.2-5.6 3.5-7.7 3.8-17.2 2.4z"/><path fill="url(#g)" d="M262.5 61c-11.1-5.5-13.162-21.556-3.2-29.1 3.214-2.434 11.586-5.352 14.044-3.336 2.5 2.6 1.757 4.008 7.957 3.708-.021-.173 4.756 3.522 5.199 7.128 5.7 14.9-9.7 28.7-24 21.6z"/><path fill="url(#f)" d="M190.7 72c-5.6-1-15.7-5.5-22.3-10.1-3.9-2.7-5-3-6.5-2-4 2.4-1.6-1 4.4-6.4 8.6-7.8 20.1-13.4 29.3-14.2 17.9-1.5 29.076 9.237 31.219 24.285.466 3.27-1.935 11.415-3.929 12.631-1.994 1.216-1.735-.572-1.735-1.172 0-.5 1.226-2.522.726-1.722-.8 1.2 1.119-.422 1.119-2.422v-2.6l-9.1 2.3c-9.4 2.5-14.8 2.8-23.2 1.4z"/><path fill="url(#g)" d="M284.6 39.3c-.4-.5-4.3-.8-8.6-.8-7.1 0-8-.2-10.5-2.7-1.5-1.6-3.7-2.8-4.8-2.8-3 0-.4-2.6 4.1-4.1 4.9-1.6 8.3-1.4 12.9.9 4.5 2.4 7.2 5.1 7.8 8.1.4 2.3.3 2.5-.9 1.4z"/><path fill="url(#h)" d="M222.2 168c-1.3-1.2-2.8-3.3-3.3-4.7-.8-2.1-5.777.417-6.977 1.417-1.3 1.1 3.077-1.917 3.077-4.317 0-2.3 2-5.1 9.2-12.8 12.5-13.4 17.9-17.6 22.8-17.6 3.5 0 3.8.2 4.4 3.8 1.5 9.2-.4 22.1-3.8 25.5-.8.7-1.2 2.5-.9 3.8.4 2.2-.1 2.8-3.9 4.3-2.4 1-7.4 2-11.3 2.3-6.2.4-7.3.2-9.3-1.7z"/><path fill="url(#h)" d="M243.6 165.8c.5-.7.2-.9-.9-.5-1 .4-1.4.2-1.2-.6.3-.7.7-2.4.9-4 .3-1.5 1.2-3.4 2-4.3 3.3-3.3 6-17.4 3.5-19-.6-.3-.9-1.5-.6-2.5.3-1.1.1-1.9-.3-1.9-1.8 0-11 8.2-19.8 17.6l-9.2 9.9v-3.6c0-4.1 1.5-5.9 4.7-5.9 1.8 0 2.3-.5 2.3-2.8 0-2 1.4-4.2 5.3-8 2.9-2.9 5.5-5.2 5.8-5.2.3 0 2.6-1.9 5.1-4.2 9.6-8.9 23.1-15.1 35.6-16.3 6.7-.7 7.2-.6 9.6 1.8 2.9 2.9 4.1 6.6 3.2 10.1-.3 1.4-4.3 5.8-8.8 9.8-4.6 4-13 11.9-18.8 17.5-5.9 5.7-12.2 10.8-14.4 11.7-4.6 1.9-4.9 1.9-4 .4z"/><path fill="url(#h)" d="M190.1 173.1c-4.1-1.1-8.1-7.2-9-13.5-1.5-11.3 2.9-26.6 10.3-35.4 5.4-6.3 26-16.2 40.7-19.6 21.4-4.9 40.8-1.8 51.2 8.2 4.5 4.3 6.7 8.1 6.7 11.6 0 2.6-2.3 5.6-4.3 5.6-.7-.1-.2-.9 1.1-1.9 2.7-2.4 2.8-5.1.2-8.1-1.6-1.9-2.9-2.3-7.5-2.2-15.8.1-35 12.4-54.7 34.9-9.8 11.1-18.2 17.7-25.6 19.9-4.9 1.5-5.5 1.5-9.1.5z"/></svg>